%TF.GenerationSoftware,KiCad,Pcbnew,9.0.7*%
%TF.CreationDate,2026-03-15T17:11:15+02:00*%
%TF.ProjectId,FilaBoss_control_PCB,46696c61-426f-4737-935f-636f6e74726f,rev?*%
%TF.SameCoordinates,Original*%
%TF.FileFunction,Copper,L2,Bot*%
%TF.FilePolarity,Positive*%
%FSLAX46Y46*%
G04 Gerber Fmt 4.6, Leading zero omitted, Abs format (unit mm)*
G04 Created by KiCad (PCBNEW 9.0.7) date 2026-03-15 17:11:15*
%MOMM*%
%LPD*%
G01*
G04 APERTURE LIST*
G04 Aperture macros list*
%AMRoundRect*
0 Rectangle with rounded corners*
0 $1 Rounding radius*
0 $2 $3 $4 $5 $6 $7 $8 $9 X,Y pos of 4 corners*
0 Add a 4 corners polygon primitive as box body*
4,1,4,$2,$3,$4,$5,$6,$7,$8,$9,$2,$3,0*
0 Add four circle primitives for the rounded corners*
1,1,$1+$1,$2,$3*
1,1,$1+$1,$4,$5*
1,1,$1+$1,$6,$7*
1,1,$1+$1,$8,$9*
0 Add four rect primitives between the rounded corners*
20,1,$1+$1,$2,$3,$4,$5,0*
20,1,$1+$1,$4,$5,$6,$7,0*
20,1,$1+$1,$6,$7,$8,$9,0*
20,1,$1+$1,$8,$9,$2,$3,0*%
G04 Aperture macros list end*
%TA.AperFunction,ComponentPad*%
%ADD10C,1.524000*%
%TD*%
%TA.AperFunction,ComponentPad*%
%ADD11R,2.000000X1.905000*%
%TD*%
%TA.AperFunction,ComponentPad*%
%ADD12O,2.000000X1.905000*%
%TD*%
%TA.AperFunction,ComponentPad*%
%ADD13C,1.700000*%
%TD*%
%TA.AperFunction,ComponentPad*%
%ADD14O,1.700000X1.700000*%
%TD*%
%TA.AperFunction,ComponentPad*%
%ADD15RoundRect,0.250000X-0.650000X0.650000X-0.650000X-0.650000X0.650000X-0.650000X0.650000X0.650000X0*%
%TD*%
%TA.AperFunction,ComponentPad*%
%ADD16C,1.800000*%
%TD*%
%TA.AperFunction,ComponentPad*%
%ADD17C,1.600000*%
%TD*%
%TA.AperFunction,ComponentPad*%
%ADD18C,2.000000*%
%TD*%
%TA.AperFunction,ComponentPad*%
%ADD19R,2.400000X2.400000*%
%TD*%
%TA.AperFunction,ComponentPad*%
%ADD20C,2.400000*%
%TD*%
%TA.AperFunction,ComponentPad*%
%ADD21RoundRect,0.250000X0.750000X0.750000X-0.750000X0.750000X-0.750000X-0.750000X0.750000X-0.750000X0*%
%TD*%
%TA.AperFunction,ComponentPad*%
%ADD22RoundRect,0.500000X-1.350000X0.500000X-1.350000X-0.500000X1.350000X-0.500000X1.350000X0.500000X0*%
%TD*%
%TA.AperFunction,ComponentPad*%
%ADD23RoundRect,0.500000X-0.900000X0.500000X-0.900000X-0.500000X0.900000X-0.500000X0.900000X0.500000X0*%
%TD*%
%TA.AperFunction,ComponentPad*%
%ADD24O,2.800000X2.000000*%
%TD*%
%TA.AperFunction,ComponentPad*%
%ADD25O,3.700000X2.000000*%
%TD*%
%TA.AperFunction,ComponentPad*%
%ADD26O,4.000000X2.000000*%
%TD*%
%TA.AperFunction,ComponentPad*%
%ADD27O,2.000000X4.000000*%
%TD*%
%TA.AperFunction,ComponentPad*%
%ADD28O,4.600000X2.300000*%
%TD*%
%TA.AperFunction,ComponentPad*%
%ADD29R,1.600000X1.600000*%
%TD*%
%TA.AperFunction,ComponentPad*%
%ADD30O,1.600000X1.600000*%
%TD*%
%TA.AperFunction,ViaPad*%
%ADD31C,2.000000*%
%TD*%
G04 APERTURE END LIST*
D10*
%TO.P,U1,0,ADC1-0*%
%TO.N,Net-(A1-DIR)*%
X96520000Y-111760000D03*
%TO.P,U1,1,ADC1-1*%
%TO.N,Net-(A1-STEP)*%
X99060000Y-111760000D03*
%TO.P,U1,2,D0/A0*%
%TO.N,Net-(J1-Pin_2)*%
X101600000Y-111760000D03*
%TO.P,U1,3,D1/A1*%
%TO.N,Net-(J1-Pin_1)*%
X104140000Y-111760000D03*
%TO.P,U1,4,D2/A2*%
%TO.N,Net-(U1-D2{slash}A2)*%
X106680000Y-111760000D03*
%TO.P,U1,5,D3/A3*%
%TO.N,Net-(U1-D3{slash}A3)*%
X114300000Y-96520000D03*
%TO.P,U1,6,D4/SDA*%
%TO.N,Net-(J6-Pin_4)*%
X111760000Y-96520000D03*
%TO.P,U1,7,D5/SCL*%
%TO.N,Net-(J6-Pin_3)*%
X109220000Y-96520000D03*
%TO.P,U1,8,D8/SCK*%
%TO.N,Net-(J9-Pin_1)*%
X106680000Y-96520000D03*
%TO.P,U1,9,D9/MISO*%
%TO.N,Net-(J9-Pin_2)*%
X104140000Y-96520000D03*
%TO.P,U1,10,D10/MOSI*%
%TO.N,Net-(J9-Pin_3)*%
X101600000Y-96520000D03*
%TO.P,U1,11,3V3*%
%TO.N,+3.3V*%
X109220000Y-111760000D03*
%TO.P,U1,12,GND*%
%TO.N,GND*%
X111760000Y-111760000D03*
%TO.P,U1,13,5V*%
%TO.N,+5V*%
X114300000Y-111760000D03*
%TO.P,U1,20,D7/RX*%
%TO.N,Net-(U1-D7{slash}RX)*%
X99060000Y-96520000D03*
%TO.P,U1,21,D6/TX*%
%TO.N,Net-(U1-D6{slash}TX)*%
X96520000Y-96520000D03*
%TD*%
D11*
%TO.P,Q1,1,G*%
%TO.N,Net-(Q1-G)*%
X58420000Y-106680000D03*
D12*
%TO.P,Q1,2,D*%
%TO.N,Net-(D2-A)*%
X58420000Y-104140000D03*
%TO.P,Q1,3,S*%
%TO.N,GND*%
X58420000Y-101600000D03*
%TD*%
D13*
%TO.P,J6,1,Pin_1*%
%TO.N,+3.3V*%
X86360000Y-91440000D03*
D14*
%TO.P,J6,2,Pin_2*%
%TO.N,GND*%
X83820000Y-91440000D03*
%TO.P,J6,3,Pin_3*%
%TO.N,Net-(J6-Pin_3)*%
X81280000Y-91440000D03*
%TO.P,J6,4,Pin_4*%
%TO.N,Net-(J6-Pin_4)*%
X78740000Y-91440000D03*
%TO.P,J6,5,Pin_5*%
%TO.N,Net-(D1-K)*%
X76200000Y-91440000D03*
%TO.P,J6,6,Pin_6*%
%TO.N,+24V*%
X73660000Y-91440000D03*
%TD*%
D15*
%TO.P,D2,1,K*%
%TO.N,+24V*%
X53340000Y-99060000D03*
D16*
%TO.P,D2,2,A*%
%TO.N,Net-(D2-A)*%
X53340000Y-109220000D03*
%TD*%
D17*
%TO.P,C3,1*%
%TO.N,+5V*%
X114140000Y-106680000D03*
D18*
%TO.P,C3,2*%
%TO.N,GND*%
X104140000Y-106680000D03*
%TD*%
D17*
%TO.P,R2,1*%
%TO.N,Net-(Q2-G)*%
X73660000Y-101670000D03*
D18*
%TO.P,R2,2*%
%TO.N,GND*%
X83820000Y-101670000D03*
%TD*%
D11*
%TO.P,U2,1,VI*%
%TO.N,+24V*%
X71120000Y-127000000D03*
D12*
%TO.P,U2,2,GND*%
%TO.N,GND*%
X71120000Y-124460000D03*
%TO.P,U2,3,VO*%
%TO.N,+5V*%
X71120000Y-121920000D03*
%TD*%
D19*
%TO.P,L1,1,1*%
%TO.N,VDC*%
X50717500Y-127000000D03*
D20*
%TO.P,L1,2,2*%
%TO.N,+24V*%
X63717500Y-127000000D03*
%TD*%
D21*
%TO.P,J3,1,Pin_1*%
%TO.N,Net-(D2-A)*%
X55880000Y-93980000D03*
D18*
%TO.P,J3,2,Pin_2*%
%TO.N,+24V*%
X53340000Y-93980000D03*
%TD*%
D17*
%TO.P,R1,1*%
%TO.N,Net-(Q2-G)*%
X78740000Y-96520000D03*
%TO.P,R1,2*%
%TO.N,Net-(U1-D3{slash}A3)*%
X88900000Y-96520000D03*
%TD*%
%TO.P,J9,1,Pin_1*%
%TO.N,Net-(J9-Pin_1)*%
X111410000Y-91440000D03*
%TO.P,J9,2,Pin_2*%
%TO.N,Net-(J9-Pin_2)*%
X109410000Y-91440000D03*
%TO.P,J9,3,Pin_3*%
%TO.N,Net-(J9-Pin_3)*%
X107410000Y-91440000D03*
%TO.P,J9,4,Pin_4*%
%TO.N,GND*%
X105410000Y-91440000D03*
%TD*%
%TO.P,R3,1*%
%TO.N,Net-(Q1-G)*%
X73660000Y-106680000D03*
%TO.P,R3,2*%
%TO.N,GND*%
X83820000Y-106680000D03*
%TD*%
%TO.P,R4,1*%
%TO.N,Net-(Q1-G)*%
X78740000Y-111760000D03*
%TO.P,R4,2*%
%TO.N,Net-(U1-D2{slash}A2)*%
X88900000Y-111760000D03*
%TD*%
%TO.P,J7,1,Pin_1*%
%TO.N,Net-(A1-1B)*%
X101600000Y-135890000D03*
%TO.P,J7,2,Pin_2*%
%TO.N,Net-(A1-1A)*%
X103600000Y-135890000D03*
%TO.P,J7,3,Pin_3*%
%TO.N,Net-(A1-2A)*%
X105600000Y-135890000D03*
%TO.P,J7,4,Pin_4*%
%TO.N,Net-(A1-2B)*%
X107600000Y-135890000D03*
%TD*%
%TO.P,J1,1,Pin_1*%
%TO.N,Net-(J1-Pin_1)*%
X85900000Y-133900000D03*
%TO.P,J1,2,Pin_2*%
%TO.N,Net-(J1-Pin_2)*%
X87900000Y-133900000D03*
%TO.P,J1,3,Pin_3*%
%TO.N,+3.3V*%
X89900000Y-133900000D03*
%TO.P,J1,4,Pin_4*%
%TO.N,GND*%
X91900000Y-133900000D03*
%TD*%
%TO.P,C2,1*%
%TO.N,+24V*%
X76280000Y-127000000D03*
D18*
%TO.P,C2,2*%
%TO.N,GND*%
X86280000Y-127000000D03*
%TD*%
D22*
%TO.P,F1,1*%
%TO.N,LINE*%
X43180000Y-112110000D03*
D23*
X43180000Y-119380000D03*
D24*
%TO.P,F1,2*%
%TO.N,VDC*%
X43180000Y-128460000D03*
D25*
X43180000Y-135730000D03*
%TD*%
D11*
%TO.P,Q2,1,G*%
%TO.N,Net-(Q2-G)*%
X63500000Y-106680000D03*
D12*
%TO.P,Q2,2,D*%
%TO.N,Net-(D1-A)*%
X63500000Y-104140000D03*
%TO.P,Q2,3,S*%
%TO.N,GND*%
X63500000Y-101600000D03*
%TD*%
D17*
%TO.P,C1,1*%
%TO.N,+5V*%
X76280000Y-121920000D03*
%TO.P,C1,2*%
%TO.N,GND*%
X86280000Y-121920000D03*
%TD*%
D26*
%TO.P,J5,GND,GND*%
%TO.N,GND*%
X45720000Y-96520000D03*
D27*
%TO.P,J5,GNDBREAK,GNDBREAK*%
%TO.N,unconnected-(J5-PadGNDBREAK)*%
X41021000Y-99568000D03*
D28*
%TO.P,J5,PWR,PWR*%
%TO.N,LINE*%
X45720000Y-102489000D03*
%TD*%
D21*
%TO.P,J2,1,Pin_1*%
%TO.N,Net-(D1-A)*%
X63500000Y-93980000D03*
D18*
%TO.P,J2,2,Pin_2*%
%TO.N,Net-(D1-K)*%
X60960000Y-93980000D03*
%TD*%
D29*
%TO.P,A1,1,GND*%
%TO.N,GND*%
X96520000Y-129540000D03*
D30*
%TO.P,A1,2,VDD*%
%TO.N,+3.3V*%
X99060000Y-129540000D03*
%TO.P,A1,3,1B*%
%TO.N,Net-(A1-1B)*%
X101600000Y-129540000D03*
%TO.P,A1,4,1A*%
%TO.N,Net-(A1-1A)*%
X104140000Y-129540000D03*
%TO.P,A1,5,2A*%
%TO.N,Net-(A1-2A)*%
X106680000Y-129540000D03*
%TO.P,A1,6,2B*%
%TO.N,Net-(A1-2B)*%
X109220000Y-129540000D03*
%TO.P,A1,7,GND*%
%TO.N,GND*%
X111760000Y-129540000D03*
%TO.P,A1,8,VMOT*%
%TO.N,+24V*%
X114300000Y-129540000D03*
%TO.P,A1,9,~{ENABLE}*%
%TO.N,GND*%
X114300000Y-116840000D03*
%TO.P,A1,10,MS1*%
%TO.N,+3.3V*%
X111760000Y-116840000D03*
%TO.P,A1,11,MS2*%
X109220000Y-116840000D03*
%TO.P,A1,12,MS3*%
X106680000Y-116840000D03*
%TO.P,A1,13,~{RESET}*%
X104140000Y-116840000D03*
%TO.P,A1,14,~{SLEEP}*%
X101600000Y-116840000D03*
%TO.P,A1,15,STEP*%
%TO.N,Net-(A1-STEP)*%
X99060000Y-116840000D03*
%TO.P,A1,16,DIR*%
%TO.N,Net-(A1-DIR)*%
X96520000Y-116840000D03*
%TD*%
D17*
%TO.P,J8,1,1*%
%TO.N,GND*%
X96520000Y-91440000D03*
%TO.P,J8,2,2*%
%TO.N,Net-(U1-D7{slash}RX)*%
X94520000Y-91440000D03*
%TO.P,J8,3,3*%
%TO.N,Net-(U1-D6{slash}TX)*%
X92520000Y-91440000D03*
%TD*%
D15*
%TO.P,D1,1,K*%
%TO.N,Net-(D1-K)*%
X68580000Y-93980000D03*
D16*
%TO.P,D1,2,A*%
%TO.N,Net-(D1-A)*%
X68580000Y-104140000D03*
%TD*%
D31*
%TO.N,GND*%
X101600000Y-91440000D03*
X60960000Y-99060000D03*
X111760000Y-121920000D03*
X39600000Y-92710000D03*
%TD*%
%TA.AperFunction,Conductor*%
%TO.N,GND*%
G36*
X118822539Y-86880185D02*
G01*
X118868294Y-86932989D01*
X118879500Y-86984500D01*
X118879500Y-139075500D01*
X118859815Y-139142539D01*
X118807011Y-139188294D01*
X118755500Y-139199500D01*
X38724500Y-139199500D01*
X38657461Y-139179815D01*
X38611706Y-139127011D01*
X38600500Y-139075500D01*
X38600500Y-135611902D01*
X40829500Y-135611902D01*
X40829500Y-135848097D01*
X40866446Y-136081368D01*
X40939433Y-136305996D01*
X40981838Y-136389219D01*
X41046657Y-136516433D01*
X41185483Y-136707510D01*
X41352490Y-136874517D01*
X41543567Y-137013343D01*
X41642991Y-137064002D01*
X41754003Y-137120566D01*
X41754005Y-137120566D01*
X41754008Y-137120568D01*
X41870680Y-137158477D01*
X41978631Y-137193553D01*
X42211903Y-137230500D01*
X42211908Y-137230500D01*
X44148097Y-137230500D01*
X44381368Y-137193553D01*
X44390764Y-137190500D01*
X44605992Y-137120568D01*
X44816433Y-137013343D01*
X45007510Y-136874517D01*
X45174517Y-136707510D01*
X45313343Y-136516433D01*
X45420568Y-136305992D01*
X45493553Y-136081368D01*
X45507652Y-135992351D01*
X45530500Y-135848097D01*
X45530500Y-135787648D01*
X100299500Y-135787648D01*
X100299500Y-135992351D01*
X100331522Y-136194534D01*
X100394781Y-136389223D01*
X100487715Y-136571613D01*
X100608028Y-136737213D01*
X100752786Y-136881971D01*
X100907749Y-136994556D01*
X100918390Y-137002287D01*
X101034607Y-137061503D01*
X101100776Y-137095218D01*
X101100778Y-137095218D01*
X101100781Y-137095220D01*
X101178788Y-137120566D01*
X101295465Y-137158477D01*
X101396557Y-137174488D01*
X101497648Y-137190500D01*
X101497649Y-137190500D01*
X101702351Y-137190500D01*
X101702352Y-137190500D01*
X101904534Y-137158477D01*
X102099219Y-137095220D01*
X102281610Y-137002287D01*
X102374590Y-136934732D01*
X102447213Y-136881971D01*
X102447215Y-136881968D01*
X102447219Y-136881966D01*
X102512319Y-136816866D01*
X102573642Y-136783381D01*
X102643334Y-136788365D01*
X102687681Y-136816866D01*
X102752786Y-136881971D01*
X102907749Y-136994556D01*
X102918390Y-137002287D01*
X103034607Y-137061503D01*
X103100776Y-137095218D01*
X103100778Y-137095218D01*
X103100781Y-137095220D01*
X103178788Y-137120566D01*
X103295465Y-137158477D01*
X103396557Y-137174488D01*
X103497648Y-137190500D01*
X103497649Y-137190500D01*
X103702351Y-137190500D01*
X103702352Y-137190500D01*
X103904534Y-137158477D01*
X104099219Y-137095220D01*
X104281610Y-137002287D01*
X104374590Y-136934732D01*
X104447213Y-136881971D01*
X104447215Y-136881968D01*
X104447219Y-136881966D01*
X104512319Y-136816866D01*
X104573642Y-136783381D01*
X104643334Y-136788365D01*
X104687681Y-136816866D01*
X104752786Y-136881971D01*
X104907749Y-136994556D01*
X104918390Y-137002287D01*
X105034607Y-137061503D01*
X105100776Y-137095218D01*
X105100778Y-137095218D01*
X105100781Y-137095220D01*
X105178788Y-137120566D01*
X105295465Y-137158477D01*
X105396557Y-137174488D01*
X105497648Y-137190500D01*
X105497649Y-137190500D01*
X105702351Y-137190500D01*
X105702352Y-137190500D01*
X105904534Y-137158477D01*
X106099219Y-137095220D01*
X106281610Y-137002287D01*
X106374590Y-136934732D01*
X106447213Y-136881971D01*
X106447215Y-136881968D01*
X106447219Y-136881966D01*
X106512319Y-136816866D01*
X106573642Y-136783381D01*
X106643334Y-136788365D01*
X106687681Y-136816866D01*
X106752786Y-136881971D01*
X106907749Y-136994556D01*
X106918390Y-137002287D01*
X107034607Y-137061503D01*
X107100776Y-137095218D01*
X107100778Y-137095218D01*
X107100781Y-137095220D01*
X107178788Y-137120566D01*
X107295465Y-137158477D01*
X107396557Y-137174488D01*
X107497648Y-137190500D01*
X107497649Y-137190500D01*
X107702351Y-137190500D01*
X107702352Y-137190500D01*
X107904534Y-137158477D01*
X108099219Y-137095220D01*
X108281610Y-137002287D01*
X108374590Y-136934732D01*
X108447213Y-136881971D01*
X108447215Y-136881968D01*
X108447219Y-136881966D01*
X108591966Y-136737219D01*
X108591968Y-136737215D01*
X108591971Y-136737213D01*
X108644732Y-136664590D01*
X108712287Y-136571610D01*
X108805220Y-136389219D01*
X108868477Y-136194534D01*
X108900500Y-135992352D01*
X108900500Y-135787648D01*
X108868477Y-135585466D01*
X108805220Y-135390781D01*
X108805218Y-135390778D01*
X108805218Y-135390776D01*
X108771503Y-135324607D01*
X108712287Y-135208390D01*
X108682935Y-135167990D01*
X108591971Y-135042786D01*
X108447213Y-134898028D01*
X108281613Y-134777715D01*
X108281612Y-134777714D01*
X108281610Y-134777713D01*
X108221758Y-134747217D01*
X108099223Y-134684781D01*
X107904534Y-134621522D01*
X107729995Y-134593878D01*
X107702352Y-134589500D01*
X107497648Y-134589500D01*
X107473329Y-134593351D01*
X107295465Y-134621522D01*
X107100776Y-134684781D01*
X106918386Y-134777715D01*
X106752786Y-134898028D01*
X106752782Y-134898032D01*
X106687681Y-134963134D01*
X106626358Y-134996619D01*
X106556666Y-134991635D01*
X106512319Y-134963134D01*
X106447213Y-134898028D01*
X106281613Y-134777715D01*
X106281612Y-134777714D01*
X106281610Y-134777713D01*
X106221758Y-134747217D01*
X106099223Y-134684781D01*
X105904534Y-134621522D01*
X105729995Y-134593878D01*
X105702352Y-134589500D01*
X105497648Y-134589500D01*
X105473329Y-134593351D01*
X105295465Y-134621522D01*
X105100776Y-134684781D01*
X104918386Y-134777715D01*
X104752786Y-134898028D01*
X104752782Y-134898032D01*
X104687681Y-134963134D01*
X104626358Y-134996619D01*
X104556666Y-134991635D01*
X104512319Y-134963134D01*
X104447213Y-134898028D01*
X104281613Y-134777715D01*
X104281612Y-134777714D01*
X104281610Y-134777713D01*
X104221758Y-134747217D01*
X104099223Y-134684781D01*
X103904534Y-134621522D01*
X103729995Y-134593878D01*
X103702352Y-134589500D01*
X103497648Y-134589500D01*
X103473329Y-134593351D01*
X103295465Y-134621522D01*
X103100776Y-134684781D01*
X102918386Y-134777715D01*
X102752786Y-134898028D01*
X102752782Y-134898032D01*
X102687681Y-134963134D01*
X102626358Y-134996619D01*
X102556666Y-134991635D01*
X102512319Y-134963134D01*
X102447213Y-134898028D01*
X102281613Y-134777715D01*
X102281612Y-134777714D01*
X102281610Y-134777713D01*
X102221758Y-134747217D01*
X102099223Y-134684781D01*
X101904534Y-134621522D01*
X101729995Y-134593878D01*
X101702352Y-134589500D01*
X101497648Y-134589500D01*
X101473329Y-134593351D01*
X101295465Y-134621522D01*
X101100776Y-134684781D01*
X100918386Y-134777715D01*
X100752786Y-134898028D01*
X100608028Y-135042786D01*
X100487715Y-135208386D01*
X100394781Y-135390776D01*
X100331522Y-135585465D01*
X100299500Y-135787648D01*
X45530500Y-135787648D01*
X45530500Y-135611902D01*
X45493553Y-135378631D01*
X45438238Y-135208390D01*
X45420568Y-135154008D01*
X45420566Y-135154005D01*
X45420566Y-135154003D01*
X45363895Y-135042781D01*
X45313343Y-134943567D01*
X45174517Y-134752490D01*
X45007510Y-134585483D01*
X44816433Y-134446657D01*
X44605996Y-134339433D01*
X44381368Y-134266446D01*
X44148097Y-134229500D01*
X44148092Y-134229500D01*
X42211908Y-134229500D01*
X42211903Y-134229500D01*
X41978631Y-134266446D01*
X41754003Y-134339433D01*
X41543566Y-134446657D01*
X41434550Y-134525862D01*
X41352490Y-134585483D01*
X41352488Y-134585485D01*
X41352487Y-134585485D01*
X41185485Y-134752487D01*
X41185485Y-134752488D01*
X41185483Y-134752490D01*
X41167156Y-134777715D01*
X41046657Y-134943566D01*
X40939433Y-135154003D01*
X40866446Y-135378631D01*
X40829500Y-135611902D01*
X38600500Y-135611902D01*
X38600500Y-133797648D01*
X84599500Y-133797648D01*
X84599500Y-134002351D01*
X84631522Y-134204534D01*
X84694781Y-134399223D01*
X84787715Y-134581613D01*
X84908028Y-134747213D01*
X85052786Y-134891971D01*
X85173226Y-134979474D01*
X85218390Y-135012287D01*
X85334607Y-135071503D01*
X85400776Y-135105218D01*
X85400778Y-135105218D01*
X85400781Y-135105220D01*
X85505137Y-135139127D01*
X85595465Y-135168477D01*
X85696557Y-135184488D01*
X85797648Y-135200500D01*
X85797649Y-135200500D01*
X86002351Y-135200500D01*
X86002352Y-135200500D01*
X86204534Y-135168477D01*
X86399219Y-135105220D01*
X86581610Y-135012287D01*
X86676197Y-134943566D01*
X86747213Y-134891971D01*
X86747215Y-134891968D01*
X86747219Y-134891966D01*
X86812319Y-134826866D01*
X86873642Y-134793381D01*
X86943334Y-134798365D01*
X86987681Y-134826866D01*
X87052786Y-134891971D01*
X87173226Y-134979474D01*
X87218390Y-135012287D01*
X87334607Y-135071503D01*
X87400776Y-135105218D01*
X87400778Y-135105218D01*
X87400781Y-135105220D01*
X87505137Y-135139127D01*
X87595465Y-135168477D01*
X87696557Y-135184488D01*
X87797648Y-135200500D01*
X87797649Y-135200500D01*
X88002351Y-135200500D01*
X88002352Y-135200500D01*
X88204534Y-135168477D01*
X88399219Y-135105220D01*
X88581610Y-135012287D01*
X88676197Y-134943566D01*
X88747213Y-134891971D01*
X88747215Y-134891968D01*
X88747219Y-134891966D01*
X88812319Y-134826866D01*
X88873642Y-134793381D01*
X88943334Y-134798365D01*
X88987681Y-134826866D01*
X89052786Y-134891971D01*
X89173226Y-134979474D01*
X89218390Y-135012287D01*
X89334607Y-135071503D01*
X89400776Y-135105218D01*
X89400778Y-135105218D01*
X89400781Y-135105220D01*
X89505137Y-135139127D01*
X89595465Y-135168477D01*
X89696557Y-135184488D01*
X89797648Y-135200500D01*
X89797649Y-135200500D01*
X90002351Y-135200500D01*
X90002352Y-135200500D01*
X90204534Y-135168477D01*
X90399219Y-135105220D01*
X90581610Y-135012287D01*
X90626774Y-134979474D01*
X91174076Y-134979474D01*
X91218650Y-135011859D01*
X91400968Y-135104755D01*
X91595582Y-135167990D01*
X91797683Y-135200000D01*
X92002317Y-135200000D01*
X92204417Y-135167990D01*
X92399031Y-135104755D01*
X92581349Y-135011859D01*
X92625921Y-134979474D01*
X91900000Y-134253553D01*
X91174076Y-134979474D01*
X90626774Y-134979474D01*
X90676197Y-134943566D01*
X90747213Y-134891971D01*
X90747215Y-134891968D01*
X90747219Y-134891966D01*
X90891966Y-134747219D01*
X90891968Y-134747215D01*
X90891971Y-134747213D01*
X90980093Y-134625921D01*
X91012287Y-134581610D01*
X91105220Y-134399219D01*
X91123933Y-134341625D01*
X91154183Y-134292262D01*
X91546446Y-133900000D01*
X91546446Y-133899999D01*
X91500369Y-133853922D01*
X91550000Y-133853922D01*
X91550000Y-133946078D01*
X91573852Y-134035095D01*
X91619930Y-134114905D01*
X91685095Y-134180070D01*
X91764905Y-134226148D01*
X91853922Y-134250000D01*
X91946078Y-134250000D01*
X92035095Y-134226148D01*
X92114905Y-134180070D01*
X92180070Y-134114905D01*
X92226148Y-134035095D01*
X92250000Y-133946078D01*
X92250000Y-133899999D01*
X92253553Y-133899999D01*
X92253553Y-133900000D01*
X92979474Y-134625921D01*
X93011859Y-134581349D01*
X93104755Y-134399031D01*
X93167990Y-134204417D01*
X93200000Y-134002317D01*
X93200000Y-133797682D01*
X93167990Y-133595582D01*
X93104755Y-133400968D01*
X93011859Y-133218650D01*
X92979474Y-133174077D01*
X92979474Y-133174076D01*
X92253553Y-133899999D01*
X92250000Y-133899999D01*
X92250000Y-133853922D01*
X92226148Y-133764905D01*
X92180070Y-133685095D01*
X92114905Y-133619930D01*
X92035095Y-133573852D01*
X91946078Y-133550000D01*
X91853922Y-133550000D01*
X91764905Y-133573852D01*
X91685095Y-133619930D01*
X91619930Y-133685095D01*
X91573852Y-133764905D01*
X91550000Y-133853922D01*
X91500369Y-133853922D01*
X91154182Y-133507735D01*
X91123932Y-133458372D01*
X91105220Y-133400781D01*
X91012287Y-133218390D01*
X90980092Y-133174077D01*
X90891971Y-133052786D01*
X90747213Y-132908028D01*
X90626770Y-132820523D01*
X91174077Y-132820523D01*
X91174077Y-132820524D01*
X91900000Y-133546446D01*
X92625922Y-132820524D01*
X92625921Y-132820523D01*
X92581359Y-132788147D01*
X92581350Y-132788141D01*
X92399031Y-132695244D01*
X92204417Y-132632009D01*
X92002317Y-132600000D01*
X91797683Y-132600000D01*
X91595582Y-132632009D01*
X91400968Y-132695244D01*
X91218644Y-132788143D01*
X91174077Y-132820523D01*
X90626770Y-132820523D01*
X90581613Y-132787715D01*
X90581612Y-132787714D01*
X90581610Y-132787713D01*
X90524653Y-132758691D01*
X90399223Y-132694781D01*
X90204534Y-132631522D01*
X90029995Y-132603878D01*
X90002352Y-132599500D01*
X89797648Y-132599500D01*
X89773329Y-132603351D01*
X89595465Y-132631522D01*
X89400776Y-132694781D01*
X89218386Y-132787715D01*
X89052786Y-132908028D01*
X89052782Y-132908032D01*
X88987681Y-132973134D01*
X88926358Y-133006619D01*
X88856666Y-133001635D01*
X88812319Y-132973134D01*
X88747213Y-132908028D01*
X88581613Y-132787715D01*
X88581612Y-132787714D01*
X88581610Y-132787713D01*
X88524653Y-132758691D01*
X88399223Y-132694781D01*
X88204534Y-132631522D01*
X88029995Y-132603878D01*
X88002352Y-132599500D01*
X87797648Y-132599500D01*
X87773329Y-132603351D01*
X87595465Y-132631522D01*
X87400776Y-132694781D01*
X87218386Y-132787715D01*
X87052786Y-132908028D01*
X87052782Y-132908032D01*
X86987681Y-132973134D01*
X86926358Y-133006619D01*
X86856666Y-133001635D01*
X86812319Y-132973134D01*
X86747213Y-132908028D01*
X86581613Y-132787715D01*
X86581612Y-132787714D01*
X86581610Y-132787713D01*
X86524653Y-132758691D01*
X86399223Y-132694781D01*
X86204534Y-132631522D01*
X86029995Y-132603878D01*
X86002352Y-132599500D01*
X85797648Y-132599500D01*
X85773329Y-132603351D01*
X85595465Y-132631522D01*
X85400776Y-132694781D01*
X85218386Y-132787715D01*
X85052786Y-132908028D01*
X84908028Y-133052786D01*
X84787715Y-133218386D01*
X84694781Y-133400776D01*
X84631522Y-133595465D01*
X84599500Y-133797648D01*
X38600500Y-133797648D01*
X38600500Y-128341902D01*
X41279500Y-128341902D01*
X41279500Y-128578097D01*
X41316446Y-128811368D01*
X41389433Y-129035996D01*
X41491069Y-129235466D01*
X41496657Y-129246433D01*
X41635483Y-129437510D01*
X41802490Y-129604517D01*
X41993567Y-129743343D01*
X42076513Y-129785606D01*
X42204003Y-129850566D01*
X42204005Y-129850566D01*
X42204008Y-129850568D01*
X42324412Y-129889689D01*
X42428631Y-129923553D01*
X42661903Y-129960500D01*
X42661908Y-129960500D01*
X43698097Y-129960500D01*
X43931368Y-129923553D01*
X44155992Y-129850568D01*
X44366433Y-129743343D01*
X44557510Y-129604517D01*
X44724517Y-129437510D01*
X44863343Y-129246433D01*
X44970568Y-129035992D01*
X45043553Y-128811368D01*
X45080500Y-128578097D01*
X45080500Y-128341902D01*
X45043553Y-128108631D01*
X45005645Y-127991965D01*
X44970568Y-127884008D01*
X44970566Y-127884005D01*
X44970566Y-127884003D01*
X44904184Y-127753722D01*
X44863343Y-127673567D01*
X44724517Y-127482490D01*
X44557510Y-127315483D01*
X44366433Y-127176657D01*
X44155996Y-127069433D01*
X43931368Y-126996446D01*
X43698097Y-126959500D01*
X43698092Y-126959500D01*
X42661908Y-126959500D01*
X42661903Y-126959500D01*
X42428631Y-126996446D01*
X42204003Y-127069433D01*
X41993566Y-127176657D01*
X41971082Y-127192993D01*
X41802490Y-127315483D01*
X41802488Y-127315485D01*
X41802487Y-127315485D01*
X41635485Y-127482487D01*
X41635485Y-127482488D01*
X41635483Y-127482490D01*
X41588047Y-127547780D01*
X41496657Y-127673566D01*
X41389433Y-127884003D01*
X41316446Y-128108631D01*
X41279500Y-128341902D01*
X38600500Y-128341902D01*
X38600500Y-125752135D01*
X49017000Y-125752135D01*
X49017000Y-128247870D01*
X49017001Y-128247876D01*
X49023408Y-128307483D01*
X49073702Y-128442328D01*
X49073706Y-128442335D01*
X49159952Y-128557544D01*
X49159955Y-128557547D01*
X49275164Y-128643793D01*
X49275171Y-128643797D01*
X49410017Y-128694091D01*
X49410016Y-128694091D01*
X49416944Y-128694835D01*
X49469627Y-128700500D01*
X51965372Y-128700499D01*
X52024983Y-128694091D01*
X52159831Y-128643796D01*
X52275046Y-128557546D01*
X52361296Y-128442331D01*
X52411591Y-128307483D01*
X52418000Y-128247873D01*
X52417999Y-126888549D01*
X62017000Y-126888549D01*
X62017000Y-127111450D01*
X62017001Y-127111466D01*
X62046094Y-127332452D01*
X62046095Y-127332457D01*
X62046096Y-127332463D01*
X62090778Y-127499219D01*
X62103790Y-127547780D01*
X62103793Y-127547790D01*
X62189093Y-127753722D01*
X62189095Y-127753726D01*
X62300552Y-127946774D01*
X62300557Y-127946780D01*
X62300558Y-127946782D01*
X62436251Y-128123622D01*
X62436257Y-128123629D01*
X62593870Y-128281242D01*
X62593877Y-128281248D01*
X62672931Y-128341908D01*
X62770726Y-128416948D01*
X62963774Y-128528405D01*
X63169719Y-128613710D01*
X63385037Y-128671404D01*
X63606043Y-128700500D01*
X63606050Y-128700500D01*
X63828950Y-128700500D01*
X63828957Y-128700500D01*
X63892344Y-128692155D01*
X95220000Y-128692155D01*
X95220000Y-130387844D01*
X95226401Y-130447375D01*
X95235277Y-130471170D01*
X96120000Y-129586447D01*
X96120000Y-129592661D01*
X96147259Y-129694394D01*
X96199920Y-129785606D01*
X96274394Y-129860080D01*
X96365606Y-129912741D01*
X96467339Y-129940000D01*
X96473552Y-129940000D01*
X95588829Y-130824720D01*
X95588829Y-130824722D01*
X95612622Y-130833597D01*
X95612623Y-130833598D01*
X95672155Y-130839999D01*
X95672172Y-130840000D01*
X97367828Y-130840000D01*
X97367844Y-130839999D01*
X97427372Y-130833598D01*
X97451169Y-130824721D01*
X96566448Y-129940000D01*
X96572661Y-129940000D01*
X96674394Y-129912741D01*
X96765606Y-129860080D01*
X96840080Y-129785606D01*
X96892741Y-129694394D01*
X96920000Y-129592661D01*
X96920000Y-129586448D01*
X97804721Y-130471169D01*
X97813597Y-130447376D01*
X97817620Y-130409956D01*
X97844358Y-130345405D01*
X97901750Y-130305556D01*
X97971575Y-130303061D01*
X98031664Y-130338713D01*
X98041228Y-130350325D01*
X98068028Y-130387212D01*
X98068032Y-130387217D01*
X98212786Y-130531971D01*
X98333226Y-130619474D01*
X98378390Y-130652287D01*
X98494607Y-130711503D01*
X98560776Y-130745218D01*
X98560778Y-130745218D01*
X98560781Y-130745220D01*
X98665137Y-130779127D01*
X98755465Y-130808477D01*
X98856557Y-130824488D01*
X98957648Y-130840500D01*
X98957649Y-130840500D01*
X99162351Y-130840500D01*
X99162352Y-130840500D01*
X99364534Y-130808477D01*
X99559219Y-130745220D01*
X99741610Y-130652287D01*
X99834590Y-130584732D01*
X99907213Y-130531971D01*
X99907215Y-130531968D01*
X99907219Y-130531966D01*
X100051966Y-130387219D01*
X100051968Y-130387215D01*
X100051971Y-130387213D01*
X100172284Y-130221614D01*
X100172286Y-130221611D01*
X100172287Y-130221610D01*
X100219516Y-130128917D01*
X100267489Y-130078123D01*
X100335310Y-130061328D01*
X100401445Y-130083865D01*
X100440485Y-130128919D01*
X100487715Y-130221614D01*
X100608028Y-130387213D01*
X100752786Y-130531971D01*
X100873226Y-130619474D01*
X100918390Y-130652287D01*
X101034607Y-130711503D01*
X101100776Y-130745218D01*
X101100778Y-130745218D01*
X101100781Y-130745220D01*
X101205137Y-130779127D01*
X101295465Y-130808477D01*
X101396557Y-130824488D01*
X101497648Y-130840500D01*
X101497649Y-130840500D01*
X101702351Y-130840500D01*
X101702352Y-130840500D01*
X101904534Y-130808477D01*
X102099219Y-130745220D01*
X102281610Y-130652287D01*
X102374590Y-130584732D01*
X102447213Y-130531971D01*
X102447215Y-130531968D01*
X102447219Y-130531966D01*
X102591966Y-130387219D01*
X102591968Y-130387215D01*
X102591971Y-130387213D01*
X102712284Y-130221614D01*
X102712286Y-130221611D01*
X102712287Y-130221610D01*
X102759516Y-130128917D01*
X102807489Y-130078123D01*
X102875310Y-130061328D01*
X102941445Y-130083865D01*
X102980485Y-130128919D01*
X103027715Y-130221614D01*
X103148028Y-130387213D01*
X103292786Y-130531971D01*
X103413226Y-130619474D01*
X103458390Y-130652287D01*
X103574607Y-130711503D01*
X103640776Y-130745218D01*
X103640778Y-130745218D01*
X103640781Y-130745220D01*
X103745137Y-130779127D01*
X103835465Y-130808477D01*
X103936557Y-130824488D01*
X104037648Y-130840500D01*
X104037649Y-130840500D01*
X104242351Y-130840500D01*
X104242352Y-130840500D01*
X104444534Y-130808477D01*
X104639219Y-130745220D01*
X104821610Y-130652287D01*
X104914590Y-130584732D01*
X104987213Y-130531971D01*
X104987215Y-130531968D01*
X104987219Y-130531966D01*
X105131966Y-130387219D01*
X105131968Y-130387215D01*
X105131971Y-130387213D01*
X105252284Y-130221614D01*
X105252286Y-130221611D01*
X105252287Y-130221610D01*
X105299516Y-130128917D01*
X105347489Y-130078123D01*
X105415310Y-130061328D01*
X105481445Y-130083865D01*
X105520485Y-130128919D01*
X105567715Y-130221614D01*
X105688028Y-130387213D01*
X105832786Y-130531971D01*
X105953226Y-130619474D01*
X105998390Y-130652287D01*
X106114607Y-130711503D01*
X106180776Y-130745218D01*
X106180778Y-130745218D01*
X106180781Y-130745220D01*
X106285137Y-130779127D01*
X106375465Y-130808477D01*
X106476557Y-130824488D01*
X106577648Y-130840500D01*
X106577649Y-130840500D01*
X106782351Y-130840500D01*
X106782352Y-130840500D01*
X106984534Y-130808477D01*
X107179219Y-130745220D01*
X107361610Y-130652287D01*
X107454590Y-130584732D01*
X107527213Y-130531971D01*
X107527215Y-130531968D01*
X107527219Y-130531966D01*
X107671966Y-130387219D01*
X107671968Y-130387215D01*
X107671971Y-130387213D01*
X107792284Y-130221614D01*
X107792286Y-130221611D01*
X107792287Y-130221610D01*
X107839516Y-130128917D01*
X107887489Y-130078123D01*
X107955310Y-130061328D01*
X108021445Y-130083865D01*
X108060485Y-130128919D01*
X108107715Y-130221614D01*
X108228028Y-130387213D01*
X108372786Y-130531971D01*
X108493226Y-130619474D01*
X108538390Y-130652287D01*
X108654607Y-130711503D01*
X108720776Y-130745218D01*
X108720778Y-130745218D01*
X108720781Y-130745220D01*
X108825137Y-130779127D01*
X108915465Y-130808477D01*
X109016557Y-130824488D01*
X109117648Y-130840500D01*
X109117649Y-130840500D01*
X109322351Y-130840500D01*
X109322352Y-130840500D01*
X109524534Y-130808477D01*
X109719219Y-130745220D01*
X109901610Y-130652287D01*
X109994590Y-130584732D01*
X110067213Y-130531971D01*
X110067215Y-130531968D01*
X110067219Y-130531966D01*
X110211966Y-130387219D01*
X110211968Y-130387215D01*
X110211971Y-130387213D01*
X110332286Y-130221611D01*
X110332415Y-130221359D01*
X110379795Y-130128369D01*
X110427769Y-130077573D01*
X110495590Y-130060778D01*
X110561725Y-130083315D01*
X110600765Y-130128369D01*
X110648141Y-130221350D01*
X110648147Y-130221359D01*
X110680523Y-130265921D01*
X110680524Y-130265922D01*
X111360000Y-129586446D01*
X111360000Y-129592661D01*
X111387259Y-129694394D01*
X111439920Y-129785606D01*
X111514394Y-129860080D01*
X111605606Y-129912741D01*
X111707339Y-129940000D01*
X111713553Y-129940000D01*
X111034076Y-130619474D01*
X111078650Y-130651859D01*
X111260968Y-130744755D01*
X111455582Y-130807990D01*
X111657683Y-130840000D01*
X111862317Y-130840000D01*
X112064417Y-130807990D01*
X112259031Y-130744755D01*
X112441349Y-130651859D01*
X112485921Y-130619474D01*
X111806447Y-129940000D01*
X111812661Y-129940000D01*
X111914394Y-129912741D01*
X112005606Y-129860080D01*
X112080080Y-129785606D01*
X112132741Y-129694394D01*
X112160000Y-129592661D01*
X112160000Y-129586448D01*
X112839474Y-130265922D01*
X112839474Y-130265921D01*
X112871861Y-130221347D01*
X112871861Y-130221346D01*
X112919234Y-130128371D01*
X112967208Y-130077575D01*
X113035028Y-130060779D01*
X113101164Y-130083316D01*
X113140203Y-130128369D01*
X113187713Y-130221611D01*
X113308028Y-130387213D01*
X113452786Y-130531971D01*
X113573226Y-130619474D01*
X113618390Y-130652287D01*
X113734607Y-130711503D01*
X113800776Y-130745218D01*
X113800778Y-130745218D01*
X113800781Y-130745220D01*
X113905137Y-130779127D01*
X113995465Y-130808477D01*
X114096557Y-130824488D01*
X114197648Y-130840500D01*
X114197649Y-130840500D01*
X114402351Y-130840500D01*
X114402352Y-130840500D01*
X114604534Y-130808477D01*
X114799219Y-130745220D01*
X114981610Y-130652287D01*
X115074590Y-130584732D01*
X115147213Y-130531971D01*
X115147215Y-130531968D01*
X115147219Y-130531966D01*
X115291966Y-130387219D01*
X115291968Y-130387215D01*
X115291971Y-130387213D01*
X115353110Y-130303061D01*
X115412287Y-130221610D01*
X115505220Y-130039219D01*
X115568477Y-129844534D01*
X115600500Y-129642352D01*
X115600500Y-129437648D01*
X115592257Y-129385606D01*
X115568477Y-129235465D01*
X115505218Y-129040776D01*
X115412420Y-128858652D01*
X115412287Y-128858390D01*
X115380092Y-128814077D01*
X115291971Y-128692786D01*
X115147213Y-128548028D01*
X114981613Y-128427715D01*
X114981612Y-128427714D01*
X114981610Y-128427713D01*
X114919945Y-128396293D01*
X114799223Y-128334781D01*
X114604534Y-128271522D01*
X114429995Y-128243878D01*
X114402352Y-128239500D01*
X114197648Y-128239500D01*
X114173329Y-128243351D01*
X113995465Y-128271522D01*
X113800776Y-128334781D01*
X113618386Y-128427715D01*
X113452786Y-128548028D01*
X113308028Y-128692786D01*
X113187713Y-128858388D01*
X113140203Y-128951630D01*
X113092228Y-129002426D01*
X113024407Y-129019220D01*
X112958272Y-128996682D01*
X112919234Y-128951628D01*
X112871861Y-128858652D01*
X112839474Y-128814077D01*
X112839474Y-128814076D01*
X112160000Y-129493551D01*
X112160000Y-129487339D01*
X112132741Y-129385606D01*
X112080080Y-129294394D01*
X112005606Y-129219920D01*
X111914394Y-129167259D01*
X111812661Y-129140000D01*
X111806446Y-129140000D01*
X112485922Y-128460524D01*
X112485921Y-128460523D01*
X112441359Y-128428147D01*
X112441350Y-128428141D01*
X112259031Y-128335244D01*
X112064417Y-128272009D01*
X111862317Y-128240000D01*
X111657683Y-128240000D01*
X111455582Y-128272009D01*
X111260968Y-128335244D01*
X111078644Y-128428143D01*
X111034077Y-128460523D01*
X111034077Y-128460524D01*
X111713554Y-129140000D01*
X111707339Y-129140000D01*
X111605606Y-129167259D01*
X111514394Y-129219920D01*
X111439920Y-129294394D01*
X111387259Y-129385606D01*
X111360000Y-129487339D01*
X111360000Y-129493553D01*
X110680524Y-128814077D01*
X110680523Y-128814077D01*
X110648143Y-128858644D01*
X110600765Y-128951630D01*
X110552790Y-129002426D01*
X110484969Y-129019221D01*
X110418834Y-128996683D01*
X110379795Y-128951630D01*
X110332284Y-128858385D01*
X110211971Y-128692786D01*
X110067213Y-128548028D01*
X109901613Y-128427715D01*
X109901612Y-128427714D01*
X109901610Y-128427713D01*
X109839945Y-128396293D01*
X109719223Y-128334781D01*
X109524534Y-128271522D01*
X109349995Y-128243878D01*
X109322352Y-128239500D01*
X109117648Y-128239500D01*
X109093329Y-128243351D01*
X108915465Y-128271522D01*
X108720776Y-128334781D01*
X108538386Y-128427715D01*
X108372786Y-128548028D01*
X108228028Y-128692786D01*
X108107715Y-128858386D01*
X108060485Y-128951080D01*
X108012510Y-129001876D01*
X107944689Y-129018671D01*
X107878554Y-128996134D01*
X107839515Y-128951080D01*
X107792420Y-128858652D01*
X107792287Y-128858390D01*
X107760092Y-128814077D01*
X107671971Y-128692786D01*
X107527213Y-128548028D01*
X107361613Y-128427715D01*
X107361612Y-128427714D01*
X107361610Y-128427713D01*
X107299945Y-128396293D01*
X107179223Y-128334781D01*
X106984534Y-128271522D01*
X106809995Y-128243878D01*
X106782352Y-128239500D01*
X106577648Y-128239500D01*
X106553329Y-128243351D01*
X106375465Y-128271522D01*
X106180776Y-128334781D01*
X105998386Y-128427715D01*
X105832786Y-128548028D01*
X105688028Y-128692786D01*
X105567715Y-128858386D01*
X105520485Y-128951080D01*
X105472510Y-129001876D01*
X105404689Y-129018671D01*
X105338554Y-128996134D01*
X105299515Y-128951080D01*
X105252420Y-128858652D01*
X105252287Y-128858390D01*
X105220092Y-128814077D01*
X105131971Y-128692786D01*
X104987213Y-128548028D01*
X104821613Y-128427715D01*
X104821612Y-128427714D01*
X104821610Y-128427713D01*
X104759945Y-128396293D01*
X104639223Y-128334781D01*
X104444534Y-128271522D01*
X104269995Y-128243878D01*
X104242352Y-128239500D01*
X104037648Y-128239500D01*
X104013329Y-128243351D01*
X103835465Y-128271522D01*
X103640776Y-128334781D01*
X103458386Y-128427715D01*
X103292786Y-128548028D01*
X103148028Y-128692786D01*
X103027715Y-128858386D01*
X102980485Y-128951080D01*
X102932510Y-129001876D01*
X102864689Y-129018671D01*
X102798554Y-128996134D01*
X102759515Y-128951080D01*
X102712420Y-128858652D01*
X102712287Y-128858390D01*
X102680092Y-128814077D01*
X102591971Y-128692786D01*
X102447213Y-128548028D01*
X102281613Y-128427715D01*
X102281612Y-128427714D01*
X102281610Y-128427713D01*
X102219945Y-128396293D01*
X102099223Y-128334781D01*
X101904534Y-128271522D01*
X101729995Y-128243878D01*
X101702352Y-128239500D01*
X101497648Y-128239500D01*
X101473329Y-128243351D01*
X101295465Y-128271522D01*
X101100776Y-128334781D01*
X100918386Y-128427715D01*
X100752786Y-128548028D01*
X100608028Y-128692786D01*
X100487715Y-128858386D01*
X100440485Y-128951080D01*
X100392510Y-129001876D01*
X100324689Y-129018671D01*
X100258554Y-128996134D01*
X100219515Y-128951080D01*
X100172420Y-128858652D01*
X100172287Y-128858390D01*
X100140092Y-128814077D01*
X100051971Y-128692786D01*
X99907213Y-128548028D01*
X99741613Y-128427715D01*
X99741612Y-128427714D01*
X99741610Y-128427713D01*
X99679945Y-128396293D01*
X99559223Y-128334781D01*
X99364534Y-128271522D01*
X99189995Y-128243878D01*
X99162352Y-128239500D01*
X98957648Y-128239500D01*
X98933329Y-128243351D01*
X98755465Y-128271522D01*
X98560776Y-128334781D01*
X98378386Y-128427715D01*
X98212786Y-128548028D01*
X98068032Y-128692782D01*
X98068026Y-128692789D01*
X98041227Y-128729675D01*
X97985897Y-128772341D01*
X97916284Y-128778319D01*
X97854489Y-128745712D01*
X97820132Y-128684873D01*
X97817620Y-128670043D01*
X97813596Y-128632619D01*
X97804722Y-128608829D01*
X97804720Y-128608829D01*
X96920000Y-129493550D01*
X96920000Y-129487339D01*
X96892741Y-129385606D01*
X96840080Y-129294394D01*
X96765606Y-129219920D01*
X96674394Y-129167259D01*
X96572661Y-129140000D01*
X96566449Y-129140000D01*
X97451170Y-128255277D01*
X97451170Y-128255276D01*
X97427375Y-128246401D01*
X97367844Y-128240000D01*
X95672155Y-128240000D01*
X95612627Y-128246401D01*
X95612623Y-128246402D01*
X95588829Y-128255277D01*
X96473552Y-129140000D01*
X96467339Y-129140000D01*
X96365606Y-129167259D01*
X96274394Y-129219920D01*
X96199920Y-129294394D01*
X96147259Y-129385606D01*
X96120000Y-129487339D01*
X96120000Y-129493551D01*
X95235277Y-128608829D01*
X95226402Y-128632623D01*
X95226401Y-128632627D01*
X95220000Y-128692155D01*
X63892344Y-128692155D01*
X64049963Y-128671404D01*
X64265281Y-128613710D01*
X64471226Y-128528405D01*
X64664274Y-128416948D01*
X64841124Y-128281247D01*
X64998747Y-128123624D01*
X65134448Y-127946774D01*
X65245905Y-127753726D01*
X65331210Y-127547781D01*
X65388904Y-127332463D01*
X65418000Y-127111457D01*
X65418000Y-126888543D01*
X65388904Y-126667537D01*
X65331210Y-126452219D01*
X65245905Y-126246274D01*
X65134448Y-126053226D01*
X65047580Y-125940017D01*
X64998748Y-125876377D01*
X64998742Y-125876370D01*
X64841129Y-125718757D01*
X64841122Y-125718751D01*
X64664282Y-125583058D01*
X64664280Y-125583057D01*
X64664274Y-125583052D01*
X64471226Y-125471595D01*
X64471222Y-125471593D01*
X64265290Y-125386293D01*
X64265283Y-125386291D01*
X64265281Y-125386290D01*
X64049963Y-125328596D01*
X64049957Y-125328595D01*
X64049952Y-125328594D01*
X63828966Y-125299501D01*
X63828963Y-125299500D01*
X63828957Y-125299500D01*
X63606043Y-125299500D01*
X63606037Y-125299500D01*
X63606033Y-125299501D01*
X63385047Y-125328594D01*
X63385040Y-125328595D01*
X63385037Y-125328596D01*
X63282002Y-125356204D01*
X63169719Y-125386290D01*
X63169709Y-125386293D01*
X62963777Y-125471593D01*
X62963773Y-125471595D01*
X62770726Y-125583052D01*
X62770717Y-125583058D01*
X62593877Y-125718751D01*
X62593870Y-125718757D01*
X62436257Y-125876370D01*
X62436251Y-125876377D01*
X62300558Y-126053217D01*
X62300552Y-126053226D01*
X62189095Y-126246273D01*
X62189093Y-126246277D01*
X62103793Y-126452209D01*
X62103790Y-126452219D01*
X62051130Y-126648752D01*
X62046097Y-126667534D01*
X62046094Y-126667547D01*
X62017001Y-126888533D01*
X62017000Y-126888549D01*
X52417999Y-126888549D01*
X52417999Y-125752128D01*
X52411591Y-125692517D01*
X52410635Y-125689955D01*
X52361297Y-125557671D01*
X52361293Y-125557664D01*
X52275047Y-125442455D01*
X52275044Y-125442452D01*
X52159835Y-125356206D01*
X52159828Y-125356202D01*
X52024982Y-125305908D01*
X52024983Y-125305908D01*
X51965383Y-125299501D01*
X51965381Y-125299500D01*
X51965373Y-125299500D01*
X51965364Y-125299500D01*
X49469629Y-125299500D01*
X49469623Y-125299501D01*
X49410016Y-125305908D01*
X49275171Y-125356202D01*
X49275164Y-125356206D01*
X49159955Y-125442452D01*
X49159952Y-125442455D01*
X49073706Y-125557664D01*
X49073702Y-125557671D01*
X49023408Y-125692517D01*
X49019215Y-125731522D01*
X49017001Y-125752123D01*
X49017000Y-125752135D01*
X38600500Y-125752135D01*
X38600500Y-121805646D01*
X69619500Y-121805646D01*
X69619500Y-122034353D01*
X69655278Y-122260246D01*
X69655278Y-122260249D01*
X69725950Y-122477755D01*
X69725952Y-122477758D01*
X69829783Y-122681538D01*
X69964214Y-122866566D01*
X70125934Y-123028286D01*
X70217818Y-123095044D01*
X70217820Y-123095045D01*
X70260486Y-123150375D01*
X70268553Y-123205093D01*
X70264911Y-123251359D01*
X70949764Y-123936212D01*
X70907708Y-123947482D01*
X70782292Y-124019890D01*
X70679890Y-124122292D01*
X70607482Y-124247708D01*
X70596212Y-124289764D01*
X69903835Y-123597387D01*
X69903834Y-123597387D01*
X69830212Y-123698722D01*
X69726417Y-123902431D01*
X69655765Y-124119874D01*
X69655765Y-124119875D01*
X69620000Y-124345686D01*
X69620000Y-124574313D01*
X69655765Y-124800124D01*
X69655765Y-124800125D01*
X69726417Y-125017568D01*
X69830210Y-125221274D01*
X69903835Y-125322610D01*
X70596212Y-124630234D01*
X70607482Y-124672292D01*
X70679890Y-124797708D01*
X70782292Y-124900110D01*
X70907708Y-124972518D01*
X70949764Y-124983787D01*
X70422869Y-125510681D01*
X70361546Y-125544166D01*
X70335188Y-125547000D01*
X70072130Y-125547000D01*
X70072123Y-125547001D01*
X70012515Y-125553409D01*
X70005174Y-125556147D01*
X70005173Y-125556146D01*
X69979503Y-125565721D01*
X69979502Y-125565722D01*
X69877671Y-125603702D01*
X69877664Y-125603706D01*
X69762455Y-125689952D01*
X69762452Y-125689955D01*
X69676206Y-125805164D01*
X69676202Y-125805171D01*
X69625908Y-125940017D01*
X69619501Y-125999616D01*
X69619501Y-125999623D01*
X69619500Y-125999635D01*
X69619500Y-128000370D01*
X69619501Y-128000376D01*
X69625908Y-128059983D01*
X69676202Y-128194828D01*
X69676206Y-128194835D01*
X69762452Y-128310044D01*
X69762455Y-128310047D01*
X69877664Y-128396293D01*
X69877671Y-128396297D01*
X70012517Y-128446591D01*
X70012516Y-128446591D01*
X70019444Y-128447335D01*
X70072127Y-128453000D01*
X72167872Y-128452999D01*
X72227483Y-128446591D01*
X72362331Y-128396296D01*
X72477546Y-128310046D01*
X72563796Y-128194831D01*
X72614091Y-128059983D01*
X72620500Y-128000373D01*
X72620499Y-126897648D01*
X74979500Y-126897648D01*
X74979500Y-127102351D01*
X75011522Y-127304534D01*
X75074781Y-127499223D01*
X75099528Y-127547790D01*
X75163614Y-127673566D01*
X75167715Y-127681613D01*
X75288028Y-127847213D01*
X75432786Y-127991971D01*
X75547184Y-128075084D01*
X75598390Y-128112287D01*
X75714607Y-128171503D01*
X75780776Y-128205218D01*
X75780778Y-128205218D01*
X75780781Y-128205220D01*
X75834450Y-128222658D01*
X75975465Y-128268477D01*
X76066616Y-128282914D01*
X76177648Y-128300500D01*
X76177649Y-128300500D01*
X76382351Y-128300500D01*
X76382352Y-128300500D01*
X76584534Y-128268477D01*
X76779219Y-128205220D01*
X76961610Y-128112287D01*
X77127219Y-127991966D01*
X77271966Y-127847219D01*
X77271968Y-127847215D01*
X77271971Y-127847213D01*
X77339895Y-127753722D01*
X77392287Y-127681610D01*
X77485220Y-127499219D01*
X77548477Y-127304534D01*
X77580500Y-127102352D01*
X77580500Y-126897648D01*
X77578013Y-126881947D01*
X84780000Y-126881947D01*
X84780000Y-127118052D01*
X84816934Y-127351247D01*
X84889897Y-127575802D01*
X84997087Y-127786174D01*
X85057338Y-127869104D01*
X85057340Y-127869105D01*
X85797037Y-127129408D01*
X85814075Y-127192993D01*
X85879901Y-127307007D01*
X85972993Y-127400099D01*
X86087007Y-127465925D01*
X86150590Y-127482962D01*
X85410893Y-128222658D01*
X85493828Y-128282914D01*
X85704197Y-128390102D01*
X85928752Y-128463065D01*
X85928751Y-128463065D01*
X86161948Y-128500000D01*
X86398052Y-128500000D01*
X86631247Y-128463065D01*
X86855802Y-128390102D01*
X87066163Y-128282918D01*
X87066169Y-128282914D01*
X87149104Y-128222658D01*
X87149105Y-128222658D01*
X86409408Y-127482962D01*
X86472993Y-127465925D01*
X86587007Y-127400099D01*
X86680099Y-127307007D01*
X86745925Y-127192993D01*
X86762962Y-127129409D01*
X87502658Y-127869105D01*
X87502658Y-127869104D01*
X87562914Y-127786169D01*
X87562918Y-127786163D01*
X87670102Y-127575802D01*
X87743065Y-127351247D01*
X87780000Y-127118052D01*
X87780000Y-126881947D01*
X87743065Y-126648752D01*
X87670102Y-126424197D01*
X87562914Y-126213828D01*
X87502658Y-126130894D01*
X87502658Y-126130893D01*
X86762962Y-126870590D01*
X86745925Y-126807007D01*
X86680099Y-126692993D01*
X86587007Y-126599901D01*
X86472993Y-126534075D01*
X86409409Y-126517037D01*
X87149105Y-125777340D01*
X87149104Y-125777338D01*
X87066174Y-125717087D01*
X86855802Y-125609897D01*
X86631247Y-125536934D01*
X86631248Y-125536934D01*
X86398052Y-125500000D01*
X86161948Y-125500000D01*
X85928752Y-125536934D01*
X85704197Y-125609897D01*
X85493830Y-125717084D01*
X85410894Y-125777340D01*
X86150591Y-126517037D01*
X86087007Y-126534075D01*
X85972993Y-126599901D01*
X85879901Y-126692993D01*
X85814075Y-126807007D01*
X85797037Y-126870591D01*
X85057340Y-126130894D01*
X84997084Y-126213830D01*
X84889897Y-126424197D01*
X84816934Y-126648752D01*
X84780000Y-126881947D01*
X77578013Y-126881947D01*
X77548477Y-126695466D01*
X77547673Y-126692993D01*
X77485218Y-126500776D01*
X77446198Y-126424197D01*
X77392287Y-126318390D01*
X77384556Y-126307749D01*
X77271971Y-126152786D01*
X77127219Y-126008034D01*
X77115642Y-125999623D01*
X77012817Y-125924917D01*
X77012816Y-125924915D01*
X76961613Y-125887715D01*
X76961612Y-125887714D01*
X76961610Y-125887713D01*
X76904653Y-125858691D01*
X76779223Y-125794781D01*
X76584534Y-125731522D01*
X76409995Y-125703878D01*
X76382352Y-125699500D01*
X76177648Y-125699500D01*
X76153329Y-125703351D01*
X75975465Y-125731522D01*
X75780776Y-125794781D01*
X75598386Y-125887715D01*
X75432786Y-126008028D01*
X75288028Y-126152786D01*
X75167715Y-126318386D01*
X75074781Y-126500776D01*
X75011522Y-126695465D01*
X74979500Y-126897648D01*
X72620499Y-126897648D01*
X72620499Y-125999628D01*
X72614091Y-125940017D01*
X72608459Y-125924918D01*
X72563797Y-125805171D01*
X72563793Y-125805164D01*
X72477547Y-125689955D01*
X72477544Y-125689952D01*
X72362335Y-125603706D01*
X72362328Y-125603702D01*
X72260497Y-125565722D01*
X72260496Y-125565721D01*
X72234817Y-125556143D01*
X72227487Y-125553409D01*
X72227483Y-125553408D01*
X72167883Y-125547001D01*
X72167881Y-125547000D01*
X72167873Y-125547000D01*
X72167865Y-125547000D01*
X71904810Y-125547000D01*
X71837771Y-125527315D01*
X71817129Y-125510681D01*
X71290235Y-124983787D01*
X71332292Y-124972518D01*
X71457708Y-124900110D01*
X71560110Y-124797708D01*
X71632518Y-124672292D01*
X71643787Y-124630236D01*
X72336162Y-125322611D01*
X72336163Y-125322611D01*
X72409788Y-125221276D01*
X72513582Y-125017568D01*
X72584234Y-124800125D01*
X72584234Y-124800124D01*
X72620000Y-124574313D01*
X72620000Y-124345686D01*
X72584234Y-124119875D01*
X72584234Y-124119874D01*
X72513582Y-123902431D01*
X72409790Y-123698727D01*
X72336163Y-123597386D01*
X71643786Y-124289763D01*
X71632518Y-124247708D01*
X71560110Y-124122292D01*
X71457708Y-124019890D01*
X71332292Y-123947482D01*
X71290235Y-123936212D01*
X71975087Y-123251360D01*
X71971446Y-123205093D01*
X71985810Y-123136715D01*
X72022174Y-123095049D01*
X72114066Y-123028286D01*
X72275786Y-122866566D01*
X72410217Y-122681538D01*
X72514048Y-122477758D01*
X72533067Y-122419223D01*
X72584721Y-122260249D01*
X72584721Y-122260248D01*
X72584722Y-122260245D01*
X72620500Y-122034354D01*
X72620500Y-121817648D01*
X74979500Y-121817648D01*
X74979500Y-122022351D01*
X75011522Y-122224534D01*
X75074781Y-122419223D01*
X75104607Y-122477758D01*
X75167585Y-122601359D01*
X75167715Y-122601613D01*
X75288028Y-122767213D01*
X75432786Y-122911971D01*
X75553226Y-122999474D01*
X75598390Y-123032287D01*
X75714607Y-123091503D01*
X75780776Y-123125218D01*
X75780778Y-123125218D01*
X75780781Y-123125220D01*
X75858200Y-123150375D01*
X75975465Y-123188477D01*
X76076557Y-123204488D01*
X76177648Y-123220500D01*
X76177649Y-123220500D01*
X76382351Y-123220500D01*
X76382352Y-123220500D01*
X76584534Y-123188477D01*
X76779219Y-123125220D01*
X76961610Y-123032287D01*
X77054590Y-122964732D01*
X77127213Y-122911971D01*
X77127215Y-122911968D01*
X77127219Y-122911966D01*
X77271966Y-122767219D01*
X77271968Y-122767215D01*
X77271971Y-122767213D01*
X77334216Y-122681538D01*
X77392287Y-122601610D01*
X77485220Y-122419219D01*
X77548477Y-122224534D01*
X77580500Y-122022352D01*
X77580500Y-121817682D01*
X84980000Y-121817682D01*
X84980000Y-122022317D01*
X85012009Y-122224417D01*
X85075244Y-122419031D01*
X85168141Y-122601350D01*
X85168147Y-122601359D01*
X85200523Y-122645921D01*
X85200524Y-122645922D01*
X85880000Y-121966446D01*
X85880000Y-121972661D01*
X85907259Y-122074394D01*
X85959920Y-122165606D01*
X86034394Y-122240080D01*
X86125606Y-122292741D01*
X86227339Y-122320000D01*
X86233553Y-122320000D01*
X85554076Y-122999474D01*
X85598650Y-123031859D01*
X85780968Y-123124755D01*
X85975582Y-123187990D01*
X86177683Y-123220000D01*
X86382317Y-123220000D01*
X86584417Y-123187990D01*
X86779031Y-123124755D01*
X86961349Y-123031859D01*
X87005921Y-122999474D01*
X86326447Y-122320000D01*
X86332661Y-122320000D01*
X86434394Y-122292741D01*
X86525606Y-122240080D01*
X86600080Y-122165606D01*
X86652741Y-122074394D01*
X86680000Y-121972661D01*
X86680000Y-121966447D01*
X87359474Y-122645921D01*
X87391859Y-122601349D01*
X87484755Y-122419031D01*
X87547990Y-122224417D01*
X87580000Y-122022317D01*
X87580000Y-121817682D01*
X87547990Y-121615582D01*
X87484755Y-121420968D01*
X87391859Y-121238650D01*
X87359474Y-121194077D01*
X87359474Y-121194076D01*
X86680000Y-121873551D01*
X86680000Y-121867339D01*
X86652741Y-121765606D01*
X86600080Y-121674394D01*
X86525606Y-121599920D01*
X86434394Y-121547259D01*
X86332661Y-121520000D01*
X86326446Y-121520000D01*
X87005922Y-120840524D01*
X87005921Y-120840523D01*
X86961359Y-120808147D01*
X86961350Y-120808141D01*
X86779031Y-120715244D01*
X86584417Y-120652009D01*
X86382317Y-120620000D01*
X86177683Y-120620000D01*
X85975582Y-120652009D01*
X85780968Y-120715244D01*
X85598644Y-120808143D01*
X85554077Y-120840523D01*
X85554077Y-120840524D01*
X86233554Y-121520000D01*
X86227339Y-121520000D01*
X86125606Y-121547259D01*
X86034394Y-121599920D01*
X85959920Y-121674394D01*
X85907259Y-121765606D01*
X85880000Y-121867339D01*
X85880000Y-121873553D01*
X85200524Y-121194077D01*
X85200523Y-121194077D01*
X85168143Y-121238644D01*
X85075244Y-121420968D01*
X85012009Y-121615582D01*
X84980000Y-121817682D01*
X77580500Y-121817682D01*
X77580500Y-121817648D01*
X77572257Y-121765606D01*
X77548477Y-121615465D01*
X77517458Y-121520000D01*
X77485220Y-121420781D01*
X77485218Y-121420778D01*
X77485218Y-121420776D01*
X77392419Y-121238650D01*
X77392287Y-121238390D01*
X77360092Y-121194077D01*
X77271971Y-121072786D01*
X77127213Y-120928028D01*
X76961613Y-120807715D01*
X76961612Y-120807714D01*
X76961610Y-120807713D01*
X76904653Y-120778691D01*
X76779223Y-120714781D01*
X76584534Y-120651522D01*
X76409995Y-120623878D01*
X76382352Y-120619500D01*
X76177648Y-120619500D01*
X76153329Y-120623351D01*
X75975465Y-120651522D01*
X75780776Y-120714781D01*
X75598386Y-120807715D01*
X75432786Y-120928028D01*
X75288028Y-121072786D01*
X75167715Y-121238386D01*
X75074781Y-121420776D01*
X75011522Y-121615465D01*
X74979500Y-121817648D01*
X72620500Y-121817648D01*
X72620500Y-121805646D01*
X72584722Y-121579755D01*
X72584721Y-121579751D01*
X72584721Y-121579750D01*
X72514049Y-121362244D01*
X72514048Y-121362242D01*
X72410217Y-121158462D01*
X72275786Y-120973434D01*
X72114066Y-120811714D01*
X71929038Y-120677283D01*
X71816614Y-120620000D01*
X71725255Y-120573450D01*
X71507748Y-120502778D01*
X71338326Y-120475944D01*
X71281854Y-120467000D01*
X70958146Y-120467000D01*
X70882849Y-120478926D01*
X70732253Y-120502778D01*
X70732250Y-120502778D01*
X70514744Y-120573450D01*
X70310961Y-120677283D01*
X70205396Y-120753980D01*
X70125934Y-120811714D01*
X70125932Y-120811716D01*
X70125931Y-120811716D01*
X69964216Y-120973431D01*
X69964216Y-120973432D01*
X69964214Y-120973434D01*
X69906480Y-121052896D01*
X69829783Y-121158461D01*
X69725950Y-121362244D01*
X69655278Y-121579750D01*
X69655278Y-121579753D01*
X69619500Y-121805646D01*
X38600500Y-121805646D01*
X38600500Y-118821966D01*
X41279500Y-118821966D01*
X41279500Y-119938028D01*
X41279501Y-119938034D01*
X41290113Y-120057415D01*
X41346089Y-120253045D01*
X41346090Y-120253048D01*
X41346091Y-120253049D01*
X41440302Y-120433407D01*
X41474977Y-120475933D01*
X41568890Y-120591109D01*
X41642982Y-120651522D01*
X41726593Y-120719698D01*
X41906951Y-120813909D01*
X42102582Y-120869886D01*
X42221963Y-120880500D01*
X44138036Y-120880499D01*
X44257418Y-120869886D01*
X44453049Y-120813909D01*
X44633407Y-120719698D01*
X44791109Y-120591109D01*
X44919698Y-120433407D01*
X45013909Y-120253049D01*
X45069886Y-120057418D01*
X45080500Y-119938037D01*
X45080499Y-118821964D01*
X45069886Y-118702582D01*
X45013909Y-118506951D01*
X44919698Y-118326593D01*
X44867684Y-118262803D01*
X44791109Y-118168890D01*
X44633409Y-118040304D01*
X44633410Y-118040304D01*
X44633407Y-118040302D01*
X44453049Y-117946091D01*
X44453048Y-117946090D01*
X44453045Y-117946089D01*
X44335829Y-117912550D01*
X44257418Y-117890114D01*
X44257415Y-117890113D01*
X44257413Y-117890113D01*
X44191102Y-117884217D01*
X44138037Y-117879500D01*
X44138032Y-117879500D01*
X42221971Y-117879500D01*
X42221965Y-117879500D01*
X42221964Y-117879501D01*
X42210316Y-117880536D01*
X42102584Y-117890113D01*
X41906954Y-117946089D01*
X41895089Y-117952287D01*
X41726593Y-118040302D01*
X41726591Y-118040303D01*
X41726590Y-118040304D01*
X41568890Y-118168890D01*
X41440304Y-118326590D01*
X41346089Y-118506954D01*
X41290114Y-118702583D01*
X41290113Y-118702586D01*
X41279500Y-118821966D01*
X38600500Y-118821966D01*
X38600500Y-116737648D01*
X95219500Y-116737648D01*
X95219500Y-116942351D01*
X95251522Y-117144534D01*
X95314781Y-117339223D01*
X95378691Y-117464653D01*
X95407585Y-117521359D01*
X95407715Y-117521613D01*
X95528028Y-117687213D01*
X95672786Y-117831971D01*
X95793226Y-117919474D01*
X95838390Y-117952287D01*
X95954607Y-118011503D01*
X96020776Y-118045218D01*
X96020778Y-118045218D01*
X96020781Y-118045220D01*
X96125137Y-118079127D01*
X96215465Y-118108477D01*
X96316557Y-118124488D01*
X96417648Y-118140500D01*
X96417649Y-118140500D01*
X96622351Y-118140500D01*
X96622352Y-118140500D01*
X96824534Y-118108477D01*
X97019219Y-118045220D01*
X97201610Y-117952287D01*
X97301794Y-117879500D01*
X97367213Y-117831971D01*
X97367215Y-117831968D01*
X97367219Y-117831966D01*
X97511966Y-117687219D01*
X97511968Y-117687215D01*
X97511971Y-117687213D01*
X97632284Y-117521614D01*
X97632286Y-117521611D01*
X97632287Y-117521610D01*
X97679516Y-117428917D01*
X97727489Y-117378123D01*
X97795310Y-117361328D01*
X97861445Y-117383865D01*
X97900485Y-117428919D01*
X97947715Y-117521614D01*
X98068028Y-117687213D01*
X98212786Y-117831971D01*
X98333226Y-117919474D01*
X98378390Y-117952287D01*
X98494607Y-118011503D01*
X98560776Y-118045218D01*
X98560778Y-118045218D01*
X98560781Y-118045220D01*
X98665137Y-118079127D01*
X98755465Y-118108477D01*
X98856557Y-118124488D01*
X98957648Y-118140500D01*
X98957649Y-118140500D01*
X99162351Y-118140500D01*
X99162352Y-118140500D01*
X99364534Y-118108477D01*
X99559219Y-118045220D01*
X99741610Y-117952287D01*
X99841794Y-117879500D01*
X99907213Y-117831971D01*
X99907215Y-117831968D01*
X99907219Y-117831966D01*
X100051966Y-117687219D01*
X100051968Y-117687215D01*
X100051971Y-117687213D01*
X100172284Y-117521614D01*
X100172286Y-117521611D01*
X100172287Y-117521610D01*
X100219516Y-117428917D01*
X100267489Y-117378123D01*
X100335310Y-117361328D01*
X100401445Y-117383865D01*
X100440485Y-117428919D01*
X100487715Y-117521614D01*
X100608028Y-117687213D01*
X100752786Y-117831971D01*
X100873226Y-117919474D01*
X100918390Y-117952287D01*
X101034607Y-118011503D01*
X101100776Y-118045218D01*
X101100778Y-118045218D01*
X101100781Y-118045220D01*
X101205137Y-118079127D01*
X101295465Y-118108477D01*
X101396557Y-118124488D01*
X101497648Y-118140500D01*
X101497649Y-118140500D01*
X101702351Y-118140500D01*
X101702352Y-118140500D01*
X101904534Y-118108477D01*
X102099219Y-118045220D01*
X102281610Y-117952287D01*
X102381794Y-117879500D01*
X102447213Y-117831971D01*
X102447215Y-117831968D01*
X102447219Y-117831966D01*
X102591966Y-117687219D01*
X102591968Y-117687215D01*
X102591971Y-117687213D01*
X102712284Y-117521614D01*
X102712286Y-117521611D01*
X102712287Y-117521610D01*
X102759516Y-117428917D01*
X102807489Y-117378123D01*
X102875310Y-117361328D01*
X102941445Y-117383865D01*
X102980485Y-117428919D01*
X103027715Y-117521614D01*
X103148028Y-117687213D01*
X103292786Y-117831971D01*
X103413226Y-117919474D01*
X103458390Y-117952287D01*
X103574607Y-118011503D01*
X103640776Y-118045218D01*
X103640778Y-118045218D01*
X103640781Y-118045220D01*
X103745137Y-118079127D01*
X103835465Y-118108477D01*
X103936557Y-118124488D01*
X104037648Y-118140500D01*
X104037649Y-118140500D01*
X104242351Y-118140500D01*
X104242352Y-118140500D01*
X104444534Y-118108477D01*
X104639219Y-118045220D01*
X104821610Y-117952287D01*
X104921794Y-117879500D01*
X104987213Y-117831971D01*
X104987215Y-117831968D01*
X104987219Y-117831966D01*
X105131966Y-117687219D01*
X105131968Y-117687215D01*
X105131971Y-117687213D01*
X105252284Y-117521614D01*
X105252286Y-117521611D01*
X105252287Y-117521610D01*
X105299516Y-117428917D01*
X105347489Y-117378123D01*
X105415310Y-117361328D01*
X105481445Y-117383865D01*
X105520485Y-117428919D01*
X105567715Y-117521614D01*
X105688028Y-117687213D01*
X105832786Y-117831971D01*
X105953226Y-117919474D01*
X105998390Y-117952287D01*
X106114607Y-118011503D01*
X106180776Y-118045218D01*
X106180778Y-118045218D01*
X106180781Y-118045220D01*
X106285137Y-118079127D01*
X106375465Y-118108477D01*
X106476557Y-118124488D01*
X106577648Y-118140500D01*
X106577649Y-118140500D01*
X106782351Y-118140500D01*
X106782352Y-118140500D01*
X106984534Y-118108477D01*
X107179219Y-118045220D01*
X107361610Y-117952287D01*
X107461794Y-117879500D01*
X107527213Y-117831971D01*
X107527215Y-117831968D01*
X107527219Y-117831966D01*
X107671966Y-117687219D01*
X107671968Y-117687215D01*
X107671971Y-117687213D01*
X107792284Y-117521614D01*
X107792286Y-117521611D01*
X107792287Y-117521610D01*
X107839516Y-117428917D01*
X107887489Y-117378123D01*
X107955310Y-117361328D01*
X108021445Y-117383865D01*
X108060485Y-117428919D01*
X108107715Y-117521614D01*
X108228028Y-117687213D01*
X108372786Y-117831971D01*
X108493226Y-117919474D01*
X108538390Y-117952287D01*
X108654607Y-118011503D01*
X108720776Y-118045218D01*
X108720778Y-118045218D01*
X108720781Y-118045220D01*
X108825137Y-118079127D01*
X108915465Y-118108477D01*
X109016557Y-118124488D01*
X109117648Y-118140500D01*
X109117649Y-118140500D01*
X109322351Y-118140500D01*
X109322352Y-118140500D01*
X109524534Y-118108477D01*
X109719219Y-118045220D01*
X109901610Y-117952287D01*
X110001794Y-117879500D01*
X110067213Y-117831971D01*
X110067215Y-117831968D01*
X110067219Y-117831966D01*
X110211966Y-117687219D01*
X110211968Y-117687215D01*
X110211971Y-117687213D01*
X110332284Y-117521614D01*
X110332286Y-117521611D01*
X110332287Y-117521610D01*
X110379516Y-117428917D01*
X110427489Y-117378123D01*
X110495310Y-117361328D01*
X110561445Y-117383865D01*
X110600485Y-117428919D01*
X110647715Y-117521614D01*
X110768028Y-117687213D01*
X110912786Y-117831971D01*
X111033226Y-117919474D01*
X111078390Y-117952287D01*
X111194607Y-118011503D01*
X111260776Y-118045218D01*
X111260778Y-118045218D01*
X111260781Y-118045220D01*
X111365137Y-118079127D01*
X111455465Y-118108477D01*
X111556557Y-118124488D01*
X111657648Y-118140500D01*
X111657649Y-118140500D01*
X111862351Y-118140500D01*
X111862352Y-118140500D01*
X112064534Y-118108477D01*
X112259219Y-118045220D01*
X112441610Y-117952287D01*
X112541794Y-117879500D01*
X112607213Y-117831971D01*
X112607215Y-117831968D01*
X112607219Y-117831966D01*
X112751966Y-117687219D01*
X112751968Y-117687215D01*
X112751971Y-117687213D01*
X112872286Y-117521611D01*
X112872415Y-117521359D01*
X112919795Y-117428369D01*
X112967769Y-117377573D01*
X113035590Y-117360778D01*
X113101725Y-117383315D01*
X113140765Y-117428369D01*
X113188141Y-117521350D01*
X113188147Y-117521359D01*
X113220523Y-117565921D01*
X113220524Y-117565922D01*
X113900000Y-116886446D01*
X113900000Y-116892661D01*
X113927259Y-116994394D01*
X113979920Y-117085606D01*
X114054394Y-117160080D01*
X114145606Y-117212741D01*
X114247339Y-117240000D01*
X114253553Y-117240000D01*
X113574076Y-117919474D01*
X113618650Y-117951859D01*
X113800968Y-118044755D01*
X113995582Y-118107990D01*
X114197683Y-118140000D01*
X114402317Y-118140000D01*
X114604417Y-118107990D01*
X114799031Y-118044755D01*
X114981349Y-117951859D01*
X115025921Y-117919474D01*
X114346447Y-117240000D01*
X114352661Y-117240000D01*
X114454394Y-117212741D01*
X114545606Y-117160080D01*
X114620080Y-117085606D01*
X114672741Y-116994394D01*
X114700000Y-116892661D01*
X114700000Y-116886448D01*
X115379474Y-117565922D01*
X115379474Y-117565921D01*
X115411859Y-117521349D01*
X115504755Y-117339031D01*
X115567990Y-117144417D01*
X115600000Y-116942317D01*
X115600000Y-116737682D01*
X115567990Y-116535582D01*
X115504755Y-116340968D01*
X115411859Y-116158650D01*
X115379474Y-116114077D01*
X115379474Y-116114076D01*
X114700000Y-116793551D01*
X114700000Y-116787339D01*
X114672741Y-116685606D01*
X114620080Y-116594394D01*
X114545606Y-116519920D01*
X114454394Y-116467259D01*
X114352661Y-116440000D01*
X114346446Y-116440000D01*
X115025922Y-115760524D01*
X115025921Y-115760523D01*
X114981359Y-115728147D01*
X114981350Y-115728141D01*
X114799031Y-115635244D01*
X114604417Y-115572009D01*
X114402317Y-115540000D01*
X114197683Y-115540000D01*
X113995582Y-115572009D01*
X113800968Y-115635244D01*
X113618644Y-115728143D01*
X113574077Y-115760523D01*
X113574077Y-115760524D01*
X114253554Y-116440000D01*
X114247339Y-116440000D01*
X114145606Y-116467259D01*
X114054394Y-116519920D01*
X113979920Y-116594394D01*
X113927259Y-116685606D01*
X113900000Y-116787339D01*
X113900000Y-116793553D01*
X113220524Y-116114077D01*
X113220523Y-116114077D01*
X113188143Y-116158644D01*
X113140765Y-116251630D01*
X113092790Y-116302426D01*
X113024969Y-116319221D01*
X112958834Y-116296683D01*
X112919795Y-116251630D01*
X112872284Y-116158385D01*
X112751971Y-115992786D01*
X112607213Y-115848028D01*
X112441613Y-115727715D01*
X112441612Y-115727714D01*
X112441610Y-115727713D01*
X112384653Y-115698691D01*
X112259223Y-115634781D01*
X112064534Y-115571522D01*
X111889995Y-115543878D01*
X111862352Y-115539500D01*
X111657648Y-115539500D01*
X111633329Y-115543351D01*
X111455465Y-115571522D01*
X111260776Y-115634781D01*
X111078386Y-115727715D01*
X110912786Y-115848028D01*
X110768028Y-115992786D01*
X110647715Y-116158386D01*
X110600485Y-116251080D01*
X110552510Y-116301876D01*
X110484689Y-116318671D01*
X110418554Y-116296134D01*
X110379515Y-116251080D01*
X110332419Y-116158650D01*
X110332287Y-116158390D01*
X110300092Y-116114077D01*
X110211971Y-115992786D01*
X110067213Y-115848028D01*
X109901613Y-115727715D01*
X109901612Y-115727714D01*
X109901610Y-115727713D01*
X109844653Y-115698691D01*
X109719223Y-115634781D01*
X109524534Y-115571522D01*
X109349995Y-115543878D01*
X109322352Y-115539500D01*
X109117648Y-115539500D01*
X109093329Y-115543351D01*
X108915465Y-115571522D01*
X108720776Y-115634781D01*
X108538386Y-115727715D01*
X108372786Y-115848028D01*
X108228028Y-115992786D01*
X108107715Y-116158386D01*
X108060485Y-116251080D01*
X108012510Y-116301876D01*
X107944689Y-116318671D01*
X107878554Y-116296134D01*
X107839515Y-116251080D01*
X107792419Y-116158650D01*
X107792287Y-116158390D01*
X107760092Y-116114077D01*
X107671971Y-115992786D01*
X107527213Y-115848028D01*
X107361613Y-115727715D01*
X107361612Y-115727714D01*
X107361610Y-115727713D01*
X107304653Y-115698691D01*
X107179223Y-115634781D01*
X106984534Y-115571522D01*
X106809995Y-115543878D01*
X106782352Y-115539500D01*
X106577648Y-115539500D01*
X106553329Y-115543351D01*
X106375465Y-115571522D01*
X106180776Y-115634781D01*
X105998386Y-115727715D01*
X105832786Y-115848028D01*
X105688028Y-115992786D01*
X105567715Y-116158386D01*
X105520485Y-116251080D01*
X105472510Y-116301876D01*
X105404689Y-116318671D01*
X105338554Y-116296134D01*
X105299515Y-116251080D01*
X105252419Y-116158650D01*
X105252287Y-116158390D01*
X105220092Y-116114077D01*
X105131971Y-115992786D01*
X104987213Y-115848028D01*
X104821613Y-115727715D01*
X104821612Y-115727714D01*
X104821610Y-115727713D01*
X104764653Y-115698691D01*
X104639223Y-115634781D01*
X104444534Y-115571522D01*
X104269995Y-115543878D01*
X104242352Y-115539500D01*
X104037648Y-115539500D01*
X104013329Y-115543351D01*
X103835465Y-115571522D01*
X103640776Y-115634781D01*
X103458386Y-115727715D01*
X103292786Y-115848028D01*
X103148028Y-115992786D01*
X103027715Y-116158386D01*
X102980485Y-116251080D01*
X102932510Y-116301876D01*
X102864689Y-116318671D01*
X102798554Y-116296134D01*
X102759515Y-116251080D01*
X102712419Y-116158650D01*
X102712287Y-116158390D01*
X102680092Y-116114077D01*
X102591971Y-115992786D01*
X102447213Y-115848028D01*
X102281613Y-115727715D01*
X102281612Y-115727714D01*
X102281610Y-115727713D01*
X102224653Y-115698691D01*
X102099223Y-115634781D01*
X101904534Y-115571522D01*
X101729995Y-115543878D01*
X101702352Y-115539500D01*
X101497648Y-115539500D01*
X101473329Y-115543351D01*
X101295465Y-115571522D01*
X101100776Y-115634781D01*
X100918386Y-115727715D01*
X100752786Y-115848028D01*
X100608028Y-115992786D01*
X100487715Y-116158386D01*
X100440485Y-116251080D01*
X100392510Y-116301876D01*
X100324689Y-116318671D01*
X100258554Y-116296134D01*
X100219515Y-116251080D01*
X100172419Y-116158650D01*
X100172287Y-116158390D01*
X100140092Y-116114077D01*
X100051971Y-115992786D01*
X99907213Y-115848028D01*
X99741613Y-115727715D01*
X99741612Y-115727714D01*
X99741610Y-115727713D01*
X99684653Y-115698691D01*
X99559223Y-115634781D01*
X99364534Y-115571522D01*
X99189995Y-115543878D01*
X99162352Y-115539500D01*
X98957648Y-115539500D01*
X98933329Y-115543351D01*
X98755465Y-115571522D01*
X98560776Y-115634781D01*
X98378386Y-115727715D01*
X98212786Y-115848028D01*
X98068028Y-115992786D01*
X97947715Y-116158386D01*
X97900485Y-116251080D01*
X97852510Y-116301876D01*
X97784689Y-116318671D01*
X97718554Y-116296134D01*
X97679515Y-116251080D01*
X97632419Y-116158650D01*
X97632287Y-116158390D01*
X97600092Y-116114077D01*
X97511971Y-115992786D01*
X97367213Y-115848028D01*
X97201613Y-115727715D01*
X97201612Y-115727714D01*
X97201610Y-115727713D01*
X97144653Y-115698691D01*
X97019223Y-115634781D01*
X96824534Y-115571522D01*
X96649995Y-115543878D01*
X96622352Y-115539500D01*
X96417648Y-115539500D01*
X96393329Y-115543351D01*
X96215465Y-115571522D01*
X96020776Y-115634781D01*
X95838386Y-115727715D01*
X95672786Y-115848028D01*
X95528028Y-115992786D01*
X95407715Y-116158386D01*
X95314781Y-116340776D01*
X95251522Y-116535465D01*
X95219500Y-116737648D01*
X38600500Y-116737648D01*
X38600500Y-111551966D01*
X40829500Y-111551966D01*
X40829500Y-112668028D01*
X40829501Y-112668034D01*
X40840113Y-112787415D01*
X40896089Y-112983045D01*
X40896090Y-112983048D01*
X40896091Y-112983049D01*
X40990302Y-113163407D01*
X40990304Y-113163409D01*
X41118890Y-113321109D01*
X41212803Y-113397684D01*
X41276593Y-113449698D01*
X41456951Y-113543909D01*
X41652582Y-113599886D01*
X41771963Y-113610500D01*
X44588036Y-113610499D01*
X44707418Y-113599886D01*
X44903049Y-113543909D01*
X45083407Y-113449698D01*
X45241109Y-113321109D01*
X45369698Y-113163407D01*
X45463909Y-112983049D01*
X45519886Y-112787418D01*
X45530500Y-112668037D01*
X45530499Y-111657648D01*
X77439500Y-111657648D01*
X77439500Y-111862351D01*
X77471522Y-112064534D01*
X77534781Y-112259223D01*
X77598691Y-112384653D01*
X77617565Y-112421694D01*
X77627715Y-112441613D01*
X77748028Y-112607213D01*
X77892786Y-112751971D01*
X78013657Y-112839787D01*
X78058390Y-112872287D01*
X78170759Y-112929542D01*
X78240776Y-112965218D01*
X78240778Y-112965218D01*
X78240781Y-112965220D01*
X78319890Y-112990924D01*
X78435465Y-113028477D01*
X78536557Y-113044488D01*
X78637648Y-113060500D01*
X78637649Y-113060500D01*
X78842351Y-113060500D01*
X78842352Y-113060500D01*
X79044534Y-113028477D01*
X79239219Y-112965220D01*
X79421610Y-112872287D01*
X79538426Y-112787416D01*
X79587213Y-112751971D01*
X79587215Y-112751968D01*
X79587219Y-112751966D01*
X79731966Y-112607219D01*
X79731968Y-112607215D01*
X79731971Y-112607213D01*
X79784732Y-112534590D01*
X79852287Y-112441610D01*
X79945220Y-112259219D01*
X80008477Y-112064534D01*
X80040500Y-111862352D01*
X80040500Y-111657648D01*
X87599500Y-111657648D01*
X87599500Y-111862351D01*
X87631522Y-112064534D01*
X87694781Y-112259223D01*
X87758691Y-112384653D01*
X87777565Y-112421694D01*
X87787715Y-112441613D01*
X87908028Y-112607213D01*
X88052786Y-112751971D01*
X88173657Y-112839787D01*
X88218390Y-112872287D01*
X88330759Y-112929542D01*
X88400776Y-112965218D01*
X88400778Y-112965218D01*
X88400781Y-112965220D01*
X88479890Y-112990924D01*
X88595465Y-113028477D01*
X88696557Y-113044488D01*
X88797648Y-113060500D01*
X88797649Y-113060500D01*
X89002351Y-113060500D01*
X89002352Y-113060500D01*
X89204534Y-113028477D01*
X89399219Y-112965220D01*
X89581610Y-112872287D01*
X89698426Y-112787416D01*
X89747213Y-112751971D01*
X89747215Y-112751968D01*
X89747219Y-112751966D01*
X89891966Y-112607219D01*
X89891968Y-112607215D01*
X89891971Y-112607213D01*
X89944732Y-112534590D01*
X90012287Y-112441610D01*
X90105220Y-112259219D01*
X90168477Y-112064534D01*
X90200500Y-111862352D01*
X90200500Y-111660639D01*
X95257500Y-111660639D01*
X95257500Y-111859360D01*
X95288587Y-112055637D01*
X95349993Y-112244629D01*
X95349994Y-112244632D01*
X95440074Y-112421422D01*
X95440213Y-112421694D01*
X95557019Y-112582464D01*
X95697536Y-112722981D01*
X95858306Y-112839787D01*
X95922085Y-112872284D01*
X96035367Y-112930005D01*
X96035370Y-112930006D01*
X96129866Y-112960709D01*
X96224364Y-112991413D01*
X96420639Y-113022500D01*
X96420640Y-113022500D01*
X96619360Y-113022500D01*
X96619361Y-113022500D01*
X96815636Y-112991413D01*
X97004632Y-112930005D01*
X97181694Y-112839787D01*
X97342464Y-112722981D01*
X97482981Y-112582464D01*
X97599787Y-112421694D01*
X97679515Y-112265218D01*
X97727490Y-112214423D01*
X97795311Y-112197628D01*
X97861446Y-112220165D01*
X97900484Y-112265218D01*
X97980213Y-112421694D01*
X98097019Y-112582464D01*
X98237536Y-112722981D01*
X98398306Y-112839787D01*
X98462085Y-112872284D01*
X98575367Y-112930005D01*
X98575370Y-112930006D01*
X98669866Y-112960709D01*
X98764364Y-112991413D01*
X98960639Y-113022500D01*
X98960640Y-113022500D01*
X99159360Y-113022500D01*
X99159361Y-113022500D01*
X99355636Y-112991413D01*
X99544632Y-112930005D01*
X99721694Y-112839787D01*
X99882464Y-112722981D01*
X100022981Y-112582464D01*
X100139787Y-112421694D01*
X100219515Y-112265218D01*
X100267490Y-112214423D01*
X100335311Y-112197628D01*
X100401446Y-112220165D01*
X100440484Y-112265218D01*
X100520213Y-112421694D01*
X100637019Y-112582464D01*
X100777536Y-112722981D01*
X100938306Y-112839787D01*
X101002085Y-112872284D01*
X101115367Y-112930005D01*
X101115370Y-112930006D01*
X101209866Y-112960709D01*
X101304364Y-112991413D01*
X101500639Y-113022500D01*
X101500640Y-113022500D01*
X101699360Y-113022500D01*
X101699361Y-113022500D01*
X101895636Y-112991413D01*
X102084632Y-112930005D01*
X102261694Y-112839787D01*
X102422464Y-112722981D01*
X102562981Y-112582464D01*
X102679787Y-112421694D01*
X102759515Y-112265218D01*
X102807490Y-112214423D01*
X102875311Y-112197628D01*
X102941446Y-112220165D01*
X102980484Y-112265218D01*
X103060213Y-112421694D01*
X103177019Y-112582464D01*
X103317536Y-112722981D01*
X103478306Y-112839787D01*
X103542085Y-112872284D01*
X103655367Y-112930005D01*
X103655370Y-112930006D01*
X103749866Y-112960709D01*
X103844364Y-112991413D01*
X104040639Y-113022500D01*
X104040640Y-113022500D01*
X104239360Y-113022500D01*
X104239361Y-113022500D01*
X104435636Y-112991413D01*
X104624632Y-112930005D01*
X104801694Y-112839787D01*
X104962464Y-112722981D01*
X105102981Y-112582464D01*
X105219787Y-112421694D01*
X105299515Y-112265218D01*
X105347490Y-112214423D01*
X105415311Y-112197628D01*
X105481446Y-112220165D01*
X105520484Y-112265218D01*
X105600213Y-112421694D01*
X105717019Y-112582464D01*
X105857536Y-112722981D01*
X106018306Y-112839787D01*
X106082085Y-112872284D01*
X106195367Y-112930005D01*
X106195370Y-112930006D01*
X106289866Y-112960709D01*
X106384364Y-112991413D01*
X106580639Y-113022500D01*
X106580640Y-113022500D01*
X106779360Y-113022500D01*
X106779361Y-113022500D01*
X106975636Y-112991413D01*
X107164632Y-112930005D01*
X107341694Y-112839787D01*
X107502464Y-112722981D01*
X107642981Y-112582464D01*
X107759787Y-112421694D01*
X107839515Y-112265218D01*
X107887490Y-112214423D01*
X107955311Y-112197628D01*
X108021446Y-112220165D01*
X108060484Y-112265218D01*
X108140213Y-112421694D01*
X108257019Y-112582464D01*
X108397536Y-112722981D01*
X108558306Y-112839787D01*
X108622085Y-112872284D01*
X108735367Y-112930005D01*
X108735370Y-112930006D01*
X108829866Y-112960709D01*
X108924364Y-112991413D01*
X109120639Y-113022500D01*
X109120640Y-113022500D01*
X109319360Y-113022500D01*
X109319361Y-113022500D01*
X109515636Y-112991413D01*
X109704632Y-112930005D01*
X109881694Y-112839787D01*
X110042464Y-112722981D01*
X110182981Y-112582464D01*
X110299787Y-112421694D01*
X110379796Y-112264667D01*
X110427769Y-112213872D01*
X110495590Y-112197077D01*
X110561725Y-112219614D01*
X110600765Y-112264668D01*
X110680641Y-112421432D01*
X110707730Y-112458715D01*
X110707731Y-112458716D01*
X111379000Y-111787447D01*
X111379000Y-111810160D01*
X111404964Y-111907061D01*
X111455124Y-111993940D01*
X111526060Y-112064876D01*
X111612939Y-112115036D01*
X111709840Y-112141000D01*
X111732553Y-112141000D01*
X111061283Y-112812268D01*
X111061283Y-112812269D01*
X111098567Y-112839358D01*
X111275562Y-112929542D01*
X111464477Y-112990924D01*
X111660679Y-113022000D01*
X111859321Y-113022000D01*
X112055520Y-112990924D01*
X112055523Y-112990924D01*
X112244437Y-112929542D01*
X112421425Y-112839362D01*
X112458716Y-112812268D01*
X111787448Y-112141000D01*
X111810160Y-112141000D01*
X111907061Y-112115036D01*
X111993940Y-112064876D01*
X112064876Y-111993940D01*
X112115036Y-111907061D01*
X112141000Y-111810160D01*
X112141000Y-111787447D01*
X112812268Y-112458715D01*
X112839364Y-112421422D01*
X112919234Y-112264669D01*
X112967208Y-112213872D01*
X113035029Y-112197077D01*
X113101164Y-112219614D01*
X113140203Y-112264667D01*
X113220213Y-112421694D01*
X113337019Y-112582464D01*
X113477536Y-112722981D01*
X113638306Y-112839787D01*
X113702085Y-112872284D01*
X113815367Y-112930005D01*
X113815370Y-112930006D01*
X113909866Y-112960709D01*
X114004364Y-112991413D01*
X114200639Y-113022500D01*
X114200640Y-113022500D01*
X114399360Y-113022500D01*
X114399361Y-113022500D01*
X114595636Y-112991413D01*
X114784632Y-112930005D01*
X114961694Y-112839787D01*
X115122464Y-112722981D01*
X115262981Y-112582464D01*
X115379787Y-112421694D01*
X115470005Y-112244632D01*
X115531413Y-112055636D01*
X115562500Y-111859361D01*
X115562500Y-111660639D01*
X115531413Y-111464364D01*
X115470005Y-111275368D01*
X115470005Y-111275367D01*
X115424035Y-111185149D01*
X115379787Y-111098306D01*
X115262981Y-110937536D01*
X115122464Y-110797019D01*
X114961694Y-110680213D01*
X114953600Y-110676089D01*
X114784632Y-110589994D01*
X114784629Y-110589993D01*
X114595637Y-110528587D01*
X114497498Y-110513043D01*
X114399361Y-110497500D01*
X114200639Y-110497500D01*
X114135214Y-110507862D01*
X114004362Y-110528587D01*
X113815370Y-110589993D01*
X113815367Y-110589994D01*
X113638305Y-110680213D01*
X113477533Y-110797021D01*
X113337021Y-110937533D01*
X113220213Y-111098305D01*
X113140204Y-111255331D01*
X113092229Y-111306127D01*
X113024408Y-111322922D01*
X112958273Y-111300384D01*
X112919234Y-111255331D01*
X112839358Y-111098567D01*
X112812268Y-111061283D01*
X112141000Y-111732551D01*
X112141000Y-111709840D01*
X112115036Y-111612939D01*
X112064876Y-111526060D01*
X111993940Y-111455124D01*
X111907061Y-111404964D01*
X111810160Y-111379000D01*
X111787447Y-111379000D01*
X112458716Y-110707731D01*
X112458715Y-110707730D01*
X112421432Y-110680641D01*
X112244437Y-110590457D01*
X112055522Y-110529075D01*
X111859321Y-110498000D01*
X111660679Y-110498000D01*
X111464479Y-110529075D01*
X111464476Y-110529075D01*
X111275562Y-110590457D01*
X111098564Y-110680643D01*
X111061283Y-110707729D01*
X111061282Y-110707730D01*
X111732554Y-111379000D01*
X111709840Y-111379000D01*
X111612939Y-111404964D01*
X111526060Y-111455124D01*
X111455124Y-111526060D01*
X111404964Y-111612939D01*
X111379000Y-111709840D01*
X111379000Y-111732552D01*
X110707730Y-111061282D01*
X110707729Y-111061283D01*
X110680641Y-111098566D01*
X110600764Y-111255332D01*
X110552790Y-111306127D01*
X110484969Y-111322922D01*
X110418834Y-111300384D01*
X110379796Y-111255332D01*
X110299787Y-111098306D01*
X110182981Y-110937536D01*
X110042464Y-110797019D01*
X109881694Y-110680213D01*
X109873600Y-110676089D01*
X109704632Y-110589994D01*
X109704629Y-110589993D01*
X109515637Y-110528587D01*
X109417498Y-110513043D01*
X109319361Y-110497500D01*
X109120639Y-110497500D01*
X109055214Y-110507862D01*
X108924362Y-110528587D01*
X108735370Y-110589993D01*
X108735367Y-110589994D01*
X108558305Y-110680213D01*
X108397533Y-110797021D01*
X108257021Y-110937533D01*
X108140213Y-111098305D01*
X108060485Y-111254780D01*
X108012510Y-111305576D01*
X107944689Y-111322371D01*
X107878554Y-111299833D01*
X107839515Y-111254780D01*
X107820179Y-111216832D01*
X107759787Y-111098306D01*
X107642981Y-110937536D01*
X107502464Y-110797019D01*
X107341694Y-110680213D01*
X107333600Y-110676089D01*
X107164632Y-110589994D01*
X107164629Y-110589993D01*
X106975637Y-110528587D01*
X106877498Y-110513043D01*
X106779361Y-110497500D01*
X106580639Y-110497500D01*
X106515214Y-110507862D01*
X106384362Y-110528587D01*
X106195370Y-110589993D01*
X106195367Y-110589994D01*
X106018305Y-110680213D01*
X105857533Y-110797021D01*
X105717021Y-110937533D01*
X105600213Y-111098305D01*
X105520485Y-111254780D01*
X105472510Y-111305576D01*
X105404689Y-111322371D01*
X105338554Y-111299833D01*
X105299515Y-111254780D01*
X105280179Y-111216832D01*
X105219787Y-111098306D01*
X105102981Y-110937536D01*
X104962464Y-110797019D01*
X104801694Y-110680213D01*
X104793600Y-110676089D01*
X104624632Y-110589994D01*
X104624629Y-110589993D01*
X104435637Y-110528587D01*
X104337498Y-110513043D01*
X104239361Y-110497500D01*
X104040639Y-110497500D01*
X103975214Y-110507862D01*
X103844362Y-110528587D01*
X103655370Y-110589993D01*
X103655367Y-110589994D01*
X103478305Y-110680213D01*
X103317533Y-110797021D01*
X103177021Y-110937533D01*
X103060213Y-111098305D01*
X102980485Y-111254780D01*
X102932510Y-111305576D01*
X102864689Y-111322371D01*
X102798554Y-111299833D01*
X102759515Y-111254780D01*
X102740179Y-111216832D01*
X102679787Y-111098306D01*
X102562981Y-110937536D01*
X102422464Y-110797019D01*
X102261694Y-110680213D01*
X102253600Y-110676089D01*
X102084632Y-110589994D01*
X102084629Y-110589993D01*
X101895637Y-110528587D01*
X101797498Y-110513043D01*
X101699361Y-110497500D01*
X101500639Y-110497500D01*
X101435214Y-110507862D01*
X101304362Y-110528587D01*
X101115370Y-110589993D01*
X101115367Y-110589994D01*
X100938305Y-110680213D01*
X100777533Y-110797021D01*
X100637021Y-110937533D01*
X100520213Y-111098305D01*
X100440485Y-111254780D01*
X100392510Y-111305576D01*
X100324689Y-111322371D01*
X100258554Y-111299833D01*
X100219515Y-111254780D01*
X100200179Y-111216832D01*
X100139787Y-111098306D01*
X100022981Y-110937536D01*
X99882464Y-110797019D01*
X99721694Y-110680213D01*
X99713600Y-110676089D01*
X99544632Y-110589994D01*
X99544629Y-110589993D01*
X99355637Y-110528587D01*
X99257498Y-110513043D01*
X99159361Y-110497500D01*
X98960639Y-110497500D01*
X98895214Y-110507862D01*
X98764362Y-110528587D01*
X98575370Y-110589993D01*
X98575367Y-110589994D01*
X98398305Y-110680213D01*
X98237533Y-110797021D01*
X98097021Y-110937533D01*
X97980213Y-111098305D01*
X97900485Y-111254780D01*
X97852510Y-111305576D01*
X97784689Y-111322371D01*
X97718554Y-111299833D01*
X97679515Y-111254780D01*
X97660179Y-111216832D01*
X97599787Y-111098306D01*
X97482981Y-110937536D01*
X97342464Y-110797019D01*
X97181694Y-110680213D01*
X97173600Y-110676089D01*
X97004632Y-110589994D01*
X97004629Y-110589993D01*
X96815637Y-110528587D01*
X96717498Y-110513043D01*
X96619361Y-110497500D01*
X96420639Y-110497500D01*
X96355214Y-110507862D01*
X96224362Y-110528587D01*
X96035370Y-110589993D01*
X96035367Y-110589994D01*
X95858305Y-110680213D01*
X95697533Y-110797021D01*
X95557021Y-110937533D01*
X95440213Y-111098305D01*
X95349994Y-111275367D01*
X95349993Y-111275370D01*
X95288587Y-111464362D01*
X95257500Y-111660639D01*
X90200500Y-111660639D01*
X90200500Y-111657648D01*
X90168477Y-111455466D01*
X90152549Y-111406446D01*
X90109960Y-111275370D01*
X90105220Y-111260781D01*
X90105218Y-111260778D01*
X90105218Y-111260776D01*
X90071503Y-111194607D01*
X90012287Y-111078390D01*
X89996449Y-111056590D01*
X89891971Y-110912786D01*
X89747213Y-110768028D01*
X89581613Y-110647715D01*
X89581612Y-110647714D01*
X89581610Y-110647713D01*
X89506613Y-110609500D01*
X89399223Y-110554781D01*
X89204534Y-110491522D01*
X89029995Y-110463878D01*
X89002352Y-110459500D01*
X88797648Y-110459500D01*
X88773329Y-110463351D01*
X88595465Y-110491522D01*
X88400776Y-110554781D01*
X88218386Y-110647715D01*
X88052786Y-110768028D01*
X87908028Y-110912786D01*
X87787715Y-111078386D01*
X87694781Y-111260776D01*
X87631522Y-111455465D01*
X87599500Y-111657648D01*
X80040500Y-111657648D01*
X80008477Y-111455466D01*
X79992549Y-111406446D01*
X79949960Y-111275370D01*
X79945220Y-111260781D01*
X79945218Y-111260778D01*
X79945218Y-111260776D01*
X79911503Y-111194607D01*
X79852287Y-111078390D01*
X79836449Y-111056590D01*
X79731971Y-110912786D01*
X79587213Y-110768028D01*
X79421613Y-110647715D01*
X79421612Y-110647714D01*
X79421610Y-110647713D01*
X79346613Y-110609500D01*
X79239223Y-110554781D01*
X79044534Y-110491522D01*
X78869995Y-110463878D01*
X78842352Y-110459500D01*
X78637648Y-110459500D01*
X78613329Y-110463351D01*
X78435465Y-110491522D01*
X78240776Y-110554781D01*
X78058386Y-110647715D01*
X77892786Y-110768028D01*
X77748028Y-110912786D01*
X77627715Y-111078386D01*
X77534781Y-111260776D01*
X77471522Y-111455465D01*
X77439500Y-111657648D01*
X45530499Y-111657648D01*
X45530499Y-111551964D01*
X45519886Y-111432582D01*
X45470726Y-111260776D01*
X45463910Y-111236954D01*
X45463909Y-111236953D01*
X45463909Y-111236951D01*
X45369698Y-111056593D01*
X45272620Y-110937536D01*
X45241109Y-110898890D01*
X45083409Y-110770304D01*
X45083410Y-110770304D01*
X45083407Y-110770302D01*
X44903049Y-110676091D01*
X44903048Y-110676090D01*
X44903045Y-110676089D01*
X44785829Y-110642550D01*
X44707418Y-110620114D01*
X44707415Y-110620113D01*
X44707413Y-110620113D01*
X44641102Y-110614217D01*
X44588037Y-110609500D01*
X44588032Y-110609500D01*
X41771971Y-110609500D01*
X41771965Y-110609500D01*
X41771964Y-110609501D01*
X41760316Y-110610536D01*
X41652584Y-110620113D01*
X41456954Y-110676089D01*
X41396383Y-110707729D01*
X41276593Y-110770302D01*
X41276591Y-110770303D01*
X41276590Y-110770304D01*
X41118890Y-110898890D01*
X40990304Y-111056590D01*
X40990302Y-111056593D01*
X40968514Y-111098305D01*
X40896089Y-111236954D01*
X40855446Y-111379000D01*
X40847593Y-111406446D01*
X40840114Y-111432583D01*
X40840113Y-111432586D01*
X40829500Y-111551966D01*
X38600500Y-111551966D01*
X38600500Y-109109778D01*
X51939500Y-109109778D01*
X51939500Y-109330221D01*
X51973985Y-109547952D01*
X52042103Y-109757603D01*
X52042104Y-109757606D01*
X52142187Y-109954025D01*
X52271752Y-110132358D01*
X52271756Y-110132363D01*
X52427636Y-110288243D01*
X52427641Y-110288247D01*
X52583192Y-110401260D01*
X52605978Y-110417815D01*
X52687789Y-110459500D01*
X52802393Y-110517895D01*
X52802396Y-110517896D01*
X52907221Y-110551955D01*
X53012049Y-110586015D01*
X53229778Y-110620500D01*
X53229779Y-110620500D01*
X53450221Y-110620500D01*
X53450222Y-110620500D01*
X53667951Y-110586015D01*
X53877606Y-110517895D01*
X54074022Y-110417815D01*
X54252365Y-110288242D01*
X54408242Y-110132365D01*
X54537815Y-109954022D01*
X54637895Y-109757606D01*
X54706015Y-109547951D01*
X54740500Y-109330222D01*
X54740500Y-109109778D01*
X54706015Y-108892049D01*
X54637895Y-108682394D01*
X54637895Y-108682393D01*
X54603237Y-108614375D01*
X54537815Y-108485978D01*
X54521260Y-108463192D01*
X54408247Y-108307641D01*
X54408243Y-108307636D01*
X54252363Y-108151756D01*
X54252358Y-108151752D01*
X54074025Y-108022187D01*
X54074024Y-108022186D01*
X54074022Y-108022185D01*
X54010942Y-107990044D01*
X53877606Y-107922104D01*
X53877603Y-107922103D01*
X53667952Y-107853985D01*
X53559086Y-107836742D01*
X53450222Y-107819500D01*
X53229778Y-107819500D01*
X53157201Y-107830995D01*
X53012047Y-107853985D01*
X52802396Y-107922103D01*
X52802393Y-107922104D01*
X52605974Y-108022187D01*
X52427641Y-108151752D01*
X52427636Y-108151756D01*
X52271756Y-108307636D01*
X52271752Y-108307641D01*
X52142187Y-108485974D01*
X52042104Y-108682393D01*
X52042103Y-108682396D01*
X51973985Y-108892047D01*
X51939500Y-109109778D01*
X38600500Y-109109778D01*
X38600500Y-102359097D01*
X42919500Y-102359097D01*
X42919500Y-102618902D01*
X42960140Y-102875493D01*
X43040422Y-103122576D01*
X43158368Y-103354054D01*
X43196090Y-103405974D01*
X43311069Y-103564229D01*
X43494771Y-103747931D01*
X43704949Y-103900634D01*
X43852445Y-103975787D01*
X43936423Y-104018577D01*
X43936425Y-104018577D01*
X43936428Y-104018579D01*
X44183507Y-104098860D01*
X44315706Y-104119797D01*
X44440098Y-104139500D01*
X44440103Y-104139500D01*
X46999902Y-104139500D01*
X47113298Y-104121539D01*
X47256493Y-104098860D01*
X47481822Y-104025646D01*
X56919500Y-104025646D01*
X56919500Y-104254353D01*
X56955278Y-104480246D01*
X56955278Y-104480249D01*
X57025950Y-104697755D01*
X57025952Y-104697758D01*
X57129783Y-104901538D01*
X57262525Y-105084242D01*
X57286005Y-105150046D01*
X57270180Y-105218100D01*
X57220074Y-105266795D01*
X57205541Y-105273308D01*
X57177670Y-105283703D01*
X57177664Y-105283706D01*
X57062455Y-105369952D01*
X57062452Y-105369955D01*
X56976206Y-105485164D01*
X56976202Y-105485171D01*
X56925908Y-105620017D01*
X56919501Y-105679616D01*
X56919501Y-105679623D01*
X56919500Y-105679635D01*
X56919500Y-107680370D01*
X56919501Y-107680376D01*
X56925908Y-107739983D01*
X56976202Y-107874828D01*
X56976206Y-107874835D01*
X57062452Y-107990044D01*
X57062455Y-107990047D01*
X57177664Y-108076293D01*
X57177671Y-108076297D01*
X57312517Y-108126591D01*
X57312516Y-108126591D01*
X57319444Y-108127335D01*
X57372127Y-108133000D01*
X59467872Y-108132999D01*
X59527483Y-108126591D01*
X59662331Y-108076296D01*
X59777546Y-107990046D01*
X59863796Y-107874831D01*
X59914091Y-107739983D01*
X59920500Y-107680373D01*
X59920499Y-105679628D01*
X59914091Y-105620017D01*
X59906820Y-105600523D01*
X59863797Y-105485171D01*
X59863793Y-105485164D01*
X59777547Y-105369955D01*
X59777544Y-105369952D01*
X59662335Y-105283706D01*
X59662328Y-105283702D01*
X59634459Y-105273308D01*
X59578525Y-105231437D01*
X59554108Y-105165973D01*
X59568960Y-105097700D01*
X59577460Y-105084260D01*
X59710217Y-104901538D01*
X59814048Y-104697758D01*
X59884722Y-104480245D01*
X59920500Y-104254354D01*
X59920500Y-104025646D01*
X61999500Y-104025646D01*
X61999500Y-104254353D01*
X62035278Y-104480246D01*
X62035278Y-104480249D01*
X62105950Y-104697755D01*
X62105952Y-104697758D01*
X62209783Y-104901538D01*
X62342525Y-105084242D01*
X62366005Y-105150046D01*
X62350180Y-105218100D01*
X62300074Y-105266795D01*
X62285541Y-105273308D01*
X62257670Y-105283703D01*
X62257664Y-105283706D01*
X62142455Y-105369952D01*
X62142452Y-105369955D01*
X62056206Y-105485164D01*
X62056202Y-105485171D01*
X62005908Y-105620017D01*
X61999501Y-105679616D01*
X61999501Y-105679623D01*
X61999500Y-105679635D01*
X61999500Y-107680370D01*
X61999501Y-107680376D01*
X62005908Y-107739983D01*
X62056202Y-107874828D01*
X62056206Y-107874835D01*
X62142452Y-107990044D01*
X62142455Y-107990047D01*
X62257664Y-108076293D01*
X62257671Y-108076297D01*
X62392517Y-108126591D01*
X62392516Y-108126591D01*
X62399444Y-108127335D01*
X62452127Y-108133000D01*
X64547872Y-108132999D01*
X64607483Y-108126591D01*
X64742331Y-108076296D01*
X64857546Y-107990046D01*
X64943796Y-107874831D01*
X64994091Y-107739983D01*
X65000500Y-107680373D01*
X65000499Y-106577648D01*
X72359500Y-106577648D01*
X72359500Y-106782351D01*
X72391522Y-106984534D01*
X72454781Y-107179223D01*
X72493801Y-107255802D01*
X72547585Y-107361359D01*
X72547715Y-107361613D01*
X72668028Y-107527213D01*
X72812786Y-107671971D01*
X72933226Y-107759474D01*
X72978390Y-107792287D01*
X73094607Y-107851503D01*
X73160776Y-107885218D01*
X73160778Y-107885218D01*
X73160781Y-107885220D01*
X73214450Y-107902658D01*
X73355465Y-107948477D01*
X73446616Y-107962914D01*
X73557648Y-107980500D01*
X73557649Y-107980500D01*
X73762351Y-107980500D01*
X73762352Y-107980500D01*
X73964534Y-107948477D01*
X74159219Y-107885220D01*
X74341610Y-107792287D01*
X74434590Y-107724732D01*
X74507213Y-107671971D01*
X74507215Y-107671968D01*
X74507219Y-107671966D01*
X74651966Y-107527219D01*
X74651968Y-107527215D01*
X74651971Y-107527213D01*
X74704732Y-107454590D01*
X74772287Y-107361610D01*
X74865220Y-107179219D01*
X74928477Y-106984534D01*
X74960500Y-106782352D01*
X74960500Y-106577682D01*
X82520000Y-106577682D01*
X82520000Y-106782317D01*
X82552009Y-106984417D01*
X82615244Y-107179031D01*
X82708141Y-107361350D01*
X82708147Y-107361359D01*
X82740523Y-107405921D01*
X82740524Y-107405922D01*
X83420000Y-106726446D01*
X83420000Y-106732661D01*
X83447259Y-106834394D01*
X83499920Y-106925606D01*
X83574394Y-107000080D01*
X83665606Y-107052741D01*
X83767339Y-107080000D01*
X83773553Y-107080000D01*
X83094076Y-107759474D01*
X83138650Y-107791859D01*
X83320968Y-107884755D01*
X83515582Y-107947990D01*
X83717683Y-107980000D01*
X83922317Y-107980000D01*
X84124417Y-107947990D01*
X84319031Y-107884755D01*
X84501349Y-107791859D01*
X84545922Y-107759474D01*
X83866447Y-107080000D01*
X83872661Y-107080000D01*
X83974394Y-107052741D01*
X84065606Y-107000080D01*
X84140080Y-106925606D01*
X84192741Y-106834394D01*
X84220000Y-106732661D01*
X84220000Y-106726447D01*
X84899474Y-107405921D01*
X84931859Y-107361349D01*
X85024755Y-107179031D01*
X85087990Y-106984417D01*
X85120000Y-106782317D01*
X85120000Y-106577686D01*
X85119809Y-106576481D01*
X85119809Y-106576477D01*
X85119808Y-106576473D01*
X85117507Y-106561947D01*
X102640000Y-106561947D01*
X102640000Y-106798052D01*
X102676934Y-107031247D01*
X102749897Y-107255802D01*
X102857087Y-107466174D01*
X102917338Y-107549104D01*
X102917340Y-107549105D01*
X103657037Y-106809408D01*
X103674075Y-106872993D01*
X103739901Y-106987007D01*
X103832993Y-107080099D01*
X103947007Y-107145925D01*
X104010590Y-107162962D01*
X103270893Y-107902658D01*
X103353828Y-107962914D01*
X103564197Y-108070102D01*
X103788752Y-108143065D01*
X103788751Y-108143065D01*
X104021948Y-108180000D01*
X104258052Y-108180000D01*
X104491247Y-108143065D01*
X104715802Y-108070102D01*
X104926163Y-107962918D01*
X104926169Y-107962914D01*
X105009104Y-107902658D01*
X105009105Y-107902658D01*
X104269408Y-107162962D01*
X104332993Y-107145925D01*
X104447007Y-107080099D01*
X104540099Y-106987007D01*
X104605925Y-106872993D01*
X104622962Y-106809409D01*
X105362658Y-107549105D01*
X105362658Y-107549104D01*
X105422914Y-107466169D01*
X105422918Y-107466163D01*
X105530102Y-107255802D01*
X105603065Y-107031247D01*
X105640000Y-106798052D01*
X105640000Y-106577648D01*
X112839500Y-106577648D01*
X112839500Y-106782351D01*
X112871522Y-106984534D01*
X112934781Y-107179223D01*
X112973801Y-107255802D01*
X113027585Y-107361359D01*
X113027715Y-107361613D01*
X113148028Y-107527213D01*
X113292786Y-107671971D01*
X113413226Y-107759474D01*
X113458390Y-107792287D01*
X113574607Y-107851503D01*
X113640776Y-107885218D01*
X113640778Y-107885218D01*
X113640781Y-107885220D01*
X113694450Y-107902658D01*
X113835465Y-107948477D01*
X113926616Y-107962914D01*
X114037648Y-107980500D01*
X114037649Y-107980500D01*
X114242351Y-107980500D01*
X114242352Y-107980500D01*
X114444534Y-107948477D01*
X114639219Y-107885220D01*
X114821610Y-107792287D01*
X114914590Y-107724732D01*
X114987213Y-107671971D01*
X114987215Y-107671968D01*
X114987219Y-107671966D01*
X115131966Y-107527219D01*
X115131968Y-107527215D01*
X115131971Y-107527213D01*
X115184732Y-107454590D01*
X115252287Y-107361610D01*
X115345220Y-107179219D01*
X115408477Y-106984534D01*
X115440500Y-106782352D01*
X115440500Y-106577648D01*
X115426144Y-106487007D01*
X115408477Y-106375465D01*
X115356038Y-106214075D01*
X115345220Y-106180781D01*
X115345218Y-106180778D01*
X115345218Y-106180776D01*
X115252419Y-105998650D01*
X115252287Y-105998390D01*
X115220092Y-105954077D01*
X115131971Y-105832786D01*
X114987213Y-105688028D01*
X114821613Y-105567715D01*
X114821612Y-105567714D01*
X114821610Y-105567713D01*
X114764653Y-105538691D01*
X114639223Y-105474781D01*
X114444534Y-105411522D01*
X114269995Y-105383878D01*
X114242352Y-105379500D01*
X114037648Y-105379500D01*
X114013329Y-105383351D01*
X113835465Y-105411522D01*
X113640776Y-105474781D01*
X113458386Y-105567715D01*
X113292786Y-105688028D01*
X113148028Y-105832786D01*
X113027715Y-105998386D01*
X112934781Y-106180776D01*
X112871522Y-106375465D01*
X112839500Y-106577648D01*
X105640000Y-106577648D01*
X105640000Y-106561947D01*
X105603065Y-106328752D01*
X105530102Y-106104197D01*
X105422914Y-105893828D01*
X105362658Y-105810894D01*
X105362658Y-105810893D01*
X104622962Y-106550590D01*
X104605925Y-106487007D01*
X104540099Y-106372993D01*
X104447007Y-106279901D01*
X104332993Y-106214075D01*
X104269409Y-106197037D01*
X105009105Y-105457340D01*
X105009104Y-105457338D01*
X104926174Y-105397087D01*
X104715802Y-105289897D01*
X104491247Y-105216934D01*
X104491248Y-105216934D01*
X104258052Y-105180000D01*
X104021948Y-105180000D01*
X103788752Y-105216934D01*
X103564197Y-105289897D01*
X103353830Y-105397084D01*
X103270894Y-105457340D01*
X104010591Y-106197037D01*
X103947007Y-106214075D01*
X103832993Y-106279901D01*
X103739901Y-106372993D01*
X103674075Y-106487007D01*
X103657037Y-106550591D01*
X102917340Y-105810894D01*
X102857084Y-105893830D01*
X102749897Y-106104197D01*
X102676934Y-106328752D01*
X102640000Y-106561947D01*
X85117507Y-106561947D01*
X85087990Y-106375582D01*
X85024755Y-106180968D01*
X84931859Y-105998650D01*
X84899474Y-105954077D01*
X84899474Y-105954076D01*
X84220000Y-106633551D01*
X84220000Y-106627339D01*
X84192741Y-106525606D01*
X84140080Y-106434394D01*
X84065606Y-106359920D01*
X83974394Y-106307259D01*
X83872661Y-106280000D01*
X83866446Y-106280000D01*
X84545922Y-105600524D01*
X84545921Y-105600523D01*
X84501350Y-105568141D01*
X84319031Y-105475244D01*
X84124417Y-105412009D01*
X83922317Y-105380000D01*
X83717683Y-105380000D01*
X83515582Y-105412009D01*
X83320968Y-105475244D01*
X83138644Y-105568143D01*
X83094077Y-105600523D01*
X83094077Y-105600524D01*
X83773554Y-106280000D01*
X83767339Y-106280000D01*
X83665606Y-106307259D01*
X83574394Y-106359920D01*
X83499920Y-106434394D01*
X83447259Y-106525606D01*
X83420000Y-106627339D01*
X83420000Y-106633553D01*
X82740524Y-105954077D01*
X82740523Y-105954077D01*
X82708143Y-105998644D01*
X82615244Y-106180968D01*
X82552009Y-106375582D01*
X82520000Y-106577682D01*
X74960500Y-106577682D01*
X74960500Y-106577648D01*
X74946144Y-106487007D01*
X74928477Y-106375465D01*
X74876038Y-106214075D01*
X74865220Y-106180781D01*
X74865218Y-106180778D01*
X74865218Y-106180776D01*
X74772419Y-105998650D01*
X74772287Y-105998390D01*
X74740092Y-105954077D01*
X74651971Y-105832786D01*
X74507213Y-105688028D01*
X74341613Y-105567715D01*
X74341612Y-105567714D01*
X74341610Y-105567713D01*
X74284653Y-105538691D01*
X74159223Y-105474781D01*
X73964534Y-105411522D01*
X73789995Y-105383878D01*
X73762352Y-105379500D01*
X73557648Y-105379500D01*
X73533329Y-105383351D01*
X73355465Y-105411522D01*
X73160776Y-105474781D01*
X72978386Y-105567715D01*
X72812786Y-105688028D01*
X72668028Y-105832786D01*
X72547715Y-105998386D01*
X72454781Y-106180776D01*
X72391522Y-106375465D01*
X72359500Y-106577648D01*
X65000499Y-106577648D01*
X65000499Y-105679628D01*
X64994091Y-105620017D01*
X64986820Y-105600523D01*
X64943797Y-105485171D01*
X64943793Y-105485164D01*
X64857547Y-105369955D01*
X64857544Y-105369952D01*
X64742335Y-105283706D01*
X64742328Y-105283702D01*
X64714459Y-105273308D01*
X64658525Y-105231437D01*
X64634108Y-105165973D01*
X64648960Y-105097700D01*
X64657460Y-105084260D01*
X64790217Y-104901538D01*
X64894048Y-104697758D01*
X64964722Y-104480245D01*
X65000500Y-104254354D01*
X65000500Y-104029778D01*
X67179500Y-104029778D01*
X67179500Y-104250222D01*
X67196742Y-104359086D01*
X67213985Y-104467952D01*
X67282103Y-104677603D01*
X67282104Y-104677606D01*
X67382187Y-104874025D01*
X67511752Y-105052358D01*
X67511756Y-105052363D01*
X67667636Y-105208243D01*
X67667641Y-105208247D01*
X67771500Y-105283704D01*
X67845978Y-105337815D01*
X67962299Y-105397084D01*
X68042393Y-105437895D01*
X68042396Y-105437896D01*
X68102234Y-105457338D01*
X68252049Y-105506015D01*
X68469778Y-105540500D01*
X68469779Y-105540500D01*
X68690221Y-105540500D01*
X68690222Y-105540500D01*
X68907951Y-105506015D01*
X69117606Y-105437895D01*
X69314022Y-105337815D01*
X69492365Y-105208242D01*
X69648242Y-105052365D01*
X69777815Y-104874022D01*
X69877895Y-104677606D01*
X69946015Y-104467951D01*
X69980500Y-104250222D01*
X69980500Y-104029778D01*
X69946015Y-103812049D01*
X69877895Y-103602394D01*
X69877895Y-103602393D01*
X69843237Y-103534375D01*
X69777815Y-103405978D01*
X69740088Y-103354051D01*
X69648247Y-103227641D01*
X69648243Y-103227636D01*
X69492363Y-103071756D01*
X69492358Y-103071752D01*
X69314025Y-102942187D01*
X69314024Y-102942186D01*
X69314022Y-102942185D01*
X69216821Y-102892658D01*
X69117606Y-102842104D01*
X69117603Y-102842103D01*
X68907952Y-102773985D01*
X68799086Y-102756742D01*
X68690222Y-102739500D01*
X68469778Y-102739500D01*
X68397201Y-102750995D01*
X68252047Y-102773985D01*
X68042396Y-102842103D01*
X68042393Y-102842104D01*
X67845974Y-102942187D01*
X67667641Y-103071752D01*
X67667636Y-103071756D01*
X67511756Y-103227636D01*
X67511752Y-103227641D01*
X67382187Y-103405974D01*
X67282104Y-103602393D01*
X67282103Y-103602396D01*
X67213985Y-103812047D01*
X67213985Y-103812049D01*
X67179500Y-104029778D01*
X65000500Y-104029778D01*
X65000500Y-104025646D01*
X64964722Y-103799755D01*
X64964721Y-103799751D01*
X64964721Y-103799750D01*
X64894049Y-103582244D01*
X64790216Y-103378461D01*
X64655786Y-103193434D01*
X64494066Y-103031714D01*
X64402178Y-102964953D01*
X64359513Y-102909624D01*
X64351446Y-102854908D01*
X64355087Y-102808639D01*
X63670235Y-102123787D01*
X63712292Y-102112518D01*
X63837708Y-102040110D01*
X63940110Y-101937708D01*
X64012518Y-101812292D01*
X64023787Y-101770236D01*
X64716163Y-102462612D01*
X64716163Y-102462611D01*
X64789788Y-102361276D01*
X64893582Y-102157568D01*
X64964234Y-101940125D01*
X64964234Y-101940124D01*
X65000000Y-101714313D01*
X65000000Y-101567648D01*
X72359500Y-101567648D01*
X72359500Y-101772351D01*
X72391522Y-101974534D01*
X72454781Y-102169223D01*
X72547715Y-102351613D01*
X72668028Y-102517213D01*
X72812786Y-102661971D01*
X72927184Y-102745084D01*
X72978390Y-102782287D01*
X73094607Y-102841503D01*
X73160776Y-102875218D01*
X73160778Y-102875218D01*
X73160781Y-102875220D01*
X73214450Y-102892658D01*
X73355465Y-102938477D01*
X73446616Y-102952914D01*
X73557648Y-102970500D01*
X73557649Y-102970500D01*
X73762351Y-102970500D01*
X73762352Y-102970500D01*
X73964534Y-102938477D01*
X74159219Y-102875220D01*
X74341610Y-102782287D01*
X74507219Y-102661966D01*
X74651966Y-102517219D01*
X74651968Y-102517215D01*
X74651971Y-102517213D01*
X74765264Y-102361276D01*
X74772287Y-102351610D01*
X74865220Y-102169219D01*
X74928477Y-101974534D01*
X74960500Y-101772352D01*
X74960500Y-101567648D01*
X74958013Y-101551947D01*
X82320000Y-101551947D01*
X82320000Y-101788052D01*
X82356934Y-102021247D01*
X82429897Y-102245802D01*
X82537087Y-102456174D01*
X82597338Y-102539104D01*
X82597340Y-102539105D01*
X83337037Y-101799408D01*
X83354075Y-101862993D01*
X83419901Y-101977007D01*
X83512993Y-102070099D01*
X83627007Y-102135925D01*
X83690590Y-102152962D01*
X82950893Y-102892658D01*
X83033828Y-102952914D01*
X83244197Y-103060102D01*
X83468752Y-103133065D01*
X83468751Y-103133065D01*
X83701948Y-103170000D01*
X83938052Y-103170000D01*
X84171247Y-103133065D01*
X84395802Y-103060102D01*
X84606163Y-102952918D01*
X84606169Y-102952914D01*
X84689104Y-102892658D01*
X84689105Y-102892658D01*
X83949408Y-102152962D01*
X84012993Y-102135925D01*
X84127007Y-102070099D01*
X84220099Y-101977007D01*
X84285925Y-101862993D01*
X84302962Y-101799409D01*
X85042658Y-102539105D01*
X85042658Y-102539104D01*
X85102914Y-102456169D01*
X85102918Y-102456163D01*
X85210102Y-102245802D01*
X85283065Y-102021247D01*
X85320000Y-101788052D01*
X85320000Y-101551947D01*
X85283065Y-101318752D01*
X85210102Y-101094197D01*
X85102914Y-100883828D01*
X85042658Y-100800894D01*
X85042658Y-100800893D01*
X84302962Y-101540590D01*
X84285925Y-101477007D01*
X84220099Y-101362993D01*
X84127007Y-101269901D01*
X84012993Y-101204075D01*
X83949409Y-101187037D01*
X84689105Y-100447340D01*
X84689104Y-100447338D01*
X84606174Y-100387087D01*
X84395802Y-100279897D01*
X84171247Y-100206934D01*
X84171248Y-100206934D01*
X83938052Y-100170000D01*
X83701948Y-100170000D01*
X83468752Y-100206934D01*
X83244197Y-100279897D01*
X83033830Y-100387084D01*
X82950894Y-100447340D01*
X83690591Y-101187037D01*
X83627007Y-101204075D01*
X83512993Y-101269901D01*
X83419901Y-101362993D01*
X83354075Y-101477007D01*
X83337037Y-101540591D01*
X82597340Y-100800894D01*
X82537084Y-100883830D01*
X82429897Y-101094197D01*
X82356934Y-101318752D01*
X82320000Y-101551947D01*
X74958013Y-101551947D01*
X74956994Y-101545510D01*
X74928477Y-101365465D01*
X74865218Y-101170776D01*
X74822777Y-101087482D01*
X74772287Y-100988390D01*
X74751240Y-100959421D01*
X74651971Y-100822786D01*
X74507219Y-100678034D01*
X74507211Y-100678028D01*
X74392817Y-100594917D01*
X74392816Y-100594915D01*
X74341613Y-100557715D01*
X74341612Y-100557714D01*
X74341610Y-100557713D01*
X74284653Y-100528691D01*
X74159223Y-100464781D01*
X73964534Y-100401522D01*
X73789995Y-100373878D01*
X73762352Y-100369500D01*
X73557648Y-100369500D01*
X73533329Y-100373351D01*
X73355465Y-100401522D01*
X73160776Y-100464781D01*
X72978386Y-100557715D01*
X72812786Y-100678028D01*
X72668028Y-100822786D01*
X72547715Y-100988386D01*
X72454781Y-101170776D01*
X72391522Y-101365465D01*
X72359500Y-101567648D01*
X65000000Y-101567648D01*
X65000000Y-101485686D01*
X64964234Y-101259875D01*
X64964234Y-101259874D01*
X64893582Y-101042431D01*
X64789790Y-100838727D01*
X64716163Y-100737386D01*
X64023786Y-101429763D01*
X64012518Y-101387708D01*
X63940110Y-101262292D01*
X63837708Y-101159890D01*
X63712292Y-101087482D01*
X63670235Y-101076212D01*
X64355088Y-100391360D01*
X64355087Y-100391359D01*
X64308776Y-100357711D01*
X64105068Y-100253917D01*
X63887624Y-100183265D01*
X63661813Y-100147500D01*
X63338187Y-100147500D01*
X63112375Y-100183265D01*
X63112374Y-100183265D01*
X62894931Y-100253917D01*
X62691227Y-100357709D01*
X62644911Y-100391359D01*
X63329764Y-101076212D01*
X63287708Y-101087482D01*
X63162292Y-101159890D01*
X63059890Y-101262292D01*
X62987482Y-101387708D01*
X62976212Y-101429764D01*
X62283835Y-100737387D01*
X62283834Y-100737387D01*
X62210212Y-100838722D01*
X62106417Y-101042431D01*
X62035765Y-101259874D01*
X62035765Y-101259875D01*
X62000000Y-101485686D01*
X62000000Y-101714313D01*
X62035765Y-101940124D01*
X62035765Y-101940125D01*
X62106417Y-102157568D01*
X62210210Y-102361274D01*
X62283835Y-102462611D01*
X62976212Y-101770234D01*
X62987482Y-101812292D01*
X63059890Y-101937708D01*
X63162292Y-102040110D01*
X63287708Y-102112518D01*
X63329764Y-102123787D01*
X62644910Y-102808639D01*
X62648552Y-102854908D01*
X62634187Y-102923285D01*
X62597820Y-102964953D01*
X62505940Y-103031709D01*
X62505931Y-103031716D01*
X62344216Y-103193431D01*
X62344216Y-103193432D01*
X62344214Y-103193434D01*
X62319365Y-103227636D01*
X62209783Y-103378461D01*
X62105950Y-103582244D01*
X62035278Y-103799750D01*
X62035278Y-103799753D01*
X61999500Y-104025646D01*
X59920500Y-104025646D01*
X59884722Y-103799755D01*
X59884721Y-103799751D01*
X59884721Y-103799750D01*
X59814049Y-103582244D01*
X59710216Y-103378461D01*
X59575786Y-103193434D01*
X59414066Y-103031714D01*
X59322178Y-102964953D01*
X59279513Y-102909624D01*
X59271446Y-102854908D01*
X59275087Y-102808639D01*
X58590235Y-102123787D01*
X58632292Y-102112518D01*
X58757708Y-102040110D01*
X58860110Y-101937708D01*
X58932518Y-101812292D01*
X58943787Y-101770235D01*
X59636163Y-102462612D01*
X59636163Y-102462611D01*
X59709788Y-102361276D01*
X59813582Y-102157568D01*
X59884234Y-101940125D01*
X59884234Y-101940124D01*
X59920000Y-101714313D01*
X59920000Y-101485686D01*
X59884234Y-101259875D01*
X59884234Y-101259874D01*
X59813582Y-101042431D01*
X59709790Y-100838727D01*
X59636163Y-100737386D01*
X58943786Y-101429763D01*
X58932518Y-101387708D01*
X58860110Y-101262292D01*
X58757708Y-101159890D01*
X58632292Y-101087482D01*
X58590235Y-101076212D01*
X59275088Y-100391359D01*
X59228776Y-100357711D01*
X59025068Y-100253917D01*
X58807624Y-100183265D01*
X58581813Y-100147500D01*
X58258187Y-100147500D01*
X58032375Y-100183265D01*
X58032374Y-100183265D01*
X57814931Y-100253917D01*
X57611227Y-100357709D01*
X57564911Y-100391359D01*
X58249764Y-101076212D01*
X58207708Y-101087482D01*
X58082292Y-101159890D01*
X57979890Y-101262292D01*
X57907482Y-101387708D01*
X57896212Y-101429764D01*
X57203835Y-100737387D01*
X57203834Y-100737387D01*
X57130212Y-100838722D01*
X57026417Y-101042431D01*
X56955765Y-101259874D01*
X56955765Y-101259875D01*
X56920000Y-101485686D01*
X56920000Y-101714313D01*
X56955765Y-101940124D01*
X56955765Y-101940125D01*
X57026417Y-102157568D01*
X57130210Y-102361274D01*
X57203835Y-102462611D01*
X57896212Y-101770234D01*
X57907482Y-101812292D01*
X57979890Y-101937708D01*
X58082292Y-102040110D01*
X58207708Y-102112518D01*
X58249764Y-102123787D01*
X57564910Y-102808639D01*
X57568552Y-102854908D01*
X57554187Y-102923285D01*
X57517820Y-102964953D01*
X57425940Y-103031709D01*
X57425931Y-103031716D01*
X57264216Y-103193431D01*
X57264216Y-103193432D01*
X57264214Y-103193434D01*
X57239365Y-103227636D01*
X57129783Y-103378461D01*
X57025950Y-103582244D01*
X56955278Y-103799750D01*
X56955278Y-103799753D01*
X56919500Y-104025646D01*
X47481822Y-104025646D01*
X47503572Y-104018579D01*
X47735051Y-103900634D01*
X47945229Y-103747931D01*
X48128931Y-103564229D01*
X48281634Y-103354051D01*
X48399579Y-103122572D01*
X48479860Y-102875493D01*
X48513679Y-102661965D01*
X48520500Y-102618902D01*
X48520500Y-102359097D01*
X48498947Y-102223021D01*
X48479860Y-102102507D01*
X48399579Y-101855428D01*
X48399577Y-101855425D01*
X48399577Y-101855423D01*
X48327677Y-101714313D01*
X48281634Y-101623949D01*
X48128931Y-101413771D01*
X47945229Y-101230069D01*
X47848636Y-101159890D01*
X47735054Y-101077368D01*
X47735053Y-101077367D01*
X47735051Y-101077366D01*
X47662764Y-101040534D01*
X47503576Y-100959422D01*
X47256493Y-100879140D01*
X46999902Y-100838500D01*
X46999897Y-100838500D01*
X44440103Y-100838500D01*
X44440098Y-100838500D01*
X44183506Y-100879140D01*
X43936423Y-100959422D01*
X43704945Y-101077368D01*
X43494774Y-101230066D01*
X43494768Y-101230071D01*
X43311071Y-101413768D01*
X43311066Y-101413774D01*
X43158368Y-101623945D01*
X43040422Y-101855423D01*
X42960140Y-102102506D01*
X42919500Y-102359097D01*
X38600500Y-102359097D01*
X38600500Y-98449902D01*
X39520500Y-98449902D01*
X39520500Y-100686097D01*
X39557446Y-100919368D01*
X39630433Y-101143996D01*
X39737657Y-101354433D01*
X39876483Y-101545510D01*
X40043490Y-101712517D01*
X40234567Y-101851343D01*
X40333991Y-101902002D01*
X40445003Y-101958566D01*
X40445005Y-101958566D01*
X40445008Y-101958568D01*
X40565412Y-101997689D01*
X40669631Y-102031553D01*
X40902903Y-102068500D01*
X40902908Y-102068500D01*
X41139097Y-102068500D01*
X41372368Y-102031553D01*
X41396986Y-102023554D01*
X41596992Y-101958568D01*
X41807433Y-101851343D01*
X41998510Y-101712517D01*
X42165517Y-101545510D01*
X42304343Y-101354433D01*
X42411568Y-101143992D01*
X42484553Y-100919368D01*
X42490182Y-100883828D01*
X42521500Y-100686097D01*
X42521500Y-98449901D01*
X42509832Y-98376231D01*
X42507258Y-98359983D01*
X51939500Y-98359983D01*
X51939500Y-99760001D01*
X51939501Y-99760018D01*
X51950000Y-99862796D01*
X51950001Y-99862799D01*
X52005185Y-100029331D01*
X52005186Y-100029334D01*
X52097288Y-100178656D01*
X52221344Y-100302712D01*
X52370666Y-100394814D01*
X52537203Y-100449999D01*
X52639991Y-100460500D01*
X54040008Y-100460499D01*
X54142797Y-100449999D01*
X54309334Y-100394814D01*
X54458656Y-100302712D01*
X54582712Y-100178656D01*
X54674814Y-100029334D01*
X54729999Y-99862797D01*
X54740500Y-99760009D01*
X54740499Y-98359992D01*
X54729999Y-98257203D01*
X54674814Y-98090666D01*
X54582712Y-97941344D01*
X54458656Y-97817288D01*
X54351853Y-97751412D01*
X54309336Y-97725187D01*
X54309331Y-97725185D01*
X54307862Y-97724698D01*
X54142797Y-97670001D01*
X54142795Y-97670000D01*
X54040010Y-97659500D01*
X52639998Y-97659500D01*
X52639981Y-97659501D01*
X52537203Y-97670000D01*
X52537200Y-97670001D01*
X52370668Y-97725185D01*
X52370663Y-97725187D01*
X52221342Y-97817289D01*
X52097289Y-97941342D01*
X52005187Y-98090663D01*
X52005186Y-98090666D01*
X51950001Y-98257203D01*
X51950001Y-98257204D01*
X51950000Y-98257204D01*
X51939500Y-98359983D01*
X42507258Y-98359983D01*
X42484553Y-98216631D01*
X42411566Y-97992003D01*
X42322544Y-97817289D01*
X42304343Y-97781567D01*
X42165517Y-97590490D01*
X41998510Y-97423483D01*
X41807433Y-97284657D01*
X41596996Y-97177433D01*
X41372368Y-97104446D01*
X41139097Y-97067500D01*
X41139092Y-97067500D01*
X40902908Y-97067500D01*
X40902903Y-97067500D01*
X40669631Y-97104446D01*
X40445003Y-97177433D01*
X40234566Y-97284657D01*
X40155000Y-97342466D01*
X40043490Y-97423483D01*
X40043488Y-97423485D01*
X40043487Y-97423485D01*
X39876485Y-97590487D01*
X39876485Y-97590488D01*
X39876483Y-97590490D01*
X39822978Y-97664133D01*
X39737657Y-97781566D01*
X39630433Y-97992003D01*
X39557446Y-98216631D01*
X39520500Y-98449902D01*
X38600500Y-98449902D01*
X38600500Y-96401947D01*
X43220000Y-96401947D01*
X43220000Y-96638052D01*
X43256934Y-96871247D01*
X43329897Y-97095802D01*
X43437085Y-97306171D01*
X43575866Y-97497186D01*
X43742813Y-97664133D01*
X43933828Y-97802914D01*
X44144197Y-97910102D01*
X44368752Y-97983065D01*
X44368751Y-97983065D01*
X44601948Y-98020000D01*
X46838052Y-98020000D01*
X47071247Y-97983065D01*
X47295802Y-97910102D01*
X47506171Y-97802914D01*
X47697186Y-97664133D01*
X47864133Y-97497186D01*
X48002914Y-97306171D01*
X48110102Y-97095802D01*
X48183065Y-96871247D01*
X48220000Y-96638052D01*
X48220000Y-96417648D01*
X77439500Y-96417648D01*
X77439500Y-96622351D01*
X77471522Y-96824534D01*
X77534781Y-97019223D01*
X77559380Y-97067500D01*
X77617565Y-97181694D01*
X77627715Y-97201613D01*
X77748028Y-97367213D01*
X77892786Y-97511971D01*
X78013657Y-97599787D01*
X78058390Y-97632287D01*
X78132408Y-97670001D01*
X78240776Y-97725218D01*
X78240778Y-97725218D01*
X78240781Y-97725220D01*
X78321392Y-97751412D01*
X78435465Y-97788477D01*
X78526616Y-97802914D01*
X78637648Y-97820500D01*
X78637649Y-97820500D01*
X78842351Y-97820500D01*
X78842352Y-97820500D01*
X79044534Y-97788477D01*
X79239219Y-97725220D01*
X79421610Y-97632287D01*
X79514590Y-97564732D01*
X79587213Y-97511971D01*
X79587215Y-97511968D01*
X79587219Y-97511966D01*
X79731966Y-97367219D01*
X79731968Y-97367215D01*
X79731971Y-97367213D01*
X79791950Y-97284657D01*
X79852287Y-97201610D01*
X79945220Y-97019219D01*
X80008477Y-96824534D01*
X80040500Y-96622352D01*
X80040500Y-96417648D01*
X87599500Y-96417648D01*
X87599500Y-96622351D01*
X87631522Y-96824534D01*
X87694781Y-97019223D01*
X87719380Y-97067500D01*
X87777565Y-97181694D01*
X87787715Y-97201613D01*
X87908028Y-97367213D01*
X88052786Y-97511971D01*
X88173657Y-97599787D01*
X88218390Y-97632287D01*
X88292408Y-97670001D01*
X88400776Y-97725218D01*
X88400778Y-97725218D01*
X88400781Y-97725220D01*
X88481392Y-97751412D01*
X88595465Y-97788477D01*
X88686616Y-97802914D01*
X88797648Y-97820500D01*
X88797649Y-97820500D01*
X89002351Y-97820500D01*
X89002352Y-97820500D01*
X89204534Y-97788477D01*
X89399219Y-97725220D01*
X89581610Y-97632287D01*
X89674590Y-97564732D01*
X89747213Y-97511971D01*
X89747215Y-97511968D01*
X89747219Y-97511966D01*
X89891966Y-97367219D01*
X89891968Y-97367215D01*
X89891971Y-97367213D01*
X89951950Y-97284657D01*
X90012287Y-97201610D01*
X90105220Y-97019219D01*
X90168477Y-96824534D01*
X90200500Y-96622352D01*
X90200500Y-96420639D01*
X95257500Y-96420639D01*
X95257500Y-96619361D01*
X95273043Y-96717498D01*
X95288587Y-96815637D01*
X95349993Y-97004629D01*
X95349994Y-97004632D01*
X95438041Y-97177432D01*
X95440213Y-97181694D01*
X95557019Y-97342464D01*
X95697536Y-97482981D01*
X95858306Y-97599787D01*
X95922085Y-97632284D01*
X96035367Y-97690005D01*
X96035370Y-97690006D01*
X96129866Y-97720709D01*
X96224364Y-97751413D01*
X96420639Y-97782500D01*
X96420640Y-97782500D01*
X96619360Y-97782500D01*
X96619361Y-97782500D01*
X96815636Y-97751413D01*
X97004632Y-97690005D01*
X97181694Y-97599787D01*
X97342464Y-97482981D01*
X97482981Y-97342464D01*
X97599787Y-97181694D01*
X97679515Y-97025218D01*
X97727490Y-96974423D01*
X97795311Y-96957628D01*
X97861446Y-96980165D01*
X97900484Y-97025218D01*
X97980213Y-97181694D01*
X98097019Y-97342464D01*
X98237536Y-97482981D01*
X98398306Y-97599787D01*
X98462085Y-97632284D01*
X98575367Y-97690005D01*
X98575370Y-97690006D01*
X98669866Y-97720709D01*
X98764364Y-97751413D01*
X98960639Y-97782500D01*
X98960640Y-97782500D01*
X99159360Y-97782500D01*
X99159361Y-97782500D01*
X99355636Y-97751413D01*
X99544632Y-97690005D01*
X99721694Y-97599787D01*
X99882464Y-97482981D01*
X100022981Y-97342464D01*
X100139787Y-97181694D01*
X100219515Y-97025218D01*
X100267490Y-96974423D01*
X100335311Y-96957628D01*
X100401446Y-96980165D01*
X100440484Y-97025218D01*
X100520213Y-97181694D01*
X100637019Y-97342464D01*
X100777536Y-97482981D01*
X100938306Y-97599787D01*
X101002085Y-97632284D01*
X101115367Y-97690005D01*
X101115370Y-97690006D01*
X101209866Y-97720709D01*
X101304364Y-97751413D01*
X101500639Y-97782500D01*
X101500640Y-97782500D01*
X101699360Y-97782500D01*
X101699361Y-97782500D01*
X101895636Y-97751413D01*
X102084632Y-97690005D01*
X102261694Y-97599787D01*
X102422464Y-97482981D01*
X102562981Y-97342464D01*
X102679787Y-97181694D01*
X102759515Y-97025218D01*
X102807490Y-96974423D01*
X102875311Y-96957628D01*
X102941446Y-96980165D01*
X102980484Y-97025218D01*
X103060213Y-97181694D01*
X103177019Y-97342464D01*
X103317536Y-97482981D01*
X103478306Y-97599787D01*
X103542085Y-97632284D01*
X103655367Y-97690005D01*
X103655370Y-97690006D01*
X103749866Y-97720709D01*
X103844364Y-97751413D01*
X104040639Y-97782500D01*
X104040640Y-97782500D01*
X104239360Y-97782500D01*
X104239361Y-97782500D01*
X104435636Y-97751413D01*
X104624632Y-97690005D01*
X104801694Y-97599787D01*
X104962464Y-97482981D01*
X105102981Y-97342464D01*
X105219787Y-97181694D01*
X105299515Y-97025218D01*
X105347490Y-96974423D01*
X105415311Y-96957628D01*
X105481446Y-96980165D01*
X105520484Y-97025218D01*
X105600213Y-97181694D01*
X105717019Y-97342464D01*
X105857536Y-97482981D01*
X106018306Y-97599787D01*
X106082085Y-97632284D01*
X106195367Y-97690005D01*
X106195370Y-97690006D01*
X106289866Y-97720709D01*
X106384364Y-97751413D01*
X106580639Y-97782500D01*
X106580640Y-97782500D01*
X106779360Y-97782500D01*
X106779361Y-97782500D01*
X106975636Y-97751413D01*
X107164632Y-97690005D01*
X107341694Y-97599787D01*
X107502464Y-97482981D01*
X107642981Y-97342464D01*
X107759787Y-97181694D01*
X107839515Y-97025218D01*
X107887490Y-96974423D01*
X107955311Y-96957628D01*
X108021446Y-96980165D01*
X108060484Y-97025218D01*
X108140213Y-97181694D01*
X108257019Y-97342464D01*
X108397536Y-97482981D01*
X108558306Y-97599787D01*
X108622085Y-97632284D01*
X108735367Y-97690005D01*
X108735370Y-97690006D01*
X108829866Y-97720709D01*
X108924364Y-97751413D01*
X109120639Y-97782500D01*
X109120640Y-97782500D01*
X109319360Y-97782500D01*
X109319361Y-97782500D01*
X109515636Y-97751413D01*
X109704632Y-97690005D01*
X109881694Y-97599787D01*
X110042464Y-97482981D01*
X110182981Y-97342464D01*
X110299787Y-97181694D01*
X110379515Y-97025218D01*
X110427490Y-96974423D01*
X110495311Y-96957628D01*
X110561446Y-96980165D01*
X110600484Y-97025218D01*
X110680213Y-97181694D01*
X110797019Y-97342464D01*
X110937536Y-97482981D01*
X111098306Y-97599787D01*
X111162085Y-97632284D01*
X111275367Y-97690005D01*
X111275370Y-97690006D01*
X111369866Y-97720709D01*
X111464364Y-97751413D01*
X111660639Y-97782500D01*
X111660640Y-97782500D01*
X111859360Y-97782500D01*
X111859361Y-97782500D01*
X112055636Y-97751413D01*
X112244632Y-97690005D01*
X112421694Y-97599787D01*
X112582464Y-97482981D01*
X112722981Y-97342464D01*
X112839787Y-97181694D01*
X112919515Y-97025218D01*
X112967490Y-96974423D01*
X113035311Y-96957628D01*
X113101446Y-96980165D01*
X113140484Y-97025218D01*
X113220213Y-97181694D01*
X113337019Y-97342464D01*
X113477536Y-97482981D01*
X113638306Y-97599787D01*
X113702085Y-97632284D01*
X113815367Y-97690005D01*
X113815370Y-97690006D01*
X113909866Y-97720709D01*
X114004364Y-97751413D01*
X114200639Y-97782500D01*
X114200640Y-97782500D01*
X114399360Y-97782500D01*
X114399361Y-97782500D01*
X114595636Y-97751413D01*
X114784632Y-97690005D01*
X114961694Y-97599787D01*
X115122464Y-97482981D01*
X115262981Y-97342464D01*
X115379787Y-97181694D01*
X115470005Y-97004632D01*
X115531413Y-96815636D01*
X115562500Y-96619361D01*
X115562500Y-96420639D01*
X115531413Y-96224364D01*
X115470005Y-96035368D01*
X115470005Y-96035367D01*
X115379786Y-95858305D01*
X115365314Y-95838386D01*
X115262981Y-95697536D01*
X115122464Y-95557019D01*
X114961694Y-95440213D01*
X114911846Y-95414814D01*
X114784632Y-95349994D01*
X114784629Y-95349993D01*
X114595637Y-95288587D01*
X114436252Y-95263343D01*
X114399361Y-95257500D01*
X114200639Y-95257500D01*
X114163748Y-95263343D01*
X114004362Y-95288587D01*
X113815370Y-95349993D01*
X113815367Y-95349994D01*
X113638305Y-95440213D01*
X113477533Y-95557021D01*
X113337021Y-95697533D01*
X113220213Y-95858305D01*
X113140485Y-96014780D01*
X113092510Y-96065576D01*
X113024689Y-96082371D01*
X112958554Y-96059833D01*
X112919515Y-96014780D01*
X112839786Y-95858305D01*
X112825314Y-95838386D01*
X112722981Y-95697536D01*
X112582464Y-95557019D01*
X112421694Y-95440213D01*
X112371846Y-95414814D01*
X112244632Y-95349994D01*
X112244629Y-95349993D01*
X112055637Y-95288587D01*
X111896252Y-95263343D01*
X111859361Y-95257500D01*
X111660639Y-95257500D01*
X111623748Y-95263343D01*
X111464362Y-95288587D01*
X111275370Y-95349993D01*
X111275367Y-95349994D01*
X111098305Y-95440213D01*
X110937533Y-95557021D01*
X110797021Y-95697533D01*
X110680213Y-95858305D01*
X110600485Y-96014780D01*
X110552510Y-96065576D01*
X110484689Y-96082371D01*
X110418554Y-96059833D01*
X110379515Y-96014780D01*
X110299786Y-95858305D01*
X110285314Y-95838386D01*
X110182981Y-95697536D01*
X110042464Y-95557019D01*
X109881694Y-95440213D01*
X109831846Y-95414814D01*
X109704632Y-95349994D01*
X109704629Y-95349993D01*
X109515637Y-95288587D01*
X109356252Y-95263343D01*
X109319361Y-95257500D01*
X109120639Y-95257500D01*
X109083748Y-95263343D01*
X108924362Y-95288587D01*
X108735370Y-95349993D01*
X108735367Y-95349994D01*
X108558305Y-95440213D01*
X108397533Y-95557021D01*
X108257021Y-95697533D01*
X108140213Y-95858305D01*
X108060485Y-96014780D01*
X108012510Y-96065576D01*
X107944689Y-96082371D01*
X107878554Y-96059833D01*
X107839515Y-96014780D01*
X107759786Y-95858305D01*
X107745314Y-95838386D01*
X107642981Y-95697536D01*
X107502464Y-95557019D01*
X107341694Y-95440213D01*
X107291846Y-95414814D01*
X107164632Y-95349994D01*
X107164629Y-95349993D01*
X106975637Y-95288587D01*
X106816252Y-95263343D01*
X106779361Y-95257500D01*
X106580639Y-95257500D01*
X106543748Y-95263343D01*
X106384362Y-95288587D01*
X106195370Y-95349993D01*
X106195367Y-95349994D01*
X106018305Y-95440213D01*
X105857533Y-95557021D01*
X105717021Y-95697533D01*
X105600213Y-95858305D01*
X105520485Y-96014780D01*
X105472510Y-96065576D01*
X105404689Y-96082371D01*
X105338554Y-96059833D01*
X105299515Y-96014780D01*
X105219786Y-95858305D01*
X105205314Y-95838386D01*
X105102981Y-95697536D01*
X104962464Y-95557019D01*
X104801694Y-95440213D01*
X104751846Y-95414814D01*
X104624632Y-95349994D01*
X104624629Y-95349993D01*
X104435637Y-95288587D01*
X104276252Y-95263343D01*
X104239361Y-95257500D01*
X104040639Y-95257500D01*
X104003748Y-95263343D01*
X103844362Y-95288587D01*
X103655370Y-95349993D01*
X103655367Y-95349994D01*
X103478305Y-95440213D01*
X103317533Y-95557021D01*
X103177021Y-95697533D01*
X103060213Y-95858305D01*
X102980485Y-96014780D01*
X102932510Y-96065576D01*
X102864689Y-96082371D01*
X102798554Y-96059833D01*
X102759515Y-96014780D01*
X102679786Y-95858305D01*
X102665314Y-95838386D01*
X102562981Y-95697536D01*
X102422464Y-95557019D01*
X102261694Y-95440213D01*
X102211846Y-95414814D01*
X102084632Y-95349994D01*
X102084629Y-95349993D01*
X101895637Y-95288587D01*
X101736252Y-95263343D01*
X101699361Y-95257500D01*
X101500639Y-95257500D01*
X101463748Y-95263343D01*
X101304362Y-95288587D01*
X101115370Y-95349993D01*
X101115367Y-95349994D01*
X100938305Y-95440213D01*
X100777533Y-95557021D01*
X100637021Y-95697533D01*
X100520213Y-95858305D01*
X100440485Y-96014780D01*
X100392510Y-96065576D01*
X100324689Y-96082371D01*
X100258554Y-96059833D01*
X100219515Y-96014780D01*
X100139786Y-95858305D01*
X100125314Y-95838386D01*
X100022981Y-95697536D01*
X99882464Y-95557019D01*
X99721694Y-95440213D01*
X99671846Y-95414814D01*
X99544632Y-95349994D01*
X99544629Y-95349993D01*
X99355637Y-95288587D01*
X99196252Y-95263343D01*
X99159361Y-95257500D01*
X98960639Y-95257500D01*
X98923748Y-95263343D01*
X98764362Y-95288587D01*
X98575370Y-95349993D01*
X98575367Y-95349994D01*
X98398305Y-95440213D01*
X98237533Y-95557021D01*
X98097021Y-95697533D01*
X97980213Y-95858305D01*
X97900485Y-96014780D01*
X97852510Y-96065576D01*
X97784689Y-96082371D01*
X97718554Y-96059833D01*
X97679515Y-96014780D01*
X97599786Y-95858305D01*
X97585314Y-95838386D01*
X97482981Y-95697536D01*
X97342464Y-95557019D01*
X97181694Y-95440213D01*
X97131846Y-95414814D01*
X97004632Y-95349994D01*
X97004629Y-95349993D01*
X96815637Y-95288587D01*
X96656252Y-95263343D01*
X96619361Y-95257500D01*
X96420639Y-95257500D01*
X96383748Y-95263343D01*
X96224362Y-95288587D01*
X96035370Y-95349993D01*
X96035367Y-95349994D01*
X95858305Y-95440213D01*
X95697533Y-95557021D01*
X95557021Y-95697533D01*
X95440213Y-95858305D01*
X95349994Y-96035367D01*
X95349993Y-96035370D01*
X95288587Y-96224362D01*
X95288587Y-96224364D01*
X95257500Y-96420639D01*
X90200500Y-96420639D01*
X90200500Y-96417648D01*
X90168477Y-96215466D01*
X90105220Y-96020781D01*
X90105218Y-96020778D01*
X90105218Y-96020776D01*
X90066198Y-95944197D01*
X90012287Y-95838390D01*
X90004556Y-95827749D01*
X89891971Y-95672786D01*
X89747213Y-95528028D01*
X89581613Y-95407715D01*
X89581612Y-95407714D01*
X89581610Y-95407713D01*
X89507592Y-95369999D01*
X89399223Y-95314781D01*
X89204534Y-95251522D01*
X89022619Y-95222710D01*
X89002352Y-95219500D01*
X88797648Y-95219500D01*
X88777381Y-95222710D01*
X88595465Y-95251522D01*
X88400776Y-95314781D01*
X88218386Y-95407715D01*
X88052786Y-95528028D01*
X87908028Y-95672786D01*
X87787715Y-95838386D01*
X87694781Y-96020776D01*
X87631522Y-96215465D01*
X87599500Y-96417648D01*
X80040500Y-96417648D01*
X80008477Y-96215466D01*
X79945220Y-96020781D01*
X79945218Y-96020778D01*
X79945218Y-96020776D01*
X79906198Y-95944197D01*
X79852287Y-95838390D01*
X79844556Y-95827749D01*
X79731971Y-95672786D01*
X79587213Y-95528028D01*
X79421613Y-95407715D01*
X79421612Y-95407714D01*
X79421610Y-95407713D01*
X79347592Y-95369999D01*
X79239223Y-95314781D01*
X79044534Y-95251522D01*
X78862619Y-95222710D01*
X78842352Y-95219500D01*
X78637648Y-95219500D01*
X78617381Y-95222710D01*
X78435465Y-95251522D01*
X78240776Y-95314781D01*
X78058386Y-95407715D01*
X77892786Y-95528028D01*
X77748028Y-95672786D01*
X77627715Y-95838386D01*
X77534781Y-96020776D01*
X77471522Y-96215465D01*
X77439500Y-96417648D01*
X48220000Y-96417648D01*
X48220000Y-96401947D01*
X48183065Y-96168752D01*
X48110102Y-95944197D01*
X48002914Y-95733828D01*
X47864133Y-95542813D01*
X47697186Y-95375866D01*
X47506171Y-95237085D01*
X47295802Y-95129897D01*
X47071247Y-95056934D01*
X47071248Y-95056934D01*
X46838052Y-95020000D01*
X44601948Y-95020000D01*
X44368752Y-95056934D01*
X44144197Y-95129897D01*
X43933828Y-95237085D01*
X43742813Y-95375866D01*
X43575866Y-95542813D01*
X43437085Y-95733828D01*
X43329897Y-95944197D01*
X43256934Y-96168752D01*
X43220000Y-96401947D01*
X38600500Y-96401947D01*
X38600500Y-93861902D01*
X51839500Y-93861902D01*
X51839500Y-94098097D01*
X51876446Y-94331368D01*
X51949433Y-94555996D01*
X52012625Y-94680016D01*
X52056657Y-94766433D01*
X52195483Y-94957510D01*
X52362490Y-95124517D01*
X52553567Y-95263343D01*
X52652991Y-95314002D01*
X52764003Y-95370566D01*
X52764005Y-95370566D01*
X52764008Y-95370568D01*
X52878328Y-95407713D01*
X52988631Y-95443553D01*
X53221903Y-95480500D01*
X53221908Y-95480500D01*
X53458097Y-95480500D01*
X53691368Y-95443553D01*
X53701647Y-95440213D01*
X53915992Y-95370568D01*
X54126433Y-95263343D01*
X54317510Y-95124517D01*
X54317516Y-95124511D01*
X54321221Y-95121348D01*
X54322784Y-95123179D01*
X54375292Y-95094339D01*
X54444996Y-95099152D01*
X54501032Y-95140885D01*
X54507487Y-95150342D01*
X54537287Y-95198655D01*
X54537288Y-95198656D01*
X54661344Y-95322712D01*
X54810666Y-95414814D01*
X54977203Y-95469999D01*
X55079991Y-95480500D01*
X56680008Y-95480499D01*
X56782797Y-95469999D01*
X56949334Y-95414814D01*
X57098656Y-95322712D01*
X57222712Y-95198656D01*
X57314814Y-95049334D01*
X57369999Y-94882797D01*
X57380500Y-94780009D01*
X57380499Y-93861902D01*
X59459500Y-93861902D01*
X59459500Y-94098097D01*
X59496446Y-94331368D01*
X59569433Y-94555996D01*
X59632625Y-94680016D01*
X59676657Y-94766433D01*
X59815483Y-94957510D01*
X59982490Y-95124517D01*
X60173567Y-95263343D01*
X60272991Y-95314002D01*
X60384003Y-95370566D01*
X60384005Y-95370566D01*
X60384008Y-95370568D01*
X60498328Y-95407713D01*
X60608631Y-95443553D01*
X60841903Y-95480500D01*
X60841908Y-95480500D01*
X61078097Y-95480500D01*
X61311368Y-95443553D01*
X61321647Y-95440213D01*
X61535992Y-95370568D01*
X61746433Y-95263343D01*
X61937510Y-95124517D01*
X61937516Y-95124511D01*
X61941221Y-95121348D01*
X61942784Y-95123179D01*
X61995292Y-95094339D01*
X62064996Y-95099152D01*
X62121032Y-95140885D01*
X62127487Y-95150342D01*
X62157287Y-95198655D01*
X62157288Y-95198656D01*
X62281344Y-95322712D01*
X62430666Y-95414814D01*
X62597203Y-95469999D01*
X62699991Y-95480500D01*
X64300008Y-95480499D01*
X64402797Y-95469999D01*
X64569334Y-95414814D01*
X64718656Y-95322712D01*
X64842712Y-95198656D01*
X64934814Y-95049334D01*
X64989999Y-94882797D01*
X65000500Y-94780009D01*
X65000499Y-93279983D01*
X67179500Y-93279983D01*
X67179500Y-94680001D01*
X67179501Y-94680018D01*
X67190000Y-94782796D01*
X67190001Y-94782799D01*
X67245185Y-94949331D01*
X67245187Y-94949336D01*
X67250230Y-94957512D01*
X67337288Y-95098656D01*
X67461344Y-95222712D01*
X67610666Y-95314814D01*
X67777203Y-95369999D01*
X67879991Y-95380500D01*
X69280008Y-95380499D01*
X69382797Y-95369999D01*
X69549334Y-95314814D01*
X69698656Y-95222712D01*
X69822712Y-95098656D01*
X69914814Y-94949334D01*
X69969999Y-94782797D01*
X69980500Y-94680009D01*
X69980499Y-93279992D01*
X69971670Y-93193566D01*
X69969999Y-93177203D01*
X69969998Y-93177200D01*
X69936861Y-93077200D01*
X69914814Y-93010666D01*
X69822712Y-92861344D01*
X69698656Y-92737288D01*
X69605888Y-92680069D01*
X69549336Y-92645187D01*
X69549331Y-92645185D01*
X69525499Y-92637288D01*
X69382797Y-92590001D01*
X69382795Y-92590000D01*
X69280010Y-92579500D01*
X67879998Y-92579500D01*
X67879981Y-92579501D01*
X67777203Y-92590000D01*
X67777200Y-92590001D01*
X67610668Y-92645185D01*
X67610663Y-92645187D01*
X67461342Y-92737289D01*
X67337289Y-92861342D01*
X67245187Y-93010663D01*
X67245186Y-93010666D01*
X67190001Y-93177203D01*
X67190001Y-93177204D01*
X67190000Y-93177204D01*
X67179500Y-93279983D01*
X65000499Y-93279983D01*
X65000499Y-93179992D01*
X64989999Y-93077203D01*
X64934814Y-92910666D01*
X64842712Y-92761344D01*
X64718656Y-92637288D01*
X64585683Y-92555270D01*
X64569336Y-92545187D01*
X64569331Y-92545185D01*
X64491740Y-92519474D01*
X64402797Y-92490001D01*
X64402795Y-92490000D01*
X64300010Y-92479500D01*
X62699998Y-92479500D01*
X62699981Y-92479501D01*
X62597203Y-92490000D01*
X62597200Y-92490001D01*
X62430668Y-92545185D01*
X62430663Y-92545187D01*
X62281342Y-92637289D01*
X62157287Y-92761344D01*
X62127487Y-92809658D01*
X62075539Y-92856382D01*
X62006576Y-92867603D01*
X61942494Y-92839759D01*
X61941241Y-92838614D01*
X61941214Y-92838647D01*
X61937517Y-92835490D01*
X61937510Y-92835483D01*
X61746433Y-92696657D01*
X61735517Y-92691095D01*
X61535996Y-92589433D01*
X61311368Y-92516446D01*
X61078097Y-92479500D01*
X61078092Y-92479500D01*
X60841908Y-92479500D01*
X60841903Y-92479500D01*
X60608631Y-92516446D01*
X60384003Y-92589433D01*
X60173566Y-92696657D01*
X60084536Y-92761342D01*
X59982490Y-92835483D01*
X59982488Y-92835485D01*
X59982487Y-92835485D01*
X59815485Y-93002487D01*
X59815485Y-93002488D01*
X59815483Y-93002490D01*
X59761203Y-93077200D01*
X59676657Y-93193566D01*
X59569433Y-93404003D01*
X59496446Y-93628631D01*
X59459500Y-93861902D01*
X57380499Y-93861902D01*
X57380499Y-93179992D01*
X57369999Y-93077203D01*
X57314814Y-92910666D01*
X57222712Y-92761344D01*
X57098656Y-92637288D01*
X56965683Y-92555270D01*
X56949336Y-92545187D01*
X56949331Y-92545185D01*
X56871740Y-92519474D01*
X56782797Y-92490001D01*
X56782795Y-92490000D01*
X56680010Y-92479500D01*
X55079998Y-92479500D01*
X55079981Y-92479501D01*
X54977203Y-92490000D01*
X54977200Y-92490001D01*
X54810668Y-92545185D01*
X54810663Y-92545187D01*
X54661342Y-92637289D01*
X54537287Y-92761344D01*
X54507487Y-92809658D01*
X54455539Y-92856382D01*
X54386576Y-92867603D01*
X54322494Y-92839759D01*
X54321241Y-92838614D01*
X54321214Y-92838647D01*
X54317517Y-92835490D01*
X54317510Y-92835483D01*
X54126433Y-92696657D01*
X54115517Y-92691095D01*
X53915996Y-92589433D01*
X53691368Y-92516446D01*
X53458097Y-92479500D01*
X53458092Y-92479500D01*
X53221908Y-92479500D01*
X53221903Y-92479500D01*
X52988631Y-92516446D01*
X52764003Y-92589433D01*
X52553566Y-92696657D01*
X52464536Y-92761342D01*
X52362490Y-92835483D01*
X52362488Y-92835485D01*
X52362487Y-92835485D01*
X52195485Y-93002487D01*
X52195485Y-93002488D01*
X52195483Y-93002490D01*
X52141203Y-93077200D01*
X52056657Y-93193566D01*
X51949433Y-93404003D01*
X51876446Y-93628631D01*
X51839500Y-93861902D01*
X38600500Y-93861902D01*
X38600500Y-91333713D01*
X72309500Y-91333713D01*
X72309500Y-91546286D01*
X72337024Y-91720070D01*
X72342754Y-91756243D01*
X72367454Y-91832262D01*
X72408444Y-91958414D01*
X72504951Y-92147820D01*
X72629890Y-92319786D01*
X72780213Y-92470109D01*
X72952179Y-92595048D01*
X72952181Y-92595049D01*
X72952184Y-92595051D01*
X73141588Y-92691557D01*
X73343757Y-92757246D01*
X73553713Y-92790500D01*
X73553714Y-92790500D01*
X73766286Y-92790500D01*
X73766287Y-92790500D01*
X73976243Y-92757246D01*
X74178412Y-92691557D01*
X74367816Y-92595051D01*
X74427265Y-92551859D01*
X74539786Y-92470109D01*
X74539788Y-92470106D01*
X74539792Y-92470104D01*
X74690104Y-92319792D01*
X74690106Y-92319788D01*
X74690109Y-92319786D01*
X74815048Y-92147820D01*
X74815047Y-92147820D01*
X74815051Y-92147816D01*
X74819514Y-92139054D01*
X74867488Y-92088259D01*
X74935308Y-92071463D01*
X75001444Y-92093999D01*
X75040486Y-92139056D01*
X75044951Y-92147820D01*
X75169890Y-92319786D01*
X75320213Y-92470109D01*
X75492179Y-92595048D01*
X75492181Y-92595049D01*
X75492184Y-92595051D01*
X75681588Y-92691557D01*
X75883757Y-92757246D01*
X76093713Y-92790500D01*
X76093714Y-92790500D01*
X76306286Y-92790500D01*
X76306287Y-92790500D01*
X76516243Y-92757246D01*
X76718412Y-92691557D01*
X76907816Y-92595051D01*
X76967265Y-92551859D01*
X77079786Y-92470109D01*
X77079788Y-92470106D01*
X77079792Y-92470104D01*
X77230104Y-92319792D01*
X77230106Y-92319788D01*
X77230109Y-92319786D01*
X77355048Y-92147820D01*
X77355047Y-92147820D01*
X77355051Y-92147816D01*
X77359514Y-92139054D01*
X77407488Y-92088259D01*
X77475308Y-92071463D01*
X77541444Y-92093999D01*
X77580486Y-92139056D01*
X77584951Y-92147820D01*
X77709890Y-92319786D01*
X77860213Y-92470109D01*
X78032179Y-92595048D01*
X78032181Y-92595049D01*
X78032184Y-92595051D01*
X78221588Y-92691557D01*
X78423757Y-92757246D01*
X78633713Y-92790500D01*
X78633714Y-92790500D01*
X78846286Y-92790500D01*
X78846287Y-92790500D01*
X79056243Y-92757246D01*
X79258412Y-92691557D01*
X79447816Y-92595051D01*
X79507265Y-92551859D01*
X79619786Y-92470109D01*
X79619788Y-92470106D01*
X79619792Y-92470104D01*
X79770104Y-92319792D01*
X79770106Y-92319788D01*
X79770109Y-92319786D01*
X79895048Y-92147820D01*
X79895047Y-92147820D01*
X79895051Y-92147816D01*
X79899514Y-92139054D01*
X79947488Y-92088259D01*
X80015308Y-92071463D01*
X80081444Y-92093999D01*
X80120486Y-92139056D01*
X80124951Y-92147820D01*
X80249890Y-92319786D01*
X80400213Y-92470109D01*
X80572179Y-92595048D01*
X80572181Y-92595049D01*
X80572184Y-92595051D01*
X80761588Y-92691557D01*
X80963757Y-92757246D01*
X81173713Y-92790500D01*
X81173714Y-92790500D01*
X81386286Y-92790500D01*
X81386287Y-92790500D01*
X81596243Y-92757246D01*
X81798412Y-92691557D01*
X81987816Y-92595051D01*
X82047265Y-92551859D01*
X82159786Y-92470109D01*
X82159788Y-92470106D01*
X82159792Y-92470104D01*
X82310104Y-92319792D01*
X82310106Y-92319788D01*
X82310109Y-92319786D01*
X82395890Y-92201717D01*
X82435051Y-92147816D01*
X82439793Y-92138508D01*
X82487763Y-92087711D01*
X82555583Y-92070911D01*
X82621719Y-92093445D01*
X82660763Y-92138500D01*
X82665373Y-92147547D01*
X82704728Y-92201716D01*
X83337037Y-91569408D01*
X83354075Y-91632993D01*
X83419901Y-91747007D01*
X83512993Y-91840099D01*
X83627007Y-91905925D01*
X83690590Y-91922962D01*
X83058282Y-92555269D01*
X83058282Y-92555270D01*
X83112449Y-92594624D01*
X83301782Y-92691095D01*
X83503870Y-92756757D01*
X83713754Y-92790000D01*
X83926246Y-92790000D01*
X84136127Y-92756757D01*
X84136130Y-92756757D01*
X84338217Y-92691095D01*
X84527554Y-92594622D01*
X84581716Y-92555270D01*
X84581717Y-92555270D01*
X83949408Y-91922962D01*
X84012993Y-91905925D01*
X84127007Y-91840099D01*
X84220099Y-91747007D01*
X84285925Y-91632993D01*
X84302962Y-91569409D01*
X84935270Y-92201717D01*
X84935270Y-92201716D01*
X84974622Y-92147555D01*
X84979232Y-92138507D01*
X85027205Y-92087709D01*
X85095025Y-92070912D01*
X85161161Y-92093447D01*
X85200204Y-92138504D01*
X85204949Y-92147817D01*
X85329890Y-92319786D01*
X85480213Y-92470109D01*
X85652179Y-92595048D01*
X85652181Y-92595049D01*
X85652184Y-92595051D01*
X85841588Y-92691557D01*
X86043757Y-92757246D01*
X86253713Y-92790500D01*
X86253714Y-92790500D01*
X86466286Y-92790500D01*
X86466287Y-92790500D01*
X86676243Y-92757246D01*
X86878412Y-92691557D01*
X87067816Y-92595051D01*
X87127265Y-92551859D01*
X87239786Y-92470109D01*
X87239788Y-92470106D01*
X87239792Y-92470104D01*
X87390104Y-92319792D01*
X87390106Y-92319788D01*
X87390109Y-92319786D01*
X87515048Y-92147820D01*
X87515047Y-92147820D01*
X87515051Y-92147816D01*
X87611557Y-91958412D01*
X87677246Y-91756243D01*
X87710500Y-91546287D01*
X87710500Y-91337648D01*
X91219500Y-91337648D01*
X91219500Y-91542351D01*
X91251522Y-91744534D01*
X91314781Y-91939223D01*
X91378691Y-92064653D01*
X91407585Y-92121359D01*
X91407715Y-92121613D01*
X91528028Y-92287213D01*
X91672786Y-92431971D01*
X91789060Y-92516447D01*
X91838390Y-92552287D01*
X91922319Y-92595051D01*
X92020776Y-92645218D01*
X92020778Y-92645218D01*
X92020781Y-92645220D01*
X92125137Y-92679127D01*
X92215465Y-92708477D01*
X92316557Y-92724488D01*
X92417648Y-92740500D01*
X92417649Y-92740500D01*
X92622351Y-92740500D01*
X92622352Y-92740500D01*
X92824534Y-92708477D01*
X93019219Y-92645220D01*
X93201610Y-92552287D01*
X93314726Y-92470104D01*
X93367213Y-92431971D01*
X93367215Y-92431968D01*
X93367219Y-92431966D01*
X93432319Y-92366866D01*
X93493642Y-92333381D01*
X93563334Y-92338365D01*
X93607681Y-92366866D01*
X93672786Y-92431971D01*
X93789060Y-92516447D01*
X93838390Y-92552287D01*
X93922319Y-92595051D01*
X94020776Y-92645218D01*
X94020778Y-92645218D01*
X94020781Y-92645220D01*
X94125137Y-92679127D01*
X94215465Y-92708477D01*
X94316557Y-92724488D01*
X94417648Y-92740500D01*
X94417649Y-92740500D01*
X94622351Y-92740500D01*
X94622352Y-92740500D01*
X94824534Y-92708477D01*
X95019219Y-92645220D01*
X95201610Y-92552287D01*
X95246774Y-92519474D01*
X95794076Y-92519474D01*
X95838650Y-92551859D01*
X96020968Y-92644755D01*
X96215582Y-92707990D01*
X96417683Y-92740000D01*
X96622317Y-92740000D01*
X96824417Y-92707990D01*
X97019031Y-92644755D01*
X97201349Y-92551859D01*
X97245921Y-92519474D01*
X104684076Y-92519474D01*
X104728650Y-92551859D01*
X104910968Y-92644755D01*
X105105582Y-92707990D01*
X105307683Y-92740000D01*
X105512317Y-92740000D01*
X105714417Y-92707990D01*
X105909031Y-92644755D01*
X106091349Y-92551859D01*
X106135921Y-92519474D01*
X105410000Y-91793553D01*
X104684076Y-92519474D01*
X97245921Y-92519474D01*
X96520000Y-91793553D01*
X95794076Y-92519474D01*
X95246774Y-92519474D01*
X95314726Y-92470104D01*
X95367213Y-92431971D01*
X95367215Y-92431968D01*
X95367219Y-92431966D01*
X95511966Y-92287219D01*
X95511968Y-92287215D01*
X95511971Y-92287213D01*
X95574087Y-92201716D01*
X95632287Y-92121610D01*
X95725220Y-91939219D01*
X95743934Y-91881624D01*
X95774183Y-91832262D01*
X96166446Y-91440000D01*
X96166446Y-91439999D01*
X96120369Y-91393922D01*
X96170000Y-91393922D01*
X96170000Y-91486078D01*
X96193852Y-91575095D01*
X96239930Y-91654905D01*
X96305095Y-91720070D01*
X96384905Y-91766148D01*
X96473922Y-91790000D01*
X96566078Y-91790000D01*
X96655095Y-91766148D01*
X96734905Y-91720070D01*
X96800070Y-91654905D01*
X96846148Y-91575095D01*
X96870000Y-91486078D01*
X96870000Y-91439999D01*
X96873553Y-91439999D01*
X96873553Y-91440000D01*
X97599474Y-92165921D01*
X97631859Y-92121349D01*
X97724755Y-91939031D01*
X97787990Y-91744417D01*
X97820000Y-91542317D01*
X97820000Y-91337682D01*
X104110000Y-91337682D01*
X104110000Y-91542317D01*
X104142009Y-91744417D01*
X104205244Y-91939031D01*
X104298141Y-92121350D01*
X104298147Y-92121359D01*
X104330523Y-92165921D01*
X104330524Y-92165922D01*
X105056446Y-91440001D01*
X105056446Y-91439999D01*
X105010369Y-91393922D01*
X105060000Y-91393922D01*
X105060000Y-91486078D01*
X105083852Y-91575095D01*
X105129930Y-91654905D01*
X105195095Y-91720070D01*
X105274905Y-91766148D01*
X105363922Y-91790000D01*
X105456078Y-91790000D01*
X105545095Y-91766148D01*
X105624905Y-91720070D01*
X105690070Y-91654905D01*
X105736148Y-91575095D01*
X105760000Y-91486078D01*
X105760000Y-91439999D01*
X105763553Y-91439999D01*
X105763553Y-91440000D01*
X106155816Y-91832263D01*
X106186065Y-91881624D01*
X106204779Y-91939219D01*
X106214560Y-91958414D01*
X106297585Y-92121359D01*
X106297715Y-92121613D01*
X106418028Y-92287213D01*
X106562786Y-92431971D01*
X106679060Y-92516447D01*
X106728390Y-92552287D01*
X106812319Y-92595051D01*
X106910776Y-92645218D01*
X106910778Y-92645218D01*
X106910781Y-92645220D01*
X107015137Y-92679127D01*
X107105465Y-92708477D01*
X107206557Y-92724488D01*
X107307648Y-92740500D01*
X107307649Y-92740500D01*
X107512351Y-92740500D01*
X107512352Y-92740500D01*
X107714534Y-92708477D01*
X107909219Y-92645220D01*
X108091610Y-92552287D01*
X108204726Y-92470104D01*
X108257213Y-92431971D01*
X108257215Y-92431968D01*
X108257219Y-92431966D01*
X108322319Y-92366866D01*
X108383642Y-92333381D01*
X108453334Y-92338365D01*
X108497681Y-92366866D01*
X108562786Y-92431971D01*
X108679060Y-92516447D01*
X108728390Y-92552287D01*
X108812319Y-92595051D01*
X108910776Y-92645218D01*
X108910778Y-92645218D01*
X108910781Y-92645220D01*
X109015137Y-92679127D01*
X109105465Y-92708477D01*
X109206557Y-92724488D01*
X109307648Y-92740500D01*
X109307649Y-92740500D01*
X109512351Y-92740500D01*
X109512352Y-92740500D01*
X109714534Y-92708477D01*
X109909219Y-92645220D01*
X110091610Y-92552287D01*
X110204726Y-92470104D01*
X110257213Y-92431971D01*
X110257215Y-92431968D01*
X110257219Y-92431966D01*
X110322319Y-92366866D01*
X110383642Y-92333381D01*
X110453334Y-92338365D01*
X110497681Y-92366866D01*
X110562786Y-92431971D01*
X110679060Y-92516447D01*
X110728390Y-92552287D01*
X110812319Y-92595051D01*
X110910776Y-92645218D01*
X110910778Y-92645218D01*
X110910781Y-92645220D01*
X111015137Y-92679127D01*
X111105465Y-92708477D01*
X111206557Y-92724488D01*
X111307648Y-92740500D01*
X111307649Y-92740500D01*
X111512351Y-92740500D01*
X111512352Y-92740500D01*
X111714534Y-92708477D01*
X111909219Y-92645220D01*
X112091610Y-92552287D01*
X112204726Y-92470104D01*
X112257213Y-92431971D01*
X112257215Y-92431968D01*
X112257219Y-92431966D01*
X112401966Y-92287219D01*
X112401968Y-92287215D01*
X112401971Y-92287213D01*
X112464087Y-92201716D01*
X112522287Y-92121610D01*
X112615220Y-91939219D01*
X112678477Y-91744534D01*
X112710500Y-91542352D01*
X112710500Y-91337648D01*
X112682352Y-91159930D01*
X112678477Y-91135465D01*
X112633932Y-90998372D01*
X112615220Y-90940781D01*
X112615218Y-90940778D01*
X112615218Y-90940776D01*
X112548118Y-90809087D01*
X112522287Y-90758390D01*
X112503438Y-90732446D01*
X112401971Y-90592786D01*
X112257213Y-90448028D01*
X112091613Y-90327715D01*
X112091612Y-90327714D01*
X112091610Y-90327713D01*
X112008527Y-90285380D01*
X111909223Y-90234781D01*
X111714534Y-90171522D01*
X111539995Y-90143878D01*
X111512352Y-90139500D01*
X111307648Y-90139500D01*
X111283329Y-90143351D01*
X111105465Y-90171522D01*
X110910776Y-90234781D01*
X110728386Y-90327715D01*
X110562786Y-90448028D01*
X110562782Y-90448032D01*
X110497681Y-90513134D01*
X110436358Y-90546619D01*
X110366666Y-90541635D01*
X110322319Y-90513134D01*
X110257213Y-90448028D01*
X110091613Y-90327715D01*
X110091612Y-90327714D01*
X110091610Y-90327713D01*
X110008527Y-90285380D01*
X109909223Y-90234781D01*
X109714534Y-90171522D01*
X109539995Y-90143878D01*
X109512352Y-90139500D01*
X109307648Y-90139500D01*
X109283329Y-90143351D01*
X109105465Y-90171522D01*
X108910776Y-90234781D01*
X108728386Y-90327715D01*
X108562786Y-90448028D01*
X108562782Y-90448032D01*
X108497681Y-90513134D01*
X108436358Y-90546619D01*
X108366666Y-90541635D01*
X108322319Y-90513134D01*
X108257213Y-90448028D01*
X108091613Y-90327715D01*
X108091612Y-90327714D01*
X108091610Y-90327713D01*
X108008527Y-90285380D01*
X107909223Y-90234781D01*
X107714534Y-90171522D01*
X107539995Y-90143878D01*
X107512352Y-90139500D01*
X107307648Y-90139500D01*
X107283329Y-90143351D01*
X107105465Y-90171522D01*
X106910776Y-90234781D01*
X106728386Y-90327715D01*
X106562786Y-90448028D01*
X106418028Y-90592786D01*
X106297715Y-90758385D01*
X106251246Y-90849585D01*
X106204780Y-90940781D01*
X106204779Y-90940783D01*
X106204778Y-90940786D01*
X106186065Y-90998375D01*
X106155816Y-91047735D01*
X105763553Y-91439999D01*
X105760000Y-91439999D01*
X105760000Y-91393922D01*
X105736148Y-91304905D01*
X105690070Y-91225095D01*
X105624905Y-91159930D01*
X105545095Y-91113852D01*
X105456078Y-91090000D01*
X105363922Y-91090000D01*
X105274905Y-91113852D01*
X105195095Y-91159930D01*
X105129930Y-91225095D01*
X105083852Y-91304905D01*
X105060000Y-91393922D01*
X105010369Y-91393922D01*
X104330524Y-90714077D01*
X104330523Y-90714077D01*
X104298143Y-90758644D01*
X104205244Y-90940968D01*
X104142009Y-91135582D01*
X104110000Y-91337682D01*
X97820000Y-91337682D01*
X97787990Y-91135582D01*
X97724755Y-90940968D01*
X97631859Y-90758650D01*
X97599474Y-90714077D01*
X97599474Y-90714076D01*
X96873553Y-91439999D01*
X96870000Y-91439999D01*
X96870000Y-91393922D01*
X96846148Y-91304905D01*
X96800070Y-91225095D01*
X96734905Y-91159930D01*
X96655095Y-91113852D01*
X96566078Y-91090000D01*
X96473922Y-91090000D01*
X96384905Y-91113852D01*
X96305095Y-91159930D01*
X96239930Y-91225095D01*
X96193852Y-91304905D01*
X96170000Y-91393922D01*
X96120369Y-91393922D01*
X95774182Y-91047735D01*
X95743932Y-90998372D01*
X95725220Y-90940781D01*
X95632287Y-90758390D01*
X95613438Y-90732446D01*
X95511971Y-90592786D01*
X95367213Y-90448028D01*
X95246770Y-90360523D01*
X95794077Y-90360523D01*
X95794077Y-90360524D01*
X96520000Y-91086446D01*
X97245922Y-90360524D01*
X97245921Y-90360523D01*
X104684077Y-90360523D01*
X104684077Y-90360524D01*
X105410000Y-91086446D01*
X106135922Y-90360524D01*
X106135921Y-90360523D01*
X106091359Y-90328147D01*
X106091350Y-90328141D01*
X105909031Y-90235244D01*
X105714417Y-90172009D01*
X105512317Y-90140000D01*
X105307683Y-90140000D01*
X105105582Y-90172009D01*
X104910968Y-90235244D01*
X104728644Y-90328143D01*
X104684077Y-90360523D01*
X97245921Y-90360523D01*
X97201359Y-90328147D01*
X97201350Y-90328141D01*
X97019031Y-90235244D01*
X96824417Y-90172009D01*
X96622317Y-90140000D01*
X96417683Y-90140000D01*
X96215582Y-90172009D01*
X96020968Y-90235244D01*
X95838644Y-90328143D01*
X95794077Y-90360523D01*
X95246770Y-90360523D01*
X95201613Y-90327715D01*
X95201612Y-90327714D01*
X95201610Y-90327713D01*
X95118527Y-90285380D01*
X95019223Y-90234781D01*
X94824534Y-90171522D01*
X94649995Y-90143878D01*
X94622352Y-90139500D01*
X94417648Y-90139500D01*
X94393329Y-90143351D01*
X94215465Y-90171522D01*
X94020776Y-90234781D01*
X93838386Y-90327715D01*
X93672786Y-90448028D01*
X93672782Y-90448032D01*
X93607681Y-90513134D01*
X93546358Y-90546619D01*
X93476666Y-90541635D01*
X93432319Y-90513134D01*
X93367213Y-90448028D01*
X93201613Y-90327715D01*
X93201612Y-90327714D01*
X93201610Y-90327713D01*
X93118527Y-90285380D01*
X93019223Y-90234781D01*
X92824534Y-90171522D01*
X92649995Y-90143878D01*
X92622352Y-90139500D01*
X92417648Y-90139500D01*
X92393329Y-90143351D01*
X92215465Y-90171522D01*
X92020776Y-90234781D01*
X91838386Y-90327715D01*
X91672786Y-90448028D01*
X91528028Y-90592786D01*
X91407715Y-90758386D01*
X91314781Y-90940776D01*
X91251522Y-91135465D01*
X91219500Y-91337648D01*
X87710500Y-91337648D01*
X87710500Y-91333713D01*
X87677246Y-91123757D01*
X87611557Y-90921588D01*
X87515051Y-90732184D01*
X87515049Y-90732181D01*
X87515048Y-90732179D01*
X87390109Y-90560213D01*
X87239786Y-90409890D01*
X87067820Y-90284951D01*
X86878414Y-90188444D01*
X86878413Y-90188443D01*
X86878412Y-90188443D01*
X86676243Y-90122754D01*
X86676241Y-90122753D01*
X86676240Y-90122753D01*
X86514957Y-90097208D01*
X86466287Y-90089500D01*
X86253713Y-90089500D01*
X86205042Y-90097208D01*
X86043760Y-90122753D01*
X85841585Y-90188444D01*
X85652179Y-90284951D01*
X85480213Y-90409890D01*
X85329890Y-90560213D01*
X85204949Y-90732182D01*
X85200202Y-90741499D01*
X85152227Y-90792293D01*
X85084405Y-90809087D01*
X85018271Y-90786548D01*
X84979234Y-90741495D01*
X84974626Y-90732452D01*
X84935270Y-90678282D01*
X84935269Y-90678282D01*
X84302962Y-91310590D01*
X84285925Y-91247007D01*
X84220099Y-91132993D01*
X84127007Y-91039901D01*
X84012993Y-90974075D01*
X83949409Y-90957037D01*
X84581716Y-90324728D01*
X84527550Y-90285375D01*
X84338217Y-90188904D01*
X84136129Y-90123242D01*
X83926246Y-90090000D01*
X83713754Y-90090000D01*
X83503872Y-90123242D01*
X83503869Y-90123242D01*
X83301782Y-90188904D01*
X83112439Y-90285380D01*
X83058282Y-90324727D01*
X83058282Y-90324728D01*
X83690591Y-90957037D01*
X83627007Y-90974075D01*
X83512993Y-91039901D01*
X83419901Y-91132993D01*
X83354075Y-91247007D01*
X83337037Y-91310591D01*
X82704728Y-90678282D01*
X82704727Y-90678282D01*
X82665380Y-90732440D01*
X82665376Y-90732446D01*
X82660760Y-90741505D01*
X82612781Y-90792297D01*
X82544959Y-90809087D01*
X82478826Y-90786543D01*
X82439794Y-90741493D01*
X82435051Y-90732184D01*
X82435049Y-90732181D01*
X82435048Y-90732179D01*
X82310109Y-90560213D01*
X82159786Y-90409890D01*
X81987820Y-90284951D01*
X81798414Y-90188444D01*
X81798413Y-90188443D01*
X81798412Y-90188443D01*
X81596243Y-90122754D01*
X81596241Y-90122753D01*
X81596240Y-90122753D01*
X81434957Y-90097208D01*
X81386287Y-90089500D01*
X81173713Y-90089500D01*
X81125042Y-90097208D01*
X80963760Y-90122753D01*
X80761585Y-90188444D01*
X80572179Y-90284951D01*
X80400213Y-90409890D01*
X80249890Y-90560213D01*
X80124949Y-90732182D01*
X80120484Y-90740946D01*
X80072509Y-90791742D01*
X80004688Y-90808536D01*
X79938553Y-90785998D01*
X79899516Y-90740946D01*
X79895050Y-90732182D01*
X79770109Y-90560213D01*
X79619786Y-90409890D01*
X79447820Y-90284951D01*
X79258414Y-90188444D01*
X79258413Y-90188443D01*
X79258412Y-90188443D01*
X79056243Y-90122754D01*
X79056241Y-90122753D01*
X79056240Y-90122753D01*
X78894957Y-90097208D01*
X78846287Y-90089500D01*
X78633713Y-90089500D01*
X78585042Y-90097208D01*
X78423760Y-90122753D01*
X78221585Y-90188444D01*
X78032179Y-90284951D01*
X77860213Y-90409890D01*
X77709890Y-90560213D01*
X77584949Y-90732182D01*
X77580484Y-90740946D01*
X77532509Y-90791742D01*
X77464688Y-90808536D01*
X77398553Y-90785998D01*
X77359516Y-90740946D01*
X77355050Y-90732182D01*
X77230109Y-90560213D01*
X77079786Y-90409890D01*
X76907820Y-90284951D01*
X76718414Y-90188444D01*
X76718413Y-90188443D01*
X76718412Y-90188443D01*
X76516243Y-90122754D01*
X76516241Y-90122753D01*
X76516240Y-90122753D01*
X76354957Y-90097208D01*
X76306287Y-90089500D01*
X76093713Y-90089500D01*
X76045042Y-90097208D01*
X75883760Y-90122753D01*
X75681585Y-90188444D01*
X75492179Y-90284951D01*
X75320213Y-90409890D01*
X75169890Y-90560213D01*
X75044949Y-90732182D01*
X75040484Y-90740946D01*
X74992509Y-90791742D01*
X74924688Y-90808536D01*
X74858553Y-90785998D01*
X74819516Y-90740946D01*
X74815050Y-90732182D01*
X74690109Y-90560213D01*
X74539786Y-90409890D01*
X74367820Y-90284951D01*
X74178414Y-90188444D01*
X74178413Y-90188443D01*
X74178412Y-90188443D01*
X73976243Y-90122754D01*
X73976241Y-90122753D01*
X73976240Y-90122753D01*
X73814957Y-90097208D01*
X73766287Y-90089500D01*
X73553713Y-90089500D01*
X73505042Y-90097208D01*
X73343760Y-90122753D01*
X73141585Y-90188444D01*
X72952179Y-90284951D01*
X72780213Y-90409890D01*
X72629890Y-90560213D01*
X72504951Y-90732179D01*
X72408444Y-90921585D01*
X72342753Y-91123760D01*
X72309500Y-91333713D01*
X38600500Y-91333713D01*
X38600500Y-86984500D01*
X38620185Y-86917461D01*
X38672989Y-86871706D01*
X38724500Y-86860500D01*
X118755500Y-86860500D01*
X118822539Y-86880185D01*
G37*
%TD.AperFunction*%
%TD*%
M02*
