%TF.GenerationSoftware,KiCad,Pcbnew,9.0.7*%
%TF.CreationDate,2026-03-15T17:11:22+02:00*%
%TF.ProjectId,FilaBoss_control_PCB,46696c61-426f-4737-935f-636f6e74726f,rev?*%
%TF.SameCoordinates,Original*%
%TF.FileFunction,Plated,1,2,PTH,Mixed*%
%TF.FilePolarity,Positive*%
%FSLAX46Y46*%
G04 Gerber Fmt 4.6, Leading zero omitted, Abs format (unit mm)*
G04 Created by KiCad (PCBNEW 9.0.7) date 2026-03-15 17:11:22*
%MOMM*%
%LPD*%
G01*
G04 APERTURE LIST*
%TA.AperFunction,ComponentDrill*%
%ADD10C,0.700000*%
%TD*%
%TA.AperFunction,ComponentDrill*%
%ADD11C,0.762000*%
%TD*%
%TA.AperFunction,ComponentDrill*%
%ADD12C,0.800000*%
%TD*%
%TA.AperFunction,ComponentDrill*%
%ADD13C,0.900000*%
%TD*%
%TA.AperFunction,ViaDrill*%
%ADD14C,1.000000*%
%TD*%
G04 aperture for slot hole*
%TA.AperFunction,ComponentDrill*%
%ADD15C,1.000000*%
%TD*%
%TA.AperFunction,ComponentDrill*%
%ADD16C,1.000000*%
%TD*%
G04 aperture for slot hole*
%TA.AperFunction,ComponentDrill*%
%ADD17C,1.020000*%
%TD*%
%TA.AperFunction,ComponentDrill*%
%ADD18C,1.100000*%
%TD*%
%TA.AperFunction,ComponentDrill*%
%ADD19C,1.200000*%
%TD*%
%TA.AperFunction,ComponentDrill*%
%ADD20C,1.600000*%
%TD*%
G04 APERTURE END LIST*
D10*
%TO.C,J1*%
X85900000Y-133900000D03*
X87900000Y-133900000D03*
X89900000Y-133900000D03*
X91900000Y-133900000D03*
%TO.C,J8*%
X92520000Y-91440000D03*
X94520000Y-91440000D03*
X96520000Y-91440000D03*
%TO.C,J7*%
X101600000Y-135890000D03*
X103600000Y-135890000D03*
%TO.C,J9*%
X105410000Y-91440000D03*
%TO.C,J7*%
X105600000Y-135890000D03*
%TO.C,J9*%
X107410000Y-91440000D03*
%TO.C,J7*%
X107600000Y-135890000D03*
%TO.C,J9*%
X109410000Y-91440000D03*
X111410000Y-91440000D03*
D11*
%TO.C,U1*%
X96520000Y-96520000D03*
X96520000Y-111760000D03*
X99060000Y-96520000D03*
X99060000Y-111760000D03*
X101600000Y-96520000D03*
X101600000Y-111760000D03*
X104140000Y-96520000D03*
X104140000Y-111760000D03*
X106680000Y-96520000D03*
X106680000Y-111760000D03*
X109220000Y-96520000D03*
X109220000Y-111760000D03*
X111760000Y-96520000D03*
X111760000Y-111760000D03*
X114300000Y-96520000D03*
X114300000Y-111760000D03*
D12*
%TO.C,R2*%
X73660000Y-101670000D03*
%TO.C,R3*%
X73660000Y-106680000D03*
%TO.C,C1*%
X76280000Y-121920000D03*
%TO.C,C2*%
X76280000Y-127000000D03*
%TO.C,R1*%
X78740000Y-96520000D03*
%TO.C,R4*%
X78740000Y-111760000D03*
%TO.C,R3*%
X83820000Y-106680000D03*
%TO.C,C1*%
X86280000Y-121920000D03*
%TO.C,R1*%
X88900000Y-96520000D03*
%TO.C,R4*%
X88900000Y-111760000D03*
%TO.C,A1*%
X96520000Y-116840000D03*
X96520000Y-129540000D03*
X99060000Y-116840000D03*
X99060000Y-129540000D03*
X101600000Y-116840000D03*
X101600000Y-129540000D03*
X104140000Y-116840000D03*
X104140000Y-129540000D03*
X106680000Y-116840000D03*
X106680000Y-129540000D03*
X109220000Y-116840000D03*
X109220000Y-129540000D03*
X111760000Y-116840000D03*
X111760000Y-129540000D03*
%TO.C,C3*%
X114140000Y-106680000D03*
%TO.C,A1*%
X114300000Y-116840000D03*
X114300000Y-129540000D03*
D13*
%TO.C,D2*%
X53340000Y-99060000D03*
X53340000Y-109220000D03*
%TO.C,D1*%
X68580000Y-93980000D03*
X68580000Y-104140000D03*
%TD*%
D14*
X39600000Y-92710000D03*
X60960000Y-99060000D03*
X101600000Y-91440000D03*
X111760000Y-121920000D03*
D15*
%TO.C,J5*%
X41021000Y-98568000D02*
X41021000Y-100568000D01*
X44720000Y-96520000D02*
X46720000Y-96520000D01*
X44420000Y-102489000D02*
X47020000Y-102489000D01*
D16*
%TO.C,J6*%
X73660000Y-91440000D03*
X76200000Y-91440000D03*
X78740000Y-91440000D03*
X81280000Y-91440000D03*
X83820000Y-91440000D03*
%TO.C,R2*%
X83820000Y-101670000D03*
%TO.C,C2*%
X86280000Y-127000000D03*
%TO.C,J6*%
X86360000Y-91440000D03*
%TO.C,C3*%
X104140000Y-106680000D03*
D17*
%TO.C,F1*%
X42335000Y-112110000D02*
X44025000Y-112110000D01*
X42755000Y-119380000D02*
X43605000Y-119380000D01*
X42755000Y-128460000D02*
X43605000Y-128460000D01*
X42335000Y-135730000D02*
X44025000Y-135730000D01*
D18*
%TO.C,Q1*%
X58420000Y-101600000D03*
X58420000Y-104140000D03*
X58420000Y-106680000D03*
%TO.C,Q2*%
X63500000Y-101600000D03*
X63500000Y-104140000D03*
X63500000Y-106680000D03*
%TO.C,U2*%
X71120000Y-121920000D03*
X71120000Y-124460000D03*
X71120000Y-127000000D03*
D19*
%TO.C,J3*%
X53340000Y-93980000D03*
X55880000Y-93980000D03*
%TO.C,J2*%
X60960000Y-93980000D03*
X63500000Y-93980000D03*
D20*
%TO.C,L1*%
X50717500Y-127000000D03*
X63717500Y-127000000D03*
M02*
