M48
; DRILL file {KiCad 9.0.7} date 2026-04-06T17:12:32+0300
; FORMAT={-:-/ absolute / metric / decimal}
; #@! TF.CreationDate,2026-04-06T17:12:32+03:00
; #@! TF.GenerationSoftware,Kicad,Pcbnew,9.0.7
; #@! TF.FileFunction,MixedPlating,1,2
FMAT,2
METRIC
; #@! TA.AperFunction,Plated,PTH,ComponentDrill
T1C0.800
; #@! TA.AperFunction,Plated,PTH,ComponentDrill
T2C0.900
; #@! TA.AperFunction,Plated,PTH,ComponentDrill
T3C0.950
; #@! TA.AperFunction,Plated,PTH,ViaDrill
T4C1.000
; #@! TA.AperFunction,Plated,PTH,ComponentDrill
T5C1.000
; #@! TA.AperFunction,Plated,PTH,ComponentDrill
T6C1.100
; #@! TA.AperFunction,Plated,PTH,ComponentDrill
T7C1.200
; #@! TA.AperFunction,Plated,PTH,ComponentDrill
T8C1.300
; #@! TA.AperFunction,Plated,PTH,ComponentDrill
T9C1.600
; #@! TA.AperFunction,Plated,PTH,ViaDrill
T10C2.000
; #@! TA.AperFunction,Plated,PTH,ComponentDrill
T11C2.000
; #@! TA.AperFunction,Plated,PTH,ViaDrill
T12C3.200
%
G90
G05
T1
X59.69Y-122.235
X59.69Y-127.315
X64.77Y-136.144
X76.2Y-128.27
X76.2Y-132.08
X78.232Y-114.3
X78.232Y-124.46
X81.28Y-106.68
X81.28Y-114.3
X81.28Y-118.11
X83.82Y-106.68
X83.82Y-114.3
X86.36Y-106.68
X86.36Y-114.3
X86.36Y-128.27
X86.36Y-132.08
X86.42Y-121.92
X90.17Y-96.52
X90.17Y-106.68
X90.17Y-142.24
X90.17Y-145.846
X90.17Y-149.656
X90.17Y-153.466
X90.17Y-157.276
X91.44Y-118.11
X100.33Y-142.24
X100.33Y-145.846
X100.33Y-149.656
X100.33Y-153.466
X100.33Y-157.276
X101.6Y-99.06
X101.6Y-109.22
X102.87Y-144.145
X102.87Y-147.828
X102.87Y-151.638
X102.87Y-155.448
X102.87Y-159.258
X105.41Y-96.52
X105.41Y-106.68
X111.76Y-118.11
X113.03Y-144.145
X113.03Y-147.828
X113.03Y-151.638
X113.03Y-155.448
X113.03Y-159.258
X115.57Y-130.175
X118.11Y-133.35
X121.92Y-118.11
X125.73Y-130.175
X128.27Y-133.35
X135.255Y-123.19
X135.255Y-133.35
X139.065Y-123.19
X139.065Y-133.35
T2
X48.895Y-118.11
X49.147Y-132.08
X59.055Y-118.11
X59.307Y-132.08
X89.535Y-162.687
X99.695Y-162.687
T3
X43.18Y-118.11
X43.18Y-120.61
X43.18Y-127.02
X43.18Y-129.52
X81.32Y-91.44
X83.82Y-91.44
X90.21Y-91.44
X92.71Y-91.44
X99.14Y-91.44
X101.64Y-91.44
X104.14Y-91.44
X104.815Y-166.37
X107.315Y-166.37
X110.57Y-91.44
X113.07Y-91.44
X113.685Y-166.37
X115.57Y-91.44
X116.185Y-166.37
X118.07Y-91.44
X122.555Y-166.37
X125.055Y-166.37
X127.12Y-142.875
X127.18Y-158.496
X127.555Y-166.37
X129.62Y-142.875
X129.68Y-158.496
X132.12Y-142.875
X132.12Y-150.368
X132.18Y-158.496
X134.62Y-142.875
X134.62Y-150.368
X134.68Y-158.496
T4
X99.06Y-96.52
X114.285Y-162.035
X121.92Y-140.335
X129.54Y-97.79
X131.019Y-162.436
T5
X69.85Y-122.235
X69.85Y-127.315
X74.93Y-101.6
X74.93Y-104.14
X74.93Y-106.68
X74.93Y-109.22
X74.93Y-111.76
X74.93Y-114.3
X74.93Y-136.144
X75.645Y-143.51
X81.52Y-154.94
X81.52Y-157.48
X81.52Y-160.02
X90.17Y-114.3
X90.17Y-137.16
X92.71Y-114.3
X92.71Y-137.16
X93.92Y-121.92
X95.25Y-114.3
X95.25Y-137.16
X97.79Y-114.3
X97.79Y-137.16
X100.33Y-114.3
X100.33Y-137.16
X102.87Y-114.3
X102.87Y-137.16
X105.41Y-114.3
X105.41Y-137.16
X107.95Y-114.3
X107.95Y-137.16
X109.22Y-97.79
X109.22Y-110.49
X110.49Y-114.3
X110.49Y-137.16
X111.76Y-97.79
X111.76Y-110.49
X113.03Y-114.3
X113.03Y-137.16
X114.3Y-97.79
X114.3Y-110.49
X115.57Y-114.3
X115.57Y-137.16
X116.84Y-97.79
X116.84Y-110.49
X118.11Y-114.3
X118.11Y-137.16
X119.38Y-97.79
X119.38Y-110.49
X120.65Y-114.3
X120.65Y-137.16
X121.92Y-97.79
X121.92Y-110.49
X123.19Y-114.3
X123.19Y-137.16
X124.46Y-97.79
X124.46Y-110.49
X125.73Y-114.3
X125.73Y-137.16
X127.0Y-97.79
X127.0Y-110.49
X128.27Y-114.3
X128.27Y-137.16
X130.81Y-114.3
X130.81Y-137.16
X133.35Y-114.3
X133.35Y-137.16
X135.89Y-114.3
X135.89Y-137.16
T6
X49.53Y-139.065
X50.8Y-121.92
X50.8Y-127.0
X52.07Y-139.065
X53.34Y-121.92
X53.34Y-127.0
X54.61Y-139.065
X55.88Y-121.92
X55.88Y-127.0
X59.055Y-139.446
X69.215Y-139.446
T7
X76.502Y-154.94
X76.502Y-157.48
X76.502Y-160.02
T8
X55.706Y-168.91
X60.706Y-168.91
X66.675Y-162.56
X70.485Y-168.932
X75.485Y-168.932
X81.995Y-168.932
X86.995Y-168.932
X93.635Y-168.877
X98.635Y-168.877
X125.175Y-91.44
X130.175Y-91.44
T9
X48.26Y-152.4
X61.26Y-152.4
T10
X48.26Y-124.46
X65.405Y-169.037
X111.76Y-104.14
T11
X66.675Y-149.86
X80.645Y-143.51
T12
X41.91Y-90.17
X49.53Y-166.37
X137.16Y-90.17
X137.16Y-170.18
T5
G00X39.751Y-139.9
M15
G01X39.751Y-139.5
M16
G05
G00X39.751Y-170.38
M15
G01X39.751Y-169.98
M16
G05
G00X44.831Y-139.9
M15
G01X44.831Y-139.5
M16
G05
G00X44.831Y-170.38
M15
G01X44.831Y-169.98
M16
G05
M30
