%TF.GenerationSoftware,KiCad,Pcbnew,9.0.7*%
%TF.CreationDate,2026-03-15T17:11:15+02:00*%
%TF.ProjectId,FilaBoss_control_PCB,46696c61-426f-4737-935f-636f6e74726f,rev?*%
%TF.SameCoordinates,Original*%
%TF.FileFunction,Copper,L1,Top*%
%TF.FilePolarity,Positive*%
%FSLAX46Y46*%
G04 Gerber Fmt 4.6, Leading zero omitted, Abs format (unit mm)*
G04 Created by KiCad (PCBNEW 9.0.7) date 2026-03-15 17:11:15*
%MOMM*%
%LPD*%
G01*
G04 APERTURE LIST*
G04 Aperture macros list*
%AMRoundRect*
0 Rectangle with rounded corners*
0 $1 Rounding radius*
0 $2 $3 $4 $5 $6 $7 $8 $9 X,Y pos of 4 corners*
0 Add a 4 corners polygon primitive as box body*
4,1,4,$2,$3,$4,$5,$6,$7,$8,$9,$2,$3,0*
0 Add four circle primitives for the rounded corners*
1,1,$1+$1,$2,$3*
1,1,$1+$1,$4,$5*
1,1,$1+$1,$6,$7*
1,1,$1+$1,$8,$9*
0 Add four rect primitives between the rounded corners*
20,1,$1+$1,$2,$3,$4,$5,0*
20,1,$1+$1,$4,$5,$6,$7,0*
20,1,$1+$1,$6,$7,$8,$9,0*
20,1,$1+$1,$8,$9,$2,$3,0*%
G04 Aperture macros list end*
%TA.AperFunction,ComponentPad*%
%ADD10C,1.524000*%
%TD*%
%TA.AperFunction,ComponentPad*%
%ADD11R,2.000000X1.905000*%
%TD*%
%TA.AperFunction,ComponentPad*%
%ADD12O,2.000000X1.905000*%
%TD*%
%TA.AperFunction,ComponentPad*%
%ADD13C,1.700000*%
%TD*%
%TA.AperFunction,ComponentPad*%
%ADD14O,1.700000X1.700000*%
%TD*%
%TA.AperFunction,ComponentPad*%
%ADD15RoundRect,0.250000X-0.650000X0.650000X-0.650000X-0.650000X0.650000X-0.650000X0.650000X0.650000X0*%
%TD*%
%TA.AperFunction,ComponentPad*%
%ADD16C,1.800000*%
%TD*%
%TA.AperFunction,ComponentPad*%
%ADD17C,1.600000*%
%TD*%
%TA.AperFunction,ComponentPad*%
%ADD18C,2.000000*%
%TD*%
%TA.AperFunction,ComponentPad*%
%ADD19R,2.400000X2.400000*%
%TD*%
%TA.AperFunction,ComponentPad*%
%ADD20C,2.400000*%
%TD*%
%TA.AperFunction,ComponentPad*%
%ADD21RoundRect,0.250000X0.750000X0.750000X-0.750000X0.750000X-0.750000X-0.750000X0.750000X-0.750000X0*%
%TD*%
%TA.AperFunction,ComponentPad*%
%ADD22RoundRect,0.500000X-1.350000X0.500000X-1.350000X-0.500000X1.350000X-0.500000X1.350000X0.500000X0*%
%TD*%
%TA.AperFunction,ComponentPad*%
%ADD23RoundRect,0.500000X-0.900000X0.500000X-0.900000X-0.500000X0.900000X-0.500000X0.900000X0.500000X0*%
%TD*%
%TA.AperFunction,ComponentPad*%
%ADD24O,2.800000X2.000000*%
%TD*%
%TA.AperFunction,ComponentPad*%
%ADD25O,3.700000X2.000000*%
%TD*%
%TA.AperFunction,ComponentPad*%
%ADD26O,4.000000X2.000000*%
%TD*%
%TA.AperFunction,ComponentPad*%
%ADD27O,2.000000X4.000000*%
%TD*%
%TA.AperFunction,ComponentPad*%
%ADD28O,4.600000X2.300000*%
%TD*%
%TA.AperFunction,ComponentPad*%
%ADD29R,1.600000X1.600000*%
%TD*%
%TA.AperFunction,ComponentPad*%
%ADD30O,1.600000X1.600000*%
%TD*%
%TA.AperFunction,ViaPad*%
%ADD31C,2.000000*%
%TD*%
%TA.AperFunction,Conductor*%
%ADD32C,0.400000*%
%TD*%
%TA.AperFunction,Conductor*%
%ADD33C,0.800000*%
%TD*%
%TA.AperFunction,Conductor*%
%ADD34C,1.800000*%
%TD*%
G04 APERTURE END LIST*
D10*
%TO.P,U1,0,ADC1-0*%
%TO.N,Net-(A1-DIR)*%
X96520000Y-111760000D03*
%TO.P,U1,1,ADC1-1*%
%TO.N,Net-(A1-STEP)*%
X99060000Y-111760000D03*
%TO.P,U1,2,D0/A0*%
%TO.N,Net-(J1-Pin_2)*%
X101600000Y-111760000D03*
%TO.P,U1,3,D1/A1*%
%TO.N,Net-(J1-Pin_1)*%
X104140000Y-111760000D03*
%TO.P,U1,4,D2/A2*%
%TO.N,Net-(U1-D2{slash}A2)*%
X106680000Y-111760000D03*
%TO.P,U1,5,D3/A3*%
%TO.N,Net-(U1-D3{slash}A3)*%
X114300000Y-96520000D03*
%TO.P,U1,6,D4/SDA*%
%TO.N,Net-(J6-Pin_4)*%
X111760000Y-96520000D03*
%TO.P,U1,7,D5/SCL*%
%TO.N,Net-(J6-Pin_3)*%
X109220000Y-96520000D03*
%TO.P,U1,8,D8/SCK*%
%TO.N,Net-(J9-Pin_1)*%
X106680000Y-96520000D03*
%TO.P,U1,9,D9/MISO*%
%TO.N,Net-(J9-Pin_2)*%
X104140000Y-96520000D03*
%TO.P,U1,10,D10/MOSI*%
%TO.N,Net-(J9-Pin_3)*%
X101600000Y-96520000D03*
%TO.P,U1,11,3V3*%
%TO.N,+3.3V*%
X109220000Y-111760000D03*
%TO.P,U1,12,GND*%
%TO.N,GND*%
X111760000Y-111760000D03*
%TO.P,U1,13,5V*%
%TO.N,+5V*%
X114300000Y-111760000D03*
%TO.P,U1,20,D7/RX*%
%TO.N,Net-(U1-D7{slash}RX)*%
X99060000Y-96520000D03*
%TO.P,U1,21,D6/TX*%
%TO.N,Net-(U1-D6{slash}TX)*%
X96520000Y-96520000D03*
%TD*%
D11*
%TO.P,Q1,1,G*%
%TO.N,Net-(Q1-G)*%
X58420000Y-106680000D03*
D12*
%TO.P,Q1,2,D*%
%TO.N,Net-(D2-A)*%
X58420000Y-104140000D03*
%TO.P,Q1,3,S*%
%TO.N,GND*%
X58420000Y-101600000D03*
%TD*%
D13*
%TO.P,J6,1,Pin_1*%
%TO.N,+3.3V*%
X86360000Y-91440000D03*
D14*
%TO.P,J6,2,Pin_2*%
%TO.N,GND*%
X83820000Y-91440000D03*
%TO.P,J6,3,Pin_3*%
%TO.N,Net-(J6-Pin_3)*%
X81280000Y-91440000D03*
%TO.P,J6,4,Pin_4*%
%TO.N,Net-(J6-Pin_4)*%
X78740000Y-91440000D03*
%TO.P,J6,5,Pin_5*%
%TO.N,Net-(D1-K)*%
X76200000Y-91440000D03*
%TO.P,J6,6,Pin_6*%
%TO.N,+24V*%
X73660000Y-91440000D03*
%TD*%
D15*
%TO.P,D2,1,K*%
%TO.N,+24V*%
X53340000Y-99060000D03*
D16*
%TO.P,D2,2,A*%
%TO.N,Net-(D2-A)*%
X53340000Y-109220000D03*
%TD*%
D17*
%TO.P,C3,1*%
%TO.N,+5V*%
X114140000Y-106680000D03*
D18*
%TO.P,C3,2*%
%TO.N,GND*%
X104140000Y-106680000D03*
%TD*%
D17*
%TO.P,R2,1*%
%TO.N,Net-(Q2-G)*%
X73660000Y-101670000D03*
D18*
%TO.P,R2,2*%
%TO.N,GND*%
X83820000Y-101670000D03*
%TD*%
D11*
%TO.P,U2,1,VI*%
%TO.N,+24V*%
X71120000Y-127000000D03*
D12*
%TO.P,U2,2,GND*%
%TO.N,GND*%
X71120000Y-124460000D03*
%TO.P,U2,3,VO*%
%TO.N,+5V*%
X71120000Y-121920000D03*
%TD*%
D19*
%TO.P,L1,1,1*%
%TO.N,VDC*%
X50717500Y-127000000D03*
D20*
%TO.P,L1,2,2*%
%TO.N,+24V*%
X63717500Y-127000000D03*
%TD*%
D21*
%TO.P,J3,1,Pin_1*%
%TO.N,Net-(D2-A)*%
X55880000Y-93980000D03*
D18*
%TO.P,J3,2,Pin_2*%
%TO.N,+24V*%
X53340000Y-93980000D03*
%TD*%
D17*
%TO.P,R1,1*%
%TO.N,Net-(Q2-G)*%
X78740000Y-96520000D03*
%TO.P,R1,2*%
%TO.N,Net-(U1-D3{slash}A3)*%
X88900000Y-96520000D03*
%TD*%
%TO.P,J9,1,Pin_1*%
%TO.N,Net-(J9-Pin_1)*%
X111410000Y-91440000D03*
%TO.P,J9,2,Pin_2*%
%TO.N,Net-(J9-Pin_2)*%
X109410000Y-91440000D03*
%TO.P,J9,3,Pin_3*%
%TO.N,Net-(J9-Pin_3)*%
X107410000Y-91440000D03*
%TO.P,J9,4,Pin_4*%
%TO.N,GND*%
X105410000Y-91440000D03*
%TD*%
%TO.P,R3,1*%
%TO.N,Net-(Q1-G)*%
X73660000Y-106680000D03*
%TO.P,R3,2*%
%TO.N,GND*%
X83820000Y-106680000D03*
%TD*%
%TO.P,R4,1*%
%TO.N,Net-(Q1-G)*%
X78740000Y-111760000D03*
%TO.P,R4,2*%
%TO.N,Net-(U1-D2{slash}A2)*%
X88900000Y-111760000D03*
%TD*%
%TO.P,J7,1,Pin_1*%
%TO.N,Net-(A1-1B)*%
X101600000Y-135890000D03*
%TO.P,J7,2,Pin_2*%
%TO.N,Net-(A1-1A)*%
X103600000Y-135890000D03*
%TO.P,J7,3,Pin_3*%
%TO.N,Net-(A1-2A)*%
X105600000Y-135890000D03*
%TO.P,J7,4,Pin_4*%
%TO.N,Net-(A1-2B)*%
X107600000Y-135890000D03*
%TD*%
%TO.P,J1,1,Pin_1*%
%TO.N,Net-(J1-Pin_1)*%
X85900000Y-133900000D03*
%TO.P,J1,2,Pin_2*%
%TO.N,Net-(J1-Pin_2)*%
X87900000Y-133900000D03*
%TO.P,J1,3,Pin_3*%
%TO.N,+3.3V*%
X89900000Y-133900000D03*
%TO.P,J1,4,Pin_4*%
%TO.N,GND*%
X91900000Y-133900000D03*
%TD*%
%TO.P,C2,1*%
%TO.N,+24V*%
X76280000Y-127000000D03*
D18*
%TO.P,C2,2*%
%TO.N,GND*%
X86280000Y-127000000D03*
%TD*%
D22*
%TO.P,F1,1*%
%TO.N,LINE*%
X43180000Y-112110000D03*
D23*
X43180000Y-119380000D03*
D24*
%TO.P,F1,2*%
%TO.N,VDC*%
X43180000Y-128460000D03*
D25*
X43180000Y-135730000D03*
%TD*%
D11*
%TO.P,Q2,1,G*%
%TO.N,Net-(Q2-G)*%
X63500000Y-106680000D03*
D12*
%TO.P,Q2,2,D*%
%TO.N,Net-(D1-A)*%
X63500000Y-104140000D03*
%TO.P,Q2,3,S*%
%TO.N,GND*%
X63500000Y-101600000D03*
%TD*%
D17*
%TO.P,C1,1*%
%TO.N,+5V*%
X76280000Y-121920000D03*
%TO.P,C1,2*%
%TO.N,GND*%
X86280000Y-121920000D03*
%TD*%
D26*
%TO.P,J5,GND,GND*%
%TO.N,GND*%
X45720000Y-96520000D03*
D27*
%TO.P,J5,GNDBREAK,GNDBREAK*%
%TO.N,unconnected-(J5-PadGNDBREAK)*%
X41021000Y-99568000D03*
D28*
%TO.P,J5,PWR,PWR*%
%TO.N,LINE*%
X45720000Y-102489000D03*
%TD*%
D21*
%TO.P,J2,1,Pin_1*%
%TO.N,Net-(D1-A)*%
X63500000Y-93980000D03*
D18*
%TO.P,J2,2,Pin_2*%
%TO.N,Net-(D1-K)*%
X60960000Y-93980000D03*
%TD*%
D29*
%TO.P,A1,1,GND*%
%TO.N,GND*%
X96520000Y-129540000D03*
D30*
%TO.P,A1,2,VDD*%
%TO.N,+3.3V*%
X99060000Y-129540000D03*
%TO.P,A1,3,1B*%
%TO.N,Net-(A1-1B)*%
X101600000Y-129540000D03*
%TO.P,A1,4,1A*%
%TO.N,Net-(A1-1A)*%
X104140000Y-129540000D03*
%TO.P,A1,5,2A*%
%TO.N,Net-(A1-2A)*%
X106680000Y-129540000D03*
%TO.P,A1,6,2B*%
%TO.N,Net-(A1-2B)*%
X109220000Y-129540000D03*
%TO.P,A1,7,GND*%
%TO.N,GND*%
X111760000Y-129540000D03*
%TO.P,A1,8,VMOT*%
%TO.N,+24V*%
X114300000Y-129540000D03*
%TO.P,A1,9,~{ENABLE}*%
%TO.N,GND*%
X114300000Y-116840000D03*
%TO.P,A1,10,MS1*%
%TO.N,+3.3V*%
X111760000Y-116840000D03*
%TO.P,A1,11,MS2*%
X109220000Y-116840000D03*
%TO.P,A1,12,MS3*%
X106680000Y-116840000D03*
%TO.P,A1,13,~{RESET}*%
X104140000Y-116840000D03*
%TO.P,A1,14,~{SLEEP}*%
X101600000Y-116840000D03*
%TO.P,A1,15,STEP*%
%TO.N,Net-(A1-STEP)*%
X99060000Y-116840000D03*
%TO.P,A1,16,DIR*%
%TO.N,Net-(A1-DIR)*%
X96520000Y-116840000D03*
%TD*%
D17*
%TO.P,J8,1,1*%
%TO.N,GND*%
X96520000Y-91440000D03*
%TO.P,J8,2,2*%
%TO.N,Net-(U1-D7{slash}RX)*%
X94520000Y-91440000D03*
%TO.P,J8,3,3*%
%TO.N,Net-(U1-D6{slash}TX)*%
X92520000Y-91440000D03*
%TD*%
D15*
%TO.P,D1,1,K*%
%TO.N,Net-(D1-K)*%
X68580000Y-93980000D03*
D16*
%TO.P,D1,2,A*%
%TO.N,Net-(D1-A)*%
X68580000Y-104140000D03*
%TD*%
D31*
%TO.N,GND*%
X101600000Y-91440000D03*
X60960000Y-99060000D03*
X111760000Y-121920000D03*
X39600000Y-92710000D03*
%TD*%
D32*
%TO.N,Net-(U1-D2{slash}A2)*%
X92847214Y-109220000D02*
X91440000Y-109220000D01*
X93648214Y-108419000D02*
X92847214Y-109220000D01*
X102732786Y-109220000D02*
X101931785Y-108419000D01*
X101931785Y-108419000D02*
X93648214Y-108419000D01*
X104140000Y-109220000D02*
X102732786Y-109220000D01*
X106680000Y-111760000D02*
X104140000Y-109220000D01*
X91440000Y-109220000D02*
X88900000Y-111760000D01*
%TO.N,Net-(J6-Pin_3)*%
X110851314Y-88900000D02*
X83820000Y-88900000D01*
X112811000Y-90859686D02*
X110851314Y-88900000D01*
X112811000Y-92929000D02*
X112811000Y-90859686D01*
X83820000Y-88900000D02*
X81280000Y-91440000D01*
X109220000Y-96520000D02*
X112811000Y-92929000D01*
%TO.N,Net-(J6-Pin_4)*%
X82550000Y-87630000D02*
X110714099Y-87630000D01*
X113612000Y-90527901D02*
X113612000Y-94668000D01*
X113612000Y-94668000D02*
X111760000Y-96520000D01*
X78740000Y-91440000D02*
X82550000Y-87630000D01*
X110714099Y-87630000D02*
X113612000Y-90527901D01*
%TO.N,Net-(A1-DIR)*%
X96520000Y-116840000D02*
X96520000Y-111760000D01*
D33*
%TO.N,Net-(A1-2A)*%
X105600000Y-135890000D02*
X105600000Y-130620000D01*
X105600000Y-130620000D02*
X106680000Y-129540000D01*
D32*
%TO.N,GND*%
X111760000Y-121920000D02*
X111760000Y-119380000D01*
X91900000Y-133900000D02*
X90499000Y-135301000D01*
X110359000Y-110359000D02*
X107819000Y-110359000D01*
D34*
X39600000Y-92710000D02*
X43410000Y-96520000D01*
D32*
X101600000Y-91440000D02*
X105410000Y-91440000D01*
X111760000Y-111760000D02*
X110359000Y-110359000D01*
X84499000Y-134480314D02*
X84499000Y-128781000D01*
X101600000Y-91440000D02*
X96520000Y-91440000D01*
X83820000Y-91440000D02*
X83820000Y-101670000D01*
X90499000Y-135301000D02*
X85319686Y-135301000D01*
X83740000Y-124460000D02*
X86280000Y-127000000D01*
X92160000Y-133900000D02*
X91900000Y-133900000D01*
D34*
X43410000Y-96520000D02*
X45720000Y-96520000D01*
D33*
X60960000Y-99060000D02*
X58420000Y-101600000D01*
D32*
X96520000Y-129540000D02*
X92160000Y-133900000D01*
X86280000Y-121920000D02*
X86280000Y-127000000D01*
X85319686Y-135301000D02*
X84499000Y-134480314D01*
D33*
X111760000Y-121920000D02*
X111760000Y-129540000D01*
D32*
X83820000Y-101670000D02*
X83820000Y-106680000D01*
X71120000Y-124460000D02*
X83740000Y-124460000D01*
X107819000Y-110359000D02*
X104140000Y-106680000D01*
X111760000Y-119380000D02*
X114300000Y-116840000D01*
D33*
X60960000Y-99060000D02*
X63500000Y-101600000D01*
D32*
X84499000Y-128781000D02*
X86280000Y-127000000D01*
%TO.N,Net-(A1-STEP)*%
X99060000Y-111760000D02*
X99060000Y-116840000D01*
D33*
%TO.N,Net-(A1-2B)*%
X109220000Y-129540000D02*
X107600000Y-131160000D01*
X107600000Y-131160000D02*
X107600000Y-135890000D01*
%TO.N,Net-(A1-1B)*%
X101600000Y-135890000D02*
X101600000Y-129540000D01*
%TO.N,Net-(A1-1A)*%
X103600000Y-135890000D02*
X103600000Y-130080000D01*
X103600000Y-130080000D02*
X104140000Y-129540000D01*
%TO.N,Net-(D1-A)*%
X65301000Y-102339000D02*
X65301000Y-100873677D01*
X64770000Y-100330000D02*
X63500000Y-99060000D01*
X63500000Y-99060000D02*
X63500000Y-93980000D01*
X63500000Y-104140000D02*
X65301000Y-102339000D01*
X64770000Y-100342677D02*
X64770000Y-100330000D01*
D32*
X68580000Y-104140000D02*
X63500000Y-104140000D01*
D33*
X65301000Y-100873677D02*
X64770000Y-100342677D01*
D32*
%TO.N,Net-(U1-D3{slash}A3)*%
X88900000Y-96520000D02*
X90683500Y-98303500D01*
X112516500Y-98303500D02*
X114300000Y-96520000D01*
X90683500Y-98303500D02*
X112516500Y-98303500D01*
D33*
%TO.N,Net-(D2-A)*%
X55880000Y-93980000D02*
X55880000Y-101600000D01*
D32*
X53340000Y-107950000D02*
X57150000Y-104140000D01*
X57150000Y-104140000D02*
X58420000Y-104140000D01*
X53340000Y-109220000D02*
X53340000Y-107950000D01*
D33*
X55880000Y-101600000D02*
X58420000Y-104140000D01*
D32*
%TO.N,Net-(Q1-G)*%
X58420000Y-106680000D02*
X58420000Y-109220000D01*
X73660000Y-106680000D02*
X78740000Y-111760000D01*
X60080326Y-110880326D02*
X69459674Y-110880326D01*
X69459674Y-110880326D02*
X73660000Y-106680000D01*
X58420000Y-109220000D02*
X60080326Y-110880326D01*
%TO.N,Net-(Q2-G)*%
X73660000Y-101670000D02*
X78810000Y-96520000D01*
X73590000Y-101670000D02*
X73660000Y-101670000D01*
X63500000Y-106680000D02*
X68580000Y-106680000D01*
X78810000Y-96520000D02*
X78740000Y-96520000D01*
X68580000Y-106680000D02*
X73590000Y-101670000D01*
%TO.N,Net-(J9-Pin_2)*%
X104330000Y-96520000D02*
X109410000Y-91440000D01*
X104140000Y-96520000D02*
X104330000Y-96520000D01*
X109220000Y-91440000D02*
X109410000Y-91440000D01*
%TO.N,Net-(J9-Pin_3)*%
X102963000Y-95157000D02*
X103693000Y-95157000D01*
X101600000Y-96520000D02*
X102963000Y-95157000D01*
X103693000Y-95157000D02*
X107410000Y-91440000D01*
%TO.N,Net-(J9-Pin_1)*%
X106680000Y-96170000D02*
X106680000Y-96520000D01*
X111410000Y-91440000D02*
X106680000Y-96170000D01*
%TO.N,Net-(U1-D7{slash}RX)*%
X94520000Y-91980000D02*
X94520000Y-91440000D01*
X99060000Y-96520000D02*
X94520000Y-91980000D01*
%TO.N,Net-(U1-D6{slash}TX)*%
X96520000Y-95440000D02*
X96520000Y-96520000D01*
X92520000Y-91440000D02*
X96520000Y-95440000D01*
%TO.N,Net-(J1-Pin_2)*%
X94311786Y-110021000D02*
X99861000Y-110021000D01*
X87900000Y-130402785D02*
X88682000Y-129620785D01*
X88682000Y-115650786D02*
X94311786Y-110021000D01*
X87900000Y-133900000D02*
X87900000Y-130402785D01*
X88682000Y-129620785D02*
X88682000Y-115650786D01*
X99861000Y-110021000D02*
X101600000Y-111760000D01*
%TO.N,Net-(J1-Pin_1)*%
X101600000Y-109220000D02*
X104140000Y-111760000D01*
X86360000Y-130810000D02*
X87881000Y-129289000D01*
X86360000Y-133440000D02*
X86360000Y-130810000D01*
X87881000Y-129289000D02*
X87881000Y-115319000D01*
X87881000Y-115319000D02*
X93980000Y-109220000D01*
X93980000Y-109220000D02*
X101600000Y-109220000D01*
X85900000Y-133900000D02*
X86360000Y-133440000D01*
D33*
%TO.N,Net-(D1-K)*%
X60960000Y-92565787D02*
X60960000Y-93980000D01*
X61386707Y-92139080D02*
X60960000Y-92565787D01*
X68580000Y-93980000D02*
X66739080Y-92139080D01*
X66739080Y-92139080D02*
X61386707Y-92139080D01*
X73660000Y-93980000D02*
X68580000Y-93980000D01*
X76200000Y-91440000D02*
X73660000Y-93980000D01*
%TD*%
%TA.AperFunction,Conductor*%
%TO.N,LINE*%
G36*
X48967539Y-86880185D02*
G01*
X49013294Y-86932989D01*
X49024500Y-86984500D01*
X49024500Y-122560500D01*
X49004815Y-122627539D01*
X48952011Y-122673294D01*
X48900500Y-122684500D01*
X38724500Y-122684500D01*
X38657461Y-122664815D01*
X38611706Y-122612011D01*
X38600500Y-122560500D01*
X38600500Y-118821999D01*
X41280000Y-118821999D01*
X41280000Y-118880000D01*
X42650536Y-118880000D01*
X42558147Y-118904755D01*
X42441853Y-118971898D01*
X42346898Y-119066853D01*
X42279755Y-119183147D01*
X42245000Y-119312857D01*
X42245000Y-119447143D01*
X42279755Y-119576853D01*
X42346898Y-119693147D01*
X42441853Y-119788102D01*
X42558147Y-119855245D01*
X42650536Y-119880000D01*
X41280000Y-119880000D01*
X41280000Y-119938000D01*
X41290608Y-120057325D01*
X41290609Y-120057328D01*
X41346557Y-120252861D01*
X41440721Y-120433129D01*
X41569246Y-120590753D01*
X41726870Y-120719278D01*
X41907138Y-120813442D01*
X42102671Y-120869390D01*
X42102674Y-120869391D01*
X42221999Y-120879999D01*
X42222002Y-120880000D01*
X42680000Y-120880000D01*
X42680000Y-119887894D01*
X42687857Y-119890000D01*
X43672143Y-119890000D01*
X43680000Y-119887894D01*
X43680000Y-120880000D01*
X44137998Y-120880000D01*
X44138000Y-120879999D01*
X44257325Y-120869391D01*
X44257328Y-120869390D01*
X44452861Y-120813442D01*
X44633129Y-120719278D01*
X44790753Y-120590753D01*
X44919278Y-120433129D01*
X45013442Y-120252861D01*
X45069390Y-120057328D01*
X45069391Y-120057325D01*
X45079999Y-119938000D01*
X45080000Y-119937998D01*
X45080000Y-119880000D01*
X43709464Y-119880000D01*
X43801853Y-119855245D01*
X43918147Y-119788102D01*
X44013102Y-119693147D01*
X44080245Y-119576853D01*
X44115000Y-119447143D01*
X44115000Y-119312857D01*
X44080245Y-119183147D01*
X44013102Y-119066853D01*
X43918147Y-118971898D01*
X43801853Y-118904755D01*
X43709464Y-118880000D01*
X45080000Y-118880000D01*
X45080000Y-118822002D01*
X45079999Y-118821999D01*
X45069391Y-118702674D01*
X45069390Y-118702671D01*
X45013442Y-118507138D01*
X44919278Y-118326870D01*
X44790753Y-118169246D01*
X44633129Y-118040721D01*
X44452861Y-117946557D01*
X44257328Y-117890609D01*
X44257325Y-117890608D01*
X44138000Y-117880000D01*
X43680000Y-117880000D01*
X43680000Y-118872105D01*
X43672143Y-118870000D01*
X42687857Y-118870000D01*
X42680000Y-118872105D01*
X42680000Y-117880000D01*
X42221999Y-117880000D01*
X42102674Y-117890608D01*
X42102671Y-117890609D01*
X41907138Y-117946557D01*
X41726870Y-118040721D01*
X41569246Y-118169246D01*
X41440721Y-118326870D01*
X41346557Y-118507138D01*
X41290609Y-118702671D01*
X41290608Y-118702674D01*
X41280000Y-118821999D01*
X38600500Y-118821999D01*
X38600500Y-111551999D01*
X40830000Y-111551999D01*
X40830000Y-111610000D01*
X42230536Y-111610000D01*
X42138147Y-111634755D01*
X42021853Y-111701898D01*
X41926898Y-111796853D01*
X41859755Y-111913147D01*
X41825000Y-112042857D01*
X41825000Y-112177143D01*
X41859755Y-112306853D01*
X41926898Y-112423147D01*
X42021853Y-112518102D01*
X42138147Y-112585245D01*
X42230536Y-112610000D01*
X40830000Y-112610000D01*
X40830000Y-112668000D01*
X40840608Y-112787325D01*
X40840609Y-112787328D01*
X40896557Y-112982861D01*
X40990721Y-113163129D01*
X41119246Y-113320753D01*
X41276870Y-113449278D01*
X41457138Y-113543442D01*
X41652671Y-113599390D01*
X41652674Y-113599391D01*
X41771999Y-113609999D01*
X41772002Y-113610000D01*
X42680000Y-113610000D01*
X42680000Y-112620000D01*
X43680000Y-112620000D01*
X43680000Y-113610000D01*
X44587998Y-113610000D01*
X44588000Y-113609999D01*
X44707325Y-113599391D01*
X44707328Y-113599390D01*
X44902861Y-113543442D01*
X45083129Y-113449278D01*
X45240753Y-113320753D01*
X45369278Y-113163129D01*
X45463442Y-112982861D01*
X45519390Y-112787328D01*
X45519391Y-112787325D01*
X45529999Y-112668000D01*
X45530000Y-112667998D01*
X45530000Y-112610000D01*
X44129464Y-112610000D01*
X44221853Y-112585245D01*
X44338147Y-112518102D01*
X44433102Y-112423147D01*
X44500245Y-112306853D01*
X44535000Y-112177143D01*
X44535000Y-112042857D01*
X44500245Y-111913147D01*
X44433102Y-111796853D01*
X44338147Y-111701898D01*
X44221853Y-111634755D01*
X44129464Y-111610000D01*
X45530000Y-111610000D01*
X45530000Y-111552002D01*
X45529999Y-111551999D01*
X45519391Y-111432674D01*
X45519390Y-111432671D01*
X45463442Y-111237138D01*
X45369278Y-111056870D01*
X45240753Y-110899246D01*
X45083129Y-110770721D01*
X44902861Y-110676557D01*
X44707328Y-110620609D01*
X44707325Y-110620608D01*
X44588000Y-110610000D01*
X43680000Y-110610000D01*
X43680000Y-111600000D01*
X42680000Y-111600000D01*
X42680000Y-110610000D01*
X41771999Y-110610000D01*
X41652674Y-110620608D01*
X41652671Y-110620609D01*
X41457138Y-110676557D01*
X41276870Y-110770721D01*
X41119246Y-110899246D01*
X40990721Y-111056870D01*
X40896557Y-111237138D01*
X40840609Y-111432671D01*
X40840608Y-111432674D01*
X40830000Y-111551999D01*
X38600500Y-111551999D01*
X38600500Y-103489000D01*
X43257032Y-103489000D01*
X43311451Y-103563903D01*
X43495098Y-103747550D01*
X43495103Y-103747554D01*
X43705208Y-103900203D01*
X43936622Y-104018116D01*
X44183622Y-104098370D01*
X44440143Y-104139000D01*
X44720000Y-104139000D01*
X46720000Y-104139000D01*
X46999857Y-104139000D01*
X47256377Y-104098370D01*
X47503377Y-104018116D01*
X47734791Y-103900203D01*
X47944896Y-103747554D01*
X47944901Y-103747550D01*
X48128548Y-103563903D01*
X48182968Y-103489000D01*
X46720000Y-103489000D01*
X46720000Y-104139000D01*
X44720000Y-104139000D01*
X44720000Y-103489000D01*
X43257032Y-103489000D01*
X38600500Y-103489000D01*
X38600500Y-102423174D01*
X43920000Y-102423174D01*
X43920000Y-102554826D01*
X43954075Y-102681993D01*
X44019901Y-102796007D01*
X44112993Y-102889099D01*
X44227007Y-102954925D01*
X44354174Y-102989000D01*
X47085826Y-102989000D01*
X47212993Y-102954925D01*
X47327007Y-102889099D01*
X47420099Y-102796007D01*
X47485925Y-102681993D01*
X47520000Y-102554826D01*
X47520000Y-102423174D01*
X47485925Y-102296007D01*
X47420099Y-102181993D01*
X47327007Y-102088901D01*
X47212993Y-102023075D01*
X47085826Y-101989000D01*
X44354174Y-101989000D01*
X44227007Y-102023075D01*
X44112993Y-102088901D01*
X44019901Y-102181993D01*
X43954075Y-102296007D01*
X43920000Y-102423174D01*
X38600500Y-102423174D01*
X38600500Y-94081904D01*
X38601648Y-94077992D01*
X38600751Y-94074015D01*
X38611411Y-94044743D01*
X38620185Y-94014865D01*
X38623265Y-94012195D01*
X38624661Y-94008364D01*
X38649455Y-93989501D01*
X38672989Y-93969110D01*
X38677023Y-93968529D01*
X38680269Y-93966061D01*
X38711322Y-93963598D01*
X38742147Y-93959166D01*
X38747020Y-93960766D01*
X38749920Y-93960537D01*
X38760209Y-93965100D01*
X38783083Y-93972615D01*
X38790536Y-93976610D01*
X38813567Y-93993343D01*
X38979033Y-94077652D01*
X38980160Y-94078256D01*
X38981967Y-94080035D01*
X39009258Y-94099864D01*
X42107154Y-97197760D01*
X42140639Y-97259083D01*
X42135655Y-97328775D01*
X42093783Y-97384708D01*
X42028319Y-97409125D01*
X41960046Y-97394273D01*
X41946591Y-97385761D01*
X41807433Y-97284657D01*
X41766927Y-97264018D01*
X41596996Y-97177433D01*
X41372368Y-97104446D01*
X41139097Y-97067500D01*
X41139092Y-97067500D01*
X40902908Y-97067500D01*
X40902903Y-97067500D01*
X40669631Y-97104446D01*
X40445003Y-97177433D01*
X40234566Y-97284657D01*
X40173844Y-97328775D01*
X40043490Y-97423483D01*
X40043488Y-97423485D01*
X40043487Y-97423485D01*
X39876485Y-97590487D01*
X39876485Y-97590488D01*
X39876483Y-97590490D01*
X39838755Y-97642418D01*
X39737657Y-97781566D01*
X39630433Y-97992003D01*
X39557446Y-98216631D01*
X39520500Y-98449902D01*
X39520500Y-100686097D01*
X39557446Y-100919368D01*
X39630433Y-101143996D01*
X39729486Y-101338397D01*
X39737657Y-101354433D01*
X39876483Y-101545510D01*
X40043490Y-101712517D01*
X40234567Y-101851343D01*
X40317162Y-101893427D01*
X40445003Y-101958566D01*
X40445005Y-101958566D01*
X40445008Y-101958568D01*
X40496113Y-101975173D01*
X40669631Y-102031553D01*
X40902903Y-102068500D01*
X40902908Y-102068500D01*
X41139097Y-102068500D01*
X41372368Y-102031553D01*
X41596992Y-101958568D01*
X41807433Y-101851343D01*
X41998510Y-101712517D01*
X42165517Y-101545510D01*
X42206574Y-101489000D01*
X43257032Y-101489000D01*
X44720000Y-101489000D01*
X46720000Y-101489000D01*
X48182968Y-101489000D01*
X48128548Y-101414096D01*
X47944901Y-101230449D01*
X47944896Y-101230445D01*
X47734791Y-101077796D01*
X47503377Y-100959883D01*
X47256377Y-100879629D01*
X46999857Y-100839000D01*
X46720000Y-100839000D01*
X46720000Y-101489000D01*
X44720000Y-101489000D01*
X44720000Y-100839000D01*
X44440143Y-100839000D01*
X44183622Y-100879629D01*
X43936622Y-100959883D01*
X43705208Y-101077796D01*
X43495103Y-101230445D01*
X43495098Y-101230449D01*
X43311451Y-101414096D01*
X43257032Y-101489000D01*
X42206574Y-101489000D01*
X42304343Y-101354433D01*
X42411568Y-101143992D01*
X42484553Y-100919368D01*
X42498653Y-100830345D01*
X42521500Y-100686097D01*
X42521500Y-98449902D01*
X42484553Y-98216631D01*
X42443245Y-98089499D01*
X42411568Y-97992008D01*
X42411566Y-97992005D01*
X42411566Y-97992003D01*
X42355002Y-97880991D01*
X42304343Y-97781567D01*
X42203244Y-97642417D01*
X42179765Y-97576611D01*
X42195590Y-97508557D01*
X42245696Y-97459862D01*
X42314174Y-97445987D01*
X42379283Y-97471336D01*
X42391244Y-97481851D01*
X42497636Y-97588243D01*
X42497641Y-97588247D01*
X42572202Y-97642418D01*
X42675978Y-97717815D01*
X42801095Y-97781566D01*
X42872393Y-97817895D01*
X42872396Y-97817896D01*
X42977221Y-97851955D01*
X43082049Y-97886015D01*
X43299779Y-97920501D01*
X43299780Y-97920501D01*
X43525333Y-97920501D01*
X43525357Y-97920500D01*
X44154935Y-97920500D01*
X44193253Y-97926569D01*
X44368632Y-97983553D01*
X44461609Y-97998279D01*
X44601903Y-98020500D01*
X44601908Y-98020500D01*
X46838097Y-98020500D01*
X47071368Y-97983553D01*
X47071371Y-97983552D01*
X47295992Y-97910568D01*
X47506433Y-97803343D01*
X47697510Y-97664517D01*
X47864517Y-97497510D01*
X48003343Y-97306433D01*
X48110568Y-97095992D01*
X48183553Y-96871368D01*
X48207461Y-96720420D01*
X48220500Y-96638097D01*
X48220500Y-96401902D01*
X48183553Y-96168631D01*
X48110566Y-95944003D01*
X48028655Y-95783245D01*
X48003343Y-95733567D01*
X47864517Y-95542490D01*
X47697510Y-95375483D01*
X47506433Y-95236657D01*
X47473671Y-95219964D01*
X47295996Y-95129433D01*
X47071368Y-95056446D01*
X46838097Y-95019500D01*
X46838092Y-95019500D01*
X44601908Y-95019500D01*
X44601903Y-95019500D01*
X44368630Y-95056447D01*
X44368627Y-95056447D01*
X44193253Y-95113431D01*
X44190923Y-95113799D01*
X44189870Y-95114477D01*
X44154935Y-95119500D01*
X44041468Y-95119500D01*
X43974429Y-95099815D01*
X43953787Y-95083181D01*
X40989864Y-92119258D01*
X40967060Y-92087872D01*
X40883342Y-91923566D01*
X40744517Y-91732490D01*
X40577510Y-91565483D01*
X40386433Y-91426657D01*
X40326189Y-91395961D01*
X40175996Y-91319433D01*
X39951368Y-91246446D01*
X39718097Y-91209500D01*
X39718092Y-91209500D01*
X39481908Y-91209500D01*
X39481903Y-91209500D01*
X39248631Y-91246446D01*
X39024003Y-91319433D01*
X38813567Y-91426656D01*
X38797385Y-91438414D01*
X38731578Y-91461893D01*
X38663524Y-91446067D01*
X38614830Y-91395961D01*
X38600500Y-91338095D01*
X38600500Y-86984500D01*
X38620185Y-86917461D01*
X38672989Y-86871706D01*
X38724500Y-86860500D01*
X48900500Y-86860500D01*
X48967539Y-86880185D01*
G37*
%TD.AperFunction*%
%TD*%
%TA.AperFunction,Conductor*%
%TO.N,+3.3V*%
G36*
X93376515Y-112049440D02*
G01*
X93414384Y-112071910D01*
X93522465Y-112165564D01*
X93522466Y-112165565D01*
X93522469Y-112165567D01*
X93522471Y-112165568D01*
X93522473Y-112165569D01*
X93653192Y-112225268D01*
X93653346Y-112225338D01*
X93720385Y-112245023D01*
X93720389Y-112245024D01*
X93862805Y-112265500D01*
X93862808Y-112265500D01*
X95135849Y-112265500D01*
X95135857Y-112265500D01*
X95204221Y-112260856D01*
X95237453Y-112256320D01*
X95252059Y-112253306D01*
X95321692Y-112259032D01*
X95377176Y-112301497D01*
X95387606Y-112318449D01*
X95440213Y-112421694D01*
X95557019Y-112582464D01*
X95697536Y-112722981D01*
X95768384Y-112774455D01*
X95811051Y-112829784D01*
X95819500Y-112874773D01*
X95819500Y-115678255D01*
X95799815Y-115745294D01*
X95768385Y-115778573D01*
X95672787Y-115848028D01*
X95672782Y-115848032D01*
X95528028Y-115992786D01*
X95407715Y-116158386D01*
X95314781Y-116340776D01*
X95251522Y-116535465D01*
X95219500Y-116737648D01*
X95219500Y-116942351D01*
X95251522Y-117144534D01*
X95314781Y-117339223D01*
X95378691Y-117464653D01*
X95407585Y-117521359D01*
X95407715Y-117521613D01*
X95528028Y-117687213D01*
X95672786Y-117831971D01*
X95793226Y-117919474D01*
X95838390Y-117952287D01*
X95954607Y-118011503D01*
X96020776Y-118045218D01*
X96020778Y-118045218D01*
X96020781Y-118045220D01*
X96125137Y-118079127D01*
X96215465Y-118108477D01*
X96238523Y-118112129D01*
X96417648Y-118140500D01*
X96417649Y-118140500D01*
X96622351Y-118140500D01*
X96622352Y-118140500D01*
X96824534Y-118108477D01*
X97019219Y-118045220D01*
X97201610Y-117952287D01*
X97294590Y-117884732D01*
X97367213Y-117831971D01*
X97367215Y-117831968D01*
X97367219Y-117831966D01*
X97511966Y-117687219D01*
X97511968Y-117687215D01*
X97511971Y-117687213D01*
X97632284Y-117521614D01*
X97632286Y-117521611D01*
X97632287Y-117521610D01*
X97679516Y-117428917D01*
X97727489Y-117378123D01*
X97795310Y-117361328D01*
X97861445Y-117383865D01*
X97900485Y-117428919D01*
X97947715Y-117521614D01*
X98068028Y-117687213D01*
X98212786Y-117831971D01*
X98333226Y-117919474D01*
X98378390Y-117952287D01*
X98494607Y-118011503D01*
X98560776Y-118045218D01*
X98560778Y-118045218D01*
X98560781Y-118045220D01*
X98665137Y-118079127D01*
X98755465Y-118108477D01*
X98778523Y-118112129D01*
X98957648Y-118140500D01*
X98957649Y-118140500D01*
X99162351Y-118140500D01*
X99162352Y-118140500D01*
X99364534Y-118108477D01*
X99559219Y-118045220D01*
X99741610Y-117952287D01*
X99834590Y-117884732D01*
X99907213Y-117831971D01*
X99907215Y-117831968D01*
X99907219Y-117831966D01*
X100051966Y-117687219D01*
X100051968Y-117687215D01*
X100051971Y-117687213D01*
X100172286Y-117521611D01*
X100172415Y-117521359D01*
X100219795Y-117428369D01*
X100267769Y-117377573D01*
X100335590Y-117360778D01*
X100401725Y-117383315D01*
X100440765Y-117428369D01*
X100488141Y-117521350D01*
X100488147Y-117521359D01*
X100520523Y-117565921D01*
X100520524Y-117565922D01*
X101200000Y-116886446D01*
X101200000Y-116892661D01*
X101227259Y-116994394D01*
X101279920Y-117085606D01*
X101354394Y-117160080D01*
X101445606Y-117212741D01*
X101547339Y-117240000D01*
X101553553Y-117240000D01*
X100874076Y-117919474D01*
X100918650Y-117951859D01*
X101100968Y-118044755D01*
X101295582Y-118107990D01*
X101497683Y-118140000D01*
X101702317Y-118140000D01*
X101904417Y-118107990D01*
X102099031Y-118044755D01*
X102281349Y-117951859D01*
X102325921Y-117919474D01*
X101646447Y-117240000D01*
X101652661Y-117240000D01*
X101754394Y-117212741D01*
X101845606Y-117160080D01*
X101920080Y-117085606D01*
X101972741Y-116994394D01*
X102000000Y-116892661D01*
X102000000Y-116886447D01*
X102679474Y-117565921D01*
X102711861Y-117521347D01*
X102711861Y-117521346D01*
X102759515Y-117427820D01*
X102807489Y-117377024D01*
X102875310Y-117360228D01*
X102941445Y-117382765D01*
X102980485Y-117427819D01*
X103028141Y-117521350D01*
X103028147Y-117521359D01*
X103060523Y-117565921D01*
X103060524Y-117565922D01*
X103740000Y-116886446D01*
X103740000Y-116892661D01*
X103767259Y-116994394D01*
X103819920Y-117085606D01*
X103894394Y-117160080D01*
X103985606Y-117212741D01*
X104087339Y-117240000D01*
X104093553Y-117240000D01*
X103414076Y-117919474D01*
X103458650Y-117951859D01*
X103640968Y-118044755D01*
X103835582Y-118107990D01*
X104037683Y-118140000D01*
X104242317Y-118140000D01*
X104444417Y-118107990D01*
X104639031Y-118044755D01*
X104821349Y-117951859D01*
X104865921Y-117919474D01*
X104186447Y-117240000D01*
X104192661Y-117240000D01*
X104294394Y-117212741D01*
X104385606Y-117160080D01*
X104460080Y-117085606D01*
X104512741Y-116994394D01*
X104540000Y-116892661D01*
X104540000Y-116886448D01*
X105219474Y-117565922D01*
X105219474Y-117565921D01*
X105251861Y-117521347D01*
X105251861Y-117521346D01*
X105299515Y-117427820D01*
X105347489Y-117377024D01*
X105415310Y-117360228D01*
X105481445Y-117382765D01*
X105520485Y-117427819D01*
X105568141Y-117521350D01*
X105568147Y-117521359D01*
X105600523Y-117565921D01*
X105600524Y-117565922D01*
X106280000Y-116886446D01*
X106280000Y-116892661D01*
X106307259Y-116994394D01*
X106359920Y-117085606D01*
X106434394Y-117160080D01*
X106525606Y-117212741D01*
X106627339Y-117240000D01*
X106633553Y-117240000D01*
X105954076Y-117919474D01*
X105998650Y-117951859D01*
X106180968Y-118044755D01*
X106375582Y-118107990D01*
X106577683Y-118140000D01*
X106782317Y-118140000D01*
X106984417Y-118107990D01*
X107179031Y-118044755D01*
X107361349Y-117951859D01*
X107405921Y-117919474D01*
X106726447Y-117240000D01*
X106732661Y-117240000D01*
X106834394Y-117212741D01*
X106925606Y-117160080D01*
X107000080Y-117085606D01*
X107052741Y-116994394D01*
X107080000Y-116892661D01*
X107080000Y-116886448D01*
X107759474Y-117565922D01*
X107759474Y-117565921D01*
X107791861Y-117521347D01*
X107791861Y-117521346D01*
X107839515Y-117427820D01*
X107887489Y-117377024D01*
X107955310Y-117360228D01*
X108021445Y-117382765D01*
X108060485Y-117427819D01*
X108108141Y-117521350D01*
X108108147Y-117521359D01*
X108140523Y-117565921D01*
X108140524Y-117565922D01*
X108820000Y-116886446D01*
X108820000Y-116892661D01*
X108847259Y-116994394D01*
X108899920Y-117085606D01*
X108974394Y-117160080D01*
X109065606Y-117212741D01*
X109167339Y-117240000D01*
X109173553Y-117240000D01*
X108494076Y-117919474D01*
X108538650Y-117951859D01*
X108720968Y-118044755D01*
X108915582Y-118107990D01*
X109117683Y-118140000D01*
X109322317Y-118140000D01*
X109524417Y-118107990D01*
X109719031Y-118044755D01*
X109901349Y-117951859D01*
X109945921Y-117919474D01*
X109266447Y-117240000D01*
X109272661Y-117240000D01*
X109374394Y-117212741D01*
X109465606Y-117160080D01*
X109540080Y-117085606D01*
X109592741Y-116994394D01*
X109620000Y-116892661D01*
X109620000Y-116886448D01*
X110299474Y-117565922D01*
X110299474Y-117565921D01*
X110331861Y-117521347D01*
X110331861Y-117521346D01*
X110379515Y-117427820D01*
X110427489Y-117377024D01*
X110495310Y-117360228D01*
X110561445Y-117382765D01*
X110600485Y-117427819D01*
X110648141Y-117521350D01*
X110648147Y-117521359D01*
X110680523Y-117565921D01*
X110680524Y-117565922D01*
X111360000Y-116886446D01*
X111360000Y-116892661D01*
X111387259Y-116994394D01*
X111439920Y-117085606D01*
X111514394Y-117160080D01*
X111605606Y-117212741D01*
X111707339Y-117240000D01*
X111713553Y-117240000D01*
X111034076Y-117919474D01*
X111078650Y-117951859D01*
X111260968Y-118044755D01*
X111455582Y-118107990D01*
X111657683Y-118140000D01*
X111709980Y-118140000D01*
X111777019Y-118159685D01*
X111822774Y-118212489D01*
X111832718Y-118281647D01*
X111803693Y-118345203D01*
X111797661Y-118351681D01*
X111215888Y-118933453D01*
X111215887Y-118933454D01*
X111190533Y-118971400D01*
X111165293Y-119009175D01*
X111152213Y-119028749D01*
X111139223Y-119048191D01*
X111086421Y-119175667D01*
X111086418Y-119175677D01*
X111059500Y-119311004D01*
X111059500Y-120516883D01*
X111039815Y-120583922D01*
X110991799Y-120627366D01*
X110973569Y-120636655D01*
X110878028Y-120706070D01*
X110782490Y-120775483D01*
X110782488Y-120775485D01*
X110782487Y-120775485D01*
X110615485Y-120942487D01*
X110615485Y-120942488D01*
X110615483Y-120942490D01*
X110555862Y-121024550D01*
X110476657Y-121133566D01*
X110369433Y-121344003D01*
X110296446Y-121568631D01*
X110259500Y-121801902D01*
X110259500Y-122038097D01*
X110296446Y-122271368D01*
X110369433Y-122495996D01*
X110476657Y-122706433D01*
X110615483Y-122897510D01*
X110782490Y-123064517D01*
X110808385Y-123083331D01*
X110851050Y-123138658D01*
X110859500Y-123183648D01*
X110859500Y-125730000D01*
X89382500Y-125730000D01*
X89382500Y-115992304D01*
X89402185Y-115925265D01*
X89418814Y-115904628D01*
X93245502Y-112077939D01*
X93306823Y-112044456D01*
X93376515Y-112049440D01*
G37*
%TD.AperFunction*%
%TA.AperFunction,Conductor*%
G36*
X118822539Y-86880185D02*
G01*
X118868294Y-86932989D01*
X118879500Y-86984500D01*
X118879500Y-125606000D01*
X118859815Y-125673039D01*
X118807011Y-125718794D01*
X118755500Y-125730000D01*
X112784500Y-125730000D01*
X112717461Y-125710315D01*
X112671706Y-125657511D01*
X112660500Y-125606000D01*
X112660500Y-123183648D01*
X112680185Y-123116609D01*
X112711612Y-123083332D01*
X112737510Y-123064517D01*
X112904517Y-122897510D01*
X113043343Y-122706433D01*
X113150568Y-122495992D01*
X113223553Y-122271368D01*
X113260500Y-122038097D01*
X113260500Y-121801902D01*
X113223553Y-121568631D01*
X113150566Y-121344003D01*
X113043342Y-121133566D01*
X112904517Y-120942490D01*
X112737510Y-120775483D01*
X112546433Y-120636657D01*
X112546432Y-120636656D01*
X112546430Y-120636655D01*
X112528201Y-120627366D01*
X112477407Y-120579390D01*
X112460500Y-120516883D01*
X112460500Y-119721517D01*
X112480185Y-119654478D01*
X112496814Y-119633841D01*
X113973852Y-118156802D01*
X114035173Y-118123319D01*
X114080923Y-118122012D01*
X114197648Y-118140500D01*
X114197650Y-118140500D01*
X114402351Y-118140500D01*
X114402352Y-118140500D01*
X114604534Y-118108477D01*
X114799219Y-118045220D01*
X114981610Y-117952287D01*
X115074590Y-117884732D01*
X115147213Y-117831971D01*
X115147215Y-117831968D01*
X115147219Y-117831966D01*
X115291966Y-117687219D01*
X115291968Y-117687215D01*
X115291971Y-117687213D01*
X115344732Y-117614590D01*
X115412287Y-117521610D01*
X115505220Y-117339219D01*
X115568477Y-117144534D01*
X115600500Y-116942352D01*
X115600500Y-116737648D01*
X115592257Y-116685606D01*
X115568477Y-116535465D01*
X115505218Y-116340776D01*
X115412419Y-116158650D01*
X115412287Y-116158390D01*
X115380092Y-116114077D01*
X115291971Y-115992786D01*
X115147213Y-115848028D01*
X114981613Y-115727715D01*
X114981612Y-115727714D01*
X114981610Y-115727713D01*
X114924653Y-115698691D01*
X114799223Y-115634781D01*
X114604534Y-115571522D01*
X114429995Y-115543878D01*
X114402352Y-115539500D01*
X114197648Y-115539500D01*
X114173329Y-115543351D01*
X113995465Y-115571522D01*
X113800776Y-115634781D01*
X113618386Y-115727715D01*
X113452786Y-115848028D01*
X113308028Y-115992786D01*
X113187713Y-116158388D01*
X113140203Y-116251630D01*
X113092228Y-116302426D01*
X113024407Y-116319220D01*
X112958272Y-116296682D01*
X112919234Y-116251628D01*
X112871861Y-116158652D01*
X112839474Y-116114077D01*
X112839474Y-116114076D01*
X112160000Y-116793553D01*
X112160000Y-116787339D01*
X112132741Y-116685606D01*
X112080080Y-116594394D01*
X112005606Y-116519920D01*
X111914394Y-116467259D01*
X111812661Y-116440000D01*
X111806446Y-116440000D01*
X112485922Y-115760524D01*
X112485921Y-115760523D01*
X112441359Y-115728147D01*
X112441350Y-115728141D01*
X112259031Y-115635244D01*
X112064417Y-115572009D01*
X111862317Y-115540000D01*
X111657683Y-115540000D01*
X111455582Y-115572009D01*
X111260968Y-115635244D01*
X111078644Y-115728143D01*
X111034077Y-115760523D01*
X111034077Y-115760524D01*
X111713554Y-116440000D01*
X111707339Y-116440000D01*
X111605606Y-116467259D01*
X111514394Y-116519920D01*
X111439920Y-116594394D01*
X111387259Y-116685606D01*
X111360000Y-116787339D01*
X111360000Y-116793553D01*
X110680524Y-116114077D01*
X110680523Y-116114077D01*
X110648143Y-116158644D01*
X110600485Y-116252180D01*
X110552510Y-116302976D01*
X110484689Y-116319771D01*
X110418554Y-116297233D01*
X110379515Y-116252180D01*
X110331859Y-116158650D01*
X110299474Y-116114077D01*
X110299474Y-116114076D01*
X109620000Y-116793551D01*
X109620000Y-116787339D01*
X109592741Y-116685606D01*
X109540080Y-116594394D01*
X109465606Y-116519920D01*
X109374394Y-116467259D01*
X109272661Y-116440000D01*
X109266446Y-116440000D01*
X109945922Y-115760524D01*
X109945921Y-115760523D01*
X109901359Y-115728147D01*
X109901350Y-115728141D01*
X109719031Y-115635244D01*
X109524417Y-115572009D01*
X109322317Y-115540000D01*
X109117683Y-115540000D01*
X108915582Y-115572009D01*
X108720968Y-115635244D01*
X108538644Y-115728143D01*
X108494077Y-115760523D01*
X108494077Y-115760524D01*
X109173554Y-116440000D01*
X109167339Y-116440000D01*
X109065606Y-116467259D01*
X108974394Y-116519920D01*
X108899920Y-116594394D01*
X108847259Y-116685606D01*
X108820000Y-116787339D01*
X108820000Y-116793553D01*
X108140524Y-116114077D01*
X108140523Y-116114077D01*
X108108143Y-116158644D01*
X108060485Y-116252180D01*
X108012510Y-116302976D01*
X107944689Y-116319771D01*
X107878554Y-116297233D01*
X107839515Y-116252180D01*
X107791859Y-116158650D01*
X107759474Y-116114077D01*
X107759474Y-116114076D01*
X107080000Y-116793551D01*
X107080000Y-116787339D01*
X107052741Y-116685606D01*
X107000080Y-116594394D01*
X106925606Y-116519920D01*
X106834394Y-116467259D01*
X106732661Y-116440000D01*
X106726446Y-116440000D01*
X107405922Y-115760524D01*
X107405921Y-115760523D01*
X107361359Y-115728147D01*
X107361350Y-115728141D01*
X107179031Y-115635244D01*
X106984417Y-115572009D01*
X106782317Y-115540000D01*
X106577683Y-115540000D01*
X106375582Y-115572009D01*
X106180968Y-115635244D01*
X105998644Y-115728143D01*
X105954077Y-115760523D01*
X105954077Y-115760524D01*
X106633554Y-116440000D01*
X106627339Y-116440000D01*
X106525606Y-116467259D01*
X106434394Y-116519920D01*
X106359920Y-116594394D01*
X106307259Y-116685606D01*
X106280000Y-116787339D01*
X106280000Y-116793553D01*
X105600524Y-116114077D01*
X105600523Y-116114077D01*
X105568143Y-116158644D01*
X105520485Y-116252180D01*
X105472510Y-116302976D01*
X105404689Y-116319771D01*
X105338554Y-116297233D01*
X105299515Y-116252180D01*
X105251859Y-116158650D01*
X105219474Y-116114077D01*
X105219474Y-116114076D01*
X104540000Y-116793551D01*
X104540000Y-116787339D01*
X104512741Y-116685606D01*
X104460080Y-116594394D01*
X104385606Y-116519920D01*
X104294394Y-116467259D01*
X104192661Y-116440000D01*
X104186446Y-116440000D01*
X104865922Y-115760524D01*
X104865921Y-115760523D01*
X104821359Y-115728147D01*
X104821350Y-115728141D01*
X104639031Y-115635244D01*
X104444417Y-115572009D01*
X104242317Y-115540000D01*
X104037683Y-115540000D01*
X103835582Y-115572009D01*
X103640968Y-115635244D01*
X103458644Y-115728143D01*
X103414077Y-115760523D01*
X103414077Y-115760524D01*
X104093554Y-116440000D01*
X104087339Y-116440000D01*
X103985606Y-116467259D01*
X103894394Y-116519920D01*
X103819920Y-116594394D01*
X103767259Y-116685606D01*
X103740000Y-116787339D01*
X103740000Y-116793553D01*
X103060524Y-116114077D01*
X103060523Y-116114077D01*
X103028143Y-116158644D01*
X102980485Y-116252180D01*
X102932510Y-116302976D01*
X102864689Y-116319771D01*
X102798554Y-116297233D01*
X102759515Y-116252180D01*
X102711859Y-116158650D01*
X102679474Y-116114077D01*
X102679474Y-116114076D01*
X102000000Y-116793551D01*
X102000000Y-116787339D01*
X101972741Y-116685606D01*
X101920080Y-116594394D01*
X101845606Y-116519920D01*
X101754394Y-116467259D01*
X101652661Y-116440000D01*
X101646446Y-116440000D01*
X102325922Y-115760524D01*
X102325921Y-115760523D01*
X102281359Y-115728147D01*
X102281350Y-115728141D01*
X102099031Y-115635244D01*
X101904417Y-115572009D01*
X101702317Y-115540000D01*
X101497683Y-115540000D01*
X101295582Y-115572009D01*
X101100968Y-115635244D01*
X100918644Y-115728143D01*
X100874077Y-115760523D01*
X100874077Y-115760524D01*
X101553554Y-116440000D01*
X101547339Y-116440000D01*
X101445606Y-116467259D01*
X101354394Y-116519920D01*
X101279920Y-116594394D01*
X101227259Y-116685606D01*
X101200000Y-116787339D01*
X101200000Y-116793553D01*
X100520524Y-116114077D01*
X100520523Y-116114077D01*
X100488143Y-116158644D01*
X100440765Y-116251630D01*
X100392790Y-116302426D01*
X100324969Y-116319221D01*
X100258834Y-116296683D01*
X100219795Y-116251630D01*
X100172284Y-116158385D01*
X100051971Y-115992786D01*
X99958958Y-115899773D01*
X99907219Y-115848034D01*
X99808667Y-115776432D01*
X99805835Y-115774108D01*
X99788140Y-115748131D01*
X99768949Y-115723243D01*
X99768096Y-115718704D01*
X99766501Y-115716362D01*
X99766308Y-115709184D01*
X99760500Y-115678255D01*
X99760500Y-112874773D01*
X99780185Y-112807734D01*
X99811614Y-112774455D01*
X99882464Y-112722981D01*
X100022981Y-112582464D01*
X100139787Y-112421694D01*
X100219515Y-112265218D01*
X100267490Y-112214423D01*
X100335311Y-112197628D01*
X100401446Y-112220165D01*
X100440484Y-112265218D01*
X100520213Y-112421694D01*
X100637019Y-112582464D01*
X100777536Y-112722981D01*
X100938306Y-112839787D01*
X101006970Y-112874773D01*
X101115367Y-112930005D01*
X101115370Y-112930006D01*
X101209866Y-112960709D01*
X101304364Y-112991413D01*
X101500639Y-113022500D01*
X101500640Y-113022500D01*
X101699360Y-113022500D01*
X101699361Y-113022500D01*
X101895636Y-112991413D01*
X102084632Y-112930005D01*
X102261694Y-112839787D01*
X102422464Y-112722981D01*
X102562981Y-112582464D01*
X102679787Y-112421694D01*
X102759515Y-112265218D01*
X102807490Y-112214423D01*
X102875311Y-112197628D01*
X102941446Y-112220165D01*
X102980484Y-112265218D01*
X103060213Y-112421694D01*
X103177019Y-112582464D01*
X103317536Y-112722981D01*
X103478306Y-112839787D01*
X103546970Y-112874773D01*
X103655367Y-112930005D01*
X103655370Y-112930006D01*
X103749866Y-112960709D01*
X103844364Y-112991413D01*
X104040639Y-113022500D01*
X104040640Y-113022500D01*
X104239360Y-113022500D01*
X104239361Y-113022500D01*
X104435636Y-112991413D01*
X104624632Y-112930005D01*
X104801694Y-112839787D01*
X104962464Y-112722981D01*
X105102981Y-112582464D01*
X105219787Y-112421694D01*
X105299515Y-112265218D01*
X105347490Y-112214423D01*
X105415311Y-112197628D01*
X105481446Y-112220165D01*
X105520484Y-112265218D01*
X105600213Y-112421694D01*
X105717019Y-112582464D01*
X105857536Y-112722981D01*
X106018306Y-112839787D01*
X106086970Y-112874773D01*
X106195367Y-112930005D01*
X106195370Y-112930006D01*
X106289866Y-112960709D01*
X106384364Y-112991413D01*
X106580639Y-113022500D01*
X106580640Y-113022500D01*
X106779360Y-113022500D01*
X106779361Y-113022500D01*
X106975636Y-112991413D01*
X107149453Y-112934937D01*
X108752168Y-112934937D01*
X108924483Y-112990925D01*
X109120679Y-113022000D01*
X109319321Y-113022000D01*
X109515513Y-112990925D01*
X109687830Y-112934936D01*
X109220001Y-112467106D01*
X109220000Y-112467106D01*
X108752168Y-112934937D01*
X107149453Y-112934937D01*
X107164632Y-112930005D01*
X107341694Y-112839787D01*
X107502464Y-112722981D01*
X107642981Y-112582464D01*
X107759787Y-112421694D01*
X107836536Y-112271065D01*
X107884509Y-112220271D01*
X107952330Y-112203476D01*
X107977437Y-112212032D01*
X107977537Y-112211619D01*
X108045061Y-112227830D01*
X108778765Y-111494127D01*
X108840088Y-111460642D01*
X108909780Y-111465626D01*
X108949823Y-111491360D01*
X108915124Y-111526060D01*
X108864964Y-111612939D01*
X108839000Y-111709840D01*
X108839000Y-111810160D01*
X108864964Y-111907061D01*
X108915124Y-111993940D01*
X108986060Y-112064876D01*
X109072939Y-112115036D01*
X109169840Y-112141000D01*
X109270160Y-112141000D01*
X109367061Y-112115036D01*
X109453940Y-112064876D01*
X109524876Y-111993940D01*
X109575036Y-111907061D01*
X109601000Y-111810160D01*
X109601000Y-111709840D01*
X109575036Y-111612939D01*
X109524876Y-111526060D01*
X109490445Y-111491629D01*
X109547195Y-111460642D01*
X109616886Y-111465626D01*
X109661234Y-111494127D01*
X110394937Y-112227830D01*
X110459563Y-112212314D01*
X110478835Y-112204169D01*
X110547682Y-112216079D01*
X110599161Y-112263320D01*
X110603463Y-112271065D01*
X110680213Y-112421694D01*
X110797019Y-112582464D01*
X110937536Y-112722981D01*
X111098306Y-112839787D01*
X111166970Y-112874773D01*
X111275367Y-112930005D01*
X111275370Y-112930006D01*
X111369866Y-112960709D01*
X111464364Y-112991413D01*
X111660639Y-113022500D01*
X111660640Y-113022500D01*
X111859360Y-113022500D01*
X111859361Y-113022500D01*
X112055636Y-112991413D01*
X112244632Y-112930005D01*
X112421694Y-112839787D01*
X112582464Y-112722981D01*
X112722981Y-112582464D01*
X112839787Y-112421694D01*
X112919515Y-112265218D01*
X112967490Y-112214423D01*
X113035311Y-112197628D01*
X113101446Y-112220165D01*
X113140484Y-112265218D01*
X113220213Y-112421694D01*
X113337019Y-112582464D01*
X113477536Y-112722981D01*
X113638306Y-112839787D01*
X113706970Y-112874773D01*
X113815367Y-112930005D01*
X113815370Y-112930006D01*
X113909866Y-112960709D01*
X114004364Y-112991413D01*
X114200639Y-113022500D01*
X114200640Y-113022500D01*
X114399360Y-113022500D01*
X114399361Y-113022500D01*
X114595636Y-112991413D01*
X114784632Y-112930005D01*
X114961694Y-112839787D01*
X115122464Y-112722981D01*
X115262981Y-112582464D01*
X115379787Y-112421694D01*
X115470005Y-112244632D01*
X115470707Y-112242473D01*
X115531411Y-112055642D01*
X115531410Y-112055642D01*
X115531413Y-112055636D01*
X115544882Y-111970594D01*
X115574809Y-111907464D01*
X115579655Y-111902333D01*
X115787359Y-111694629D01*
X115804319Y-111680456D01*
X115810565Y-111676118D01*
X115810571Y-111676116D01*
X115915876Y-111578074D01*
X115958798Y-111524810D01*
X115959588Y-111523854D01*
X115959728Y-111523658D01*
X115977248Y-111494127D01*
X116033142Y-111399917D01*
X116037027Y-111390537D01*
X116055024Y-111339520D01*
X116075500Y-111197104D01*
X116075500Y-107253460D01*
X116066136Y-107156614D01*
X116057033Y-107109980D01*
X116029286Y-107016716D01*
X115956753Y-106892456D01*
X115913301Y-106837741D01*
X115913300Y-106837741D01*
X115907273Y-106830151D01*
X115899349Y-106824565D01*
X115841862Y-106770271D01*
X115806640Y-106709929D01*
X115809632Y-106640123D01*
X115845803Y-106586408D01*
X115881341Y-106555614D01*
X115881340Y-106555614D01*
X115881347Y-106555609D01*
X115975567Y-106446875D01*
X116035338Y-106315998D01*
X116055023Y-106248959D01*
X116055024Y-106248955D01*
X116075500Y-106106539D01*
X116075500Y-102994000D01*
X116063947Y-102886544D01*
X116052741Y-102835033D01*
X116045912Y-102814514D01*
X116018616Y-102732502D01*
X116018613Y-102732496D01*
X115940828Y-102611462D01*
X115940825Y-102611457D01*
X115940820Y-102611451D01*
X115895076Y-102558659D01*
X115895072Y-102558656D01*
X115895070Y-102558653D01*
X115786336Y-102464433D01*
X115786333Y-102464431D01*
X115786331Y-102464430D01*
X115655465Y-102404664D01*
X115655460Y-102404662D01*
X115655459Y-102404662D01*
X115588420Y-102384977D01*
X115588422Y-102384977D01*
X115588417Y-102384976D01*
X115540944Y-102378150D01*
X115446000Y-102364500D01*
X91491362Y-102364500D01*
X91491360Y-102364500D01*
X91437311Y-102367397D01*
X91437310Y-102367397D01*
X91410977Y-102370229D01*
X91410950Y-102370232D01*
X91357554Y-102378885D01*
X91357552Y-102378885D01*
X91222747Y-102429166D01*
X91161422Y-102462651D01*
X91046240Y-102548876D01*
X91046228Y-102548886D01*
X84031681Y-109563434D01*
X83970358Y-109596919D01*
X83900666Y-109591935D01*
X83844733Y-109550063D01*
X83820316Y-109484599D01*
X83820000Y-109475753D01*
X83820000Y-108102616D01*
X83839685Y-108035577D01*
X83892489Y-107989822D01*
X83924597Y-107980144D01*
X84124534Y-107948477D01*
X84319219Y-107885220D01*
X84501610Y-107792287D01*
X84594590Y-107724732D01*
X84667213Y-107671971D01*
X84667215Y-107671968D01*
X84667219Y-107671966D01*
X84811966Y-107527219D01*
X84811968Y-107527215D01*
X84811971Y-107527213D01*
X84864732Y-107454590D01*
X84932287Y-107361610D01*
X85025220Y-107179219D01*
X85088477Y-106984534D01*
X85120500Y-106782352D01*
X85120500Y-106577648D01*
X85099787Y-106446874D01*
X85088477Y-106375465D01*
X85025218Y-106180776D01*
X84987390Y-106106536D01*
X84932287Y-105998390D01*
X84924556Y-105987749D01*
X84811971Y-105832786D01*
X84667217Y-105688032D01*
X84667212Y-105688028D01*
X84571615Y-105618573D01*
X84528949Y-105563243D01*
X84520500Y-105518255D01*
X84520500Y-103073115D01*
X84540185Y-103006076D01*
X84588205Y-102962630D01*
X84606433Y-102953343D01*
X84797510Y-102814517D01*
X84964517Y-102647510D01*
X85103343Y-102456433D01*
X85210568Y-102245992D01*
X85283553Y-102021368D01*
X85320500Y-101788097D01*
X85320500Y-101551902D01*
X85283553Y-101318631D01*
X85210566Y-101094003D01*
X85103342Y-100883566D01*
X84964517Y-100692490D01*
X84797510Y-100525483D01*
X84606433Y-100386657D01*
X84606432Y-100386656D01*
X84606430Y-100386655D01*
X84588201Y-100377366D01*
X84537407Y-100329390D01*
X84520500Y-100266883D01*
X84520500Y-92663547D01*
X84521134Y-92661385D01*
X84520576Y-92659203D01*
X84530933Y-92628014D01*
X84540185Y-92596508D01*
X84542108Y-92594365D01*
X84542597Y-92592894D01*
X84552699Y-92582566D01*
X84566630Y-92567047D01*
X84569065Y-92565081D01*
X84699792Y-92470104D01*
X84850104Y-92319792D01*
X84850106Y-92319788D01*
X84850109Y-92319786D01*
X84917933Y-92226433D01*
X84975051Y-92147816D01*
X84979793Y-92138508D01*
X85027763Y-92087711D01*
X85095583Y-92070911D01*
X85161719Y-92093445D01*
X85200763Y-92138500D01*
X85205373Y-92147547D01*
X85244728Y-92201716D01*
X85877037Y-91569408D01*
X85894075Y-91632993D01*
X85959901Y-91747007D01*
X86052993Y-91840099D01*
X86167007Y-91905925D01*
X86230590Y-91922962D01*
X85598282Y-92555269D01*
X85598282Y-92555270D01*
X85652449Y-92594624D01*
X85841782Y-92691095D01*
X86043870Y-92756757D01*
X86253754Y-92790000D01*
X86466246Y-92790000D01*
X86676127Y-92756757D01*
X86676130Y-92756757D01*
X86878217Y-92691095D01*
X87067554Y-92594622D01*
X87121716Y-92555270D01*
X87121717Y-92555270D01*
X86489408Y-91922962D01*
X86552993Y-91905925D01*
X86667007Y-91840099D01*
X86760099Y-91747007D01*
X86825925Y-91632993D01*
X86842962Y-91569408D01*
X87475270Y-92201717D01*
X87475270Y-92201716D01*
X87514622Y-92147554D01*
X87611095Y-91958217D01*
X87676757Y-91756130D01*
X87676757Y-91756127D01*
X87710000Y-91546246D01*
X87710000Y-91333753D01*
X87676757Y-91123872D01*
X87676757Y-91123869D01*
X87611095Y-90921782D01*
X87514624Y-90732449D01*
X87475270Y-90678282D01*
X87475269Y-90678282D01*
X86842962Y-91310590D01*
X86825925Y-91247007D01*
X86760099Y-91132993D01*
X86667007Y-91039901D01*
X86552993Y-90974075D01*
X86489409Y-90957037D01*
X87121716Y-90324728D01*
X87067550Y-90285375D01*
X86878217Y-90188904D01*
X86676129Y-90123242D01*
X86466246Y-90090000D01*
X86253754Y-90090000D01*
X86043872Y-90123242D01*
X86043869Y-90123242D01*
X85841782Y-90188904D01*
X85652439Y-90285380D01*
X85598282Y-90324727D01*
X85598282Y-90324728D01*
X86230591Y-90957037D01*
X86167007Y-90974075D01*
X86052993Y-91039901D01*
X85959901Y-91132993D01*
X85894075Y-91247007D01*
X85877037Y-91310591D01*
X85244728Y-90678282D01*
X85244727Y-90678282D01*
X85205380Y-90732440D01*
X85205376Y-90732446D01*
X85200760Y-90741505D01*
X85152781Y-90792297D01*
X85084959Y-90809087D01*
X85018826Y-90786543D01*
X84979794Y-90741493D01*
X84975051Y-90732184D01*
X84975049Y-90732181D01*
X84975048Y-90732179D01*
X84850109Y-90560213D01*
X84699786Y-90409890D01*
X84527820Y-90284951D01*
X84338414Y-90188444D01*
X84338413Y-90188443D01*
X84338412Y-90188443D01*
X84136243Y-90122754D01*
X84136241Y-90122753D01*
X84136239Y-90122753D01*
X83924602Y-90089233D01*
X83893810Y-90074636D01*
X83862797Y-90060473D01*
X83862299Y-90059698D01*
X83861467Y-90059304D01*
X83843448Y-90030365D01*
X83825023Y-90001695D01*
X83824850Y-90000497D01*
X83824536Y-89999992D01*
X83820000Y-89966760D01*
X83820000Y-89942017D01*
X83839685Y-89874978D01*
X83856319Y-89854336D01*
X84073837Y-89636819D01*
X84135160Y-89603334D01*
X84161518Y-89600500D01*
X110509795Y-89600500D01*
X110576834Y-89620185D01*
X110597476Y-89636819D01*
X110982546Y-90021889D01*
X111016031Y-90083212D01*
X111011047Y-90152904D01*
X110969175Y-90208837D01*
X110933185Y-90227500D01*
X110910780Y-90234779D01*
X110728386Y-90327715D01*
X110562786Y-90448028D01*
X110562782Y-90448032D01*
X110497681Y-90513134D01*
X110436358Y-90546619D01*
X110366666Y-90541635D01*
X110322319Y-90513134D01*
X110257213Y-90448028D01*
X110091613Y-90327715D01*
X110091612Y-90327714D01*
X110091610Y-90327713D01*
X110008527Y-90285380D01*
X109909223Y-90234781D01*
X109714534Y-90171522D01*
X109539995Y-90143878D01*
X109512352Y-90139500D01*
X109307648Y-90139500D01*
X109283329Y-90143351D01*
X109105465Y-90171522D01*
X108910776Y-90234781D01*
X108728386Y-90327715D01*
X108562786Y-90448028D01*
X108562782Y-90448032D01*
X108497681Y-90513134D01*
X108436358Y-90546619D01*
X108366666Y-90541635D01*
X108322319Y-90513134D01*
X108257213Y-90448028D01*
X108091613Y-90327715D01*
X108091612Y-90327714D01*
X108091610Y-90327713D01*
X108008527Y-90285380D01*
X107909223Y-90234781D01*
X107714534Y-90171522D01*
X107539995Y-90143878D01*
X107512352Y-90139500D01*
X107307648Y-90139500D01*
X107283329Y-90143351D01*
X107105465Y-90171522D01*
X106910776Y-90234781D01*
X106728386Y-90327715D01*
X106562786Y-90448028D01*
X106562782Y-90448032D01*
X106497681Y-90513134D01*
X106436358Y-90546619D01*
X106366666Y-90541635D01*
X106322319Y-90513134D01*
X106257213Y-90448028D01*
X106091613Y-90327715D01*
X106091612Y-90327714D01*
X106091610Y-90327713D01*
X106008527Y-90285380D01*
X105909223Y-90234781D01*
X105714534Y-90171522D01*
X105539995Y-90143878D01*
X105512352Y-90139500D01*
X105307648Y-90139500D01*
X105283329Y-90143351D01*
X105105465Y-90171522D01*
X104910776Y-90234781D01*
X104728386Y-90327715D01*
X104562786Y-90448028D01*
X104418030Y-90592784D01*
X104348575Y-90688384D01*
X104293245Y-90731051D01*
X104248256Y-90739500D01*
X103003116Y-90739500D01*
X102936077Y-90719815D01*
X102892632Y-90671797D01*
X102883342Y-90653566D01*
X102744517Y-90462490D01*
X102577510Y-90295483D01*
X102386433Y-90156657D01*
X102379067Y-90152904D01*
X102175996Y-90049433D01*
X101951368Y-89976446D01*
X101718097Y-89939500D01*
X101718092Y-89939500D01*
X101481908Y-89939500D01*
X101481903Y-89939500D01*
X101248631Y-89976446D01*
X101024003Y-90049433D01*
X100813566Y-90156657D01*
X100716060Y-90227500D01*
X100622490Y-90295483D01*
X100622488Y-90295485D01*
X100622487Y-90295485D01*
X100455485Y-90462487D01*
X100455485Y-90462488D01*
X100455483Y-90462490D01*
X100418688Y-90513134D01*
X100316657Y-90653566D01*
X100307368Y-90671797D01*
X100259392Y-90722592D01*
X100196884Y-90739500D01*
X97681744Y-90739500D01*
X97614705Y-90719815D01*
X97581425Y-90688384D01*
X97511969Y-90592784D01*
X97367213Y-90448028D01*
X97201613Y-90327715D01*
X97201612Y-90327714D01*
X97201610Y-90327713D01*
X97118527Y-90285380D01*
X97019223Y-90234781D01*
X96824534Y-90171522D01*
X96649995Y-90143878D01*
X96622352Y-90139500D01*
X96417648Y-90139500D01*
X96393329Y-90143351D01*
X96215465Y-90171522D01*
X96020776Y-90234781D01*
X95838386Y-90327715D01*
X95672786Y-90448028D01*
X95672782Y-90448032D01*
X95607681Y-90513134D01*
X95546358Y-90546619D01*
X95476666Y-90541635D01*
X95432319Y-90513134D01*
X95367213Y-90448028D01*
X95201613Y-90327715D01*
X95201612Y-90327714D01*
X95201610Y-90327713D01*
X95118527Y-90285380D01*
X95019223Y-90234781D01*
X94824534Y-90171522D01*
X94649995Y-90143878D01*
X94622352Y-90139500D01*
X94417648Y-90139500D01*
X94393329Y-90143351D01*
X94215465Y-90171522D01*
X94020776Y-90234781D01*
X93838386Y-90327715D01*
X93672786Y-90448028D01*
X93672782Y-90448032D01*
X93607681Y-90513134D01*
X93546358Y-90546619D01*
X93476666Y-90541635D01*
X93432319Y-90513134D01*
X93367213Y-90448028D01*
X93201613Y-90327715D01*
X93201612Y-90327714D01*
X93201610Y-90327713D01*
X93118527Y-90285380D01*
X93019223Y-90234781D01*
X92824534Y-90171522D01*
X92649995Y-90143878D01*
X92622352Y-90139500D01*
X92417648Y-90139500D01*
X92393329Y-90143351D01*
X92215465Y-90171522D01*
X92020776Y-90234781D01*
X91838386Y-90327715D01*
X91672786Y-90448028D01*
X91528028Y-90592786D01*
X91407715Y-90758386D01*
X91314781Y-90940776D01*
X91251522Y-91135465D01*
X91219500Y-91337648D01*
X91219500Y-91542351D01*
X91251522Y-91744534D01*
X91314781Y-91939223D01*
X91407715Y-92121613D01*
X91528028Y-92287213D01*
X91672786Y-92431971D01*
X91819499Y-92538562D01*
X91838390Y-92552287D01*
X91929634Y-92598778D01*
X92020776Y-92645218D01*
X92020778Y-92645218D01*
X92020781Y-92645220D01*
X92070532Y-92661385D01*
X92215465Y-92708477D01*
X92309318Y-92723342D01*
X92417648Y-92740500D01*
X92417649Y-92740500D01*
X92622350Y-92740500D01*
X92622352Y-92740500D01*
X92739068Y-92722013D01*
X92808362Y-92730967D01*
X92846148Y-92756805D01*
X95584268Y-95494925D01*
X95617753Y-95556248D01*
X95612769Y-95625940D01*
X95584268Y-95670287D01*
X95557021Y-95697533D01*
X95440213Y-95858305D01*
X95349994Y-96035367D01*
X95349993Y-96035370D01*
X95288587Y-96224362D01*
X95257500Y-96420639D01*
X95257500Y-96619360D01*
X95288587Y-96815637D01*
X95349993Y-97004629D01*
X95349994Y-97004632D01*
X95440213Y-97181694D01*
X95557019Y-97342464D01*
X95557021Y-97342466D01*
X95605874Y-97391319D01*
X95639359Y-97452642D01*
X95634375Y-97522334D01*
X95592503Y-97578267D01*
X95527039Y-97602684D01*
X95518193Y-97603000D01*
X91025019Y-97603000D01*
X90957980Y-97583315D01*
X90937338Y-97566681D01*
X90216805Y-96846148D01*
X90183320Y-96784825D01*
X90182013Y-96739068D01*
X90200500Y-96622349D01*
X90200500Y-96417648D01*
X90168477Y-96215465D01*
X90109960Y-96035370D01*
X90105220Y-96020781D01*
X90105218Y-96020778D01*
X90105218Y-96020776D01*
X90071503Y-95954607D01*
X90012287Y-95838390D01*
X90004556Y-95827749D01*
X89891971Y-95672786D01*
X89747213Y-95528028D01*
X89581613Y-95407715D01*
X89581612Y-95407714D01*
X89581610Y-95407713D01*
X89524653Y-95378691D01*
X89399223Y-95314781D01*
X89204534Y-95251522D01*
X89029995Y-95223878D01*
X89002352Y-95219500D01*
X88797648Y-95219500D01*
X88773329Y-95223351D01*
X88595465Y-95251522D01*
X88400776Y-95314781D01*
X88218386Y-95407715D01*
X88052786Y-95528028D01*
X87908028Y-95672786D01*
X87787715Y-95838386D01*
X87694781Y-96020776D01*
X87631522Y-96215465D01*
X87599500Y-96417648D01*
X87599500Y-96622351D01*
X87631522Y-96824534D01*
X87694781Y-97019223D01*
X87758691Y-97144653D01*
X87777565Y-97181694D01*
X87787715Y-97201613D01*
X87908028Y-97367213D01*
X88052786Y-97511971D01*
X88207749Y-97624556D01*
X88218390Y-97632287D01*
X88331668Y-97690005D01*
X88400776Y-97725218D01*
X88400778Y-97725218D01*
X88400781Y-97725220D01*
X88481392Y-97751412D01*
X88595465Y-97788477D01*
X88690890Y-97803591D01*
X88797648Y-97820500D01*
X88797649Y-97820500D01*
X89002350Y-97820500D01*
X89002352Y-97820500D01*
X89119068Y-97802013D01*
X89188362Y-97810967D01*
X89226148Y-97836805D01*
X90236953Y-98847611D01*
X90236954Y-98847612D01*
X90351692Y-98924277D01*
X90479167Y-98977078D01*
X90479172Y-98977080D01*
X90479176Y-98977080D01*
X90479177Y-98977081D01*
X90614503Y-99004000D01*
X90614506Y-99004000D01*
X112585496Y-99004000D01*
X112676540Y-98985889D01*
X112720828Y-98977080D01*
X112784569Y-98950677D01*
X112848307Y-98924277D01*
X112848308Y-98924276D01*
X112848311Y-98924275D01*
X112963043Y-98847614D01*
X114007066Y-97803589D01*
X114068387Y-97770106D01*
X114114137Y-97768799D01*
X114200639Y-97782500D01*
X114200641Y-97782500D01*
X114399360Y-97782500D01*
X114399361Y-97782500D01*
X114595636Y-97751413D01*
X114784632Y-97690005D01*
X114961694Y-97599787D01*
X115122464Y-97482981D01*
X115262981Y-97342464D01*
X115379787Y-97181694D01*
X115470005Y-97004632D01*
X115531413Y-96815636D01*
X115562500Y-96619361D01*
X115562500Y-96420639D01*
X115531413Y-96224364D01*
X115470005Y-96035368D01*
X115470005Y-96035367D01*
X115379786Y-95858305D01*
X115365314Y-95838386D01*
X115262981Y-95697536D01*
X115122464Y-95557019D01*
X114961694Y-95440213D01*
X114784632Y-95349994D01*
X114784629Y-95349993D01*
X114595637Y-95288587D01*
X114477601Y-95269892D01*
X114399361Y-95257500D01*
X114292581Y-95257500D01*
X114225542Y-95237815D01*
X114179787Y-95185011D01*
X114169843Y-95115853D01*
X114189478Y-95064610D01*
X114197705Y-95052297D01*
X114232775Y-94999811D01*
X114285580Y-94872328D01*
X114312500Y-94736993D01*
X114312500Y-94599006D01*
X114312500Y-90458908D01*
X114312500Y-90458903D01*
X114308641Y-90439510D01*
X114308640Y-90439509D01*
X114308639Y-90439500D01*
X114285580Y-90323573D01*
X114269758Y-90285375D01*
X114232777Y-90196093D01*
X114156112Y-90081355D01*
X111160645Y-87085888D01*
X111155934Y-87082022D01*
X111157227Y-87080445D01*
X111118403Y-87033983D01*
X111109700Y-86964657D01*
X111139859Y-86901632D01*
X111199304Y-86864916D01*
X111232102Y-86860500D01*
X118755500Y-86860500D01*
X118822539Y-86880185D01*
G37*
%TD.AperFunction*%
%TD*%
%TA.AperFunction,Conductor*%
%TO.N,VDC*%
G36*
X54553039Y-123209685D02*
G01*
X54598794Y-123262489D01*
X54610000Y-123314000D01*
X54610000Y-139075500D01*
X54590315Y-139142539D01*
X54537511Y-139188294D01*
X54486000Y-139199500D01*
X38724500Y-139199500D01*
X38657461Y-139179815D01*
X38611706Y-139127011D01*
X38600500Y-139075500D01*
X38600500Y-135229999D01*
X40915267Y-135229999D01*
X40915267Y-135230000D01*
X42230536Y-135230000D01*
X42138147Y-135254755D01*
X42021853Y-135321898D01*
X41926898Y-135416853D01*
X41859755Y-135533147D01*
X41825000Y-135662857D01*
X41825000Y-135797143D01*
X41859755Y-135926853D01*
X41926898Y-136043147D01*
X42021853Y-136138102D01*
X42138147Y-136205245D01*
X42230536Y-136230000D01*
X40915267Y-136230000D01*
X40939897Y-136305802D01*
X41047085Y-136516171D01*
X41185866Y-136707186D01*
X41352813Y-136874133D01*
X41543828Y-137012914D01*
X41754197Y-137120102D01*
X41978752Y-137193065D01*
X41978751Y-137193065D01*
X42211948Y-137230000D01*
X42680000Y-137230000D01*
X42680000Y-136240000D01*
X43680000Y-136240000D01*
X43680000Y-137230000D01*
X44148052Y-137230000D01*
X44381247Y-137193065D01*
X44605802Y-137120102D01*
X44816171Y-137012914D01*
X45007186Y-136874133D01*
X45174133Y-136707186D01*
X45312914Y-136516171D01*
X45420102Y-136305802D01*
X45444733Y-136230000D01*
X44129464Y-136230000D01*
X44221853Y-136205245D01*
X44338147Y-136138102D01*
X44433102Y-136043147D01*
X44500245Y-135926853D01*
X44535000Y-135797143D01*
X44535000Y-135662857D01*
X44500245Y-135533147D01*
X44433102Y-135416853D01*
X44338147Y-135321898D01*
X44221853Y-135254755D01*
X44129464Y-135230000D01*
X45444733Y-135230000D01*
X45444732Y-135229999D01*
X45420102Y-135154197D01*
X45312914Y-134943828D01*
X45174133Y-134752813D01*
X45007186Y-134585866D01*
X44816171Y-134447085D01*
X44605802Y-134339897D01*
X44381247Y-134266934D01*
X44381248Y-134266934D01*
X44148052Y-134230000D01*
X43680000Y-134230000D01*
X43680000Y-135220000D01*
X42680000Y-135220000D01*
X42680000Y-134230000D01*
X42211948Y-134230000D01*
X41978752Y-134266934D01*
X41754197Y-134339897D01*
X41543828Y-134447085D01*
X41352813Y-134585866D01*
X41185866Y-134752813D01*
X41047085Y-134943828D01*
X40939897Y-135154197D01*
X40915267Y-135229999D01*
X38600500Y-135229999D01*
X38600500Y-127959999D01*
X41365267Y-127959999D01*
X41365267Y-127960000D01*
X42650536Y-127960000D01*
X42558147Y-127984755D01*
X42441853Y-128051898D01*
X42346898Y-128146853D01*
X42279755Y-128263147D01*
X42245000Y-128392857D01*
X42245000Y-128527143D01*
X42279755Y-128656853D01*
X42346898Y-128773147D01*
X42441853Y-128868102D01*
X42558147Y-128935245D01*
X42650536Y-128960000D01*
X41365267Y-128960000D01*
X41389897Y-129035802D01*
X41497085Y-129246171D01*
X41635866Y-129437186D01*
X41802813Y-129604133D01*
X41993828Y-129742914D01*
X42204197Y-129850102D01*
X42428752Y-129923065D01*
X42428751Y-129923065D01*
X42661948Y-129960000D01*
X42680000Y-129960000D01*
X42680000Y-128967894D01*
X42687857Y-128970000D01*
X43672143Y-128970000D01*
X43680000Y-128967894D01*
X43680000Y-129960000D01*
X43698052Y-129960000D01*
X43931247Y-129923065D01*
X44155802Y-129850102D01*
X44366171Y-129742914D01*
X44557186Y-129604133D01*
X44724133Y-129437186D01*
X44862914Y-129246171D01*
X44970102Y-129035802D01*
X44994733Y-128960000D01*
X43709464Y-128960000D01*
X43801853Y-128935245D01*
X43918147Y-128868102D01*
X44013102Y-128773147D01*
X44080245Y-128656853D01*
X44115000Y-128527143D01*
X44115000Y-128392857D01*
X44080245Y-128263147D01*
X44013102Y-128146853D01*
X43918147Y-128051898D01*
X43801853Y-127984755D01*
X43709464Y-127960000D01*
X44994733Y-127960000D01*
X44994732Y-127959999D01*
X44970102Y-127884197D01*
X44862914Y-127673828D01*
X44752258Y-127521524D01*
X44752257Y-127521522D01*
X44724138Y-127482819D01*
X44724133Y-127482813D01*
X44557186Y-127315866D01*
X44366171Y-127177085D01*
X44155802Y-127069897D01*
X43931247Y-126996934D01*
X43931248Y-126996934D01*
X43698052Y-126960000D01*
X43680000Y-126960000D01*
X43680000Y-127952105D01*
X43672143Y-127950000D01*
X42687857Y-127950000D01*
X42680000Y-127952105D01*
X42680000Y-126960000D01*
X42661948Y-126960000D01*
X42428752Y-126996934D01*
X42204197Y-127069897D01*
X41993828Y-127177085D01*
X41802813Y-127315866D01*
X41635866Y-127482813D01*
X41497085Y-127673828D01*
X41389897Y-127884197D01*
X41365267Y-127959999D01*
X38600500Y-127959999D01*
X38600500Y-125752155D01*
X49017500Y-125752155D01*
X49017500Y-126500000D01*
X50089437Y-126500000D01*
X50008549Y-126621058D01*
X49948243Y-126766649D01*
X49917500Y-126921207D01*
X49917500Y-127078793D01*
X49948243Y-127233351D01*
X50008549Y-127378942D01*
X50089437Y-127500000D01*
X49017500Y-127500000D01*
X49017500Y-128247844D01*
X49023901Y-128307372D01*
X49023903Y-128307379D01*
X49074145Y-128442086D01*
X49074149Y-128442093D01*
X49160309Y-128557187D01*
X49160312Y-128557190D01*
X49275406Y-128643350D01*
X49275413Y-128643354D01*
X49410120Y-128693596D01*
X49410127Y-128693598D01*
X49469655Y-128699999D01*
X49469672Y-128700000D01*
X50217500Y-128700000D01*
X50217500Y-127628062D01*
X50338558Y-127708951D01*
X50484149Y-127769257D01*
X50638707Y-127800000D01*
X50796293Y-127800000D01*
X50950851Y-127769257D01*
X51096442Y-127708951D01*
X51217500Y-127628062D01*
X51217500Y-128700000D01*
X51965328Y-128700000D01*
X51965344Y-128699999D01*
X52024872Y-128693598D01*
X52024879Y-128693596D01*
X52159586Y-128643354D01*
X52159593Y-128643350D01*
X52274687Y-128557190D01*
X52274690Y-128557187D01*
X52360850Y-128442093D01*
X52360854Y-128442086D01*
X52411096Y-128307379D01*
X52411098Y-128307372D01*
X52417499Y-128247844D01*
X52417500Y-128247827D01*
X52417500Y-127500000D01*
X51345563Y-127500000D01*
X51426451Y-127378942D01*
X51486757Y-127233351D01*
X51517500Y-127078793D01*
X51517500Y-126921207D01*
X51486757Y-126766649D01*
X51426451Y-126621058D01*
X51345563Y-126500000D01*
X52417500Y-126500000D01*
X52417500Y-125752172D01*
X52417499Y-125752155D01*
X52411098Y-125692627D01*
X52411096Y-125692620D01*
X52360854Y-125557913D01*
X52360850Y-125557906D01*
X52274690Y-125442812D01*
X52274687Y-125442809D01*
X52159593Y-125356649D01*
X52159586Y-125356645D01*
X52024879Y-125306403D01*
X52024872Y-125306401D01*
X51965344Y-125300000D01*
X51217500Y-125300000D01*
X51217500Y-126371937D01*
X51096442Y-126291049D01*
X50950851Y-126230743D01*
X50796293Y-126200000D01*
X50638707Y-126200000D01*
X50484149Y-126230743D01*
X50338558Y-126291049D01*
X50217500Y-126371937D01*
X50217500Y-125300000D01*
X49469655Y-125300000D01*
X49410127Y-125306401D01*
X49410120Y-125306403D01*
X49275413Y-125356645D01*
X49275406Y-125356649D01*
X49160312Y-125442809D01*
X49160309Y-125442812D01*
X49074149Y-125557906D01*
X49074145Y-125557913D01*
X49023903Y-125692620D01*
X49023901Y-125692627D01*
X49017500Y-125752155D01*
X38600500Y-125752155D01*
X38600500Y-123314000D01*
X38620185Y-123246961D01*
X38672989Y-123201206D01*
X38724500Y-123190000D01*
X54486000Y-123190000D01*
X54553039Y-123209685D01*
G37*
%TD.AperFunction*%
%TD*%
%TA.AperFunction,Conductor*%
%TO.N,+24V*%
G36*
X82099036Y-86880185D02*
G01*
X82144791Y-86932989D01*
X82154735Y-87002147D01*
X82125710Y-87065703D01*
X82107765Y-87081535D01*
X82108165Y-87082022D01*
X82103453Y-87085888D01*
X79109849Y-90079492D01*
X79048526Y-90112977D01*
X79002771Y-90114284D01*
X78846287Y-90089500D01*
X78633713Y-90089500D01*
X78585042Y-90097208D01*
X78423760Y-90122753D01*
X78221585Y-90188444D01*
X78032179Y-90284951D01*
X77860213Y-90409890D01*
X77709890Y-90560213D01*
X77584949Y-90732182D01*
X77580484Y-90740946D01*
X77532509Y-90791742D01*
X77464688Y-90808536D01*
X77398553Y-90785998D01*
X77359516Y-90740946D01*
X77355050Y-90732182D01*
X77230109Y-90560213D01*
X77079786Y-90409890D01*
X76907820Y-90284951D01*
X76718414Y-90188444D01*
X76718413Y-90188443D01*
X76718412Y-90188443D01*
X76516243Y-90122754D01*
X76516241Y-90122753D01*
X76516240Y-90122753D01*
X76354957Y-90097208D01*
X76306287Y-90089500D01*
X76093713Y-90089500D01*
X76045042Y-90097208D01*
X75883760Y-90122753D01*
X75681585Y-90188444D01*
X75492179Y-90284951D01*
X75320213Y-90409890D01*
X75169890Y-90560213D01*
X75044949Y-90732182D01*
X75040202Y-90741499D01*
X74992227Y-90792293D01*
X74924405Y-90809087D01*
X74858271Y-90786548D01*
X74819234Y-90741495D01*
X74814626Y-90732452D01*
X74775270Y-90678282D01*
X74775269Y-90678282D01*
X74142962Y-91310590D01*
X74125925Y-91247007D01*
X74060099Y-91132993D01*
X73967007Y-91039901D01*
X73852993Y-90974075D01*
X73789409Y-90957037D01*
X74421716Y-90324728D01*
X74367550Y-90285375D01*
X74178217Y-90188904D01*
X73976129Y-90123242D01*
X73766246Y-90090000D01*
X73553754Y-90090000D01*
X73343872Y-90123242D01*
X73343869Y-90123242D01*
X73141782Y-90188904D01*
X72952439Y-90285380D01*
X72898282Y-90324727D01*
X72898282Y-90324728D01*
X73530591Y-90957037D01*
X73467007Y-90974075D01*
X73352993Y-91039901D01*
X73259901Y-91132993D01*
X73194075Y-91247007D01*
X73177037Y-91310591D01*
X72544728Y-90678282D01*
X72544727Y-90678282D01*
X72505380Y-90732439D01*
X72408904Y-90921782D01*
X72343242Y-91123869D01*
X72343242Y-91123872D01*
X72310000Y-91333753D01*
X72310000Y-91546246D01*
X72343242Y-91756127D01*
X72343242Y-91756130D01*
X72408904Y-91958217D01*
X72505375Y-92147550D01*
X72544728Y-92201716D01*
X73177037Y-91569408D01*
X73194075Y-91632993D01*
X73259901Y-91747007D01*
X73352993Y-91840099D01*
X73467007Y-91905925D01*
X73530590Y-91922962D01*
X72898282Y-92555269D01*
X72898282Y-92555270D01*
X72952449Y-92594624D01*
X73141782Y-92691095D01*
X73348507Y-92758264D01*
X73348107Y-92759493D01*
X73349655Y-92760382D01*
X73357355Y-92760933D01*
X73379534Y-92777535D01*
X73403556Y-92791327D01*
X73407109Y-92798177D01*
X73413289Y-92802804D01*
X73422970Y-92828759D01*
X73435724Y-92853351D01*
X73435008Y-92861036D01*
X73437706Y-92868268D01*
X73431817Y-92895339D01*
X73429251Y-92922921D01*
X73424121Y-92930718D01*
X73422855Y-92936541D01*
X73401704Y-92964796D01*
X73323317Y-93043182D01*
X73261997Y-93076666D01*
X73235638Y-93079500D01*
X70025908Y-93079500D01*
X69958869Y-93059815D01*
X69920363Y-93015728D01*
X69918605Y-93016813D01*
X69909771Y-93002490D01*
X69822712Y-92861344D01*
X69698656Y-92737288D01*
X69549334Y-92645186D01*
X69382797Y-92590001D01*
X69382795Y-92590000D01*
X69280016Y-92579500D01*
X69280009Y-92579500D01*
X68504362Y-92579500D01*
X68437323Y-92559815D01*
X68416681Y-92543181D01*
X67313115Y-91439615D01*
X67301695Y-91431985D01*
X67254039Y-91400143D01*
X67254040Y-91400143D01*
X67254038Y-91400141D01*
X67165624Y-91341065D01*
X67165622Y-91341064D01*
X67081520Y-91306229D01*
X67001746Y-91273185D01*
X67001738Y-91273183D01*
X66827776Y-91238580D01*
X66827772Y-91238580D01*
X66827771Y-91238580D01*
X61475399Y-91238580D01*
X61298015Y-91238580D01*
X61298010Y-91238580D01*
X61124046Y-91273183D01*
X61124030Y-91273188D01*
X61008160Y-91321182D01*
X61008161Y-91321183D01*
X60960160Y-91341067D01*
X60886415Y-91390342D01*
X60812670Y-91439615D01*
X60812667Y-91439618D01*
X60260538Y-91991748D01*
X60260535Y-91991752D01*
X60245646Y-92014036D01*
X60161988Y-92139236D01*
X60129721Y-92217138D01*
X60129721Y-92217139D01*
X60094105Y-92303121D01*
X60094103Y-92303127D01*
X60060891Y-92470095D01*
X60060892Y-92470096D01*
X60059500Y-92477094D01*
X60059500Y-92716350D01*
X60039815Y-92783389D01*
X60008388Y-92816666D01*
X59982493Y-92835480D01*
X59982487Y-92835485D01*
X59815485Y-93002487D01*
X59815485Y-93002488D01*
X59815483Y-93002490D01*
X59773834Y-93059815D01*
X59676657Y-93193566D01*
X59569433Y-93404003D01*
X59496446Y-93628631D01*
X59459500Y-93861902D01*
X59459500Y-94098097D01*
X59496446Y-94331368D01*
X59569433Y-94555996D01*
X59652133Y-94718302D01*
X59676657Y-94766433D01*
X59815483Y-94957510D01*
X59982490Y-95124517D01*
X60173567Y-95263343D01*
X60272991Y-95314002D01*
X60384003Y-95370566D01*
X60384005Y-95370566D01*
X60384008Y-95370568D01*
X60498328Y-95407713D01*
X60608631Y-95443553D01*
X60841903Y-95480500D01*
X60841908Y-95480500D01*
X61078097Y-95480500D01*
X61311368Y-95443553D01*
X61314319Y-95442594D01*
X61535992Y-95370568D01*
X61746433Y-95263343D01*
X61937510Y-95124517D01*
X61937516Y-95124511D01*
X61941221Y-95121348D01*
X61942784Y-95123179D01*
X61995292Y-95094339D01*
X62064996Y-95099152D01*
X62121032Y-95140885D01*
X62127487Y-95150342D01*
X62157287Y-95198655D01*
X62157288Y-95198656D01*
X62281344Y-95322712D01*
X62430666Y-95414814D01*
X62514505Y-95442595D01*
X62571948Y-95482366D01*
X62598772Y-95546882D01*
X62599500Y-95560300D01*
X62599500Y-98467237D01*
X62579815Y-98534276D01*
X62527011Y-98580031D01*
X62457853Y-98589975D01*
X62394297Y-98560950D01*
X62357569Y-98505556D01*
X62350566Y-98484003D01*
X62259583Y-98305440D01*
X62243343Y-98273567D01*
X62104517Y-98082490D01*
X61937510Y-97915483D01*
X61746433Y-97776657D01*
X61535996Y-97669433D01*
X61311368Y-97596446D01*
X61078097Y-97559500D01*
X61078092Y-97559500D01*
X60841908Y-97559500D01*
X60841903Y-97559500D01*
X60608631Y-97596446D01*
X60384003Y-97669433D01*
X60173566Y-97776657D01*
X60139098Y-97801700D01*
X59982490Y-97915483D01*
X59982488Y-97915485D01*
X59982487Y-97915485D01*
X59815485Y-98082487D01*
X59815485Y-98082488D01*
X59815483Y-98082490D01*
X59755862Y-98164550D01*
X59676657Y-98273566D01*
X59569433Y-98484003D01*
X59496446Y-98708631D01*
X59459500Y-98941902D01*
X59459500Y-99178091D01*
X59464507Y-99209706D01*
X59455551Y-99279000D01*
X59429714Y-99316784D01*
X58635818Y-100110681D01*
X58574495Y-100144166D01*
X58548137Y-100147000D01*
X58258146Y-100147000D01*
X58182849Y-100158926D01*
X58032253Y-100182778D01*
X58032250Y-100182778D01*
X57814744Y-100253450D01*
X57610961Y-100357283D01*
X57550072Y-100401522D01*
X57425934Y-100491714D01*
X57425932Y-100491716D01*
X57425931Y-100491716D01*
X57264216Y-100653431D01*
X57264216Y-100653432D01*
X57264214Y-100653434D01*
X57235840Y-100692488D01*
X57129783Y-100838461D01*
X57025951Y-101042243D01*
X57022431Y-101053077D01*
X56982993Y-101110752D01*
X56918634Y-101137950D01*
X56849788Y-101126035D01*
X56798312Y-101078790D01*
X56780500Y-101014758D01*
X56780500Y-95560300D01*
X56800185Y-95493261D01*
X56852989Y-95447506D01*
X56865482Y-95442599D01*
X56949334Y-95414814D01*
X57098656Y-95322712D01*
X57222712Y-95198656D01*
X57314814Y-95049334D01*
X57369999Y-94882797D01*
X57380500Y-94780009D01*
X57380499Y-93179992D01*
X57369999Y-93077203D01*
X57314814Y-92910666D01*
X57222712Y-92761344D01*
X57098656Y-92637288D01*
X56965683Y-92555270D01*
X56949336Y-92545187D01*
X56949331Y-92545185D01*
X56943283Y-92543181D01*
X56782797Y-92490001D01*
X56782795Y-92490000D01*
X56680010Y-92479500D01*
X55079998Y-92479500D01*
X55079981Y-92479501D01*
X54977203Y-92490000D01*
X54977200Y-92490001D01*
X54810668Y-92545185D01*
X54810663Y-92545187D01*
X54661342Y-92637289D01*
X54537289Y-92761342D01*
X54445187Y-92910663D01*
X54445186Y-92910666D01*
X54390001Y-93077203D01*
X54390001Y-93077204D01*
X54390000Y-93077204D01*
X54379500Y-93179983D01*
X54379500Y-93242691D01*
X54359815Y-93309730D01*
X54343181Y-93330372D01*
X53904612Y-93768940D01*
X53899111Y-93748409D01*
X53820119Y-93611592D01*
X53708408Y-93499881D01*
X53571591Y-93420889D01*
X53551059Y-93415387D01*
X54209105Y-92757340D01*
X54209104Y-92757338D01*
X54126174Y-92697087D01*
X53915802Y-92589897D01*
X53691247Y-92516934D01*
X53691248Y-92516934D01*
X53458052Y-92480000D01*
X53221948Y-92480000D01*
X52988752Y-92516934D01*
X52764197Y-92589897D01*
X52553830Y-92697084D01*
X52470894Y-92757340D01*
X53128941Y-93415387D01*
X53108409Y-93420889D01*
X52971592Y-93499881D01*
X52859881Y-93611592D01*
X52780889Y-93748409D01*
X52775387Y-93768941D01*
X52117340Y-93110894D01*
X52057084Y-93193830D01*
X51949897Y-93404197D01*
X51876934Y-93628752D01*
X51840000Y-93861947D01*
X51840000Y-94098052D01*
X51876934Y-94331247D01*
X51949897Y-94555802D01*
X52057087Y-94766174D01*
X52117338Y-94849104D01*
X52117340Y-94849105D01*
X52775387Y-94191058D01*
X52780889Y-94211591D01*
X52859881Y-94348408D01*
X52971592Y-94460119D01*
X53108409Y-94539111D01*
X53128940Y-94544612D01*
X52470893Y-95202658D01*
X52553828Y-95262914D01*
X52764197Y-95370102D01*
X52988752Y-95443065D01*
X52988751Y-95443065D01*
X53221948Y-95480000D01*
X53458052Y-95480000D01*
X53691247Y-95443065D01*
X53915802Y-95370102D01*
X54126163Y-95262918D01*
X54126169Y-95262914D01*
X54209104Y-95202658D01*
X54209105Y-95202658D01*
X53551058Y-94544612D01*
X53571591Y-94539111D01*
X53708408Y-94460119D01*
X53820119Y-94348408D01*
X53899111Y-94211591D01*
X53904612Y-94191058D01*
X54343181Y-94629627D01*
X54376666Y-94690950D01*
X54379500Y-94717306D01*
X54379500Y-94780000D01*
X54379501Y-94780019D01*
X54390000Y-94882796D01*
X54390001Y-94882799D01*
X54414759Y-94957512D01*
X54445186Y-95049334D01*
X54537288Y-95198656D01*
X54661344Y-95322712D01*
X54810666Y-95414814D01*
X54894505Y-95442595D01*
X54951948Y-95482366D01*
X54978772Y-95546882D01*
X54979500Y-95560300D01*
X54979500Y-98270505D01*
X54959815Y-98337544D01*
X54907011Y-98383299D01*
X54837853Y-98393243D01*
X54774297Y-98364218D01*
X54736523Y-98305440D01*
X54732142Y-98283107D01*
X54729505Y-98257302D01*
X54674357Y-98090875D01*
X54669900Y-98083650D01*
X53782137Y-98971413D01*
X53759333Y-98886306D01*
X53700090Y-98783694D01*
X53616306Y-98699910D01*
X53513694Y-98640667D01*
X53428586Y-98617862D01*
X54316347Y-97730099D01*
X54309124Y-97725643D01*
X54309119Y-97725641D01*
X54142697Y-97670494D01*
X54142690Y-97670493D01*
X54039980Y-97660000D01*
X52640028Y-97660000D01*
X52640012Y-97660001D01*
X52537302Y-97670494D01*
X52370878Y-97725642D01*
X52370873Y-97725644D01*
X52363651Y-97730098D01*
X52363650Y-97730099D01*
X53251414Y-98617862D01*
X53166306Y-98640667D01*
X53063694Y-98699910D01*
X52979910Y-98783694D01*
X52920667Y-98886306D01*
X52897862Y-98971413D01*
X52010099Y-98083650D01*
X52010098Y-98083651D01*
X52005644Y-98090873D01*
X52005642Y-98090877D01*
X51950494Y-98257302D01*
X51950493Y-98257309D01*
X51940000Y-98360013D01*
X51940000Y-99759971D01*
X51940001Y-99759987D01*
X51950494Y-99862697D01*
X52005641Y-100029119D01*
X52005643Y-100029124D01*
X52010099Y-100036347D01*
X52897862Y-99148585D01*
X52920667Y-99233694D01*
X52979910Y-99336306D01*
X53063694Y-99420090D01*
X53166306Y-99479333D01*
X53251414Y-99502137D01*
X52363650Y-100389900D01*
X52370875Y-100394357D01*
X52537302Y-100449505D01*
X52537309Y-100449506D01*
X52640019Y-100459999D01*
X54039971Y-100459999D01*
X54039987Y-100459998D01*
X54142697Y-100449505D01*
X54309121Y-100394357D01*
X54316347Y-100389899D01*
X53428585Y-99502137D01*
X53513694Y-99479333D01*
X53616306Y-99420090D01*
X53700090Y-99336306D01*
X53759333Y-99233694D01*
X53782137Y-99148585D01*
X54669899Y-100036347D01*
X54674357Y-100029121D01*
X54729505Y-99862697D01*
X54729506Y-99862690D01*
X54732142Y-99836895D01*
X54758538Y-99772204D01*
X54815719Y-99732052D01*
X54885530Y-99729189D01*
X54945807Y-99764523D01*
X54977412Y-99826836D01*
X54979500Y-99849498D01*
X54979500Y-101688696D01*
X55014103Y-101862658D01*
X55014105Y-101862666D01*
X55044350Y-101935685D01*
X55044356Y-101935696D01*
X55046240Y-101940245D01*
X55081987Y-102026547D01*
X55115254Y-102076334D01*
X55158260Y-102140697D01*
X55180537Y-102174038D01*
X56565239Y-103558740D01*
X56598724Y-103620063D01*
X56593740Y-103689755D01*
X56565239Y-103734102D01*
X52795887Y-107503454D01*
X52719222Y-107618192D01*
X52666421Y-107745667D01*
X52666418Y-107745679D01*
X52642579Y-107865523D01*
X52642578Y-107865531D01*
X52640718Y-107874886D01*
X52639500Y-107881007D01*
X52639500Y-107937305D01*
X52639386Y-107939963D01*
X52628937Y-107970620D01*
X52619815Y-108001687D01*
X52617521Y-108004115D01*
X52616846Y-108006097D01*
X52612062Y-108009895D01*
X52588385Y-108034966D01*
X52427641Y-108151752D01*
X52427636Y-108151756D01*
X52271756Y-108307636D01*
X52271752Y-108307641D01*
X52142187Y-108485974D01*
X52042104Y-108682393D01*
X52042103Y-108682396D01*
X51973985Y-108892047D01*
X51939500Y-109109778D01*
X51939500Y-109330221D01*
X51973985Y-109547952D01*
X52042103Y-109757603D01*
X52042104Y-109757606D01*
X52142187Y-109954025D01*
X52271752Y-110132358D01*
X52271756Y-110132363D01*
X52427636Y-110288243D01*
X52427641Y-110288247D01*
X52583192Y-110401260D01*
X52605978Y-110417815D01*
X52687789Y-110459500D01*
X52802393Y-110517895D01*
X52802396Y-110517896D01*
X52907221Y-110551955D01*
X53012049Y-110586015D01*
X53229778Y-110620500D01*
X53229779Y-110620500D01*
X53450221Y-110620500D01*
X53450222Y-110620500D01*
X53667951Y-110586015D01*
X53877606Y-110517895D01*
X54074022Y-110417815D01*
X54252365Y-110288242D01*
X54408242Y-110132365D01*
X54537815Y-109954022D01*
X54637895Y-109757606D01*
X54706015Y-109547951D01*
X54740500Y-109330222D01*
X54740500Y-109109778D01*
X54706015Y-108892049D01*
X54637895Y-108682394D01*
X54637895Y-108682393D01*
X54603237Y-108614375D01*
X54537815Y-108485978D01*
X54521260Y-108463192D01*
X54408247Y-108307641D01*
X54408243Y-108307636D01*
X54278312Y-108177705D01*
X54244827Y-108116382D01*
X54249811Y-108046690D01*
X54278310Y-108002345D01*
X56709322Y-105571333D01*
X56770643Y-105537850D01*
X56840335Y-105542834D01*
X56896268Y-105584706D01*
X56920685Y-105650170D01*
X56920291Y-105672262D01*
X56919501Y-105679612D01*
X56919501Y-105679616D01*
X56919501Y-105679623D01*
X56919500Y-105679635D01*
X56919500Y-107680370D01*
X56919501Y-107680376D01*
X56925908Y-107739983D01*
X56976202Y-107874828D01*
X56976206Y-107874835D01*
X57062452Y-107990044D01*
X57062455Y-107990047D01*
X57177664Y-108076293D01*
X57177671Y-108076297D01*
X57222618Y-108093061D01*
X57312517Y-108126591D01*
X57372127Y-108133000D01*
X57595500Y-108132999D01*
X57662539Y-108152683D01*
X57708294Y-108205487D01*
X57719500Y-108256999D01*
X57719500Y-109151006D01*
X57719500Y-109288994D01*
X57719500Y-109288996D01*
X57719499Y-109288996D01*
X57746418Y-109424322D01*
X57746421Y-109424332D01*
X57799222Y-109551807D01*
X57875887Y-109666545D01*
X59633780Y-111424438D01*
X59748518Y-111501103D01*
X59875993Y-111553904D01*
X59875998Y-111553906D01*
X59876002Y-111553906D01*
X59876003Y-111553907D01*
X60011329Y-111580826D01*
X60011332Y-111580826D01*
X69528670Y-111580826D01*
X69619714Y-111562715D01*
X69664002Y-111553906D01*
X69727743Y-111527503D01*
X69791481Y-111501103D01*
X69791482Y-111501102D01*
X69791485Y-111501101D01*
X69906217Y-111424440D01*
X73333852Y-107996803D01*
X73395173Y-107963320D01*
X73440929Y-107962013D01*
X73495270Y-107970620D01*
X73557648Y-107980500D01*
X73557649Y-107980500D01*
X73762350Y-107980500D01*
X73762352Y-107980500D01*
X73879068Y-107962013D01*
X73948362Y-107970967D01*
X73986148Y-107996805D01*
X77423194Y-111433851D01*
X77456679Y-111495174D01*
X77457986Y-111540929D01*
X77439500Y-111657647D01*
X77439500Y-111862351D01*
X77471522Y-112064534D01*
X77534781Y-112259223D01*
X77627715Y-112441613D01*
X77748028Y-112607213D01*
X77892786Y-112751971D01*
X78047749Y-112864556D01*
X78058390Y-112872287D01*
X78174607Y-112931503D01*
X78240776Y-112965218D01*
X78240778Y-112965218D01*
X78240781Y-112965220D01*
X78345137Y-112999127D01*
X78435465Y-113028477D01*
X78536557Y-113044488D01*
X78637648Y-113060500D01*
X78637649Y-113060500D01*
X78842351Y-113060500D01*
X78842352Y-113060500D01*
X79044534Y-113028477D01*
X79239219Y-112965220D01*
X79421610Y-112872287D01*
X79514590Y-112804732D01*
X79587213Y-112751971D01*
X79587215Y-112751968D01*
X79587219Y-112751966D01*
X79731966Y-112607219D01*
X79731968Y-112607215D01*
X79731971Y-112607213D01*
X79784732Y-112534590D01*
X79852287Y-112441610D01*
X79945220Y-112259219D01*
X80008477Y-112064534D01*
X80040500Y-111862352D01*
X80040500Y-111657648D01*
X80008477Y-111455466D01*
X80000637Y-111431338D01*
X79979127Y-111365137D01*
X79945220Y-111260781D01*
X79945218Y-111260778D01*
X79945218Y-111260776D01*
X79911503Y-111194607D01*
X79852287Y-111078390D01*
X79835452Y-111055218D01*
X79731971Y-110912786D01*
X79587213Y-110768028D01*
X79421613Y-110647715D01*
X79421612Y-110647714D01*
X79421610Y-110647713D01*
X79364653Y-110618691D01*
X79239223Y-110554781D01*
X79044534Y-110491522D01*
X78869995Y-110463878D01*
X78842352Y-110459500D01*
X78637648Y-110459500D01*
X78520929Y-110477986D01*
X78451636Y-110469031D01*
X78413851Y-110443194D01*
X74976805Y-107006148D01*
X74943320Y-106944825D01*
X74942013Y-106899068D01*
X74960500Y-106782349D01*
X74960500Y-106577648D01*
X74928477Y-106375465D01*
X74865218Y-106180776D01*
X74831503Y-106114607D01*
X74772287Y-105998390D01*
X74732176Y-105943181D01*
X74651971Y-105832786D01*
X74507213Y-105688028D01*
X74341613Y-105567715D01*
X74341612Y-105567714D01*
X74341610Y-105567713D01*
X74283001Y-105537850D01*
X74159223Y-105474781D01*
X73964534Y-105411522D01*
X73789995Y-105383878D01*
X73762352Y-105379500D01*
X73557648Y-105379500D01*
X73533329Y-105383351D01*
X73355465Y-105411522D01*
X73160776Y-105474781D01*
X72978386Y-105567715D01*
X72812786Y-105688028D01*
X72668028Y-105832786D01*
X72547715Y-105998386D01*
X72454781Y-106180776D01*
X72391522Y-106375465D01*
X72359500Y-106577648D01*
X72359500Y-106782351D01*
X72377986Y-106899068D01*
X72369031Y-106968362D01*
X72343194Y-107006147D01*
X69205836Y-110143507D01*
X69144513Y-110176992D01*
X69118155Y-110179826D01*
X60421845Y-110179826D01*
X60354806Y-110160141D01*
X60334164Y-110143507D01*
X59156819Y-108966162D01*
X59123334Y-108904839D01*
X59120500Y-108878481D01*
X59120500Y-108256999D01*
X59140185Y-108189960D01*
X59192989Y-108144205D01*
X59244500Y-108132999D01*
X59467871Y-108132999D01*
X59467872Y-108132999D01*
X59527483Y-108126591D01*
X59662331Y-108076296D01*
X59777546Y-107990046D01*
X59863796Y-107874831D01*
X59914091Y-107739983D01*
X59920500Y-107680373D01*
X59920499Y-105679628D01*
X59914091Y-105620017D01*
X59913552Y-105618573D01*
X59863797Y-105485171D01*
X59863793Y-105485164D01*
X59777547Y-105369955D01*
X59777544Y-105369952D01*
X59662335Y-105283706D01*
X59662328Y-105283702D01*
X59634459Y-105273308D01*
X59578525Y-105231437D01*
X59554108Y-105165973D01*
X59568960Y-105097700D01*
X59577460Y-105084260D01*
X59710217Y-104901538D01*
X59814048Y-104697758D01*
X59884722Y-104480245D01*
X59920500Y-104254354D01*
X59920500Y-104025646D01*
X59884722Y-103799755D01*
X59884721Y-103799751D01*
X59884721Y-103799750D01*
X59814049Y-103582244D01*
X59710216Y-103378461D01*
X59701897Y-103367011D01*
X59575786Y-103193434D01*
X59414066Y-103031714D01*
X59329559Y-102970316D01*
X59286896Y-102914988D01*
X59280917Y-102845375D01*
X59313523Y-102783580D01*
X59329556Y-102769685D01*
X59414066Y-102708286D01*
X59575786Y-102546566D01*
X59710217Y-102361538D01*
X59814048Y-102157758D01*
X59884722Y-101940245D01*
X59920500Y-101714354D01*
X59920500Y-101485646D01*
X59914981Y-101450801D01*
X59923935Y-101381511D01*
X59949770Y-101343727D01*
X60703216Y-100590282D01*
X60764537Y-100556799D01*
X60810289Y-100555492D01*
X60841908Y-100560500D01*
X60841911Y-100560500D01*
X61078087Y-100560500D01*
X61078092Y-100560500D01*
X61109706Y-100555492D01*
X61178996Y-100564445D01*
X61216784Y-100590284D01*
X61970225Y-101343724D01*
X62003710Y-101405047D01*
X62005018Y-101450801D01*
X61999500Y-101485644D01*
X61999500Y-101714353D01*
X62035278Y-101940246D01*
X62105950Y-102157755D01*
X62204724Y-102351610D01*
X62209783Y-102361538D01*
X62344214Y-102546566D01*
X62505934Y-102708286D01*
X62575423Y-102758773D01*
X62590438Y-102769682D01*
X62633103Y-102825013D01*
X62639082Y-102894626D01*
X62606476Y-102956421D01*
X62590438Y-102970318D01*
X62505932Y-103031715D01*
X62344216Y-103193431D01*
X62344216Y-103193432D01*
X62344214Y-103193434D01*
X62319365Y-103227636D01*
X62209783Y-103378461D01*
X62105950Y-103582244D01*
X62035278Y-103799750D01*
X62035278Y-103799753D01*
X61999500Y-104025646D01*
X61999500Y-104254353D01*
X62035278Y-104480246D01*
X62035278Y-104480249D01*
X62105950Y-104697755D01*
X62191831Y-104866305D01*
X62209783Y-104901538D01*
X62342525Y-105084242D01*
X62366005Y-105150046D01*
X62350180Y-105218100D01*
X62300074Y-105266795D01*
X62285541Y-105273308D01*
X62257670Y-105283703D01*
X62257664Y-105283706D01*
X62142455Y-105369952D01*
X62142452Y-105369955D01*
X62056206Y-105485164D01*
X62056202Y-105485171D01*
X62005908Y-105620017D01*
X61999501Y-105679616D01*
X61999501Y-105679623D01*
X61999500Y-105679635D01*
X61999500Y-107680370D01*
X61999501Y-107680376D01*
X62005908Y-107739983D01*
X62056202Y-107874828D01*
X62056206Y-107874835D01*
X62142452Y-107990044D01*
X62142455Y-107990047D01*
X62257664Y-108076293D01*
X62257671Y-108076297D01*
X62392517Y-108126591D01*
X62392516Y-108126591D01*
X62399444Y-108127335D01*
X62452127Y-108133000D01*
X64547872Y-108132999D01*
X64607483Y-108126591D01*
X64742331Y-108076296D01*
X64857546Y-107990046D01*
X64943796Y-107874831D01*
X64994091Y-107739983D01*
X65000500Y-107680373D01*
X65000500Y-107504500D01*
X65020185Y-107437461D01*
X65072989Y-107391706D01*
X65124500Y-107380500D01*
X68648996Y-107380500D01*
X68743959Y-107361610D01*
X68784328Y-107353580D01*
X68848069Y-107327177D01*
X68911807Y-107300777D01*
X68911808Y-107300776D01*
X68911811Y-107300775D01*
X69026543Y-107224114D01*
X73273423Y-102977232D01*
X73334744Y-102943749D01*
X73380500Y-102942442D01*
X73557648Y-102970500D01*
X73557649Y-102970500D01*
X73762351Y-102970500D01*
X73762352Y-102970500D01*
X73964534Y-102938477D01*
X74159219Y-102875220D01*
X74341610Y-102782287D01*
X74434590Y-102714732D01*
X74507213Y-102661971D01*
X74507215Y-102661968D01*
X74507219Y-102661966D01*
X74651966Y-102517219D01*
X74651968Y-102517215D01*
X74651971Y-102517213D01*
X74717008Y-102427695D01*
X74772287Y-102351610D01*
X74865220Y-102169219D01*
X74928477Y-101974534D01*
X74960500Y-101772352D01*
X74960500Y-101567648D01*
X74942013Y-101450929D01*
X74950967Y-101381636D01*
X74976802Y-101343853D01*
X78474281Y-97846374D01*
X78535602Y-97812891D01*
X78581357Y-97811584D01*
X78637648Y-97820500D01*
X78637649Y-97820500D01*
X78842351Y-97820500D01*
X78842352Y-97820500D01*
X79044534Y-97788477D01*
X79239219Y-97725220D01*
X79421610Y-97632287D01*
X79521794Y-97559500D01*
X79587213Y-97511971D01*
X79587215Y-97511968D01*
X79587219Y-97511966D01*
X79731966Y-97367219D01*
X79731968Y-97367215D01*
X79731971Y-97367213D01*
X79784732Y-97294590D01*
X79852287Y-97201610D01*
X79945220Y-97019219D01*
X80008477Y-96824534D01*
X80040500Y-96622352D01*
X80040500Y-96417648D01*
X80008477Y-96215466D01*
X79945220Y-96020781D01*
X79945218Y-96020778D01*
X79945218Y-96020776D01*
X79911503Y-95954607D01*
X79852287Y-95838390D01*
X79844556Y-95827749D01*
X79731971Y-95672786D01*
X79587213Y-95528028D01*
X79421613Y-95407715D01*
X79421612Y-95407714D01*
X79421610Y-95407713D01*
X79348705Y-95370566D01*
X79239223Y-95314781D01*
X79044534Y-95251522D01*
X78862619Y-95222710D01*
X78842352Y-95219500D01*
X78637648Y-95219500D01*
X78617381Y-95222710D01*
X78435465Y-95251522D01*
X78240776Y-95314781D01*
X78058386Y-95407715D01*
X77892786Y-95528028D01*
X77748028Y-95672786D01*
X77627715Y-95838386D01*
X77534781Y-96020776D01*
X77471522Y-96215465D01*
X77439500Y-96417648D01*
X77439500Y-96622351D01*
X77467557Y-96799497D01*
X77458602Y-96868791D01*
X77432765Y-96906576D01*
X73986147Y-100353194D01*
X73924824Y-100386679D01*
X73879068Y-100387986D01*
X73829969Y-100380209D01*
X73762352Y-100369500D01*
X73557648Y-100369500D01*
X73533329Y-100373351D01*
X73355465Y-100401522D01*
X73160776Y-100464781D01*
X72978386Y-100557715D01*
X72812786Y-100678028D01*
X72668028Y-100822786D01*
X72547715Y-100988386D01*
X72454781Y-101170776D01*
X72391522Y-101365465D01*
X72359500Y-101567648D01*
X72359500Y-101772351D01*
X72368415Y-101828639D01*
X72359460Y-101897933D01*
X72333623Y-101935718D01*
X70188005Y-104081336D01*
X70126682Y-104114821D01*
X70056990Y-104109837D01*
X70001057Y-104067965D01*
X69977851Y-104013053D01*
X69946015Y-103812049D01*
X69877895Y-103602394D01*
X69877895Y-103602393D01*
X69784865Y-103419815D01*
X69777815Y-103405978D01*
X69699258Y-103297853D01*
X69648247Y-103227641D01*
X69648243Y-103227636D01*
X69492363Y-103071756D01*
X69492358Y-103071752D01*
X69314025Y-102942187D01*
X69314024Y-102942186D01*
X69314022Y-102942185D01*
X69225898Y-102897283D01*
X69117606Y-102842104D01*
X69117603Y-102842103D01*
X68907952Y-102773985D01*
X68799086Y-102756742D01*
X68690222Y-102739500D01*
X68469778Y-102739500D01*
X68397201Y-102750995D01*
X68252047Y-102773985D01*
X68042396Y-102842103D01*
X68042393Y-102842104D01*
X67845974Y-102942187D01*
X67667641Y-103071752D01*
X67667636Y-103071756D01*
X67511758Y-103227634D01*
X67462997Y-103294747D01*
X67394965Y-103388386D01*
X67339638Y-103431051D01*
X67294649Y-103439500D01*
X65773361Y-103439500D01*
X65706322Y-103419815D01*
X65660567Y-103367011D01*
X65650623Y-103297853D01*
X65679648Y-103234297D01*
X65685680Y-103227819D01*
X66000461Y-102913038D01*
X66000464Y-102913035D01*
X66047858Y-102842105D01*
X66099013Y-102765547D01*
X66131548Y-102687000D01*
X66166895Y-102601666D01*
X66201500Y-102427691D01*
X66201500Y-102250308D01*
X66201500Y-100784986D01*
X66201500Y-100784983D01*
X66201499Y-100784981D01*
X66166896Y-100611018D01*
X66166893Y-100611009D01*
X66099016Y-100447136D01*
X66099009Y-100447123D01*
X66000465Y-100299643D01*
X65954272Y-100253450D01*
X65875035Y-100174213D01*
X65503626Y-99802803D01*
X65488207Y-99784016D01*
X65477934Y-99768641D01*
X65469464Y-99755964D01*
X64436819Y-98723319D01*
X64403334Y-98661996D01*
X64400500Y-98635638D01*
X64400500Y-95560300D01*
X64420185Y-95493261D01*
X64472989Y-95447506D01*
X64485482Y-95442599D01*
X64569334Y-95414814D01*
X64718656Y-95322712D01*
X64842712Y-95198656D01*
X64934814Y-95049334D01*
X64989999Y-94882797D01*
X65000500Y-94780009D01*
X65000499Y-93179992D01*
X65000110Y-93176180D01*
X65012880Y-93107488D01*
X65060762Y-93056604D01*
X65123468Y-93039580D01*
X66314718Y-93039580D01*
X66381757Y-93059265D01*
X66402399Y-93075899D01*
X67143181Y-93816681D01*
X67176666Y-93878004D01*
X67179500Y-93904362D01*
X67179500Y-94680001D01*
X67179501Y-94680019D01*
X67190000Y-94782796D01*
X67190001Y-94782799D01*
X67245185Y-94949331D01*
X67245187Y-94949336D01*
X67250230Y-94957512D01*
X67337288Y-95098656D01*
X67461344Y-95222712D01*
X67610666Y-95314814D01*
X67777203Y-95369999D01*
X67879991Y-95380500D01*
X69280008Y-95380499D01*
X69382797Y-95369999D01*
X69549334Y-95314814D01*
X69698656Y-95222712D01*
X69822712Y-95098656D01*
X69914814Y-94949334D01*
X69914815Y-94949331D01*
X69918605Y-94943187D01*
X69920399Y-94944293D01*
X69959687Y-94899663D01*
X70025908Y-94880500D01*
X73748693Y-94880500D01*
X73748694Y-94880499D01*
X73922666Y-94845895D01*
X74004606Y-94811953D01*
X74086547Y-94778013D01*
X74175910Y-94718302D01*
X74234036Y-94679464D01*
X76086680Y-92826818D01*
X76148003Y-92793334D01*
X76174361Y-92790500D01*
X76306286Y-92790500D01*
X76306287Y-92790500D01*
X76516243Y-92757246D01*
X76718412Y-92691557D01*
X76907816Y-92595051D01*
X76962572Y-92555269D01*
X77079786Y-92470109D01*
X77079788Y-92470106D01*
X77079792Y-92470104D01*
X77230104Y-92319792D01*
X77230106Y-92319788D01*
X77230109Y-92319786D01*
X77355048Y-92147820D01*
X77355047Y-92147820D01*
X77355051Y-92147816D01*
X77359514Y-92139054D01*
X77407488Y-92088259D01*
X77475308Y-92071463D01*
X77541444Y-92093999D01*
X77580484Y-92139054D01*
X77584591Y-92147115D01*
X77584951Y-92147820D01*
X77709890Y-92319786D01*
X77860213Y-92470109D01*
X78032179Y-92595048D01*
X78032181Y-92595049D01*
X78032184Y-92595051D01*
X78221588Y-92691557D01*
X78423757Y-92757246D01*
X78633713Y-92790500D01*
X78633714Y-92790500D01*
X78846286Y-92790500D01*
X78846287Y-92790500D01*
X79056243Y-92757246D01*
X79258412Y-92691557D01*
X79447816Y-92595051D01*
X79502572Y-92555269D01*
X79619786Y-92470109D01*
X79619788Y-92470106D01*
X79619792Y-92470104D01*
X79770104Y-92319792D01*
X79770106Y-92319788D01*
X79770109Y-92319786D01*
X79895048Y-92147820D01*
X79895047Y-92147820D01*
X79895051Y-92147816D01*
X79899514Y-92139054D01*
X79947488Y-92088259D01*
X80015308Y-92071463D01*
X80081444Y-92093999D01*
X80120484Y-92139054D01*
X80124591Y-92147115D01*
X80124951Y-92147820D01*
X80249890Y-92319786D01*
X80400213Y-92470109D01*
X80572179Y-92595048D01*
X80572181Y-92595049D01*
X80572184Y-92595051D01*
X80761588Y-92691557D01*
X80963757Y-92757246D01*
X81173713Y-92790500D01*
X81173714Y-92790500D01*
X81386286Y-92790500D01*
X81386287Y-92790500D01*
X81596243Y-92757246D01*
X81798412Y-92691557D01*
X81987816Y-92595051D01*
X82042572Y-92555269D01*
X82159786Y-92470109D01*
X82159788Y-92470106D01*
X82159792Y-92470104D01*
X82310104Y-92319792D01*
X82310106Y-92319788D01*
X82310109Y-92319786D01*
X82435048Y-92147820D01*
X82435047Y-92147820D01*
X82435051Y-92147816D01*
X82439514Y-92139054D01*
X82487488Y-92088259D01*
X82555308Y-92071463D01*
X82621444Y-92093999D01*
X82660484Y-92139054D01*
X82664591Y-92147115D01*
X82664951Y-92147820D01*
X82789890Y-92319786D01*
X82940211Y-92470107D01*
X83004664Y-92516934D01*
X83068385Y-92563229D01*
X83111051Y-92618558D01*
X83119500Y-92663547D01*
X83119500Y-100266883D01*
X83099815Y-100333922D01*
X83051799Y-100377366D01*
X83033569Y-100386655D01*
X82950343Y-100447123D01*
X82842490Y-100525483D01*
X82842488Y-100525485D01*
X82842487Y-100525485D01*
X82675485Y-100692487D01*
X82675485Y-100692488D01*
X82675483Y-100692490D01*
X82615862Y-100774550D01*
X82536657Y-100883566D01*
X82429433Y-101094003D01*
X82356446Y-101318631D01*
X82319500Y-101551902D01*
X82319500Y-101788097D01*
X82356446Y-102021368D01*
X82429433Y-102245996D01*
X82522012Y-102427691D01*
X82536657Y-102456433D01*
X82675483Y-102647510D01*
X82842490Y-102814517D01*
X83033567Y-102953343D01*
X83051794Y-102962630D01*
X83102590Y-103010603D01*
X83119500Y-103073115D01*
X83119500Y-105518255D01*
X83099815Y-105585294D01*
X83068385Y-105618573D01*
X82972787Y-105688028D01*
X82972782Y-105688032D01*
X82828028Y-105832786D01*
X82707715Y-105998386D01*
X82614781Y-106180776D01*
X82551522Y-106375465D01*
X82519500Y-106577648D01*
X82519500Y-106782351D01*
X82551522Y-106984534D01*
X82614781Y-107179223D01*
X82637655Y-107224114D01*
X82703620Y-107353578D01*
X82707715Y-107361613D01*
X82828028Y-107527213D01*
X82972786Y-107671971D01*
X83138385Y-107792284D01*
X83138387Y-107792285D01*
X83138390Y-107792287D01*
X83264979Y-107856787D01*
X83315775Y-107904761D01*
X83332570Y-107972582D01*
X83331422Y-107984918D01*
X83314500Y-108102615D01*
X83314500Y-109475772D01*
X83314820Y-109493754D01*
X83315139Y-109502670D01*
X83316103Y-109520656D01*
X83316105Y-109520671D01*
X83346686Y-109661247D01*
X83346688Y-109661254D01*
X83361847Y-109701898D01*
X83371105Y-109726719D01*
X83371107Y-109726723D01*
X83440056Y-109852993D01*
X83440057Y-109852994D01*
X83503408Y-109916348D01*
X83536892Y-109977672D01*
X83531906Y-110047363D01*
X83503406Y-110091708D01*
X74756935Y-118838181D01*
X74695612Y-118871666D01*
X74669254Y-118874500D01*
X68704000Y-118874500D01*
X68703991Y-118874500D01*
X68703990Y-118874501D01*
X68596549Y-118886052D01*
X68596537Y-118886054D01*
X68545027Y-118897260D01*
X68442502Y-118931383D01*
X68442496Y-118931386D01*
X68321462Y-119009171D01*
X68321451Y-119009179D01*
X68268659Y-119054923D01*
X68174433Y-119163664D01*
X68174430Y-119163668D01*
X68114664Y-119294534D01*
X68114662Y-119294541D01*
X68094977Y-119361580D01*
X68094976Y-119361584D01*
X68074500Y-119504000D01*
X68074500Y-121916346D01*
X68074500Y-124336000D01*
X68074501Y-124336009D01*
X68086052Y-124443450D01*
X68086054Y-124443462D01*
X68097260Y-124494972D01*
X68131383Y-124597497D01*
X68131386Y-124597503D01*
X68209171Y-124718537D01*
X68209179Y-124718548D01*
X68254923Y-124771340D01*
X68254926Y-124771343D01*
X68254930Y-124771347D01*
X68363664Y-124865567D01*
X68494541Y-124925338D01*
X68561580Y-124945023D01*
X68561584Y-124945024D01*
X68704000Y-124965500D01*
X68704003Y-124965500D01*
X69495867Y-124965500D01*
X69495876Y-124965500D01*
X69495885Y-124965499D01*
X69495889Y-124965499D01*
X69507987Y-124964438D01*
X69583842Y-124957787D01*
X69595785Y-124955676D01*
X69665223Y-124963390D01*
X69719472Y-125007423D01*
X69727852Y-125021488D01*
X69804970Y-125172840D01*
X69829783Y-125221538D01*
X69964214Y-125406566D01*
X69964216Y-125406568D01*
X69992694Y-125435046D01*
X70026179Y-125496369D01*
X70022867Y-125549315D01*
X70949764Y-126476212D01*
X70907708Y-126487482D01*
X70782292Y-126559890D01*
X70679890Y-126662292D01*
X70607482Y-126787708D01*
X70596212Y-126829763D01*
X69648180Y-125881731D01*
X69648179Y-125881732D01*
X69626402Y-125940122D01*
X69626401Y-125940124D01*
X69620000Y-125999655D01*
X69620000Y-128000344D01*
X69626401Y-128059872D01*
X69626403Y-128059882D01*
X69648179Y-128118266D01*
X69648180Y-128118267D01*
X70596212Y-127170235D01*
X70607482Y-127212292D01*
X70679890Y-127337708D01*
X70782292Y-127440110D01*
X70907708Y-127512518D01*
X70949764Y-127523787D01*
X70026014Y-128447536D01*
X70026014Y-128447537D01*
X70072164Y-128452499D01*
X70072181Y-128452500D01*
X72167819Y-128452500D01*
X72167835Y-128452499D01*
X72213984Y-128447537D01*
X72213984Y-128447536D01*
X71290235Y-127523787D01*
X71332292Y-127512518D01*
X71457708Y-127440110D01*
X71560110Y-127337708D01*
X71632518Y-127212292D01*
X71643787Y-127170235D01*
X72591818Y-128118267D01*
X72613598Y-128059872D01*
X72617997Y-128018963D01*
X72617997Y-128018961D01*
X72619999Y-128000330D01*
X72620000Y-128000327D01*
X72620000Y-126897682D01*
X74980000Y-126897682D01*
X74980000Y-127102317D01*
X75012009Y-127304417D01*
X75075244Y-127499031D01*
X75168141Y-127681350D01*
X75168147Y-127681359D01*
X75200523Y-127725921D01*
X75200524Y-127725922D01*
X75880000Y-127046446D01*
X75880000Y-127052661D01*
X75907259Y-127154394D01*
X75959920Y-127245606D01*
X76034394Y-127320080D01*
X76125606Y-127372741D01*
X76227339Y-127400000D01*
X76233553Y-127400000D01*
X75554076Y-128079474D01*
X75598650Y-128111859D01*
X75780968Y-128204755D01*
X75975582Y-128267990D01*
X76177683Y-128300000D01*
X76382317Y-128300000D01*
X76584417Y-128267990D01*
X76779031Y-128204755D01*
X76961349Y-128111859D01*
X77005921Y-128079474D01*
X76326447Y-127400000D01*
X76332661Y-127400000D01*
X76434394Y-127372741D01*
X76525606Y-127320080D01*
X76600080Y-127245606D01*
X76652741Y-127154394D01*
X76680000Y-127052661D01*
X76680000Y-127046447D01*
X77359474Y-127725921D01*
X77391859Y-127681349D01*
X77484755Y-127499031D01*
X77547990Y-127304417D01*
X77580000Y-127102317D01*
X77580000Y-126897682D01*
X77547990Y-126695582D01*
X77484755Y-126500968D01*
X77391859Y-126318650D01*
X77359474Y-126274077D01*
X77359474Y-126274076D01*
X76680000Y-126953551D01*
X76680000Y-126947339D01*
X76652741Y-126845606D01*
X76600080Y-126754394D01*
X76525606Y-126679920D01*
X76434394Y-126627259D01*
X76332661Y-126600000D01*
X76326446Y-126600000D01*
X77005922Y-125920524D01*
X77005921Y-125920523D01*
X76961359Y-125888147D01*
X76961350Y-125888141D01*
X76779031Y-125795244D01*
X76584417Y-125732009D01*
X76382317Y-125700000D01*
X76177683Y-125700000D01*
X75975582Y-125732009D01*
X75780968Y-125795244D01*
X75598644Y-125888143D01*
X75554077Y-125920523D01*
X75554077Y-125920524D01*
X76233554Y-126600000D01*
X76227339Y-126600000D01*
X76125606Y-126627259D01*
X76034394Y-126679920D01*
X75959920Y-126754394D01*
X75907259Y-126845606D01*
X75880000Y-126947339D01*
X75880000Y-126953553D01*
X75200524Y-126274077D01*
X75200523Y-126274077D01*
X75168143Y-126318644D01*
X75075244Y-126500968D01*
X75012009Y-126695582D01*
X74980000Y-126897682D01*
X72620000Y-126897682D01*
X72620000Y-125999672D01*
X72619999Y-125999662D01*
X72617997Y-125981042D01*
X72617997Y-125981038D01*
X72613598Y-125940123D01*
X72591818Y-125881731D01*
X71643786Y-126829763D01*
X71632518Y-126787708D01*
X71560110Y-126662292D01*
X71457708Y-126559890D01*
X71332292Y-126487482D01*
X71290235Y-126476212D01*
X72217255Y-125549191D01*
X72214308Y-125494212D01*
X72247302Y-125435049D01*
X72275786Y-125406566D01*
X72410217Y-125221538D01*
X72410218Y-125221535D01*
X72411331Y-125219720D01*
X72411934Y-125219173D01*
X72413081Y-125217596D01*
X72413412Y-125217836D01*
X72463138Y-125172840D01*
X72517064Y-125160500D01*
X83398481Y-125160500D01*
X83465520Y-125180185D01*
X83486162Y-125196819D01*
X84792518Y-126503175D01*
X84826003Y-126564498D01*
X84822769Y-126629170D01*
X84816447Y-126648627D01*
X84816447Y-126648628D01*
X84779500Y-126881902D01*
X84779500Y-127118097D01*
X84816447Y-127351369D01*
X84822769Y-127370828D01*
X84824762Y-127440669D01*
X84792518Y-127496824D01*
X83954890Y-128334451D01*
X83954884Y-128334458D01*
X83922816Y-128382453D01*
X83922816Y-128382454D01*
X83878228Y-128449183D01*
X83878221Y-128449195D01*
X83825421Y-128576667D01*
X83825418Y-128576677D01*
X83798500Y-128712004D01*
X83798500Y-128712007D01*
X83798500Y-134411320D01*
X83798500Y-134549308D01*
X83798500Y-134549310D01*
X83798499Y-134549310D01*
X83825418Y-134684636D01*
X83825421Y-134684646D01*
X83878222Y-134812121D01*
X83954887Y-134926859D01*
X84873140Y-135845112D01*
X84873143Y-135845114D01*
X84987875Y-135921775D01*
X85115357Y-135974580D01*
X85131280Y-135977747D01*
X85136004Y-135978687D01*
X85136014Y-135978688D01*
X85136025Y-135978691D01*
X85164692Y-135984393D01*
X85250690Y-136001500D01*
X85250693Y-136001500D01*
X90567996Y-136001500D01*
X90659040Y-135983389D01*
X90703328Y-135974580D01*
X90767069Y-135948177D01*
X90830807Y-135921777D01*
X90830808Y-135921776D01*
X90830811Y-135921775D01*
X90945543Y-135845114D01*
X91573851Y-135216804D01*
X91635174Y-135183320D01*
X91680930Y-135182013D01*
X91797648Y-135200500D01*
X91797649Y-135200500D01*
X92002351Y-135200500D01*
X92002352Y-135200500D01*
X92204534Y-135168477D01*
X92399219Y-135105220D01*
X92581610Y-135012287D01*
X92699193Y-134926859D01*
X92747213Y-134891971D01*
X92747215Y-134891968D01*
X92747219Y-134891966D01*
X92891966Y-134747219D01*
X92891968Y-134747215D01*
X92891971Y-134747213D01*
X92944732Y-134674590D01*
X93012287Y-134581610D01*
X93105220Y-134399219D01*
X93168477Y-134204534D01*
X93200500Y-134002352D01*
X93200500Y-133901518D01*
X93220185Y-133834479D01*
X93236814Y-133813842D01*
X96173838Y-130876817D01*
X96235161Y-130843333D01*
X96261519Y-130840499D01*
X97367871Y-130840499D01*
X97367872Y-130840499D01*
X97427483Y-130834091D01*
X97562331Y-130783796D01*
X97677546Y-130697546D01*
X97763796Y-130582331D01*
X97814091Y-130447483D01*
X97818061Y-130410556D01*
X97844796Y-130346011D01*
X97902188Y-130306161D01*
X97972013Y-130303666D01*
X98032102Y-130339317D01*
X98041667Y-130350929D01*
X98068032Y-130387217D01*
X98212786Y-130531971D01*
X98333226Y-130619474D01*
X98378390Y-130652287D01*
X98467212Y-130697544D01*
X98560776Y-130745218D01*
X98560778Y-130745218D01*
X98560781Y-130745220D01*
X98665137Y-130779127D01*
X98755465Y-130808477D01*
X98856557Y-130824488D01*
X98957648Y-130840500D01*
X98957649Y-130840500D01*
X99162351Y-130840500D01*
X99162352Y-130840500D01*
X99364534Y-130808477D01*
X99559219Y-130745220D01*
X99741610Y-130652287D01*
X99837901Y-130582328D01*
X99907213Y-130531971D01*
X99907215Y-130531968D01*
X99907219Y-130531966D01*
X100051966Y-130387219D01*
X100051968Y-130387215D01*
X100051971Y-130387213D01*
X100172284Y-130221614D01*
X100172286Y-130221611D01*
X100172287Y-130221610D01*
X100219516Y-130128917D01*
X100267489Y-130078123D01*
X100335310Y-130061328D01*
X100401445Y-130083865D01*
X100440485Y-130128919D01*
X100487715Y-130221614D01*
X100608028Y-130387213D01*
X100663181Y-130442366D01*
X100696666Y-130503689D01*
X100699500Y-130530047D01*
X100699500Y-134899953D01*
X100679815Y-134966992D01*
X100663181Y-134987634D01*
X100608032Y-135042782D01*
X100608028Y-135042786D01*
X100487715Y-135208386D01*
X100394781Y-135390776D01*
X100331522Y-135585465D01*
X100299500Y-135787648D01*
X100299500Y-135992351D01*
X100331522Y-136194534D01*
X100394781Y-136389223D01*
X100487715Y-136571613D01*
X100608028Y-136737213D01*
X100752786Y-136881971D01*
X100907749Y-136994556D01*
X100918390Y-137002287D01*
X101034607Y-137061503D01*
X101100776Y-137095218D01*
X101100778Y-137095218D01*
X101100781Y-137095220D01*
X101205137Y-137129127D01*
X101295465Y-137158477D01*
X101396557Y-137174488D01*
X101497648Y-137190500D01*
X101497649Y-137190500D01*
X101702351Y-137190500D01*
X101702352Y-137190500D01*
X101904534Y-137158477D01*
X102099219Y-137095220D01*
X102281610Y-137002287D01*
X102374590Y-136934732D01*
X102447213Y-136881971D01*
X102447215Y-136881968D01*
X102447219Y-136881966D01*
X102512319Y-136816866D01*
X102573642Y-136783381D01*
X102643334Y-136788365D01*
X102687681Y-136816866D01*
X102752786Y-136881971D01*
X102907749Y-136994556D01*
X102918390Y-137002287D01*
X103034607Y-137061503D01*
X103100776Y-137095218D01*
X103100778Y-137095218D01*
X103100781Y-137095220D01*
X103205137Y-137129127D01*
X103295465Y-137158477D01*
X103396557Y-137174488D01*
X103497648Y-137190500D01*
X103497649Y-137190500D01*
X103702351Y-137190500D01*
X103702352Y-137190500D01*
X103904534Y-137158477D01*
X104099219Y-137095220D01*
X104281610Y-137002287D01*
X104374590Y-136934732D01*
X104447213Y-136881971D01*
X104447215Y-136881968D01*
X104447219Y-136881966D01*
X104512319Y-136816866D01*
X104573642Y-136783381D01*
X104643334Y-136788365D01*
X104687681Y-136816866D01*
X104752786Y-136881971D01*
X104907749Y-136994556D01*
X104918390Y-137002287D01*
X105034607Y-137061503D01*
X105100776Y-137095218D01*
X105100778Y-137095218D01*
X105100781Y-137095220D01*
X105205137Y-137129127D01*
X105295465Y-137158477D01*
X105396557Y-137174488D01*
X105497648Y-137190500D01*
X105497649Y-137190500D01*
X105702351Y-137190500D01*
X105702352Y-137190500D01*
X105904534Y-137158477D01*
X106099219Y-137095220D01*
X106281610Y-137002287D01*
X106374590Y-136934732D01*
X106447213Y-136881971D01*
X106447215Y-136881968D01*
X106447219Y-136881966D01*
X106512319Y-136816866D01*
X106573642Y-136783381D01*
X106643334Y-136788365D01*
X106687681Y-136816866D01*
X106752786Y-136881971D01*
X106907749Y-136994556D01*
X106918390Y-137002287D01*
X107034607Y-137061503D01*
X107100776Y-137095218D01*
X107100778Y-137095218D01*
X107100781Y-137095220D01*
X107205137Y-137129127D01*
X107295465Y-137158477D01*
X107396557Y-137174488D01*
X107497648Y-137190500D01*
X107497649Y-137190500D01*
X107702351Y-137190500D01*
X107702352Y-137190500D01*
X107904534Y-137158477D01*
X108099219Y-137095220D01*
X108281610Y-137002287D01*
X108374590Y-136934732D01*
X108447213Y-136881971D01*
X108447215Y-136881968D01*
X108447219Y-136881966D01*
X108591966Y-136737219D01*
X108591968Y-136737215D01*
X108591971Y-136737213D01*
X108644732Y-136664590D01*
X108712287Y-136571610D01*
X108805220Y-136389219D01*
X108868477Y-136194534D01*
X108900500Y-135992352D01*
X108900500Y-135787648D01*
X108892034Y-135734194D01*
X108868477Y-135585465D01*
X108805218Y-135390776D01*
X108771503Y-135324607D01*
X108712287Y-135208390D01*
X108683289Y-135168477D01*
X108591971Y-135042786D01*
X108536819Y-134987634D01*
X108503334Y-134926311D01*
X108500500Y-134899953D01*
X108500500Y-131584362D01*
X108520185Y-131517323D01*
X108536819Y-131496681D01*
X109156681Y-130876819D01*
X109218004Y-130843334D01*
X109244362Y-130840500D01*
X109322351Y-130840500D01*
X109322352Y-130840500D01*
X109524534Y-130808477D01*
X109719219Y-130745220D01*
X109901610Y-130652287D01*
X109997901Y-130582328D01*
X110067213Y-130531971D01*
X110067215Y-130531968D01*
X110067219Y-130531966D01*
X110211966Y-130387219D01*
X110211968Y-130387215D01*
X110211971Y-130387213D01*
X110332284Y-130221614D01*
X110332286Y-130221611D01*
X110332287Y-130221610D01*
X110379516Y-130128917D01*
X110427489Y-130078123D01*
X110495310Y-130061328D01*
X110561445Y-130083865D01*
X110600485Y-130128919D01*
X110647715Y-130221614D01*
X110768028Y-130387213D01*
X110912786Y-130531971D01*
X111033226Y-130619474D01*
X111078390Y-130652287D01*
X111167212Y-130697544D01*
X111260776Y-130745218D01*
X111260778Y-130745218D01*
X111260781Y-130745220D01*
X111365137Y-130779127D01*
X111455465Y-130808477D01*
X111556557Y-130824488D01*
X111657648Y-130840500D01*
X111657649Y-130840500D01*
X111862351Y-130840500D01*
X111862352Y-130840500D01*
X112064534Y-130808477D01*
X112259219Y-130745220D01*
X112441610Y-130652287D01*
X112537901Y-130582328D01*
X112607213Y-130531971D01*
X112607215Y-130531968D01*
X112607219Y-130531966D01*
X112751966Y-130387219D01*
X112751968Y-130387215D01*
X112751971Y-130387213D01*
X112872286Y-130221611D01*
X112872415Y-130221359D01*
X112919795Y-130128369D01*
X112967769Y-130077573D01*
X113035590Y-130060778D01*
X113101725Y-130083315D01*
X113140765Y-130128369D01*
X113188141Y-130221350D01*
X113188147Y-130221359D01*
X113220523Y-130265921D01*
X113220524Y-130265922D01*
X113900000Y-129586446D01*
X113900000Y-129592661D01*
X113927259Y-129694394D01*
X113979920Y-129785606D01*
X114054394Y-129860080D01*
X114145606Y-129912741D01*
X114247339Y-129940000D01*
X114253553Y-129940000D01*
X113574076Y-130619474D01*
X113618650Y-130651859D01*
X113800968Y-130744755D01*
X113995582Y-130807990D01*
X114197683Y-130840000D01*
X114402317Y-130840000D01*
X114604417Y-130807990D01*
X114799031Y-130744755D01*
X114981349Y-130651859D01*
X115025921Y-130619474D01*
X114346447Y-129940000D01*
X114352661Y-129940000D01*
X114454394Y-129912741D01*
X114545606Y-129860080D01*
X114620080Y-129785606D01*
X114672741Y-129694394D01*
X114700000Y-129592661D01*
X114700000Y-129586448D01*
X115379474Y-130265922D01*
X115379474Y-130265921D01*
X115411859Y-130221349D01*
X115504755Y-130039031D01*
X115567990Y-129844417D01*
X115600000Y-129642317D01*
X115600000Y-129437682D01*
X115567990Y-129235582D01*
X115504755Y-129040968D01*
X115411859Y-128858650D01*
X115379474Y-128814077D01*
X115379474Y-128814076D01*
X114700000Y-129493551D01*
X114700000Y-129487339D01*
X114672741Y-129385606D01*
X114620080Y-129294394D01*
X114545606Y-129219920D01*
X114454394Y-129167259D01*
X114352661Y-129140000D01*
X114346446Y-129140000D01*
X115025922Y-128460524D01*
X115025921Y-128460523D01*
X114981359Y-128428147D01*
X114981350Y-128428141D01*
X114799031Y-128335244D01*
X114604417Y-128272009D01*
X114402317Y-128240000D01*
X114197683Y-128240000D01*
X113995582Y-128272009D01*
X113800968Y-128335244D01*
X113618644Y-128428143D01*
X113574077Y-128460523D01*
X113574077Y-128460524D01*
X114253554Y-129140000D01*
X114247339Y-129140000D01*
X114145606Y-129167259D01*
X114054394Y-129219920D01*
X113979920Y-129294394D01*
X113927259Y-129385606D01*
X113900000Y-129487339D01*
X113900000Y-129493553D01*
X113220524Y-128814077D01*
X113220523Y-128814077D01*
X113188143Y-128858644D01*
X113140765Y-128951630D01*
X113092790Y-129002426D01*
X113024969Y-129019221D01*
X112958834Y-128996683D01*
X112919795Y-128951630D01*
X112872287Y-128858390D01*
X112872285Y-128858387D01*
X112872284Y-128858385D01*
X112751971Y-128692786D01*
X112696819Y-128637634D01*
X112682115Y-128610706D01*
X112665523Y-128584888D01*
X112664631Y-128578687D01*
X112663334Y-128576311D01*
X112660500Y-128549953D01*
X112660500Y-126359500D01*
X112680185Y-126292461D01*
X112732989Y-126246706D01*
X112784500Y-126235500D01*
X118755500Y-126235500D01*
X118822539Y-126255185D01*
X118868294Y-126307989D01*
X118879500Y-126359500D01*
X118879500Y-139075500D01*
X118859815Y-139142539D01*
X118807011Y-139188294D01*
X118755500Y-139199500D01*
X55239500Y-139199500D01*
X55172461Y-139179815D01*
X55126706Y-139127011D01*
X55115500Y-139075500D01*
X55115500Y-126500000D01*
X62091504Y-126500000D01*
X63089437Y-126500000D01*
X63008549Y-126621058D01*
X62948243Y-126766649D01*
X62917500Y-126921207D01*
X62917500Y-127078793D01*
X62948243Y-127233351D01*
X63008549Y-127378942D01*
X63089437Y-127500000D01*
X62091504Y-127500000D01*
X62104265Y-127547621D01*
X62189545Y-127753502D01*
X62189554Y-127753520D01*
X62300964Y-127946491D01*
X62300966Y-127946495D01*
X62436630Y-128123293D01*
X62436638Y-128123302D01*
X62594198Y-128280862D01*
X62594206Y-128280869D01*
X62771004Y-128416533D01*
X62771008Y-128416535D01*
X62963979Y-128527945D01*
X62963992Y-128527952D01*
X63169879Y-128613235D01*
X63169893Y-128613240D01*
X63217499Y-128625995D01*
X63217500Y-128625995D01*
X63217500Y-127628062D01*
X63338558Y-127708951D01*
X63484149Y-127769257D01*
X63638707Y-127800000D01*
X63796293Y-127800000D01*
X63950851Y-127769257D01*
X64096442Y-127708951D01*
X64217500Y-127628062D01*
X64217500Y-128625995D01*
X64265106Y-128613240D01*
X64265120Y-128613235D01*
X64471007Y-128527952D01*
X64471020Y-128527945D01*
X64663987Y-128416537D01*
X64794060Y-128316729D01*
X64794062Y-128316727D01*
X64840793Y-128280869D01*
X64840802Y-128280862D01*
X64998362Y-128123302D01*
X64998369Y-128123293D01*
X65134033Y-127946495D01*
X65134035Y-127946491D01*
X65245445Y-127753520D01*
X65245454Y-127753502D01*
X65330734Y-127547621D01*
X65343496Y-127500000D01*
X64345563Y-127500000D01*
X64426451Y-127378942D01*
X64486757Y-127233351D01*
X64517500Y-127078793D01*
X64517500Y-126921207D01*
X64486757Y-126766649D01*
X64426451Y-126621058D01*
X64345563Y-126500000D01*
X65343495Y-126500000D01*
X65330734Y-126452378D01*
X65245454Y-126246497D01*
X65245451Y-126246490D01*
X65136830Y-126058350D01*
X65136829Y-126058349D01*
X65134032Y-126053503D01*
X64998369Y-125876706D01*
X64998362Y-125876698D01*
X64840802Y-125719138D01*
X64840793Y-125719130D01*
X64663995Y-125583466D01*
X64663991Y-125583464D01*
X64471020Y-125472054D01*
X64471002Y-125472045D01*
X64265121Y-125386765D01*
X64217500Y-125374004D01*
X64217500Y-126371937D01*
X64096442Y-126291049D01*
X63950851Y-126230743D01*
X63796293Y-126200000D01*
X63638707Y-126200000D01*
X63484149Y-126230743D01*
X63338558Y-126291049D01*
X63217500Y-126371937D01*
X63217500Y-125374004D01*
X63169878Y-125386765D01*
X62963997Y-125472045D01*
X62963979Y-125472054D01*
X62771008Y-125583464D01*
X62771004Y-125583466D01*
X62594206Y-125719130D01*
X62436630Y-125876706D01*
X62300966Y-126053504D01*
X62300964Y-126053508D01*
X62189554Y-126246479D01*
X62189545Y-126246497D01*
X62104265Y-126452378D01*
X62091504Y-126500000D01*
X55115500Y-126500000D01*
X55115500Y-123314010D01*
X55115500Y-123314000D01*
X55103947Y-123206544D01*
X55092741Y-123155033D01*
X55092637Y-123154722D01*
X55058616Y-123052502D01*
X55058613Y-123052496D01*
X54980828Y-122931462D01*
X54980825Y-122931457D01*
X54963936Y-122911966D01*
X54935076Y-122878659D01*
X54935072Y-122878656D01*
X54935070Y-122878653D01*
X54826336Y-122784433D01*
X54826333Y-122784431D01*
X54826331Y-122784430D01*
X54695465Y-122724664D01*
X54695460Y-122724662D01*
X54695459Y-122724662D01*
X54628420Y-122704977D01*
X54628422Y-122704977D01*
X54628417Y-122704976D01*
X54566354Y-122696053D01*
X54486000Y-122684500D01*
X49654000Y-122684500D01*
X49586961Y-122664815D01*
X49541206Y-122612011D01*
X49530000Y-122560500D01*
X49530000Y-86984500D01*
X49549685Y-86917461D01*
X49602489Y-86871706D01*
X49654000Y-86860500D01*
X82031997Y-86860500D01*
X82099036Y-86880185D01*
G37*
%TD.AperFunction*%
%TD*%
%TA.AperFunction,Conductor*%
%TO.N,+5V*%
G36*
X115513039Y-102889685D02*
G01*
X115558794Y-102942489D01*
X115570000Y-102994000D01*
X115570000Y-106106539D01*
X115550315Y-106173578D01*
X115497511Y-106219333D01*
X115428353Y-106229277D01*
X115364797Y-106200252D01*
X115335515Y-106162834D01*
X115251859Y-105998650D01*
X115219474Y-105954077D01*
X115219474Y-105954076D01*
X114540000Y-106633551D01*
X114540000Y-106627339D01*
X114512741Y-106525606D01*
X114460080Y-106434394D01*
X114385606Y-106359920D01*
X114294394Y-106307259D01*
X114192661Y-106280000D01*
X114186446Y-106280000D01*
X114865922Y-105600524D01*
X114865921Y-105600523D01*
X114821359Y-105568147D01*
X114821350Y-105568141D01*
X114639031Y-105475244D01*
X114444417Y-105412009D01*
X114242317Y-105380000D01*
X114037683Y-105380000D01*
X113835582Y-105412009D01*
X113640968Y-105475244D01*
X113458644Y-105568143D01*
X113414077Y-105600523D01*
X113414077Y-105600524D01*
X114093554Y-106280000D01*
X114087339Y-106280000D01*
X113985606Y-106307259D01*
X113894394Y-106359920D01*
X113819920Y-106434394D01*
X113767259Y-106525606D01*
X113740000Y-106627339D01*
X113740000Y-106633553D01*
X113060524Y-105954077D01*
X113060523Y-105954077D01*
X113028143Y-105998644D01*
X112935244Y-106180968D01*
X112872009Y-106375582D01*
X112840000Y-106577682D01*
X112840000Y-106782317D01*
X112872009Y-106984417D01*
X112935244Y-107179031D01*
X113028141Y-107361350D01*
X113028147Y-107361359D01*
X113060523Y-107405921D01*
X113060524Y-107405922D01*
X113740000Y-106726446D01*
X113740000Y-106732661D01*
X113767259Y-106834394D01*
X113819920Y-106925606D01*
X113894394Y-107000080D01*
X113985606Y-107052741D01*
X114087339Y-107080000D01*
X114093553Y-107080000D01*
X113414076Y-107759474D01*
X113458650Y-107791859D01*
X113640968Y-107884755D01*
X113835582Y-107947990D01*
X114037683Y-107980000D01*
X114242317Y-107980000D01*
X114444417Y-107947990D01*
X114639031Y-107884755D01*
X114821349Y-107791859D01*
X114865921Y-107759474D01*
X114186447Y-107080000D01*
X114192661Y-107080000D01*
X114294394Y-107052741D01*
X114385606Y-107000080D01*
X114460080Y-106925606D01*
X114512741Y-106834394D01*
X114540000Y-106732661D01*
X114540000Y-106726447D01*
X115219474Y-107405921D01*
X115251861Y-107361347D01*
X115251861Y-107361346D01*
X115335515Y-107197166D01*
X115383489Y-107146369D01*
X115451310Y-107129574D01*
X115517445Y-107152111D01*
X115560897Y-107206826D01*
X115570000Y-107253460D01*
X115570000Y-111197104D01*
X115566115Y-111206484D01*
X115522274Y-111260887D01*
X115498209Y-111268896D01*
X115007106Y-111760000D01*
X114681000Y-111760000D01*
X114681000Y-111709840D01*
X114655036Y-111612939D01*
X114604876Y-111526060D01*
X114533940Y-111455124D01*
X114447061Y-111404964D01*
X114350160Y-111379000D01*
X114249840Y-111379000D01*
X114152939Y-111404964D01*
X114066060Y-111455124D01*
X113995124Y-111526060D01*
X113944964Y-111612939D01*
X113919000Y-111709840D01*
X113919000Y-111760000D01*
X113592893Y-111760000D01*
X113125062Y-111292169D01*
X113060398Y-111307694D01*
X113041140Y-111315830D01*
X112972295Y-111303908D01*
X112920825Y-111256658D01*
X112916535Y-111248932D01*
X112897787Y-111212137D01*
X112839787Y-111098306D01*
X112722981Y-110937536D01*
X112582464Y-110797019D01*
X112564283Y-110783810D01*
X112481918Y-110723968D01*
X112481912Y-110723964D01*
X112421694Y-110680213D01*
X112413422Y-110675998D01*
X112244632Y-110589994D01*
X112244629Y-110589993D01*
X112229450Y-110585061D01*
X113832169Y-110585061D01*
X113832169Y-110585062D01*
X114300000Y-111052893D01*
X114300001Y-111052893D01*
X114767830Y-110585062D01*
X114767830Y-110585061D01*
X114595521Y-110529075D01*
X114399321Y-110498000D01*
X114200679Y-110498000D01*
X114004479Y-110529075D01*
X113832169Y-110585061D01*
X112229450Y-110585061D01*
X112055637Y-110528587D01*
X111913804Y-110506123D01*
X111859361Y-110497500D01*
X111660639Y-110497500D01*
X111660634Y-110497500D01*
X111574143Y-110511199D01*
X111504850Y-110502245D01*
X111467064Y-110476407D01*
X110805546Y-109814888D01*
X110805545Y-109814887D01*
X110690807Y-109738222D01*
X110563332Y-109685421D01*
X110563322Y-109685418D01*
X110427996Y-109658500D01*
X110427994Y-109658500D01*
X110427993Y-109658500D01*
X108160519Y-109658500D01*
X108093480Y-109638815D01*
X108072838Y-109622181D01*
X105627480Y-107176823D01*
X105593995Y-107115500D01*
X105597230Y-107050825D01*
X105603553Y-107031368D01*
X105626842Y-106884328D01*
X105640500Y-106798097D01*
X105640500Y-106561902D01*
X105603553Y-106328631D01*
X105530566Y-106104003D01*
X105423342Y-105893566D01*
X105379179Y-105832781D01*
X105284517Y-105702490D01*
X105117510Y-105535483D01*
X104926433Y-105396657D01*
X104893742Y-105380000D01*
X104715996Y-105289433D01*
X104491368Y-105216446D01*
X104258097Y-105179500D01*
X104258092Y-105179500D01*
X104021908Y-105179500D01*
X104021903Y-105179500D01*
X103788631Y-105216446D01*
X103564003Y-105289433D01*
X103353566Y-105396657D01*
X103246040Y-105474780D01*
X103162490Y-105535483D01*
X103162488Y-105535485D01*
X103162487Y-105535485D01*
X102995485Y-105702487D01*
X102995485Y-105702488D01*
X102995483Y-105702490D01*
X102935862Y-105784550D01*
X102856657Y-105893566D01*
X102749433Y-106104003D01*
X102676446Y-106328631D01*
X102639500Y-106561902D01*
X102639500Y-106798097D01*
X102676446Y-107031368D01*
X102749433Y-107255996D01*
X102825825Y-107405922D01*
X102856657Y-107466433D01*
X102995483Y-107657510D01*
X103162490Y-107824517D01*
X103353567Y-107963343D01*
X103387240Y-107980500D01*
X103564003Y-108070566D01*
X103564005Y-108070566D01*
X103564008Y-108070568D01*
X103684412Y-108109689D01*
X103788631Y-108143553D01*
X104021903Y-108180500D01*
X104021908Y-108180500D01*
X104258097Y-108180500D01*
X104432533Y-108152871D01*
X104491368Y-108143553D01*
X104510824Y-108137230D01*
X104580661Y-108135234D01*
X104636823Y-108167480D01*
X106755162Y-110285819D01*
X106763490Y-110301070D01*
X106775868Y-110313266D01*
X106779886Y-110331097D01*
X106788647Y-110347142D01*
X106787407Y-110364475D01*
X106791227Y-110381426D01*
X106784967Y-110398598D01*
X106783663Y-110416834D01*
X106773248Y-110430745D01*
X106767298Y-110447070D01*
X106752746Y-110458133D01*
X106741791Y-110472767D01*
X106725329Y-110478976D01*
X106711677Y-110489356D01*
X106684576Y-110494349D01*
X106677246Y-110497115D01*
X106672373Y-110497500D01*
X106580639Y-110497500D01*
X106489348Y-110511958D01*
X106484509Y-110512341D01*
X106454869Y-110506123D01*
X106424849Y-110502244D01*
X106419748Y-110498756D01*
X106416128Y-110497997D01*
X106410435Y-110492388D01*
X106387063Y-110476407D01*
X104586546Y-108675888D01*
X104586545Y-108675887D01*
X104471807Y-108599222D01*
X104344332Y-108546421D01*
X104344322Y-108546418D01*
X104208996Y-108519500D01*
X104208994Y-108519500D01*
X104208993Y-108519500D01*
X103074305Y-108519500D01*
X103007266Y-108499815D01*
X102986624Y-108483181D01*
X102378330Y-107874887D01*
X102263592Y-107798222D01*
X102136117Y-107745421D01*
X102136107Y-107745418D01*
X102000780Y-107718500D01*
X102000778Y-107718500D01*
X93717208Y-107718500D01*
X93579220Y-107718500D01*
X93579218Y-107718500D01*
X93443891Y-107745418D01*
X93443881Y-107745421D01*
X93316406Y-107798222D01*
X93201668Y-107874887D01*
X93201667Y-107874888D01*
X92593376Y-108483181D01*
X92532053Y-108516666D01*
X92505695Y-108519500D01*
X91371003Y-108519500D01*
X91262590Y-108541065D01*
X91262589Y-108541065D01*
X91249131Y-108543742D01*
X91235673Y-108546419D01*
X91209268Y-108557356D01*
X91182866Y-108568292D01*
X91182864Y-108568293D01*
X91182863Y-108568292D01*
X91108196Y-108599221D01*
X91108181Y-108599229D01*
X91072116Y-108623328D01*
X90993457Y-108675886D01*
X90993453Y-108675889D01*
X89226147Y-110443194D01*
X89164824Y-110476679D01*
X89119068Y-110477986D01*
X89069969Y-110470209D01*
X89002352Y-110459500D01*
X88797648Y-110459500D01*
X88773329Y-110463351D01*
X88595465Y-110491522D01*
X88400776Y-110554781D01*
X88218386Y-110647715D01*
X88052786Y-110768028D01*
X87908028Y-110912786D01*
X87787715Y-111078386D01*
X87694781Y-111260776D01*
X87631522Y-111455465D01*
X87599500Y-111657648D01*
X87599500Y-111862351D01*
X87631522Y-112064534D01*
X87694781Y-112259223D01*
X87758691Y-112384653D01*
X87777565Y-112421694D01*
X87787715Y-112441613D01*
X87908028Y-112607213D01*
X88052786Y-112751971D01*
X88173657Y-112839787D01*
X88218390Y-112872287D01*
X88331668Y-112930005D01*
X88400776Y-112965218D01*
X88400778Y-112965218D01*
X88400781Y-112965220D01*
X88595466Y-113028477D01*
X88795399Y-113060143D01*
X88826189Y-113074739D01*
X88857203Y-113088903D01*
X88857700Y-113089677D01*
X88858533Y-113090072D01*
X88876551Y-113119010D01*
X88894977Y-113147681D01*
X88895149Y-113148878D01*
X88895464Y-113149384D01*
X88900000Y-113182616D01*
X88900000Y-113257980D01*
X88880315Y-113325019D01*
X88863681Y-113345661D01*
X87336890Y-114872451D01*
X87336884Y-114872458D01*
X87284883Y-114950285D01*
X87284883Y-114950286D01*
X87260223Y-114987191D01*
X87260222Y-114987193D01*
X87207421Y-115114667D01*
X87207418Y-115114677D01*
X87180500Y-115250004D01*
X87180500Y-120723381D01*
X87160815Y-120790420D01*
X87108011Y-120836175D01*
X87038853Y-120846119D01*
X86983617Y-120823701D01*
X86962199Y-120808141D01*
X86961610Y-120807713D01*
X86898355Y-120775483D01*
X86779223Y-120714781D01*
X86584534Y-120651522D01*
X86409995Y-120623878D01*
X86382352Y-120619500D01*
X86177648Y-120619500D01*
X86153329Y-120623351D01*
X85975465Y-120651522D01*
X85780776Y-120714781D01*
X85598386Y-120807715D01*
X85432786Y-120928028D01*
X85288028Y-121072786D01*
X85167715Y-121238386D01*
X85074781Y-121420776D01*
X85011522Y-121615465D01*
X84981993Y-121801908D01*
X84979500Y-121817648D01*
X84979500Y-122022352D01*
X84981993Y-122038092D01*
X85011522Y-122224534D01*
X85074781Y-122419223D01*
X85138691Y-122544653D01*
X85167585Y-122601359D01*
X85167715Y-122601613D01*
X85288028Y-122767213D01*
X85432784Y-122911969D01*
X85528385Y-122981426D01*
X85571051Y-123036755D01*
X85579500Y-123081744D01*
X85579500Y-124336000D01*
X85559815Y-124403039D01*
X85507011Y-124448794D01*
X85455500Y-124460000D01*
X84782019Y-124460000D01*
X84714980Y-124440315D01*
X84694338Y-124423681D01*
X84186546Y-123915888D01*
X84186545Y-123915887D01*
X84071807Y-123839222D01*
X83944332Y-123786421D01*
X83944322Y-123786418D01*
X83808996Y-123759500D01*
X83808994Y-123759500D01*
X83808993Y-123759500D01*
X72517064Y-123759500D01*
X72450025Y-123739815D01*
X72413273Y-123702264D01*
X72413081Y-123702404D01*
X72412133Y-123701100D01*
X72411331Y-123700280D01*
X72410218Y-123698463D01*
X72390023Y-123670667D01*
X72275786Y-123513434D01*
X72114066Y-123351714D01*
X72022178Y-123284953D01*
X71979513Y-123229624D01*
X71971446Y-123174908D01*
X71975087Y-123128639D01*
X71290235Y-122443787D01*
X71332292Y-122432518D01*
X71457708Y-122360110D01*
X71560110Y-122257708D01*
X71632518Y-122132292D01*
X71643787Y-122090236D01*
X72336163Y-122782612D01*
X72336163Y-122782611D01*
X72409788Y-122681276D01*
X72513582Y-122477568D01*
X72584234Y-122260125D01*
X72584234Y-122260124D01*
X72620000Y-122034313D01*
X72620000Y-121817682D01*
X74980000Y-121817682D01*
X74980000Y-122022317D01*
X75012009Y-122224417D01*
X75075244Y-122419031D01*
X75168141Y-122601350D01*
X75168147Y-122601359D01*
X75200523Y-122645921D01*
X75200524Y-122645922D01*
X75880000Y-121966446D01*
X75880000Y-121972661D01*
X75907259Y-122074394D01*
X75959920Y-122165606D01*
X76034394Y-122240080D01*
X76125606Y-122292741D01*
X76227339Y-122320000D01*
X76233553Y-122320000D01*
X75554076Y-122999474D01*
X75598650Y-123031859D01*
X75780968Y-123124755D01*
X75975582Y-123187990D01*
X76177683Y-123220000D01*
X76382317Y-123220000D01*
X76584417Y-123187990D01*
X76779031Y-123124755D01*
X76961349Y-123031859D01*
X77005921Y-122999474D01*
X76326447Y-122320000D01*
X76332661Y-122320000D01*
X76434394Y-122292741D01*
X76525606Y-122240080D01*
X76600080Y-122165606D01*
X76652741Y-122074394D01*
X76680000Y-121972661D01*
X76680000Y-121966447D01*
X77359474Y-122645921D01*
X77391859Y-122601349D01*
X77484755Y-122419031D01*
X77547990Y-122224417D01*
X77580000Y-122022317D01*
X77580000Y-121817682D01*
X77547990Y-121615582D01*
X77484755Y-121420968D01*
X77391859Y-121238650D01*
X77359474Y-121194077D01*
X77359474Y-121194076D01*
X76680000Y-121873551D01*
X76680000Y-121867339D01*
X76652741Y-121765606D01*
X76600080Y-121674394D01*
X76525606Y-121599920D01*
X76434394Y-121547259D01*
X76332661Y-121520000D01*
X76326446Y-121520000D01*
X77005922Y-120840524D01*
X77005921Y-120840523D01*
X76961359Y-120808147D01*
X76961350Y-120808141D01*
X76779031Y-120715244D01*
X76584417Y-120652009D01*
X76382317Y-120620000D01*
X76177683Y-120620000D01*
X75975582Y-120652009D01*
X75780968Y-120715244D01*
X75598644Y-120808143D01*
X75554077Y-120840523D01*
X75554077Y-120840524D01*
X76233554Y-121520000D01*
X76227339Y-121520000D01*
X76125606Y-121547259D01*
X76034394Y-121599920D01*
X75959920Y-121674394D01*
X75907259Y-121765606D01*
X75880000Y-121867339D01*
X75880000Y-121873553D01*
X75200524Y-121194077D01*
X75200523Y-121194077D01*
X75168143Y-121238644D01*
X75075244Y-121420968D01*
X75012009Y-121615582D01*
X74980000Y-121817682D01*
X72620000Y-121817682D01*
X72620000Y-121805686D01*
X72584234Y-121579875D01*
X72584234Y-121579874D01*
X72513582Y-121362431D01*
X72409790Y-121158727D01*
X72336163Y-121057386D01*
X71643786Y-121749763D01*
X71632518Y-121707708D01*
X71560110Y-121582292D01*
X71457708Y-121479890D01*
X71332292Y-121407482D01*
X71290235Y-121396212D01*
X71886346Y-120800102D01*
X71975088Y-120711359D01*
X71928776Y-120677711D01*
X71725068Y-120573917D01*
X71507624Y-120503265D01*
X71281813Y-120467500D01*
X70958187Y-120467500D01*
X70732375Y-120503265D01*
X70732374Y-120503265D01*
X70514931Y-120573917D01*
X70311227Y-120677709D01*
X70264911Y-120711359D01*
X70949764Y-121396212D01*
X70907708Y-121407482D01*
X70782292Y-121479890D01*
X70679890Y-121582292D01*
X70607482Y-121707708D01*
X70596212Y-121749764D01*
X69903835Y-121057387D01*
X69903834Y-121057387D01*
X69830212Y-121158722D01*
X69726417Y-121362431D01*
X69655765Y-121579874D01*
X69655765Y-121579875D01*
X69620000Y-121805686D01*
X69620000Y-122034313D01*
X69655765Y-122260124D01*
X69655765Y-122260125D01*
X69726417Y-122477568D01*
X69830210Y-122681274D01*
X69903835Y-122782611D01*
X70596212Y-122090234D01*
X70607482Y-122132292D01*
X70679890Y-122257708D01*
X70782292Y-122360110D01*
X70907708Y-122432518D01*
X70949764Y-122443787D01*
X70264910Y-123128639D01*
X70268552Y-123174908D01*
X70254187Y-123243285D01*
X70217820Y-123284953D01*
X70125940Y-123351709D01*
X70125931Y-123351716D01*
X69964216Y-123513431D01*
X69964216Y-123513432D01*
X69964214Y-123513434D01*
X69906480Y-123592896D01*
X69829783Y-123698461D01*
X69725950Y-123902244D01*
X69655278Y-124119750D01*
X69655278Y-124119753D01*
X69619499Y-124345648D01*
X69619493Y-124345734D01*
X69619481Y-124345764D01*
X69618738Y-124350458D01*
X69617751Y-124350301D01*
X69594607Y-124411022D01*
X69538374Y-124452490D01*
X69495876Y-124460000D01*
X68704000Y-124460000D01*
X68636961Y-124440315D01*
X68591206Y-124387511D01*
X68580000Y-124336000D01*
X68580000Y-119504000D01*
X68599685Y-119436961D01*
X68652489Y-119391206D01*
X68704000Y-119380000D01*
X74930000Y-119380000D01*
X91403681Y-102906319D01*
X91465004Y-102872834D01*
X91491362Y-102870000D01*
X115446000Y-102870000D01*
X115513039Y-102889685D01*
G37*
%TD.AperFunction*%
%TD*%
%TA.AperFunction,Conductor*%
%TO.N,+3.3V*%
G36*
X110859500Y-128549953D02*
G01*
X110839815Y-128616992D01*
X110823181Y-128637634D01*
X110768032Y-128692782D01*
X110768028Y-128692786D01*
X110647715Y-128858386D01*
X110600485Y-128951080D01*
X110552510Y-129001876D01*
X110484689Y-129018671D01*
X110418554Y-128996134D01*
X110379515Y-128951080D01*
X110378883Y-128949840D01*
X110332287Y-128858390D01*
X110324556Y-128847749D01*
X110211971Y-128692786D01*
X110067213Y-128548028D01*
X109901613Y-128427715D01*
X109901612Y-128427714D01*
X109901610Y-128427713D01*
X109828709Y-128390568D01*
X109719223Y-128334781D01*
X109524534Y-128271522D01*
X109349995Y-128243878D01*
X109322352Y-128239500D01*
X109117648Y-128239500D01*
X109093329Y-128243351D01*
X108915465Y-128271522D01*
X108720776Y-128334781D01*
X108538386Y-128427715D01*
X108372786Y-128548028D01*
X108228028Y-128692786D01*
X108107715Y-128858386D01*
X108060485Y-128951080D01*
X108012510Y-129001876D01*
X107944689Y-129018671D01*
X107878554Y-128996134D01*
X107839515Y-128951080D01*
X107838883Y-128949840D01*
X107792287Y-128858390D01*
X107784556Y-128847749D01*
X107671971Y-128692786D01*
X107527213Y-128548028D01*
X107361613Y-128427715D01*
X107361612Y-128427714D01*
X107361610Y-128427713D01*
X107288709Y-128390568D01*
X107179223Y-128334781D01*
X106984534Y-128271522D01*
X106809995Y-128243878D01*
X106782352Y-128239500D01*
X106577648Y-128239500D01*
X106553329Y-128243351D01*
X106375465Y-128271522D01*
X106180776Y-128334781D01*
X105998386Y-128427715D01*
X105832786Y-128548028D01*
X105688028Y-128692786D01*
X105567715Y-128858386D01*
X105520485Y-128951080D01*
X105472510Y-129001876D01*
X105404689Y-129018671D01*
X105338554Y-128996134D01*
X105299515Y-128951080D01*
X105298883Y-128949840D01*
X105252287Y-128858390D01*
X105244556Y-128847749D01*
X105131971Y-128692786D01*
X104987213Y-128548028D01*
X104821613Y-128427715D01*
X104821612Y-128427714D01*
X104821610Y-128427713D01*
X104748709Y-128390568D01*
X104639223Y-128334781D01*
X104444534Y-128271522D01*
X104269995Y-128243878D01*
X104242352Y-128239500D01*
X104037648Y-128239500D01*
X104013329Y-128243351D01*
X103835465Y-128271522D01*
X103640776Y-128334781D01*
X103458386Y-128427715D01*
X103292786Y-128548028D01*
X103148028Y-128692786D01*
X103027715Y-128858386D01*
X102980485Y-128951080D01*
X102932510Y-129001876D01*
X102864689Y-129018671D01*
X102798554Y-128996134D01*
X102759515Y-128951080D01*
X102758883Y-128949840D01*
X102712287Y-128858390D01*
X102704556Y-128847749D01*
X102591971Y-128692786D01*
X102447213Y-128548028D01*
X102281613Y-128427715D01*
X102281612Y-128427714D01*
X102281610Y-128427713D01*
X102208709Y-128390568D01*
X102099223Y-128334781D01*
X101904534Y-128271522D01*
X101729995Y-128243878D01*
X101702352Y-128239500D01*
X101497648Y-128239500D01*
X101473329Y-128243351D01*
X101295465Y-128271522D01*
X101100776Y-128334781D01*
X100918386Y-128427715D01*
X100752786Y-128548028D01*
X100608028Y-128692786D01*
X100487715Y-128858386D01*
X100424465Y-128982520D01*
X100376490Y-129033316D01*
X100308669Y-129050111D01*
X100285033Y-129046799D01*
X100265093Y-129042011D01*
X99767104Y-129540000D01*
X99460000Y-129540000D01*
X99460000Y-129487339D01*
X99432741Y-129385606D01*
X99380080Y-129294394D01*
X99305606Y-129219920D01*
X99214394Y-129167259D01*
X99112661Y-129140000D01*
X99007339Y-129140000D01*
X98905606Y-129167259D01*
X98814394Y-129219920D01*
X98739920Y-129294394D01*
X98687259Y-129385606D01*
X98660000Y-129487339D01*
X98660000Y-129540000D01*
X98352893Y-129540000D01*
X97856818Y-129043924D01*
X97823333Y-128982601D01*
X97820499Y-128956243D01*
X97820499Y-128692129D01*
X97820498Y-128692123D01*
X97820497Y-128692116D01*
X97814091Y-128632517D01*
X97802453Y-128601315D01*
X97763797Y-128497671D01*
X97763795Y-128497668D01*
X97763792Y-128497664D01*
X97677546Y-128382454D01*
X97614029Y-128334905D01*
X97614028Y-128334904D01*
X98562011Y-128334904D01*
X99060000Y-128832893D01*
X99060001Y-128832893D01*
X99557987Y-128334905D01*
X99557987Y-128334904D01*
X99364419Y-128272010D01*
X99162317Y-128240000D01*
X98957683Y-128240000D01*
X98755581Y-128272010D01*
X98755578Y-128272010D01*
X98562011Y-128334904D01*
X97614028Y-128334904D01*
X97562335Y-128296206D01*
X97562328Y-128296202D01*
X97427482Y-128245908D01*
X97427483Y-128245908D01*
X97367883Y-128239501D01*
X97367881Y-128239500D01*
X97367873Y-128239500D01*
X97367864Y-128239500D01*
X95672129Y-128239500D01*
X95672123Y-128239501D01*
X95612516Y-128245908D01*
X95477671Y-128296202D01*
X95477664Y-128296206D01*
X95362455Y-128382452D01*
X95362452Y-128382455D01*
X95276206Y-128497664D01*
X95276202Y-128497671D01*
X95225908Y-128632517D01*
X95219501Y-128692116D01*
X95219501Y-128692123D01*
X95219500Y-128692135D01*
X95219500Y-129798480D01*
X95199815Y-129865519D01*
X95183181Y-129886161D01*
X92434340Y-132635001D01*
X92373017Y-132668486D01*
X92308341Y-132665251D01*
X92204537Y-132631523D01*
X92052897Y-132607505D01*
X92002352Y-132599500D01*
X91797648Y-132599500D01*
X91773329Y-132603351D01*
X91595465Y-132631522D01*
X91400776Y-132694781D01*
X91218386Y-132787715D01*
X91052786Y-132908028D01*
X90908028Y-133052786D01*
X90787715Y-133218386D01*
X90694781Y-133400776D01*
X90631522Y-133595465D01*
X90599500Y-133797648D01*
X90599500Y-133856244D01*
X90579815Y-133923283D01*
X90563181Y-133943925D01*
X90341234Y-134165872D01*
X90279911Y-134199357D01*
X90210219Y-134194373D01*
X90165872Y-134165872D01*
X90147487Y-134147487D01*
X90180070Y-134114905D01*
X90226148Y-134035095D01*
X90250000Y-133946078D01*
X90250000Y-133853922D01*
X90226148Y-133764905D01*
X90180070Y-133685095D01*
X90114905Y-133619930D01*
X90035095Y-133573852D01*
X89946078Y-133550000D01*
X89853922Y-133550000D01*
X89764905Y-133573852D01*
X89685095Y-133619930D01*
X89619930Y-133685095D01*
X89573852Y-133764905D01*
X89550000Y-133853922D01*
X89550000Y-133946078D01*
X89573852Y-134035095D01*
X89619930Y-134114905D01*
X89652512Y-134147487D01*
X89634128Y-134165872D01*
X89572805Y-134199357D01*
X89503113Y-134194373D01*
X89458766Y-134165872D01*
X89236819Y-133943925D01*
X89203334Y-133882602D01*
X89200500Y-133856244D01*
X89200500Y-133797648D01*
X89168477Y-133595465D01*
X89105218Y-133400776D01*
X89071503Y-133334607D01*
X89012287Y-133218390D01*
X89004556Y-133207749D01*
X88891971Y-133052786D01*
X88747217Y-132908032D01*
X88747212Y-132908028D01*
X88651615Y-132838573D01*
X88648274Y-132834241D01*
X88643297Y-132831968D01*
X88627164Y-132806865D01*
X88608949Y-132783243D01*
X88607696Y-132776571D01*
X88605523Y-132773190D01*
X88600500Y-132738255D01*
X88600500Y-132694904D01*
X89402011Y-132694904D01*
X89900000Y-133192893D01*
X89900001Y-133192893D01*
X90397987Y-132694905D01*
X90397987Y-132694904D01*
X90204419Y-132632010D01*
X90002317Y-132600000D01*
X89797683Y-132600000D01*
X89595581Y-132632010D01*
X89595578Y-132632010D01*
X89402011Y-132694904D01*
X88600500Y-132694904D01*
X88600500Y-130744304D01*
X88620185Y-130677265D01*
X88636819Y-130656623D01*
X89226112Y-130067330D01*
X89226114Y-130067328D01*
X89302775Y-129952596D01*
X89307993Y-129940000D01*
X89345337Y-129849842D01*
X89355580Y-129825113D01*
X89382500Y-129689779D01*
X89382500Y-129551791D01*
X89382500Y-125730000D01*
X110859500Y-125730000D01*
X110859500Y-128549953D01*
G37*
%TD.AperFunction*%
%TD*%
M02*
