M48
; DRILL file {KiCad 9.0.7} date 2026-03-26T11:44:11+0200
; FORMAT={-:-/ absolute / inch / decimal}
; #@! TF.CreationDate,2026-03-26T11:44:11+02:00
; #@! TF.GenerationSoftware,Kicad,Pcbnew,9.0.7
; #@! TF.FileFunction,MixedPlating,1,2
FMAT,2
INCH
; #@! TA.AperFunction,Plated,PTH,ComponentDrill
T1C0.0315
; #@! TA.AperFunction,Plated,PTH,ComponentDrill
T2C0.0354
; #@! TA.AperFunction,Plated,PTH,ComponentDrill
T3C0.0374
; #@! TA.AperFunction,Plated,PTH,ViaDrill
T4C0.0394
; #@! TA.AperFunction,Plated,PTH,ComponentDrill
T5C0.0394
; #@! TA.AperFunction,Plated,PTH,ComponentDrill
T6C0.0433
; #@! TA.AperFunction,Plated,PTH,ComponentDrill
T7C0.0472
; #@! TA.AperFunction,Plated,PTH,ComponentDrill
T8C0.0512
; #@! TA.AperFunction,Plated,PTH,ComponentDrill
T9C0.0630
; #@! TA.AperFunction,Plated,PTH,ViaDrill
T10C0.0787
; #@! TA.AperFunction,Plated,PTH,ComponentDrill
T11C0.0787
; #@! TA.AperFunction,Plated,PTH,ViaDrill
T12C0.1260
%
G90
G05
T1
X2.4Y-5.0
X2.4Y-5.2
X2.95Y-5.25
X2.95Y-5.3974
X3.2Y-4.325
X3.2Y-4.625
X3.2Y-4.8
X3.2Y-5.0
X3.3Y-4.325
X3.3Y-4.625
X3.35Y-5.25
X3.35Y-5.3974
X3.4Y-4.325
X3.4Y-4.625
X3.55Y-4.35
X3.5971Y-5.792
X3.5971Y-5.942
X3.5971Y-6.092
X3.5971Y-6.242
X3.6Y-4.8
X3.6Y-5.0
X3.8Y-4.5
X3.9Y-4.2
X3.95Y-4.35
X3.9971Y-5.792
X3.9971Y-5.942
X3.9971Y-6.092
X3.9971Y-6.242
X4.15Y-5.875
X4.15Y-6.025
X4.15Y-6.175
X4.15Y-6.325
X4.2Y-4.5
X4.3Y-4.2
X4.55Y-5.875
X4.55Y-6.025
X4.55Y-6.175
X4.55Y-6.325
X4.6Y-3.9
X4.6Y-4.4
X4.7Y-3.9
X4.7Y-4.4
X4.8Y-3.9
X4.8Y-4.4
X4.9Y-3.9
X4.9Y-4.4
X5.0Y-3.9
X5.0Y-4.4
X5.1Y-3.9
X5.1Y-4.4
X5.2Y-3.9
X5.2Y-4.4
X5.3Y-3.9
X5.3Y-4.4
X5.3469Y-5.7
T2
X1.925Y-4.85
X1.9349Y-5.4
X2.325Y-4.85
X2.3349Y-5.4
X3.45Y-6.05
X3.45Y-6.45
T3
X1.7Y-4.95
X1.7Y-5.0484
X1.7Y-5.3
X1.7Y-5.3984
X2.7516Y-3.6
X2.85Y-3.6
X3.1159Y-3.6
X3.2144Y-3.6
X3.475Y-3.6
X3.5734Y-3.6
X3.6719Y-3.6
X3.7703Y-3.6
X3.9266Y-6.55
X4.025Y-6.55
X4.1516Y-3.6
X4.25Y-3.6
X4.275Y-6.55
X4.3734Y-6.55
X4.5047Y-3.6
X4.6031Y-3.6
X4.6106Y-6.55
X4.7016Y-3.6
X4.7091Y-6.55
X4.8Y-3.6
X4.8075Y-6.55
X5.0047Y-5.925
X5.0071Y-6.225
X5.1031Y-5.925
X5.1055Y-6.225
X5.2016Y-5.925
X5.2039Y-6.225
X5.3Y-5.925
X5.3024Y-6.225
T4
X3.35Y-3.6
T5
X2.7131Y-6.1036
X2.7131Y-6.2036
X2.7131Y-6.3036
X2.8Y-5.0
X2.8Y-5.2
X2.85Y-5.6068
X2.95Y-4.15
X2.95Y-4.25
X2.95Y-4.35
X2.95Y-4.45
X2.95Y-4.55
X2.95Y-4.65
X3.0762Y-6.1036
X3.0762Y-6.2036
X3.0762Y-6.3036
X3.55Y-4.65
X3.55Y-5.55
X3.65Y-4.65
X3.65Y-5.55
X3.75Y-4.65
X3.75Y-5.55
X3.85Y-4.65
X3.85Y-5.55
X3.95Y-4.65
X3.95Y-5.55
X4.05Y-4.65
X4.05Y-5.55
X4.15Y-4.65
X4.15Y-5.55
X4.25Y-4.65
X4.25Y-5.55
X4.35Y-4.65
X4.35Y-5.55
X4.45Y-4.65
X4.45Y-5.55
X4.55Y-4.65
X4.55Y-5.55
X4.65Y-4.65
X4.65Y-5.55
X4.75Y-4.65
X4.75Y-5.55
X4.85Y-4.65
X4.85Y-5.55
X4.95Y-4.65
X4.95Y-5.55
X4.9531Y-5.7
X5.05Y-4.65
X5.05Y-5.55
X5.15Y-4.65
X5.15Y-5.55
X5.25Y-4.65
X5.25Y-5.55
X5.35Y-4.65
X5.35Y-5.55
T6
X2.0Y-5.0
X2.0Y-5.2
X2.1Y-5.0
X2.1Y-5.2
X2.2Y-5.0
X2.2Y-5.2
T7
X2.8106Y-6.6509
X2.9106Y-6.6509
X3.0757Y-6.6509
X3.1757Y-6.6509
X3.3606Y-6.6509
X3.4606Y-6.6509
X5.025Y-3.6
X5.125Y-3.6
T8
X1.7Y-6.0031
X1.7Y-6.2
X1.8654Y-6.4516
X1.8654Y-6.6484
X2.5346Y-6.4516
X2.5346Y-6.6484
T9
X1.9882Y-5.95
X2.5Y-5.95
T10
X1.825Y-5.75
X1.9Y-5.1
X3.6106Y-6.6509
X3.8Y-4.9
X4.6Y-4.15
X5.025Y-6.475
X5.45Y-3.8
T11
X2.85Y-5.8036
T12
X1.65Y-3.55
X1.65Y-6.7
X5.4Y-3.55
X5.4Y-6.7
M30
