M48
; DRILL file {KiCad 9.0.7} date 2026-03-18T16:20:16+0200
; FORMAT={-:-/ absolute / metric / decimal}
; #@! TF.CreationDate,2026-03-18T16:20:16+02:00
; #@! TF.GenerationSoftware,Kicad,Pcbnew,9.0.7
; #@! TF.FileFunction,MixedPlating,1,2
FMAT,2
METRIC
; #@! TA.AperFunction,Plated,PTH,ComponentDrill
T1C0.700
; #@! TA.AperFunction,Plated,PTH,ComponentDrill
T2C0.750
; #@! TA.AperFunction,Plated,PTH,ComponentDrill
T3C0.800
; #@! TA.AperFunction,Plated,PTH,ComponentDrill
T4C0.900
; #@! TA.AperFunction,Plated,PTH,ComponentDrill
T5C0.950
; #@! TA.AperFunction,Plated,PTH,ViaDrill
T6C1.000
; #@! TA.AperFunction,Plated,PTH,ComponentDrill
T7C1.000
; #@! TA.AperFunction,Plated,PTH,ComponentDrill
T8C1.100
; #@! TA.AperFunction,Plated,PTH,ComponentDrill
T9C1.170
; #@! TA.AperFunction,Plated,PTH,ComponentDrill
T10C1.200
; #@! TA.AperFunction,Plated,PTH,ComponentDrill
T11C1.600
; #@! TA.AperFunction,Plated,PTH,ViaDrill
T12C2.000
; #@! TA.AperFunction,Plated,PTH,ViaDrill
T13C3.200
; #@! TA.AperFunction,NonPlated,NPTH,ComponentDrill
T14C2.032
%
G90
G05
T1
X109.57Y-91.44
X111.57Y-91.44
X113.57Y-91.44
X115.57Y-91.44
X118.92Y-116.84
X118.92Y-135.89
X119.19Y-123.19
X120.92Y-116.84
X120.92Y-135.89
X121.19Y-123.19
X122.92Y-116.84
X122.92Y-135.89
X123.19Y-123.19
X124.92Y-116.84
X124.92Y-135.89
T2
X48.8Y-90.17
X50.8Y-90.17
X68.58Y-90.17
X70.58Y-90.17
X102.14Y-90.17
X104.14Y-90.17
X119.38Y-129.54
X121.38Y-129.54
T3
X64.61Y-113.03
X77.47Y-102.8
X82.55Y-99.06
X82.55Y-106.61
X87.63Y-95.25
X92.71Y-99.06
X92.71Y-106.61
X103.06Y-97.79
X103.06Y-110.49
X105.6Y-97.79
X105.6Y-110.49
X108.14Y-97.79
X108.14Y-110.49
X110.68Y-97.79
X110.68Y-110.49
X113.22Y-97.79
X113.22Y-110.49
X115.76Y-97.79
X115.76Y-110.49
X118.3Y-97.79
X118.3Y-110.49
X120.84Y-97.79
X120.84Y-110.49
T4
X43.18Y-95.25
X53.34Y-95.25
X73.66Y-93.98
X83.82Y-93.98
T5
X102.91Y-144.78
X105.41Y-144.78
X107.91Y-144.78
X110.41Y-144.78
T6
X60.96Y-91.44
X97.79Y-141.605
X104.14Y-104.14
X123.825Y-96.52
X124.92Y-128.27
T7
X54.61Y-113.03
X57.23Y-105.41
X62.23Y-105.41
X67.31Y-109.22
X68.58Y-99.06
X68.58Y-101.6
X68.58Y-104.14
X68.58Y-114.3
X68.58Y-137.16
X71.12Y-114.3
X71.12Y-137.16
X73.66Y-114.3
X73.66Y-137.16
X74.93Y-109.22
X76.2Y-114.3
X76.2Y-137.16
X78.74Y-114.3
X78.74Y-137.16
X81.28Y-90.17
X81.28Y-114.3
X81.28Y-137.16
X83.82Y-90.17
X83.82Y-114.3
X83.82Y-137.16
X86.36Y-90.17
X86.36Y-114.3
X86.36Y-137.16
X87.63Y-102.8
X88.9Y-90.17
X88.9Y-114.3
X88.9Y-137.16
X91.44Y-90.17
X91.44Y-114.3
X91.44Y-137.16
X93.98Y-90.17
X93.98Y-114.3
X93.98Y-137.16
X96.52Y-114.3
X96.52Y-137.16
X97.79Y-95.25
X99.06Y-114.3
X99.06Y-137.16
X101.6Y-114.3
X101.6Y-137.16
X104.14Y-114.3
X104.14Y-137.16
X106.68Y-114.3
X106.68Y-137.16
X109.22Y-114.3
X109.22Y-137.16
X111.76Y-114.3
X111.76Y-137.16
X114.3Y-114.3
X114.3Y-137.16
T8
X58.42Y-91.44
X58.42Y-93.98
X58.42Y-96.52
X63.5Y-91.44
X63.5Y-93.98
X63.5Y-96.52
T9
X40.72Y-118.09
X40.72Y-135.89
X45.72Y-118.09
X45.72Y-135.89
T10
X64.77Y-144.78
X67.31Y-144.78
X76.2Y-142.24
X78.74Y-142.24
X81.28Y-142.24
X90.17Y-144.78
X92.71Y-144.78
X120.65Y-91.44
X123.19Y-91.44
T11
X49.53Y-127.0
X62.53Y-127.0
T12
X49.53Y-118.11
T13
X40.64Y-88.9
X40.64Y-147.32
X125.73Y-101.6
X125.73Y-147.32
T14
X43.43Y-107.95
X48.002Y-107.95
M30
